999
dxflib 2.2.0.0
  0
SECTION
  2
HEADER
  9
$ACADVER
  1
AC1015
  9
$HANDSEED
  5
FFFF
  9
$DIMASZ
 40
2.5
  9
$PLIMMIN
 10
0.0
 20
0.0
  9
$DIMEXE
 40
1.25
  9
$DIMGAP
 40
0.625
  9
$PLIMMAX
 10
210.0
 20
297.0
  9
$INSUNITS
 70
4
  9
$DIMSTYLE
  2
Standard
  9
$CLAYER
  8
pushbar
  9
$DIMEXO
 40
0.625
  9
$DIMTXT
 40
2.5
  9
$CLAYER
  8
0
  0
ENDSEC
  0
SECTION
  2
TABLES
  0
TABLE
  2
VPORT
  5
8
100
AcDbSymbolTable
 70
1
  0
VPORT
  5
30
100
AcDbSymbolTableRecord
100
AcDbViewportTableRecord
  2
*Active
 70
0
 10
0.0
 20
0.0
 11
1.0
 21
1.0
 12
286.3055555555554861
 22
148.5
 13
0.0
 23
0.0
 14
10.0
 24
10.0
 15
10.0
 25
10.0
 16
0.0
 26
0.0
 36
1.0
 17
0.0
 27
0.0
 37
0.0
 40
297.0
 41
1.92798353909465
 42
50.0
 43
0.0
 44
0.0
 50
0.0
 51
0.0
 71
0
 72
100
 73
1
 74
3
 75
1
 76
1
 77
0
 78
0
281
0
 65
1
110
0.0
120
0.0
130
0.0
111
1.0
121
0.0
131
0.0
112
0.0
122
1.0
132
0.0
 79
0
146
0.0
  0
ENDTAB
  0
TABLE
  2
LTYPE
  5
5
100
AcDbSymbolTable
 70
21
  0
LTYPE
  5
14
100
AcDbSymbolTableRecord
100
AcDbLinetypeTableRecord
  2
ByBlock
 70
0
  3

 72
65
 73
0
 40
0.0
  0
LTYPE
  5
15
100
AcDbSymbolTableRecord
100
AcDbLinetypeTableRecord
  2
ByLayer
 70
0
  3

 72
65
 73
0
 40
0.0
  0
LTYPE
  5
16
100
AcDbSymbolTableRecord
100
AcDbLinetypeTableRecord
  2
CONTINUOUS
 70
0
  3
Solid line
 72
65
 73
0
 40
0.0
  0
LTYPE
  5
31
100
AcDbSymbolTableRecord
100
AcDbLinetypeTableRecord
  2
DOT
 70
0
  3
Dot . . . . . . . . . . . . . . . . . . . . . .
 72
65
 73
2
 40
6.3499999999999996
 49
0.0
 74
0
 49
-6.3499999999999996
 74
0
  0
LTYPE
  5
32
100
AcDbSymbolTableRecord
100
AcDbLinetypeTableRecord
  2
DOT2
 70
0
  3
Dot (.5x) .....................................
 72
65
 73
2
 40
3.1749999999999998
 49
0.0
 74
0
 49
-3.1749999999999998
 74
0
  0
LTYPE
  5
33
100
AcDbSymbolTableRecord
100
AcDbLinetypeTableRecord
  2
DOTX2
 70
0
  3
Dot (2x) .  .  .  .  .  .  .  .  .  .  .  .  .
 72
65
 73
2
 40
12.6999999999999993
 49
0.0
 74
0
 49
-12.6999999999999993
 74
0
  0
LTYPE
  5
34
100
AcDbSymbolTableRecord
100
AcDbLinetypeTableRecord
  2
DASHED
 70
0
  3
Dashed __ __ __ __ __ __ __ __ __ __ __ __ __ _
 72
65
 73
2
 40
19.0500000000000007
 49
12.6999999999999993
 74
0
 49
-6.3499999999999996
 74
0
  0
LTYPE
  5
35
100
AcDbSymbolTableRecord
100
AcDbLinetypeTableRecord
  2
DASHED2
 70
0
  3
Dashed (.5x) _ _ _ _ _ _ _ _ _ _ _ _ _ _ _ _ _
 72
65
 73
2
 40
9.5250000000000004
 49
6.3499999999999996
 74
0
 49
-3.1749999999999998
 74
0
  0
LTYPE
  5
36
100
AcDbSymbolTableRecord
100
AcDbLinetypeTableRecord
  2
DASHEDX2
 70
0
  3
Dashed (2x) ____  ____  ____  ____  ____  ___
 72
65
 73
2
 40
38.1000000000000014
 49
25.3999999999999986
 74
0
 49
-12.6999999999999993
 74
0
  0
LTYPE
  5
37
100
AcDbSymbolTableRecord
100
AcDbLinetypeTableRecord
  2
DASHDOT
 70
0
  3
Dash dot __ . __ . __ . __ . __ . __ . __ . __
 72
65
 73
4
 40
25.3999999999999986
 49
12.6999999999999993
 74
0
 49
-6.3499999999999996
 74
0
 49
0.0
 74
0
 49
-6.3499999999999996
 74
0
  0
LTYPE
  5
38
100
AcDbSymbolTableRecord
100
AcDbLinetypeTableRecord
  2
DASHDOT2
 70
0
  3
Dash dot (.5x) _._._._._._._._._._._._._._._.
 72
65
 73
4
 40
12.6999999999999993
 49
6.3499999999999996
 74
0
 49
-3.1749999999999998
 74
0
 49
0.0
 74
0
 49
-3.1749999999999998
 74
0
  0
LTYPE
  5
39
100
AcDbSymbolTableRecord
100
AcDbLinetypeTableRecord
  2
DASHDOTX2
 70
0
  3
Dash dot (2x) ____  .  ____  .  ____  .  ___
 72
65
 73
4
 40
50.7999999999999972
 49
25.3999999999999986
 74
0
 49
-12.6999999999999993
 74
0
 49
0.0
 74
0
 49
-12.6999999999999993
 74
0
  0
LTYPE
  5
3A
100
AcDbSymbolTableRecord
100
AcDbLinetypeTableRecord
  2
DIVIDE
 70
0
  3
Divide ____ . . ____ . . ____ . . ____ . . ____
 72
65
 73
6
 40
31.75
 49
12.6999999999999993
 74
0
 49
-6.3499999999999996
 74
0
 49
0.0
 74
0
 49
-6.3499999999999996
 74
0
 49
0.0
 74
0
 49
-6.3499999999999996
 74
0
  0
LTYPE
  5
3B
100
AcDbSymbolTableRecord
100
AcDbLinetypeTableRecord
  2
DIVIDE2
 70
0
  3
Divide (.5x) __..__..__..__..__..__..__..__.._
 72
65
 73
6
 40
15.875
 49
6.3499999999999996
 74
0
 49
-3.1749999999999998
 74
0
 49
0.0
 74
0
 49
-3.1749999999999998
 74
0
 49
0.0
 74
0
 49
-3.1749999999999998
 74
0
  0
LTYPE
  5
3C
100
AcDbSymbolTableRecord
100
AcDbLinetypeTableRecord
  2
DIVIDEX2
 70
0
  3
Divide (2x) ________  .  .  ________  .  .  _
 72
65
 73
6
 40
63.5
 49
25.3999999999999986
 74
0
 49
-12.6999999999999993
 74
0
 49
0.0
 74
0
 49
-12.6999999999999993
 74
0
 49
0.0
 74
0
 49
-12.6999999999999993
 74
0
  0
LTYPE
  5
3D
100
AcDbSymbolTableRecord
100
AcDbLinetypeTableRecord
  2
CENTER
 70
0
  3
Center ____ _ ____ _ ____ _ ____ _ ____ _ ____
 72
65
 73
4
 40
50.7999999999999972
 49
31.75
 74
0
 49
-6.3499999999999996
 74
0
 49
6.3499999999999996
 74
0
 49
-6.3499999999999996
 74
0
  0
LTYPE
  5
3E
100
AcDbSymbolTableRecord
100
AcDbLinetypeTableRecord
  2
CENTER2
 70
0
  3
Center (.5x) ___ _ ___ _ ___ _ ___ _ ___ _ ___
 72
65
 73
4
 40
28.5749999999999993
 49
19.0500000000000007
 74
0
 49
-3.1749999999999998
 74
0
 49
3.1749999999999998
 74
0
 49
-3.1749999999999998
 74
0
  0
LTYPE
  5
3F
100
AcDbSymbolTableRecord
100
AcDbLinetypeTableRecord
  2
CENTERX2
 70
0
  3
Center (2x) ________  __  ________  __  _____
 72
65
 73
4
 40
101.5999999999999943
 49
63.5
 74
0
 49
-12.6999999999999993
 74
0
 49
12.6999999999999993
 74
0
 49
-12.6999999999999993
 74
0
  0
LTYPE
  5
40
100
AcDbSymbolTableRecord
100
AcDbLinetypeTableRecord
  2
BORDER
 70
0
  3
Border __ __ . __ __ . __ __ . __ __ . __ __ .
 72
65
 73
6
 40
44.4500000000000028
 49
12.6999999999999993
 74
0
 49
-6.3499999999999996
 74
0
 49
12.6999999999999993
 74
0
 49
-6.3499999999999996
 74
0
 49
0.0
 74
0
 49
-6.3499999999999996
 74
0
  0
LTYPE
  5
41
100
AcDbSymbolTableRecord
100
AcDbLinetypeTableRecord
  2
BORDER2
 70
0
  3
Border (.5x) __.__.__.__.__.__.__.__.__.__.__.
 72
65
 73
6
 40
22.2250000000000014
 49
6.3499999999999996
 74
0
 49
-3.1749999999999998
 74
0
 49
6.3499999999999996
 74
0
 49
-3.1749999999999998
 74
0
 49
0.0
 74
0
 49
-3.1749999999999998
 74
0
  0
LTYPE
  5
42
100
AcDbSymbolTableRecord
100
AcDbLinetypeTableRecord
  2
BORDERX2
 70
0
  3
Border (2x) ____  ____  .  ____  ____  .  ___
 72
65
 73
6
 40
88.9000000000000057
 49
25.3999999999999986
 74
0
 49
-12.6999999999999993
 74
0
 49
25.3999999999999986
 74
0
 49
-12.6999999999999993
 74
0
 49
0.0
 74
0
 49
-12.6999999999999993
 74
0
  0
ENDTAB
  0
TABLE
  2
LAYER
  5
2
100
AcDbSymbolTable
 70
5
  0
LAYER
  5
10
100
AcDbSymbolTableRecord
100
AcDbLayerTableRecord
  2
0
 70
0
 62
7
420
0
  6
CONTINUOUS
370
25
390
F
  0
LAYER
  5
43
100
AcDbSymbolTableRecord
100
AcDbLayerTableRecord
  2
bail support
 70
0
 62
7
420
0
  6
CONTINUOUS
370
0
390
F
  0
LAYER
  5
44
100
AcDbSymbolTableRecord
100
AcDbLayerTableRecord
  2
side
 70
0
 62
7
420
0
  6
CONTINUOUS
370
0
390
F
  0
LAYER
  5
45
100
AcDbSymbolTableRecord
100
AcDbLayerTableRecord
  2
bar
 70
0
 62
7
420
0
  6
CONTINUOUS
370
0
390
F
  0
LAYER
  5
46
100
AcDbSymbolTableRecord
100
AcDbLayerTableRecord
  2
pushbar
 70
0
 62
7
420
0
  6
CONTINUOUS
370
0
390
F
  0
ENDTAB
  0
TABLE
  2
STYLE
  5
3
100
AcDbSymbolTable
 70
1
  0
STYLE
  5
11
100
AcDbSymbolTableRecord
100
AcDbTextStyleTableRecord
  2
Standard
 70
0
 40
0.0
 41
0.75
 50
0.0
 71
0
 42
2.5
  3
txt
  4

  0
ENDTAB
  0
TABLE
  2
VIEW
  5
6
100
AcDbSymbolTable
 70
0
  0
ENDTAB
  0
TABLE
  2
UCS
  5
7
100
AcDbSymbolTable
 70
0
  0
ENDTAB
  0
TABLE
  2
APPID
  5
9
100
AcDbSymbolTable
 70
1
  0
APPID
  5
12
100
AcDbSymbolTableRecord
100
AcDbRegAppTableRecord
  2
ACAD
 70
0
  0
ENDTAB
  0
TABLE
  2
DIMSTYLE
  5
A
100
AcDbSymbolTable
 70
1
100
AcDbDimStyleTable
 71
0
  0
DIMSTYLE
105
27
100
AcDbSymbolTableRecord
100
AcDbDimStyleTableRecord
  2
Standard
 41
2.5
 42
0.625
 43
3.75
 44
1.25
 70
0
 73
0
 74
0
 77
1
 78
8
140
2.5
141
2.5
143
0.03937007874016
147
0.625
171
3
172
1
271
2
272
2
274
3
278
44
283
0
284
8
340
11
  0
ENDTAB
  0
TABLE
  2
BLOCK_RECORD
  5
1
100
AcDbSymbolTable
 70
1
  0
BLOCK_RECORD
  5
1F
100
AcDbSymbolTableRecord
100
AcDbBlockTableRecord
  2
*Model_Space
340
22
  0
BLOCK_RECORD
  5
1B
100
AcDbSymbolTableRecord
100
AcDbBlockTableRecord
  2
*Paper_Space
340
1E
  0
BLOCK_RECORD
  5
23
100
AcDbSymbolTableRecord
100
AcDbBlockTableRecord
  2
*Paper_Space0
340
26
  0
ENDTAB
  0
ENDSEC
  0
SECTION
  2
BLOCKS
  0
BLOCK
  5
20
100
AcDbEntity
  8
0
100
AcDbBlockBegin
  2
*Model_Space
 70
0
 10
0.0
 20
0.0
 30
0.0
  3
*Model_Space
  1

  0
ENDBLK
  5
21
100
AcDbEntity
  8
0
100
AcDbBlockEnd
  0
BLOCK
  5
1C
100
AcDbEntity
 67
1
  8
0
100
AcDbBlockBegin
  2
*Paper_Space
 70
0
 10
0.0
 20
0.0
 30
0.0
  3
*Paper_Space
  1

  0
ENDBLK
  5
1D
100
AcDbEntity
 67
1
  8
0
100
AcDbBlockEnd
  0
BLOCK
  5
24
100
AcDbEntity
  8
0
100
AcDbBlockBegin
  2
*Paper_Space0
 70
0
 10
0.0
 20
0.0
 30
0.0
  3
*Paper_Space0
  1

  0
ENDBLK
  5
25
100
AcDbEntity
  8
0
100
AcDbBlockEnd
  0
ENDSEC
  0
SECTION
  2
ENTITIES
  0
LINE
  5
47
100
AcDbEntity
100
AcDbLine
  8
side
 62
256
370
-1
  6
ByLayer
 10
100.0
 20
10.0
 30
0.0
 11
100.0
 21
11.3599999999999994
 31
0.0
  0
LINE
  5
48
100
AcDbEntity
100
AcDbLine
  8
side
 62
256
370
-1
  6
ByLayer
 10
94.0
 20
10.0
 30
0.0
 11
94.0
 21
11.3599999999999994
 31
0.0
  0
LINE
  5
49
100
AcDbEntity
100
AcDbLine
  8
side
 62
256
370
-1
  6
ByLayer
 10
94.0
 20
11.3599999999999994
 30
0.0
 11
100.0
 21
11.3599999999999994
 31
0.0
  0
LINE
  5
4A
100
AcDbEntity
100
AcDbLine
  8
side
 62
256
370
-1
  6
ByLayer
 10
100.0
 20
10.0
 30
0.0
 11
94.0
 21
10.0
 31
0.0
  0
LINE
  5
4B
100
AcDbEntity
100
AcDbLine
  8
side
 62
256
370
-1
  6
ByLayer
 10
120.0
 20
10.0
 30
0.0
 11
120.0
 21
11.3599999999999994
 31
0.0
  0
LINE
  5
4C
100
AcDbEntity
100
AcDbLine
  8
side
 62
256
370
-1
  6
ByLayer
 10
114.0
 20
10.0
 30
0.0
 11
114.0
 21
11.3599999999999994
 31
0.0
  0
LINE
  5
4D
100
AcDbEntity
100
AcDbLine
  8
side
 62
256
370
-1
  6
ByLayer
 10
114.0
 20
11.3599999999999994
 30
0.0
 11
120.0
 21
11.3599999999999994
 31
0.0
  0
LINE
  5
4E
100
AcDbEntity
100
AcDbLine
  8
side
 62
256
370
-1
  6
ByLayer
 10
120.0
 20
10.0
 30
0.0
 11
114.0
 21
10.0
 31
0.0
  0
LINE
  5
4F
100
AcDbEntity
100
AcDbLine
  8
side
 62
256
370
-1
  6
ByLayer
 10
92.1182527399408002
 20
25.7405580234964226
 30
0.0
 11
86.1511213677311645
 21
25.1133872438905108
 31
0.0
  0
LINE
  5
50
100
AcDbEntity
100
AcDbLine
  8
side
 62
256
370
-1
  6
ByLayer
 10
-30.0
 20
50.0
 30
0.0
 11
100.0
 21
100.0
 31
0.0
  0
LINE
  5
51
100
AcDbEntity
100
AcDbLine
  8
side
 62
256
370
-1
  6
ByLayer
 10
100.0
 20
100.0
 30
0.0
 11
120.0
 21
100.0
 31
0.0
  0
LINE
  5
52
100
AcDbEntity
100
AcDbLine
  8
side
 62
256
370
-1
  6
ByLayer
 10
120.0
 20
100.0
 30
0.0
 11
130.0
 21
70.0
 31
0.0
  0
LINE
  5
53
100
AcDbEntity
100
AcDbLine
  8
side
 62
256
370
-1
  6
ByLayer
 10
130.0
 20
70.0
 30
0.0
 11
130.0
 21
-20.0
 31
0.0
  0
LINE
  5
54
100
AcDbEntity
100
AcDbLine
  8
side
 62
256
370
-1
  6
ByLayer
 10
130.0
 20
-20.0
 30
0.0
 11
110.0
 21
-20.0
 31
0.0
  0
LINE
  5
55
100
AcDbEntity
100
AcDbLine
  8
side
 62
256
370
-1
  6
ByLayer
 10
110.0
 20
-20.0
 30
0.0
 11
100.0
 21
-10.0
 31
0.0
  0
LINE
  5
56
100
AcDbEntity
100
AcDbLine
  8
side
 62
256
370
-1
  6
ByLayer
 10
100.0
 20
-10.0
 30
0.0
 11
0.0
 21
-10.0
 31
0.0
  0
LINE
  5
57
100
AcDbEntity
100
AcDbLine
  8
side
 62
256
370
-1
  6
ByLayer
 10
0.0
 20
-10.0
 30
0.0
 11
-10.0
 21
-20.0
 31
0.0
  0
LINE
  5
58
100
AcDbEntity
100
AcDbLine
  8
side
 62
256
370
-1
  6
ByLayer
 10
-10.0
 20
-20.0
 30
0.0
 11
-30.0
 21
-20.0
 31
0.0
  0
LINE
  5
59
100
AcDbEntity
100
AcDbLine
  8
side
 62
256
370
-1
  6
ByLayer
 10
-30.0
 20
-20.0
 30
0.0
 11
-30.0
 21
50.0
 31
0.0
  0
CIRCLE
  5
5A
100
AcDbEntity
100
AcDbCircle
  8
side
 62
256
370
-1
  6
ByLayer
 10
106.0
 20
85.0
 30
0.0
 40
1.5
  0
CIRCLE
  5
5B
100
AcDbEntity
100
AcDbCircle
  8
side
 62
256
370
-1
  6
ByLayer
 10
-20.0
 20
40.0
 30
0.0
 40
1.5
  0
LINE
  5
5C
100
AcDbEntity
100
AcDbLine
  8
side
 62
256
370
-1
  6
ByLayer
 10
92.6910687186475286
 20
20.2905780368782871
 30
0.0
 11
92.1182527399408002
 21
25.7405580234964226
 31
0.0
  0
LINE
  5
5D
100
AcDbEntity
100
AcDbLine
  8
side
 62
256
370
-1
  6
ByLayer
 10
86.1511213677311645
 20
25.1133872438905108
 30
0.0
 11
86.7239373464378929
 21
19.6634072572723753
 31
0.0
  0
LINE
  5
5E
100
AcDbEntity
100
AcDbLine
  8
side
 62
256
370
-1
  6
ByLayer
 10
86.7239373464378929
 20
19.6634072572723753
 30
0.0
 11
92.6910687186475286
 21
20.2905780368782871
 31
0.0
  0
CIRCLE
  5
5F
100
AcDbEntity
100
AcDbCircle
  8
side
 62
256
370
-1
  6
ByLayer
 10
80.0
 20
15.0
 30
0.0
 40
1.75
  0
CIRCLE
  5
60
100
AcDbEntity
100
AcDbCircle
  8
side
 62
256
370
-1
  6
ByLayer
 10
70.0
 20
15.0
 30
0.0
 40
1.75
  0
CIRCLE
  5
61
100
AcDbEntity
100
AcDbCircle
  8
side
 62
256
370
-1
  6
ByLayer
 10
60.0
 20
15.0
 30
0.0
 40
1.75
  0
CIRCLE
  5
62
100
AcDbEntity
100
AcDbCircle
  8
side
 62
256
370
-1
  6
ByLayer
 10
50.0
 20
15.0
 30
0.0
 40
1.75
  0
CIRCLE
  5
63
100
AcDbEntity
100
AcDbCircle
  8
side
 62
256
370
-1
  6
ByLayer
 10
40.0
 20
15.0
 30
0.0
 40
1.75
  0
CIRCLE
  5
64
100
AcDbEntity
100
AcDbCircle
  8
side
 62
256
370
-1
  6
ByLayer
 10
30.0
 20
15.0
 30
0.0
 40
1.75
  0
LINE
  5
65
100
AcDbEntity
100
AcDbLine
  8
side
 62
256
370
-1
  6
ByLayer
 10
100.0
 20
78.0
 30
0.0
 11
100.0
 21
79.3599999999999994
 31
0.0
  0
LINE
  5
66
100
AcDbEntity
100
AcDbLine
  8
side
 62
256
370
-1
  6
ByLayer
 10
94.0
 20
78.0
 30
0.0
 11
94.0
 21
79.3599999999999994
 31
0.0
  0
LINE
  5
67
100
AcDbEntity
100
AcDbLine
  8
side
 62
256
370
-1
  6
ByLayer
 10
94.0
 20
79.3599999999999994
 30
0.0
 11
100.0
 21
79.3599999999999994
 31
0.0
  0
LINE
  5
68
100
AcDbEntity
100
AcDbLine
  8
side
 62
256
370
-1
  6
ByLayer
 10
100.0
 20
78.0
 30
0.0
 11
94.0
 21
78.0
 31
0.0
  0
LINE
  5
69
100
AcDbEntity
100
AcDbLine
  8
side
 62
256
370
-1
  6
ByLayer
 10
120.0
 20
78.0
 30
0.0
 11
120.0
 21
79.3599999999999994
 31
0.0
  0
LINE
  5
6A
100
AcDbEntity
100
AcDbLine
  8
side
 62
256
370
-1
  6
ByLayer
 10
114.0
 20
78.0
 30
0.0
 11
114.0
 21
79.3599999999999994
 31
0.0
  0
LINE
  5
6B
100
AcDbEntity
100
AcDbLine
  8
side
 62
256
370
-1
  6
ByLayer
 10
114.0
 20
79.3599999999999994
 30
0.0
 11
120.0
 21
79.3599999999999994
 31
0.0
  0
LINE
  5
6C
100
AcDbEntity
100
AcDbLine
  8
side
 62
256
370
-1
  6
ByLayer
 10
120.0
 20
78.0
 30
0.0
 11
114.0
 21
78.0
 31
0.0
  0
CIRCLE
  5
6D
100
AcDbEntity
100
AcDbCircle
  8
side
 62
256
370
-1
  6
ByLayer
 10
90.0
 20
60.0
 30
0.0
 40
1.5
  0
LINE
  5
6E
100
AcDbEntity
100
AcDbLine
  8
bar
 62
256
370
-1
  6
ByLayer
 10
-55.6260439936966691
 20
86.1207263287239471
 30
0.0
 11
-55.6260439936966691
 21
101.1207263287239471
 31
0.0
  0
LINE
  5
6F
100
AcDbEntity
100
AcDbLine
  8
bar
 62
256
370
-1
  6
ByLayer
 10
-51.6260439936966691
 20
101.1207263287239471
 30
0.0
 11
-51.6260439936966691
 21
86.1207263287239471
 31
0.0
  0
ARC
  5
70
100
AcDbEntity
  8
bar
 62
256
370
-1
  6
ByLayer
100
AcDbCircle
 10
-53.6260439936966691
 20
101.1207263287239471
 30
0.0
 40
2.0
100
AcDbArc
 50
0.0
 51
180.0
  0
ARC
  5
71
100
AcDbEntity
  8
bar
 62
256
370
-1
  6
ByLayer
100
AcDbCircle
 10
-57.6260439936966691
 20
86.1207263287239471
 30
0.0
 40
2.0
100
AcDbArc
 50
186.0000000000001421
 51
0.0
  0
LINE
  5
72
100
AcDbEntity
100
AcDbLine
  8
bar
 62
256
370
-1
  6
ByLayer
 10
-52.526542355945864
 20
82.9592262027431246
 30
0.0
 11
-58.3222146534064052
 21
73.6108032405274173
 31
0.0
  0
ARC
  5
73
100
AcDbEntity
  8
bar
 62
256
370
-1
  6
ByLayer
100
AcDbCircle
 10
-57.6260439936966691
 20
86.1207263287239471
 30
0.0
 40
6.0
100
AcDbArc
 50
328.2026364290979927
 51
0.0
  0
CIRCLE
  5
74
100
AcDbEntity
100
AcDbCircle
  8
bar
 62
256
370
-1
  6
ByLayer
 10
-63.172058524184564
 20
100.6204409061774356
 30
0.0
 40
0.8
  0
ARC
  5
75
100
AcDbEntity
  8
bar
 62
256
370
-1
  6
ByLayer
100
AcDbCircle
 10
-52.7192121974192389
 20
1.1682513693500951
 30
0.0
 40
1.999999999999982
100
AcDbArc
 50
185.9999999999993463
 51
5.9999999999997824
  0
LINE
  5
76
100
AcDbEntity
100
AcDbLine
  8
bar
 62
256
370
-1
  6
ByLayer
 10
-62.2403113207291057
 20
34.3548250322655235
 30
0.0
 11
-57.8441098861853646
 21
30.7948513038629947
 31
0.0
  0
LINE
  5
77
100
AcDbEntity
100
AcDbLine
  8
bar
 62
256
370
-1
  6
ByLayer
 10
-57.8441098861853646
 20
30.7948513038629983
 30
0.0
 11
-54.7082559881557842
 21
0.9591944428148054
 31
0.0
  0
LINE
  5
78
100
AcDbEntity
100
AcDbLine
  8
bar
 62
256
370
-1
  6
ByLayer
 10
-50.834696869950406
 20
2.3718301912536646
 30
0.0
 11
-51.8292187653186716
 21
2.2673017279860233
 31
0.0
  0
LINE
  5
79
100
AcDbEntity
100
AcDbLine
  8
bar
 62
256
370
-1
  6
ByLayer
 10
-51.8292187653186716
 20
2.2673017279860233
 30
0.0
 11
-51.7246903020510018
 21
1.2727798326177577
 31
0.0
  0
LINE
  5
7A
100
AcDbEntity
100
AcDbLine
  8
bar
 62
256
370
-1
  6
ByLayer
 10
-51.7246903020510018
 20
1.2727798326177577
 30
0.0
 11
-50.7301684066827647
 21
1.3773082958853919
 31
0.0
  0
LINE
  5
7B
100
AcDbEntity
100
AcDbLine
  8
bar
 62
256
370
-1
  6
ByLayer
 10
-50.834696869950406
 20
2.3718301912536646
 30
0.0
 11
-58.3222146534064052
 21
73.6108032405274315
 31
0.0
  0
LINE
  5
7C
100
AcDbEntity
100
AcDbLine
  8
bar
 62
256
370
-1
  6
ByLayer
 10
-62.8674821003350104
 20
40.3219564044751095
 30
0.0
 11
-62.2403113207291057
 21
34.3548250322655235
 31
0.0
  0
LINE
  5
7D
100
AcDbEntity
100
AcDbLine
  8
bar
 62
256
370
-1
  6
ByLayer
 10
-58.8674821003349962
 20
40.5315875216072712
 30
0.0
 11
-62.8674821003350104
 21
40.3219564044751095
 31
0.0
  0
ARC
  5
7E
100
AcDbEntity
  8
bar
 62
256
370
-1
  6
ByLayer
100
AcDbCircle
 10
-66.7555598099356331
 20
96.448089226965763
 30
0.0
 40
2.0
100
AcDbArc
 50
6.0000000000001474
 51
49.3417582272223427
  0
LINE
  5
7F
100
AcDbEntity
100
AcDbLine
  8
bar
 62
256
370
-1
  6
ByLayer
 10
-60.7884284377259831
 20
97.0752600065716678
 30
0.0
 11
-59.6150877844332143
 21
85.911669402188636
 31
0.0
  0
ARC
  5
80
100
AcDbEntity
  8
bar
 62
256
370
-1
  6
ByLayer
100
AcDbCircle
 10
-63.172058524184564
 20
100.6204409061774356
 30
0.0
 40
3.5
100
AcDbArc
 50
322.6582417727776146
 51
229.3417582272222432
  0
ARC
  5
81
100
AcDbEntity
  8
bar
 62
256
370
-1
  6
ByLayer
100
AcDbCircle
 10
-58.7993846469894379
 20
97.2843169331069788
 30
0.0
 40
2.0
100
AcDbArc
 50
142.6582417727774441
 51
186.0000000000001421
  0
LINE
  5
82
100
AcDbEntity
100
AcDbLine
  8
bar
 62
256
370
-1
  6
ByLayer
 10
-64.7665160191990879
 20
96.6571461535010741
 30
0.0
 11
-58.8674821003349962
 21
40.5315875216072712
 31
0.0
  0
CIRCLE
  5
83
100
AcDbEntity
100
AcDbCircle
  8
bail support
 62
256
370
-1
  6
ByLayer
 10
15.908197408230933
 20
-36.9363477808599541
 30
0.0
 40
1.1799999999999999
  0
CIRCLE
  5
84
100
AcDbEntity
100
AcDbCircle
  8
bail support
 62
256
370
-1
  6
ByLayer
 10
5.9132954720296027
 20
-37.2556208391011978
 30
0.0
 40
1.1799999999999999
  0
CIRCLE
  5
85
100
AcDbEntity
100
AcDbCircle
  8
bail support
 62
256
370
-1
  6
ByLayer
 10
-4.0816064641717347
 20
-37.5748938973424345
 30
0.0
 40
1.1799999999999999
  0
CIRCLE
  5
86
100
AcDbEntity
100
AcDbCircle
  8
bail support
 62
256
370
-1
  6
ByLayer
 10
-14.0765084003730792
 20
-37.8941669555836711
 30
0.0
 40
1.1799999999999999
  0
CIRCLE
  5
87
100
AcDbEntity
100
AcDbCircle
  8
bail support
 62
256
370
-1
  6
ByLayer
 10
-24.0714103365744307
 20
-38.2134400138249148
 30
0.0
 40
1.1799999999999999
  0
CIRCLE
  5
88
100
AcDbEntity
100
AcDbCircle
  8
bail support
 62
256
370
-1
  6
ByLayer
 10
-34.066312272775761
 20
-38.5327130720661515
 30
0.0
 40
1.1799999999999999
  0
CIRCLE
  5
89
100
AcDbEntity
100
AcDbCircle
  8
bail support
 62
256
370
-1
  6
ByLayer
 10
-44.0612142089770984
 20
-38.8519861303073881
 30
0.0
 40
1.1799999999999999
  0
ARC
  5
8A
100
AcDbEntity
  8
bail support
 62
256
370
-1
  6
ByLayer
100
AcDbCircle
 10
-80.0
 20
-40.0
 30
0.0
 40
4.0000000000000036
100
AcDbArc
 50
91.8296108012670942
 51
271.8296108012670516
  0
LINE
  5
8B
100
AcDbEntity
100
AcDbLine
  8
bail support
 62
256
370
-1
  6
ByLayer
 10
-79.8722907767035082
 20
-43.9979607744805392
 30
0.0
 11
30.0137046524542654
 21
-39.4766404375705591
 31
0.0
  0
LINE
  5
8C
100
AcDbEntity
100
AcDbLine
  8
bail support
 62
256
370
-1
  6
ByLayer
 10
30.0137046524542654
 20
-39.4766404375705591
 30
0.0
 11
30.1707125211831055
 21
-36.4807518333068401
 31
0.0
  0
LINE
  5
8D
100
AcDbEntity
100
AcDbLine
  8
bail support
 62
256
370
-1
  6
ByLayer
 10
30.1707125211831055
 20
-36.4807518333068401
 30
0.0
 11
40.0
 21
-36.9958829620062417
 31
0.0
  0
LINE
  5
8E
100
AcDbEntity
100
AcDbLine
  8
bail support
 62
256
370
-1
  6
ByLayer
 10
40.0
 20
-36.9958829620062417
 30
0.0
 11
30.0430032978866137
 21
-32.4827910588263009
 31
0.0
  0
LINE
  5
8F
100
AcDbEntity
100
AcDbLine
  8
bail support
 62
256
370
-1
  6
ByLayer
 10
30.0430032978866137
 20
-32.4827910588263009
 30
0.0
 11
-80.1277092232964918
 21
-36.0020392255194608
 31
0.0
  0
CIRCLE
  5
90
100
AcDbEntity
100
AcDbCircle
  8
bail support
 62
256
370
-1
  6
ByLayer
 10
-80.0
 20
-40.0
 30
0.0
 40
1.5
  0
CIRCLE
  5
91
100
AcDbEntity
100
AcDbCircle
  8
pushbar
 62
256
370
-1
  6
ByLayer
 10
12.3897017358664812
 20
-83.7331516588465661
 30
0.0
 40
1.5
  0
LINE
  5
92
100
AcDbEntity
100
AcDbLine
  8
pushbar
 62
256
370
-1
  6
ByLayer
 10
-6.6102982641335188
 20
-85.7331516588465661
 30
0.0
 11
10.3897017358664812
 21
-76.7331516588465661
 31
0.0
  0
LINE
  5
93
100
AcDbEntity
100
AcDbLine
  8
pushbar
 62
256
370
-1
  6
ByLayer
 10
15.7397157612987115
 20
-86.8217861099239911
 30
0.0
 11
-4.2784297682574959
 21
-89.5515332275907383
 31
0.0
  0
LINE
  5
94
100
AcDbEntity
100
AcDbLine
  8
pushbar
 62
256
370
-1
  6
ByLayer
 10
-5.9363133255754548
 20
-88.4290914130787939
 30
0.0
 11
-6.6102982641335188
 21
-85.7331516588465661
 31
0.0
  0
ARC
  5
95
100
AcDbEntity
  8
pushbar
 62
256
370
-1
  6
ByLayer
100
AcDbCircle
 10
-4.4810995753574616
 20
-88.0652879755242992
 30
0.0
 40
1.5
100
AcDbArc
 50
194.0362434679265959
 51
277.7651660184251909
  0
CIRCLE
  5
96
100
AcDbEntity
100
AcDbCircle
  8
pushbar
 62
256
370
-1
  6
ByLayer
 10
21.3897017358664812
 20
-76.7331516588465661
 30
0.0
 40
1.5
  0
CIRCLE
  5
97
100
AcDbEntity
100
AcDbCircle
  8
pushbar
 62
256
370
-1
  6
ByLayer
 10
17.3897017358664812
 20
-73.7331516588465661
 30
0.0
 40
1.0
  0
LINE
  5
98
100
AcDbEntity
100
AcDbLine
  8
pushbar
 62
256
370
-1
  6
ByLayer
 10
23.1897017358664925
 20
-74.3331516588465604
 30
0.0
 11
18.3897017358664812
 21
-70.7331516588465661
 31
0.0
  0
LINE
  5
99
100
AcDbEntity
100
AcDbLine
  8
pushbar
 62
256
370
-1
  6
ByLayer
 10
18.3897017358664812
 20
-70.7331516588465661
 30
0.0
 11
14.3897017358664812
 21
-71.7331516588465661
 31
0.0
  0
LINE
  5
9A
100
AcDbEntity
100
AcDbLine
  8
pushbar
 62
256
370
-1
  6
ByLayer
 10
14.3897017358664812
 20
-71.7331516588465661
 30
0.0
 11
13.3897017358664812
 21
-75.7331516588465661
 31
0.0
  0
LINE
  5
9B
100
AcDbEntity
100
AcDbLine
  8
pushbar
 62
256
370
-1
  6
ByLayer
 10
10.3897017358664812
 20
-76.7331516588465661
 30
0.0
 11
13.3897017358664812
 21
-75.7331516588465661
 31
0.0
  0
LINE
  5
9C
100
AcDbEntity
100
AcDbLine
  8
pushbar
 62
256
370
-1
  6
ByLayer
 10
23.5372306948141983
 20
-78.8279355069991396
 30
0.0
 11
15.7397157612987115
 21
-86.8217861099239911
 31
0.0
  0
ARC
  5
9D
100
AcDbEntity
  8
pushbar
 62
256
370
-1
  6
ByLayer
100
AcDbCircle
 10
21.3897017358664812
 20
-76.7331516588465661
 30
0.0
 40
3.0
100
AcDbArc
 50
315.7123276078389154
 51
53.1301023541560866
  0
ENDSEC
  0
SECTION
  2
OBJECTS
  0
DICTIONARY
  5
C
100
AcDbDictionary
280
0
281
1
  3
ACAD_GROUP
350
D
  3
ACAD_LAYOUT
350
1A
  3
ACAD_MLINESTYLE
350
17
  3
ACAD_PLOTSETTINGS
350
19
  3
ACAD_PLOTSTYLENAME
350
E
  3
AcDbVariableDictionary
350
9E
  0
DICTIONARY
  5
D
100
AcDbDictionary
280
0
281
1
  0
ACDBDICTIONARYWDFLT
  5
E
100
AcDbDictionary
281
1
  3
Normal
350
F
100
AcDbDictionaryWithDefault
340
F
  0
ACDBPLACEHOLDER
  5
F
  0
DICTIONARY
  5
17
100
AcDbDictionary
280
0
281
1
  3
Standard
350
18
  0
MLINESTYLE
  5
18
100
AcDbMlineStyle
  2
STANDARD
 70
0
  3

 62
256
 51
90.0
 52
90.0
 71
2
 49
0.5
 62
256
  6
BYLAYER
 49
-0.5
 62
256
  6
BYLAYER
  0
DICTIONARY
  5
19
100
AcDbDictionary
280
0
281
1
  0
DICTIONARY
  5
1A
100
AcDbDictionary
281
1
  3
Layout1
350
1E
  3
Layout2
350
26
  3
Model
350
22
  0
LAYOUT
  5
1E
100
AcDbPlotSettings
  1

  2
C:\Program Files\AutoCAD 2002\plotters\DWF ePlot (optimized for plotting).pc3
  4

  6

 40
0.0
 41
0.0
 42
0.0
 43
0.0
 44
0.0
 45
0.0
 46
0.0
 47
0.0
 48
0.0
 49
0.0
140
0.0
141
0.0
142
1.0
143
1.0
 70
688
 72
0
 73
0
 74
5
  7

 75
16
147
1.0
148
0.0
149
0.0
100
AcDbLayout
  1
Layout1
 70
1
 71
1
 10
0.0
 20
0.0
 11
420.0
 21
297.0
 12
0.0
 22
0.0
 32
0.0
 14
100000000000000000000.0
 24
100000000000000000000.0
 34
100000000000000000000.0
 15
-100000000000000000000.0
 25
-100000000000000000000.0
 35
-100000000000000000000.0
146
0.0
 13
0.0
 23
0.0
 33
0.0
 16
1.0
 26
0.0
 36
0.0
 17
0.0
 27
1.0
 37
0.0
 76
0
330
1B
  0
LAYOUT
  5
22
100
AcDbPlotSettings
  1

  2
C:\Program Files\AutoCAD 2002\plotters\DWF ePlot (optimized for plotting).pc3
  4

  6

 40
0.0
 41
0.0
 42
0.0
 43
0.0
 44
0.0
 45
0.0
 46
0.0
 47
0.0
 48
0.0
 49
0.0
140
0.0
141
0.0
142
1.0
143
1.0
 70
1712
 72
0
 73
0
 74
0
  7

 75
0
147
1.0
148
0.0
149
0.0
100
AcDbLayout
  1
Model
 70
1
 71
0
 10
0.0
 20
0.0
 11
12.0
 21
9.0
 12
0.0
 22
0.0
 32
0.0
 14
0.0
 24
0.0
 34
0.0
 15
0.0
 25
0.0
 35
0.0
146
0.0
 13
0.0
 23
0.0
 33
0.0
 16
1.0
 26
0.0
 36
0.0
 17
0.0
 27
1.0
 37
0.0
 76
0
330
1F
  0
LAYOUT
  5
26
100
AcDbPlotSettings
  1

  2
C:\Program Files\AutoCAD 2002\plotters\DWF ePlot (optimized for plotting).pc3
  4

  6

 40
0.0
 41
0.0
 42
0.0
 43
0.0
 44
0.0
 45
0.0
 46
0.0
 47
0.0
 48
0.0
 49
0.0
140
0.0
141
0.0
142
1.0
143
1.0
 70
688
 72
0
 73
0
 74
5
  7

 75
16
147
1.0
148
0.0
149
0.0
100
AcDbLayout
  1
Layout2
 70
1
 71
2
 10
0.0
 20
0.0
 11
12.0
 21
9.0
 12
0.0
 22
0.0
 32
0.0
 14
0.0
 24
0.0
 34
0.0
 15
0.0
 25
0.0
 35
0.0
146
0.0
 13
0.0
 23
0.0
 33
0.0
 16
1.0
 26
0.0
 36
0.0
 17
0.0
 27
1.0
 37
0.0
 76
0
330
23
  0
DICTIONARY
  5
9E
100
AcDbDictionary
281
1
  3
DIMASSOC
350
A0
  3
HIDETEXT
350
9F
  0
DICTIONARYVAR
  5
9F
100
DictionaryVariables
280
0
  1
2
  0
DICTIONARYVAR
  5
A0
100
DictionaryVariables
280
0
  1
1
  0
ENDSEC
  0
EOF
