999
dxflib 2.2.0.0
  0
SECTION
  2
HEADER
  9
$ACADVER
  1
AC1015
  9
$HANDSEED
  5
FFFF
  9
$DIMASZ
 40
2.5
  9
$PLIMMIN
 10
0.0
 20
0.0
  9
$DIMEXE
 40
1.25
  9
$DIMGAP
 40
0.625
  9
$PLIMMAX
 10
210.0
 20
297.0
  9
$INSUNITS
 70
4
  9
$DIMSTYLE
  2
Standard
  9
$CLAYER
  8
bar
  9
$DIMEXO
 40
0.625
  9
$DIMTXT
 40
2.5
  9
$CLAYER
  8
bar
  0
ENDSEC
  0
SECTION
  2
TABLES
  0
TABLE
  2
VPORT
  5
8
100
AcDbSymbolTable
 70
1
  0
VPORT
  5
30
100
AcDbSymbolTableRecord
100
AcDbViewportTableRecord
  2
*Active
 70
0
 10
0.0
 20
0.0
 11
1.0
 21
1.0
 12
286.3055555555554861
 22
148.5
 13
0.0
 23
0.0
 14
10.0
 24
10.0
 15
10.0
 25
10.0
 16
0.0
 26
0.0
 36
1.0
 17
0.0
 27
0.0
 37
0.0
 40
297.0
 41
1.92798353909465
 42
50.0
 43
0.0
 44
0.0
 50
0.0
 51
0.0
 71
0
 72
100
 73
1
 74
3
 75
1
 76
1
 77
0
 78
0
281
0
 65
1
110
0.0
120
0.0
130
0.0
111
1.0
121
0.0
131
0.0
112
0.0
122
1.0
132
0.0
 79
0
146
0.0
  0
ENDTAB
  0
TABLE
  2
LTYPE
  5
5
100
AcDbSymbolTable
 70
21
  0
LTYPE
  5
14
100
AcDbSymbolTableRecord
100
AcDbLinetypeTableRecord
  2
ByBlock
 70
0
  3

 72
65
 73
0
 40
0.0
  0
LTYPE
  5
15
100
AcDbSymbolTableRecord
100
AcDbLinetypeTableRecord
  2
ByLayer
 70
0
  3

 72
65
 73
0
 40
0.0
  0
LTYPE
  5
16
100
AcDbSymbolTableRecord
100
AcDbLinetypeTableRecord
  2
CONTINUOUS
 70
0
  3
Solid line
 72
65
 73
0
 40
0.0
  0
LTYPE
  5
31
100
AcDbSymbolTableRecord
100
AcDbLinetypeTableRecord
  2
DOT
 70
0
  3
Dot . . . . . . . . . . . . . . . . . . . . . .
 72
65
 73
2
 40
6.3499999999999996
 49
0.0
 74
0
 49
-6.3499999999999996
 74
0
  0
LTYPE
  5
32
100
AcDbSymbolTableRecord
100
AcDbLinetypeTableRecord
  2
DOT2
 70
0
  3
Dot (.5x) .....................................
 72
65
 73
2
 40
3.1749999999999998
 49
0.0
 74
0
 49
-3.1749999999999998
 74
0
  0
LTYPE
  5
33
100
AcDbSymbolTableRecord
100
AcDbLinetypeTableRecord
  2
DOTX2
 70
0
  3
Dot (2x) .  .  .  .  .  .  .  .  .  .  .  .  .
 72
65
 73
2
 40
12.6999999999999993
 49
0.0
 74
0
 49
-12.6999999999999993
 74
0
  0
LTYPE
  5
34
100
AcDbSymbolTableRecord
100
AcDbLinetypeTableRecord
  2
DASHED
 70
0
  3
Dashed __ __ __ __ __ __ __ __ __ __ __ __ __ _
 72
65
 73
2
 40
19.0500000000000007
 49
12.6999999999999993
 74
0
 49
-6.3499999999999996
 74
0
  0
LTYPE
  5
35
100
AcDbSymbolTableRecord
100
AcDbLinetypeTableRecord
  2
DASHED2
 70
0
  3
Dashed (.5x) _ _ _ _ _ _ _ _ _ _ _ _ _ _ _ _ _
 72
65
 73
2
 40
9.5250000000000004
 49
6.3499999999999996
 74
0
 49
-3.1749999999999998
 74
0
  0
LTYPE
  5
36
100
AcDbSymbolTableRecord
100
AcDbLinetypeTableRecord
  2
DASHEDX2
 70
0
  3
Dashed (2x) ____  ____  ____  ____  ____  ___
 72
65
 73
2
 40
38.1000000000000014
 49
25.3999999999999986
 74
0
 49
-12.6999999999999993
 74
0
  0
LTYPE
  5
37
100
AcDbSymbolTableRecord
100
AcDbLinetypeTableRecord
  2
DASHDOT
 70
0
  3
Dash dot __ . __ . __ . __ . __ . __ . __ . __
 72
65
 73
4
 40
25.3999999999999986
 49
12.6999999999999993
 74
0
 49
-6.3499999999999996
 74
0
 49
0.0
 74
0
 49
-6.3499999999999996
 74
0
  0
LTYPE
  5
38
100
AcDbSymbolTableRecord
100
AcDbLinetypeTableRecord
  2
DASHDOT2
 70
0
  3
Dash dot (.5x) _._._._._._._._._._._._._._._.
 72
65
 73
4
 40
12.6999999999999993
 49
6.3499999999999996
 74
0
 49
-3.1749999999999998
 74
0
 49
0.0
 74
0
 49
-3.1749999999999998
 74
0
  0
LTYPE
  5
39
100
AcDbSymbolTableRecord
100
AcDbLinetypeTableRecord
  2
DASHDOTX2
 70
0
  3
Dash dot (2x) ____  .  ____  .  ____  .  ___
 72
65
 73
4
 40
50.7999999999999972
 49
25.3999999999999986
 74
0
 49
-12.6999999999999993
 74
0
 49
0.0
 74
0
 49
-12.6999999999999993
 74
0
  0
LTYPE
  5
3A
100
AcDbSymbolTableRecord
100
AcDbLinetypeTableRecord
  2
DIVIDE
 70
0
  3
Divide ____ . . ____ . . ____ . . ____ . . ____
 72
65
 73
6
 40
31.75
 49
12.6999999999999993
 74
0
 49
-6.3499999999999996
 74
0
 49
0.0
 74
0
 49
-6.3499999999999996
 74
0
 49
0.0
 74
0
 49
-6.3499999999999996
 74
0
  0
LTYPE
  5
3B
100
AcDbSymbolTableRecord
100
AcDbLinetypeTableRecord
  2
DIVIDE2
 70
0
  3
Divide (.5x) __..__..__..__..__..__..__..__.._
 72
65
 73
6
 40
15.875
 49
6.3499999999999996
 74
0
 49
-3.1749999999999998
 74
0
 49
0.0
 74
0
 49
-3.1749999999999998
 74
0
 49
0.0
 74
0
 49
-3.1749999999999998
 74
0
  0
LTYPE
  5
3C
100
AcDbSymbolTableRecord
100
AcDbLinetypeTableRecord
  2
DIVIDEX2
 70
0
  3
Divide (2x) ________  .  .  ________  .  .  _
 72
65
 73
6
 40
63.5
 49
25.3999999999999986
 74
0
 49
-12.6999999999999993
 74
0
 49
0.0
 74
0
 49
-12.6999999999999993
 74
0
 49
0.0
 74
0
 49
-12.6999999999999993
 74
0
  0
LTYPE
  5
3D
100
AcDbSymbolTableRecord
100
AcDbLinetypeTableRecord
  2
CENTER
 70
0
  3
Center ____ _ ____ _ ____ _ ____ _ ____ _ ____
 72
65
 73
4
 40
50.7999999999999972
 49
31.75
 74
0
 49
-6.3499999999999996
 74
0
 49
6.3499999999999996
 74
0
 49
-6.3499999999999996
 74
0
  0
LTYPE
  5
3E
100
AcDbSymbolTableRecord
100
AcDbLinetypeTableRecord
  2
CENTER2
 70
0
  3
Center (.5x) ___ _ ___ _ ___ _ ___ _ ___ _ ___
 72
65
 73
4
 40
28.5749999999999993
 49
19.0500000000000007
 74
0
 49
-3.1749999999999998
 74
0
 49
3.1749999999999998
 74
0
 49
-3.1749999999999998
 74
0
  0
LTYPE
  5
3F
100
AcDbSymbolTableRecord
100
AcDbLinetypeTableRecord
  2
CENTERX2
 70
0
  3
Center (2x) ________  __  ________  __  _____
 72
65
 73
4
 40
101.5999999999999943
 49
63.5
 74
0
 49
-12.6999999999999993
 74
0
 49
12.6999999999999993
 74
0
 49
-12.6999999999999993
 74
0
  0
LTYPE
  5
40
100
AcDbSymbolTableRecord
100
AcDbLinetypeTableRecord
  2
BORDER
 70
0
  3
Border __ __ . __ __ . __ __ . __ __ . __ __ .
 72
65
 73
6
 40
44.4500000000000028
 49
12.6999999999999993
 74
0
 49
-6.3499999999999996
 74
0
 49
12.6999999999999993
 74
0
 49
-6.3499999999999996
 74
0
 49
0.0
 74
0
 49
-6.3499999999999996
 74
0
  0
LTYPE
  5
41
100
AcDbSymbolTableRecord
100
AcDbLinetypeTableRecord
  2
BORDER2
 70
0
  3
Border (.5x) __.__.__.__.__.__.__.__.__.__.__.
 72
65
 73
6
 40
22.2250000000000014
 49
6.3499999999999996
 74
0
 49
-3.1749999999999998
 74
0
 49
6.3499999999999996
 74
0
 49
-3.1749999999999998
 74
0
 49
0.0
 74
0
 49
-3.1749999999999998
 74
0
  0
LTYPE
  5
42
100
AcDbSymbolTableRecord
100
AcDbLinetypeTableRecord
  2
BORDERX2
 70
0
  3
Border (2x) ____  ____  .  ____  ____  .  ___
 72
65
 73
6
 40
88.9000000000000057
 49
25.3999999999999986
 74
0
 49
-12.6999999999999993
 74
0
 49
25.3999999999999986
 74
0
 49
-12.6999999999999993
 74
0
 49
0.0
 74
0
 49
-12.6999999999999993
 74
0
  0
ENDTAB
  0
TABLE
  2
LAYER
  5
2
100
AcDbSymbolTable
 70
3
  0
LAYER
  5
10
100
AcDbSymbolTableRecord
100
AcDbLayerTableRecord
  2
0
 70
0
 62
7
420
0
  6
CONTINUOUS
370
25
390
F
  0
LAYER
  5
43
100
AcDbSymbolTableRecord
100
AcDbLayerTableRecord
  2
skeleton
 70
0
 62
1
420
16711680
  6
CONTINUOUS
370
0
390
F
  0
LAYER
  5
44
100
AcDbSymbolTableRecord
100
AcDbLayerTableRecord
  2
bar
 70
1
 62
-7
420
0
  6
CONTINUOUS
370
0
390
F
  0
ENDTAB
  0
TABLE
  2
STYLE
  5
3
100
AcDbSymbolTable
 70
1
  0
STYLE
  5
11
100
AcDbSymbolTableRecord
100
AcDbTextStyleTableRecord
  2
Standard
 70
0
 40
0.0
 41
0.75
 50
0.0
 71
0
 42
2.5
  3
txt
  4

  0
ENDTAB
  0
TABLE
  2
VIEW
  5
6
100
AcDbSymbolTable
 70
0
  0
ENDTAB
  0
TABLE
  2
UCS
  5
7
100
AcDbSymbolTable
 70
0
  0
ENDTAB
  0
TABLE
  2
APPID
  5
9
100
AcDbSymbolTable
 70
1
  0
APPID
  5
12
100
AcDbSymbolTableRecord
100
AcDbRegAppTableRecord
  2
ACAD
 70
0
  0
ENDTAB
  0
TABLE
  2
DIMSTYLE
  5
A
100
AcDbSymbolTable
 70
1
100
AcDbDimStyleTable
 71
0
  0
DIMSTYLE
105
27
100
AcDbSymbolTableRecord
100
AcDbDimStyleTableRecord
  2
Standard
 41
2.5
 42
0.625
 43
3.75
 44
1.25
 70
0
 73
0
 74
0
 77
1
 78
8
140
2.5
141
2.5
143
0.03937007874016
147
0.625
171
3
172
1
271
2
272
2
274
3
278
44
283
0
284
8
340
11
  0
ENDTAB
  0
TABLE
  2
BLOCK_RECORD
  5
1
100
AcDbSymbolTable
 70
1
  0
BLOCK_RECORD
  5
1F
100
AcDbSymbolTableRecord
100
AcDbBlockTableRecord
  2
*Model_Space
340
22
  0
BLOCK_RECORD
  5
1B
100
AcDbSymbolTableRecord
100
AcDbBlockTableRecord
  2
*Paper_Space
340
1E
  0
BLOCK_RECORD
  5
23
100
AcDbSymbolTableRecord
100
AcDbBlockTableRecord
  2
*Paper_Space0
340
26
  0
ENDTAB
  0
ENDSEC
  0
SECTION
  2
BLOCKS
  0
BLOCK
  5
20
100
AcDbEntity
  8
0
100
AcDbBlockBegin
  2
*Model_Space
 70
0
 10
0.0
 20
0.0
 30
0.0
  3
*Model_Space
  1

  0
ENDBLK
  5
21
100
AcDbEntity
  8
0
100
AcDbBlockEnd
  0
BLOCK
  5
1C
100
AcDbEntity
 67
1
  8
0
100
AcDbBlockBegin
  2
*Paper_Space
 70
0
 10
0.0
 20
0.0
 30
0.0
  3
*Paper_Space
  1

  0
ENDBLK
  5
1D
100
AcDbEntity
 67
1
  8
0
100
AcDbBlockEnd
  0
BLOCK
  5
24
100
AcDbEntity
  8
0
100
AcDbBlockBegin
  2
*Paper_Space0
 70
0
 10
0.0
 20
0.0
 30
0.0
  3
*Paper_Space0
  1

  0
ENDBLK
  5
25
100
AcDbEntity
  8
0
100
AcDbBlockEnd
  0
ENDSEC
  0
SECTION
  2
ENTITIES
  0
LINE
  5
45
100
AcDbEntity
100
AcDbLine
  8
skeleton
 62
256
370
-1
  6
ByLayer
 10
100.0
 20
100.0
 30
0.0
 11
100.0
 21
0.0
 31
0.0
  0
LINE
  5
46
100
AcDbEntity
100
AcDbLine
  8
skeleton
 62
256
370
-1
  6
ByLayer
 10
104.0
 20
100.0
 30
0.0
 11
104.0
 21
-0.000000000000001
 31
0.0
  0
LINE
  5
47
100
AcDbEntity
100
AcDbLine
  8
skeleton
 62
256
370
-1
  6
ByLayer
 10
101.0
 20
100.0
 30
0.0
 11
103.0
 21
100.0
 31
0.0
  0
LINE
  5
48
100
AcDbEntity
100
AcDbLine
  8
skeleton
 62
256
370
-1
  6
ByLayer
 10
102.0
 20
101.0
 30
0.0
 11
102.0
 21
99.0
 31
0.0
  0
LINE
  5
49
100
AcDbEntity
100
AcDbLine
  8
skeleton
 62
256
370
-1
  6
ByLayer
 10
100.0
 20
40.0
 30
0.0
 11
-20.0
 21
40.0
 31
0.0
  0
LINE
  5
4A
100
AcDbEntity
100
AcDbLine
  8
skeleton
 62
256
370
-1
  6
ByLayer
 10
98.1769303614649687
 20
60.8377813200316382
 30
0.0
 11
-20.0
 21
40.0
 31
0.0
  0
LINE
  5
4B
100
AcDbEntity
100
AcDbLine
  8
skeleton
 62
256
370
-1
  6
ByLayer
 10
96.0
 20
40.0
 30
0.0
 11
96.0
 21
30.0
 31
0.0
  0
CIRCLE
  5
4C
100
AcDbEntity
100
AcDbCircle
  8
skeleton
 62
256
370
-1
  6
ByLayer
 10
106.0
 20
85.0
 30
0.0
 40
2.0
  0
LINE
  5
4D
100
AcDbEntity
100
AcDbLine
  8
skeleton
 62
256
370
-1
  6
ByLayer
 10
98.4649416787755598
 20
99.2906576509181775
 30
0.0
 11
108.9177880055408991
 21
-0.1615318859091417
 31
0.0
  0
LINE
  5
4E
100
AcDbEntity
100
AcDbLine
  8
skeleton
 62
256
370
-1
  6
ByLayer
 10
102.4430292602486503
 20
99.7087715039887996
 30
0.0
 11
112.895875587013947
 21
0.256581967161452
 31
0.0
  0
LINE
  5
4F
100
AcDbEntity
100
AcDbLine
  8
skeleton
 62
256
370
-1
  6
ByLayer
 10
99.4594635741438253
 20
99.395186114185833
 30
0.0
 11
101.4485073648803848
 21
99.6042430407211441
 31
0.0
  0
LINE
  5
50
100
AcDbEntity
100
AcDbLine
  8
skeleton
 62
256
370
-1
  6
ByLayer
 10
100.3494570062444495
 20
100.4942364728217541
 30
0.0
 11
100.5585139327797606
 21
98.5051926820852088
 31
0.0
  0
LINE
  5
51
100
AcDbEntity
100
AcDbLine
  8
skeleton
 62
256
370
-1
  6
ByLayer
 10
100.7585618933616587
 20
39.2012300757511625
 30
0.0
 11
101.8038465260381855
 21
29.2560111220684362
 31
0.0
  0
LINE
  5
52
100
AcDbEntity
100
AcDbLine
  8
skeleton
 62
256
370
-1
  6
ByLayer
 10
108.0
 20
85.0
 30
0.0
 11
108.0
 21
100.0
 31
0.0
  0
LINE
  5
53
100
AcDbEntity
100
AcDbLine
  8
skeleton
 62
256
370
-1
  6
ByLayer
 10
112.0
 20
100.0
 30
0.0
 11
112.0
 21
85.0
 31
0.0
  0
LINE
  5
54
100
AcDbEntity
100
AcDbLine
  8
skeleton
 62
256
370
-1
  6
ByLayer
 10
97.3086894731303147
 20
65.7618200850926797
 30
0.0
 11
99.0451712497996226
 21
55.9137425549705966
 31
0.0
  0
LINE
  5
55
100
AcDbEntity
100
AcDbLine
  8
bar
 62
256
370
-1
  6
ByLayer
 10
108.0
 20
85.0
 30
0.0
 11
108.0
 21
100.0
 31
0.0
  0
LINE
  5
56
100
AcDbEntity
100
AcDbLine
  8
bar
 62
256
370
-1
  6
ByLayer
 10
112.0
 20
100.0
 30
0.0
 11
112.0
 21
85.0
 31
0.0
  0
ARC
  5
57
100
AcDbEntity
  8
bar
 62
256
370
-1
  6
ByLayer
100
AcDbCircle
 10
110.0
 20
100.0
 30
0.0
 40
2.0
100
AcDbArc
 50
0.0
 51
180.0
  0
ARC
  5
58
100
AcDbEntity
  8
bar
 62
256
370
-1
  6
ByLayer
100
AcDbCircle
 10
106.0
 20
85.0
 30
0.0
 40
2.0
100
AcDbArc
 50
186.0000000000001421
 51
0.0
  0
LINE
  5
59
100
AcDbEntity
100
AcDbLine
  8
bar
 62
256
370
-1
  6
ByLayer
 10
111.0995016377508051
 20
81.8384998740191776
 30
0.0
 11
105.3038293402902639
 21
72.4900769118034702
 31
0.0
  0
ARC
  5
5A
100
AcDbEntity
  8
bar
 62
256
370
-1
  6
ByLayer
100
AcDbCircle
 10
106.0
 20
85.0
 30
0.0
 40
6.0
100
AcDbArc
 50
328.2026364290979927
 51
0.0
  0
CIRCLE
  5
5B
100
AcDbEntity
100
AcDbCircle
  8
bar
 62
256
370
-1
  6
ByLayer
 10
100.4539854695121051
 20
99.4997145774534886
 30
0.0
 40
0.8
  0
LINE
  5
5C
100
AcDbEntity
100
AcDbLine
  8
skeleton
 62
256
370
-1
  6
ByLayer
 10
108.9177880055408991
 20
-0.1615318859091417
 30
0.0
 11
112.895875587013947
 21
0.256581967161452
 31
0.0
  0
ARC
  5
5D
100
AcDbEntity
  8
bar
 62
256
370
-1
  6
ByLayer
100
AcDbCircle
 10
110.9068317962774302
 20
0.0475250406261551
 30
0.0
 40
1.999999999999982
100
AcDbArc
 50
185.9999999999993463
 51
5.9999999999997824
  0
LINE
  5
5E
100
AcDbEntity
100
AcDbLine
  8
skeleton
 62
256
370
-1
  6
ByLayer
 10
95.7859524165202885
 20
38.6785877594128991
 30
0.0
 11
105.7311713702030289
 21
39.7238723920894259
 31
0.0
  0
LINE
  5
5F
100
AcDbEntity
100
AcDbLine
  8
skeleton
 62
256
370
-1
  6
ByLayer
 10
96.8312370491968153
 20
28.7333688057301764
 30
0.0
 11
106.7764560028795557
 21
29.7786534384066961
 31
0.0
  0
LINE
  5
60
100
AcDbEntity
100
AcDbLine
  8
skeleton
 62
256
370
-1
  6
ByLayer
 10
98.7876204543985637
 20
35.3380084945876192
 30
0.0
 11
106.5590800689682567
 21
29.0448045840892206
 31
0.0
  0
LINE
  5
61
100
AcDbEntity
100
AcDbLine
  8
bar
 62
256
370
-1
  6
ByLayer
 10
101.3857326729675634
 20
33.2340987035415694
 30
0.0
 11
105.7819341075113044
 21
29.6741249751390477
 31
0.0
  0
LINE
  5
62
100
AcDbEntity
100
AcDbLine
  8
bar
 62
256
370
-1
  6
ByLayer
 10
105.7819341075113044
 20
29.6741249751390512
 30
0.0
 11
108.9177880055408991
 21
-0.1615318859091417
 31
0.0
  0
LINE
  5
63
100
AcDbEntity
100
AcDbLine
  8
bar
 62
256
370
-1
  6
ByLayer
 10
100.0328686277903643
 20
84.3728292203940811
 30
0.0
 11
101.9038045637647087
 21
66.5720628550321436
 31
0.0
  0
LINE
  5
64
100
AcDbEntity
100
AcDbLine
  8
skeleton
 62
256
370
-1
  6
ByLayer
 10
108.8132595422732436
 20
0.832990009459132
 30
0.0
 11
112.7913471237462915
 21
1.2511038625297257
 31
0.0
  0
LINE
  5
65
100
AcDbEntity
100
AcDbLine
  8
skeleton
 62
256
370
-1
  6
ByLayer
 10
111.7968252283780117
 20
1.1465753992620757
 30
0.0
 11
111.9013536916456673
 21
0.1520535038938017
 31
0.0
  0
LINE
  5
66
100
AcDbEntity
100
AcDbLine
  8
bar
 62
256
370
-1
  6
ByLayer
 10
112.7913471237462915
 20
1.2511038625297259
 30
0.0
 11
111.7968252283780117
 21
1.1465753992620755
 31
0.0
  0
LINE
  5
67
100
AcDbEntity
100
AcDbLine
  8
bar
 62
256
370
-1
  6
ByLayer
 10
111.7968252283780117
 20
1.1465753992620755
 30
0.0
 11
111.9013536916456673
 21
0.1520535038938017
 31
0.0
  0
LINE
  5
68
100
AcDbEntity
100
AcDbLine
  8
bar
 62
256
370
-1
  6
ByLayer
 10
111.9013536916456673
 20
0.1520535038938017
 30
0.0
 11
112.895875587013947
 21
0.256581967161452
 31
0.0
  0
LINE
  5
69
100
AcDbEntity
100
AcDbLine
  8
bar
 62
256
370
-1
  6
ByLayer
 10
112.7913471237462915
 20
1.2511038625297262
 30
0.0
 11
105.3038293402902639
 21
72.4900769118034844
 31
0.0
  0
LINE
  5
6A
100
AcDbEntity
100
AcDbLine
  8
bar
 62
256
370
-1
  6
ByLayer
 10
100.7585618933616587
 20
39.2012300757511625
 30
0.0
 11
101.3857326729675634
 21
33.2340987035415694
 31
0.0
  0
LINE
  5
6B
100
AcDbEntity
100
AcDbLine
  8
bar
 62
256
370
-1
  6
ByLayer
 10
104.7585618933616729
 20
39.4108611928833241
 30
0.0
 11
100.7585618933616587
 21
39.2012300757511625
 31
0.0
  0
LINE
  5
6C
100
AcDbEntity
100
AcDbLine
  8
bar
 62
256
370
-1
  6
ByLayer
 10
98.8595279744975812
 20
95.536419824777127
 30
0.0
 11
100.0328686277903643
 21
84.3728292203940811
 31
0.0
  0
ARC
  5
6D
100
AcDbEntity
  8
bar
 62
256
370
-1
  6
ByLayer
100
AcDbCircle
 10
96.870484183761036
 20
95.327362898241816
 30
0.0
 40
2.0
100
AcDbArc
 50
6.0000000000001474
 51
49.3417582272223427
  0
LINE
  5
6E
100
AcDbEntity
100
AcDbLine
  8
bar
 62
256
370
-1
  6
ByLayer
 10
102.8376155559706859
 20
95.9545336778477207
 30
0.0
 11
104.0109562092634548
 21
84.790943073464689
 31
0.0
  0
ARC
  5
6F
100
AcDbEntity
  8
bar
 62
256
370
-1
  6
ByLayer
100
AcDbCircle
 10
100.4539854695121051
 20
99.4997145774534886
 30
0.0
 40
3.5
100
AcDbArc
 50
322.6582417727776146
 51
229.3417582272222432
  0
ARC
  5
70
100
AcDbEntity
  8
bar
 62
256
370
-1
  6
ByLayer
100
AcDbCircle
 10
104.8266593467072312
 20
96.1635906043830317
 30
0.0
 40
2.0
100
AcDbArc
 50
142.6582417727774441
 51
186.0000000000001421
  0
LINE
  5
71
100
AcDbEntity
100
AcDbLine
  8
bar
 62
256
370
-1
  6
ByLayer
 10
103.9994787861953967
 20
46.6330545255070064
 30
0.0
 11
104.7585618933616729
 21
39.4108611928833241
 31
0.0
  0
LINE
  5
72
100
AcDbEntity
100
AcDbLine
  8
bar
 62
256
370
-1
  6
ByLayer
 10
95.8314778436120065
 20
65.5013478185922793
 30
0.0
 11
101.9038045637646945
 21
66.5720628550321436
 31
0.0
  0
LINE
  5
73
100
AcDbEntity
100
AcDbLine
  8
bar
 62
256
370
-1
  6
ByLayer
 10
104.0
 20
46.6331464295634746
 30
0.0
 11
98.6185955035087147
 21
54.1798862240285004
 31
0.0
  0
LINE
  5
74
100
AcDbEntity
100
AcDbLine
  8
bar
 62
256
370
-1
  6
ByLayer
 10
97.253723757256239
 20
57.4353904255161609
 30
0.0
 11
95.8314778436120065
 21
65.5013478185922793
 31
0.0
  0
ARC
  5
75
100
AcDbEntity
  8
bar
 62
256
370
-1
  6
ByLayer
100
AcDbCircle
 10
105.1321857813538969
 20
58.8245758468516087
 30
0.0
 40
8.0
100
AcDbArc
 50
190.0000000000000284
 51
215.4917835936363417
  0
ENDSEC
  0
SECTION
  2
OBJECTS
  0
DICTIONARY
  5
C
100
AcDbDictionary
280
0
281
1
  3
ACAD_GROUP
350
D
  3
ACAD_LAYOUT
350
1A
  3
ACAD_MLINESTYLE
350
17
  3
ACAD_PLOTSETTINGS
350
19
  3
ACAD_PLOTSTYLENAME
350
E
  3
AcDbVariableDictionary
350
76
  0
DICTIONARY
  5
D
100
AcDbDictionary
280
0
281
1
  0
ACDBDICTIONARYWDFLT
  5
E
100
AcDbDictionary
281
1
  3
Normal
350
F
100
AcDbDictionaryWithDefault
340
F
  0
ACDBPLACEHOLDER
  5
F
  0
DICTIONARY
  5
17
100
AcDbDictionary
280
0
281
1
  3
Standard
350
18
  0
MLINESTYLE
  5
18
100
AcDbMlineStyle
  2
STANDARD
 70
0
  3

 62
256
 51
90.0
 52
90.0
 71
2
 49
0.5
 62
256
  6
BYLAYER
 49
-0.5
 62
256
  6
BYLAYER
  0
DICTIONARY
  5
19
100
AcDbDictionary
280
0
281
1
  0
DICTIONARY
  5
1A
100
AcDbDictionary
281
1
  3
Layout1
350
1E
  3
Layout2
350
26
  3
Model
350
22
  0
LAYOUT
  5
1E
100
AcDbPlotSettings
  1

  2
C:\Program Files\AutoCAD 2002\plotters\DWF ePlot (optimized for plotting).pc3
  4

  6

 40
0.0
 41
0.0
 42
0.0
 43
0.0
 44
0.0
 45
0.0
 46
0.0
 47
0.0
 48
0.0
 49
0.0
140
0.0
141
0.0
142
1.0
143
1.0
 70
688
 72
0
 73
0
 74
5
  7

 75
16
147
1.0
148
0.0
149
0.0
100
AcDbLayout
  1
Layout1
 70
1
 71
1
 10
0.0
 20
0.0
 11
420.0
 21
297.0
 12
0.0
 22
0.0
 32
0.0
 14
100000000000000000000.0
 24
100000000000000000000.0
 34
100000000000000000000.0
 15
-100000000000000000000.0
 25
-100000000000000000000.0
 35
-100000000000000000000.0
146
0.0
 13
0.0
 23
0.0
 33
0.0
 16
1.0
 26
0.0
 36
0.0
 17
0.0
 27
1.0
 37
0.0
 76
0
330
1B
  0
LAYOUT
  5
22
100
AcDbPlotSettings
  1

  2
C:\Program Files\AutoCAD 2002\plotters\DWF ePlot (optimized for plotting).pc3
  4

  6

 40
0.0
 41
0.0
 42
0.0
 43
0.0
 44
0.0
 45
0.0
 46
0.0
 47
0.0
 48
0.0
 49
0.0
140
0.0
141
0.0
142
1.0
143
1.0
 70
1712
 72
0
 73
0
 74
0
  7

 75
0
147
1.0
148
0.0
149
0.0
100
AcDbLayout
  1
Model
 70
1
 71
0
 10
0.0
 20
0.0
 11
12.0
 21
9.0
 12
0.0
 22
0.0
 32
0.0
 14
0.0
 24
0.0
 34
0.0
 15
0.0
 25
0.0
 35
0.0
146
0.0
 13
0.0
 23
0.0
 33
0.0
 16
1.0
 26
0.0
 36
0.0
 17
0.0
 27
1.0
 37
0.0
 76
0
330
1F
  0
LAYOUT
  5
26
100
AcDbPlotSettings
  1

  2
C:\Program Files\AutoCAD 2002\plotters\DWF ePlot (optimized for plotting).pc3
  4

  6

 40
0.0
 41
0.0
 42
0.0
 43
0.0
 44
0.0
 45
0.0
 46
0.0
 47
0.0
 48
0.0
 49
0.0
140
0.0
141
0.0
142
1.0
143
1.0
 70
688
 72
0
 73
0
 74
5
  7

 75
16
147
1.0
148
0.0
149
0.0
100
AcDbLayout
  1
Layout2
 70
1
 71
2
 10
0.0
 20
0.0
 11
12.0
 21
9.0
 12
0.0
 22
0.0
 32
0.0
 14
0.0
 24
0.0
 34
0.0
 15
0.0
 25
0.0
 35
0.0
146
0.0
 13
0.0
 23
0.0
 33
0.0
 16
1.0
 26
0.0
 36
0.0
 17
0.0
 27
1.0
 37
0.0
 76
0
330
23
  0
DICTIONARY
  5
76
100
AcDbDictionary
281
1
  3
DIMASSOC
350
78
  3
HIDETEXT
350
77
  0
DICTIONARYVAR
  5
77
100
DictionaryVariables
280
0
  1
2
  0
DICTIONARYVAR
  5
78
100
DictionaryVariables
280
0
  1
1
  0
ENDSEC
  0
EOF
