999
dxflib 2.2.0.0
  0
SECTION
  2
HEADER
  9
$ACADVER
  1
AC1015
  9
$HANDSEED
  5
FFFF
  9
$DIMASZ
 40
2.5
  9
$PLIMMIN
 10
0.0
 20
0.0
  9
$DIMEXE
 40
1.25
  9
$DIMGAP
 40
0.625
  9
$PLIMMAX
 10
210.0
 20
297.0
  9
$INSUNITS
 70
4
  9
$DIMSTYLE
  2
Standard
  9
$CLAYER
  8
etch
  9
$DIMEXO
 40
0.625
  9
$DIMTXT
 40
2.5
  9
$CLAYER
  8
cut
  0
ENDSEC
  0
SECTION
  2
TABLES
  0
TABLE
  2
VPORT
  5
8
100
AcDbSymbolTable
 70
1
  0
VPORT
  5
30
100
AcDbSymbolTableRecord
100
AcDbViewportTableRecord
  2
*Active
 70
0
 10
0.0
 20
0.0
 11
1.0
 21
1.0
 12
286.3055555555554861
 22
148.5
 13
0.0
 23
0.0
 14
10.0
 24
10.0
 15
10.0
 25
10.0
 16
0.0
 26
0.0
 36
1.0
 17
0.0
 27
0.0
 37
0.0
 40
297.0
 41
1.92798353909465
 42
50.0
 43
0.0
 44
0.0
 50
0.0
 51
0.0
 71
0
 72
100
 73
1
 74
3
 75
1
 76
1
 77
0
 78
0
281
0
 65
1
110
0.0
120
0.0
130
0.0
111
1.0
121
0.0
131
0.0
112
0.0
122
1.0
132
0.0
 79
0
146
0.0
  0
ENDTAB
  0
TABLE
  2
LTYPE
  5
5
100
AcDbSymbolTable
 70
21
  0
LTYPE
  5
14
100
AcDbSymbolTableRecord
100
AcDbLinetypeTableRecord
  2
ByBlock
 70
0
  3

 72
65
 73
0
 40
0.0
  0
LTYPE
  5
15
100
AcDbSymbolTableRecord
100
AcDbLinetypeTableRecord
  2
ByLayer
 70
0
  3

 72
65
 73
0
 40
0.0
  0
LTYPE
  5
16
100
AcDbSymbolTableRecord
100
AcDbLinetypeTableRecord
  2
CONTINUOUS
 70
0
  3
Solid line
 72
65
 73
0
 40
0.0
  0
LTYPE
  5
31
100
AcDbSymbolTableRecord
100
AcDbLinetypeTableRecord
  2
DOT
 70
0
  3
Dot . . . . . . . . . . . . . . . . . . . . . .
 72
65
 73
2
 40
6.3499999999999996
 49
0.0
 74
0
 49
-6.3499999999999996
 74
0
  0
LTYPE
  5
32
100
AcDbSymbolTableRecord
100
AcDbLinetypeTableRecord
  2
DOT2
 70
0
  3
Dot (.5x) .....................................
 72
65
 73
2
 40
3.1749999999999998
 49
0.0
 74
0
 49
-3.1749999999999998
 74
0
  0
LTYPE
  5
33
100
AcDbSymbolTableRecord
100
AcDbLinetypeTableRecord
  2
DOTX2
 70
0
  3
Dot (2x) .  .  .  .  .  .  .  .  .  .  .  .  .
 72
65
 73
2
 40
12.6999999999999993
 49
0.0
 74
0
 49
-12.6999999999999993
 74
0
  0
LTYPE
  5
34
100
AcDbSymbolTableRecord
100
AcDbLinetypeTableRecord
  2
DASHED
 70
0
  3
Dashed __ __ __ __ __ __ __ __ __ __ __ __ __ _
 72
65
 73
2
 40
19.0500000000000007
 49
12.6999999999999993
 74
0
 49
-6.3499999999999996
 74
0
  0
LTYPE
  5
35
100
AcDbSymbolTableRecord
100
AcDbLinetypeTableRecord
  2
DASHED2
 70
0
  3
Dashed (.5x) _ _ _ _ _ _ _ _ _ _ _ _ _ _ _ _ _
 72
65
 73
2
 40
9.5250000000000004
 49
6.3499999999999996
 74
0
 49
-3.1749999999999998
 74
0
  0
LTYPE
  5
36
100
AcDbSymbolTableRecord
100
AcDbLinetypeTableRecord
  2
DASHEDX2
 70
0
  3
Dashed (2x) ____  ____  ____  ____  ____  ___
 72
65
 73
2
 40
38.1000000000000014
 49
25.3999999999999986
 74
0
 49
-12.6999999999999993
 74
0
  0
LTYPE
  5
37
100
AcDbSymbolTableRecord
100
AcDbLinetypeTableRecord
  2
DASHDOT
 70
0
  3
Dash dot __ . __ . __ . __ . __ . __ . __ . __
 72
65
 73
4
 40
25.3999999999999986
 49
12.6999999999999993
 74
0
 49
-6.3499999999999996
 74
0
 49
0.0
 74
0
 49
-6.3499999999999996
 74
0
  0
LTYPE
  5
38
100
AcDbSymbolTableRecord
100
AcDbLinetypeTableRecord
  2
DASHDOT2
 70
0
  3
Dash dot (.5x) _._._._._._._._._._._._._._._.
 72
65
 73
4
 40
12.6999999999999993
 49
6.3499999999999996
 74
0
 49
-3.1749999999999998
 74
0
 49
0.0
 74
0
 49
-3.1749999999999998
 74
0
  0
LTYPE
  5
39
100
AcDbSymbolTableRecord
100
AcDbLinetypeTableRecord
  2
DASHDOTX2
 70
0
  3
Dash dot (2x) ____  .  ____  .  ____  .  ___
 72
65
 73
4
 40
50.7999999999999972
 49
25.3999999999999986
 74
0
 49
-12.6999999999999993
 74
0
 49
0.0
 74
0
 49
-12.6999999999999993
 74
0
  0
LTYPE
  5
3A
100
AcDbSymbolTableRecord
100
AcDbLinetypeTableRecord
  2
DIVIDE
 70
0
  3
Divide ____ . . ____ . . ____ . . ____ . . ____
 72
65
 73
6
 40
31.75
 49
12.6999999999999993
 74
0
 49
-6.3499999999999996
 74
0
 49
0.0
 74
0
 49
-6.3499999999999996
 74
0
 49
0.0
 74
0
 49
-6.3499999999999996
 74
0
  0
LTYPE
  5
3B
100
AcDbSymbolTableRecord
100
AcDbLinetypeTableRecord
  2
DIVIDE2
 70
0
  3
Divide (.5x) __..__..__..__..__..__..__..__.._
 72
65
 73
6
 40
15.875
 49
6.3499999999999996
 74
0
 49
-3.1749999999999998
 74
0
 49
0.0
 74
0
 49
-3.1749999999999998
 74
0
 49
0.0
 74
0
 49
-3.1749999999999998
 74
0
  0
LTYPE
  5
3C
100
AcDbSymbolTableRecord
100
AcDbLinetypeTableRecord
  2
DIVIDEX2
 70
0
  3
Divide (2x) ________  .  .  ________  .  .  _
 72
65
 73
6
 40
63.5
 49
25.3999999999999986
 74
0
 49
-12.6999999999999993
 74
0
 49
0.0
 74
0
 49
-12.6999999999999993
 74
0
 49
0.0
 74
0
 49
-12.6999999999999993
 74
0
  0
LTYPE
  5
3D
100
AcDbSymbolTableRecord
100
AcDbLinetypeTableRecord
  2
CENTER
 70
0
  3
Center ____ _ ____ _ ____ _ ____ _ ____ _ ____
 72
65
 73
4
 40
50.7999999999999972
 49
31.75
 74
0
 49
-6.3499999999999996
 74
0
 49
6.3499999999999996
 74
0
 49
-6.3499999999999996
 74
0
  0
LTYPE
  5
3E
100
AcDbSymbolTableRecord
100
AcDbLinetypeTableRecord
  2
CENTER2
 70
0
  3
Center (.5x) ___ _ ___ _ ___ _ ___ _ ___ _ ___
 72
65
 73
4
 40
28.5749999999999993
 49
19.0500000000000007
 74
0
 49
-3.1749999999999998
 74
0
 49
3.1749999999999998
 74
0
 49
-3.1749999999999998
 74
0
  0
LTYPE
  5
3F
100
AcDbSymbolTableRecord
100
AcDbLinetypeTableRecord
  2
CENTERX2
 70
0
  3
Center (2x) ________  __  ________  __  _____
 72
65
 73
4
 40
101.5999999999999943
 49
63.5
 74
0
 49
-12.6999999999999993
 74
0
 49
12.6999999999999993
 74
0
 49
-12.6999999999999993
 74
0
  0
LTYPE
  5
40
100
AcDbSymbolTableRecord
100
AcDbLinetypeTableRecord
  2
BORDER
 70
0
  3
Border __ __ . __ __ . __ __ . __ __ . __ __ .
 72
65
 73
6
 40
44.4500000000000028
 49
12.6999999999999993
 74
0
 49
-6.3499999999999996
 74
0
 49
12.6999999999999993
 74
0
 49
-6.3499999999999996
 74
0
 49
0.0
 74
0
 49
-6.3499999999999996
 74
0
  0
LTYPE
  5
41
100
AcDbSymbolTableRecord
100
AcDbLinetypeTableRecord
  2
BORDER2
 70
0
  3
Border (.5x) __.__.__.__.__.__.__.__.__.__.__.
 72
65
 73
6
 40
22.2250000000000014
 49
6.3499999999999996
 74
0
 49
-3.1749999999999998
 74
0
 49
6.3499999999999996
 74
0
 49
-3.1749999999999998
 74
0
 49
0.0
 74
0
 49
-3.1749999999999998
 74
0
  0
LTYPE
  5
42
100
AcDbSymbolTableRecord
100
AcDbLinetypeTableRecord
  2
BORDERX2
 70
0
  3
Border (2x) ____  ____  .  ____  ____  .  ___
 72
65
 73
6
 40
88.9000000000000057
 49
25.3999999999999986
 74
0
 49
-12.6999999999999993
 74
0
 49
25.3999999999999986
 74
0
 49
-12.6999999999999993
 74
0
 49
0.0
 74
0
 49
-12.6999999999999993
 74
0
  0
ENDTAB
  0
TABLE
  2
LAYER
  5
2
100
AcDbSymbolTable
 70
5
  0
LAYER
  5
10
100
AcDbSymbolTableRecord
100
AcDbLayerTableRecord
  2
0
 70
0
 62
7
420
0
  6
CONTINUOUS
370
25
390
F
  0
LAYER
  5
43
100
AcDbSymbolTableRecord
100
AcDbLayerTableRecord
  2
skeleton
 70
0
 62
5
420
255
  6
CONTINUOUS
370
0
390
F
  0
LAYER
  5
44
100
AcDbSymbolTableRecord
100
AcDbLayerTableRecord
  2
skeleton2
 70
0
 62
1
420
16711680
  6
CONTINUOUS
370
0
390
F
  0
LAYER
  5
45
100
AcDbSymbolTableRecord
100
AcDbLayerTableRecord
  2
cut
 70
0
 62
7
420
0
  6
CONTINUOUS
370
0
390
F
  0
LAYER
  5
46
100
AcDbSymbolTableRecord
100
AcDbLayerTableRecord
  2
etch
 70
0
 62
3
420
65280
  6
CONTINUOUS
370
0
390
F
  0
ENDTAB
  0
TABLE
  2
STYLE
  5
3
100
AcDbSymbolTable
 70
1
  0
STYLE
  5
11
100
AcDbSymbolTableRecord
100
AcDbTextStyleTableRecord
  2
Standard
 70
0
 40
0.0
 41
0.75
 50
0.0
 71
0
 42
2.5
  3
txt
  4

  0
ENDTAB
  0
TABLE
  2
VIEW
  5
6
100
AcDbSymbolTable
 70
0
  0
ENDTAB
  0
TABLE
  2
UCS
  5
7
100
AcDbSymbolTable
 70
0
  0
ENDTAB
  0
TABLE
  2
APPID
  5
9
100
AcDbSymbolTable
 70
1
  0
APPID
  5
12
100
AcDbSymbolTableRecord
100
AcDbRegAppTableRecord
  2
ACAD
 70
0
  0
ENDTAB
  0
TABLE
  2
DIMSTYLE
  5
A
100
AcDbSymbolTable
 70
1
100
AcDbDimStyleTable
 71
0
  0
DIMSTYLE
105
27
100
AcDbSymbolTableRecord
100
AcDbDimStyleTableRecord
  2
Standard
 41
2.5
 42
0.625
 43
3.75
 44
1.25
 70
0
 73
0
 74
0
 77
1
 78
8
140
2.5
141
2.5
143
0.03937007874016
147
0.625
171
3
172
1
271
2
272
2
274
3
278
44
283
0
284
8
340
11
  0
ENDTAB
  0
TABLE
  2
BLOCK_RECORD
  5
1
100
AcDbSymbolTable
 70
1
  0
BLOCK_RECORD
  5
1F
100
AcDbSymbolTableRecord
100
AcDbBlockTableRecord
  2
*Model_Space
340
22
  0
BLOCK_RECORD
  5
1B
100
AcDbSymbolTableRecord
100
AcDbBlockTableRecord
  2
*Paper_Space
340
1E
  0
BLOCK_RECORD
  5
23
100
AcDbSymbolTableRecord
100
AcDbBlockTableRecord
  2
*Paper_Space0
340
26
  0
ENDTAB
  0
ENDSEC
  0
SECTION
  2
BLOCKS
  0
BLOCK
  5
20
100
AcDbEntity
  8
0
100
AcDbBlockBegin
  2
*Model_Space
 70
0
 10
0.0
 20
0.0
 30
0.0
  3
*Model_Space
  1

  0
ENDBLK
  5
21
100
AcDbEntity
  8
0
100
AcDbBlockEnd
  0
BLOCK
  5
1C
100
AcDbEntity
 67
1
  8
0
100
AcDbBlockBegin
  2
*Paper_Space
 70
0
 10
0.0
 20
0.0
 30
0.0
  3
*Paper_Space
  1

  0
ENDBLK
  5
1D
100
AcDbEntity
 67
1
  8
0
100
AcDbBlockEnd
  0
BLOCK
  5
24
100
AcDbEntity
  8
0
100
AcDbBlockBegin
  2
*Paper_Space0
 70
0
 10
0.0
 20
0.0
 30
0.0
  3
*Paper_Space0
  1

  0
ENDBLK
  5
25
100
AcDbEntity
  8
0
100
AcDbBlockEnd
  0
ENDSEC
  0
SECTION
  2
ENTITIES
  0
LINE
  5
47
100
AcDbEntity
100
AcDbLine
  8
skeleton
 62
256
370
-1
  6
ByLayer
 10
170.4000000000000057
 20
60.0
 30
0.0
 11
170.4000000000000057
 21
84.0
 31
0.0
  0
LINE
  5
48
100
AcDbEntity
100
AcDbLine
  8
skeleton
 62
256
370
-1
  6
ByLayer
 10
171.8000000000000114
 20
60.0
 30
0.0
 11
171.8000000000000114
 21
84.0
 31
0.0
  0
LINE
  5
49
100
AcDbEntity
100
AcDbLine
  8
skeleton2
 62
256
370
-1
  6
ByLayer
 10
172.8000000000000114
 20
60.0
 30
0.0
 11
172.8000000000000114
 21
84.0
 31
0.0
  0
LINE
  5
4A
100
AcDbEntity
100
AcDbLine
  8
skeleton2
 62
256
370
-1
  6
ByLayer
 10
174.2000000000000171
 20
60.0
 30
0.0
 11
174.2000000000000171
 21
84.0
 31
0.0
  0
LINE
  5
4B
100
AcDbEntity
100
AcDbLine
  8
skeleton
 62
256
370
-1
  6
ByLayer
 10
176.6000000000000227
 20
60.0
 30
0.0
 11
176.6000000000000227
 21
84.0
 31
0.0
  0
LINE
  5
4C
100
AcDbEntity
100
AcDbLine
  8
skeleton2
 62
256
370
-1
  6
ByLayer
 10
179.0000000000000284
 20
60.0
 30
0.0
 11
179.0000000000000284
 21
84.0
 31
0.0
  0
LINE
  5
4D
100
AcDbEntity
100
AcDbLine
  8
skeleton2
 62
256
370
-1
  6
ByLayer
 10
182.4000000000000057
 20
60.0
 30
0.0
 11
182.4000000000000057
 21
84.0
 31
0.0
  0
LINE
  5
4E
100
AcDbEntity
100
AcDbLine
  8
skeleton2
 62
256
370
-1
  6
ByLayer
 10
188.5999999999999943
 20
60.0
 30
0.0
 11
188.5999999999999943
 21
84.0
 31
0.0
  0
LINE
  5
4F
100
AcDbEntity
100
AcDbLine
  8
skeleton2
 62
256
370
-1
  6
ByLayer
 10
187.2000000000000171
 20
60.0
 30
0.0
 11
187.2000000000000171
 21
84.0
 31
0.0
  0
LINE
  5
50
100
AcDbEntity
100
AcDbLine
  8
skeleton
 62
256
370
-1
  6
ByLayer
 10
186.1999999999999886
 20
60.0
 30
0.0
 11
186.1999999999999886
 21
84.0
 31
0.0
  0
LINE
  5
51
100
AcDbEntity
100
AcDbLine
  8
skeleton
 62
256
370
-1
  6
ByLayer
 10
184.8000000000000114
 20
60.0
 30
0.0
 11
184.8000000000000114
 21
84.0
 31
0.0
  0
LINE
  5
52
100
AcDbEntity
100
AcDbLine
  8
skeleton2
 62
256
370
-1
  6
ByLayer
 10
183.8000000000000114
 20
60.0
 30
0.0
 11
183.8000000000000114
 21
84.0
 31
0.0
  0
LINE
  5
53
100
AcDbEntity
100
AcDbLine
  8
skeleton
 62
256
370
-1
  6
ByLayer
 10
181.4000000000000057
 20
60.0
 30
0.0
 11
181.4000000000000057
 21
84.0
 31
0.0
  0
LINE
  5
54
100
AcDbEntity
100
AcDbLine
  8
skeleton
 62
256
370
-1
  6
ByLayer
 10
180.0
 20
60.0
 30
0.0
 11
180.0
 21
84.0
 31
0.0
  0
LINE
  5
55
100
AcDbEntity
100
AcDbLine
  8
skeleton2
 62
256
370
-1
  6
ByLayer
 10
177.5999999999999943
 20
60.0
 30
0.0
 11
177.5999999999999943
 21
84.0
 31
0.0
  0
LINE
  5
56
100
AcDbEntity
100
AcDbLine
  8
skeleton
 62
256
370
-1
  6
ByLayer
 10
175.1999999999999886
 20
60.0
 30
0.0
 11
175.1999999999999886
 21
84.0
 31
0.0
  0
LINE
  5
57
100
AcDbEntity
100
AcDbLine
  8
skeleton
 62
256
370
-1
  6
ByLayer
 10
-30.0
 20
10.0
 30
0.0
 11
-30.0
 21
50.0
 31
0.0
  0
LINE
  5
58
100
AcDbEntity
100
AcDbLine
  8
skeleton
 62
256
370
-1
  6
ByLayer
 10
-25.2000000000000028
 20
9.9999999999999982
 30
0.0
 11
-25.2000000000000028
 21
50.0
 31
0.0
  0
LINE
  5
59
100
AcDbEntity
100
AcDbLine
  8
skeleton
 62
256
370
-1
  6
ByLayer
 10
-34.7999999999999972
 20
10.0
 30
0.0
 11
-34.7999999999999972
 21
50.0
 31
0.0
  0
LINE
  5
5A
100
AcDbEntity
100
AcDbLine
  8
skeleton
 62
256
370
-1
  6
ByLayer
 10
-39.5999999999999943
 20
10.0
 30
0.0
 11
-39.5999999999999943
 21
50.0
 31
0.0
  0
LINE
  5
5B
100
AcDbEntity
100
AcDbLine
  8
skeleton
 62
256
370
-1
  6
ByLayer
 10
-23.7999999999999972
 20
9.9999999999999982
 30
0.0
 11
-23.7999999999999972
 21
50.0
 31
0.0
  0
LINE
  5
5C
100
AcDbEntity
100
AcDbLine
  8
skeleton
 62
256
370
-1
  6
ByLayer
 10
-28.5999999999999943
 20
10.0
 30
0.0
 11
-28.5999999999999943
 21
50.0
 31
0.0
  0
LINE
  5
5D
100
AcDbEntity
100
AcDbLine
  8
skeleton
 62
256
370
-1
  6
ByLayer
 10
-33.3999999999999915
 20
10.0
 30
0.0
 11
-33.3999999999999915
 21
50.0
 31
0.0
  0
LINE
  5
5E
100
AcDbEntity
100
AcDbLine
  8
skeleton
 62
256
370
-1
  6
ByLayer
 10
-38.1999999999999957
 20
10.0
 30
0.0
 11
-38.1999999999999957
 21
50.0
 31
0.0
  0
LINE
  5
5F
100
AcDbEntity
100
AcDbLine
  8
skeleton
 62
256
370
-1
  6
ByLayer
 10
-39.5999999999999943
 20
50.0
 30
0.0
 11
-23.7999999999999972
 21
50.0
 31
0.0
  0
LINE
  5
60
100
AcDbEntity
100
AcDbLine
  8
skeleton
 62
256
370
-1
  6
ByLayer
 10
-23.7999999999999972
 20
9.9999999999999982
 30
0.0
 11
-39.5999999999999943
 21
10.0
 31
0.0
  0
LINE
  5
61
100
AcDbEntity
100
AcDbLine
  8
skeleton2
 62
256
370
-1
  6
ByLayer
 10
-44.1999999999999886
 20
50.0
 30
0.0
 11
-19.1999999999999886
 21
50.0
 31
0.0
  0
LINE
  5
62
100
AcDbEntity
100
AcDbLine
  8
skeleton2
 62
256
370
-1
  6
ByLayer
 10
-44.1999999999999886
 20
10.0
 30
0.0
 11
-19.1999999999999886
 21
10.0
 31
0.0
  0
LINE
  5
63
100
AcDbEntity
100
AcDbLine
  8
skeleton2
 62
256
370
-1
  6
ByLayer
 10
-47.1999999999999886
 20
50.0
 30
0.0
 11
-47.1999999999999886
 21
10.0000000000000018
 31
0.0
  0
LINE
  5
64
100
AcDbEntity
100
AcDbLine
  8
cut
 62
256
370
-1
  6
ByLayer
 10
-47.1999999999999886
 20
40.0
 30
0.0
 11
-47.1999999999999886
 21
34.0
 31
0.0
  0
LINE
  5
65
100
AcDbEntity
100
AcDbLine
  8
cut
 62
256
370
-1
  6
ByLayer
 10
-47.1999999999999886
 20
34.0
 30
0.0
 11
-44.1999999999999886
 21
34.0
 31
0.0
  0
LINE
  5
66
100
AcDbEntity
100
AcDbLine
  8
cut
 62
256
370
-1
  6
ByLayer
 10
-44.1999999999999886
 20
34.0
 30
0.0
 11
-44.1999999999999886
 21
20.0
 31
0.0
  0
LINE
  5
67
100
AcDbEntity
100
AcDbLine
  8
cut
 62
256
370
-1
  6
ByLayer
 10
-44.1999999999999886
 20
20.0
 30
0.0
 11
-47.1999999999999886
 21
20.0
 31
0.0
  0
LINE
  5
68
100
AcDbEntity
100
AcDbLine
  8
cut
 62
256
370
-1
  6
ByLayer
 10
-47.1999999999999886
 20
20.0
 30
0.0
 11
-47.1999999999999886
 21
14.0
 31
0.0
  0
LINE
  5
69
100
AcDbEntity
100
AcDbLine
  8
cut
 62
256
370
-1
  6
ByLayer
 10
-23.7999999999999972
 20
40.0
 30
0.0
 11
-23.7999999999999972
 21
20.0
 31
0.0
  0
LINE
  5
6A
100
AcDbEntity
100
AcDbLine
  8
cut
 62
256
370
-1
  6
ByLayer
 10
-23.7999999999999972
 20
20.0
 30
0.0
 11
-25.2000000000000028
 21
20.0
 31
0.0
  0
LINE
  5
6B
100
AcDbEntity
100
AcDbLine
  8
cut
 62
256
370
-1
  6
ByLayer
 10
-25.2000000000000028
 20
20.0
 30
0.0
 11
-25.2000000000000028
 21
40.0
 31
0.0
  0
LINE
  5
6C
100
AcDbEntity
100
AcDbLine
  8
cut
 62
256
370
-1
  6
ByLayer
 10
-25.2000000000000028
 20
40.0
 30
0.0
 11
-28.5999999999999943
 21
40.0
 31
0.0
  0
LINE
  5
6D
100
AcDbEntity
100
AcDbLine
  8
cut
 62
256
370
-1
  6
ByLayer
 10
-28.5999999999999943
 20
40.0
 30
0.0
 11
-28.5999999999999943
 21
20.0
 31
0.0
  0
LINE
  5
6E
100
AcDbEntity
100
AcDbLine
  8
cut
 62
256
370
-1
  6
ByLayer
 10
-28.5999999999999943
 20
20.0
 30
0.0
 11
-30.0
 21
20.0
 31
0.0
  0
LINE
  5
6F
100
AcDbEntity
100
AcDbLine
  8
cut
 62
256
370
-1
  6
ByLayer
 10
-30.0
 20
20.0
 30
0.0
 11
-30.0
 21
40.0
 31
0.0
  0
LINE
  5
70
100
AcDbEntity
100
AcDbLine
  8
cut
 62
256
370
-1
  6
ByLayer
 10
-30.0
 20
40.0
 30
0.0
 11
-33.3999999999999915
 21
40.0
 31
0.0
  0
LINE
  5
71
100
AcDbEntity
100
AcDbLine
  8
cut
 62
256
370
-1
  6
ByLayer
 10
-33.3999999999999915
 20
40.0
 30
0.0
 11
-33.3999999999999915
 21
20.0
 31
0.0
  0
LINE
  5
72
100
AcDbEntity
100
AcDbLine
  8
cut
 62
256
370
-1
  6
ByLayer
 10
-33.3999999999999915
 20
20.0
 30
0.0
 11
-34.7999999999999972
 21
20.0
 31
0.0
  0
LINE
  5
73
100
AcDbEntity
100
AcDbLine
  8
cut
 62
256
370
-1
  6
ByLayer
 10
-34.7999999999999972
 20
20.0
 30
0.0
 11
-34.7999999999999972
 21
40.0
 31
0.0
  0
LINE
  5
74
100
AcDbEntity
100
AcDbLine
  8
cut
 62
256
370
-1
  6
ByLayer
 10
-34.7999999999999972
 20
40.0
 30
0.0
 11
-38.1999999999999957
 21
40.0
 31
0.0
  0
LINE
  5
75
100
AcDbEntity
100
AcDbLine
  8
cut
 62
256
370
-1
  6
ByLayer
 10
-38.1999999999999957
 20
40.0
 30
0.0
 11
-38.1999999999999957
 21
20.0
 31
0.0
  0
LINE
  5
76
100
AcDbEntity
100
AcDbLine
  8
cut
 62
256
370
-1
  6
ByLayer
 10
-38.1999999999999957
 20
20.0
 30
0.0
 11
-39.5999999999999943
 21
20.0
 31
0.0
  0
LINE
  5
77
100
AcDbEntity
100
AcDbLine
  8
cut
 62
256
370
-1
  6
ByLayer
 10
-39.5999999999999943
 20
20.0
 30
0.0
 11
-39.5999999999999943
 21
40.0
 31
0.0
  0
LINE
  5
78
100
AcDbEntity
100
AcDbLine
  8
cut
 62
256
370
-1
  6
ByLayer
 10
-39.5999999999999943
 20
40.0
 30
0.0
 11
-47.1999999999999886
 21
40.0
 31
0.0
  0
LINE
  5
79
100
AcDbEntity
100
AcDbLine
  8
skeleton
 62
256
370
-1
  6
ByLayer
 10
-10.8000000000000007
 20
10.0
 30
0.0
 11
-10.8000000000000007
 21
50.0
 31
0.0
  0
LINE
  5
7A
100
AcDbEntity
100
AcDbLine
  8
skeleton
 62
256
370
-1
  6
ByLayer
 10
-6.0000000000000036
 20
9.9999999999999982
 30
0.0
 11
-6.0000000000000036
 21
50.0
 31
0.0
  0
LINE
  5
7B
100
AcDbEntity
100
AcDbLine
  8
skeleton
 62
256
370
-1
  6
ByLayer
 10
-15.5999999999999979
 20
10.0
 30
0.0
 11
-15.5999999999999979
 21
50.0
 31
0.0
  0
LINE
  5
7C
100
AcDbEntity
100
AcDbLine
  8
skeleton
 62
256
370
-1
  6
ByLayer
 10
-20.399999999999995
 20
10.0
 30
0.0
 11
-20.399999999999995
 21
50.0
 31
0.0
  0
LINE
  5
7D
100
AcDbEntity
100
AcDbLine
  8
skeleton
 62
256
370
-1
  6
ByLayer
 10
-4.5999999999999979
 20
9.9999999999999982
 30
0.0
 11
-4.5999999999999979
 21
50.0
 31
0.0
  0
LINE
  5
7E
100
AcDbEntity
100
AcDbLine
  8
skeleton
 62
256
370
-1
  6
ByLayer
 10
-9.399999999999995
 20
10.0
 30
0.0
 11
-9.399999999999995
 21
50.0
 31
0.0
  0
LINE
  5
7F
100
AcDbEntity
100
AcDbLine
  8
skeleton
 62
256
370
-1
  6
ByLayer
 10
-14.1999999999999922
 20
10.0
 30
0.0
 11
-14.1999999999999922
 21
50.0
 31
0.0
  0
LINE
  5
80
100
AcDbEntity
100
AcDbLine
  8
skeleton
 62
256
370
-1
  6
ByLayer
 10
-18.9999999999999964
 20
10.0
 30
0.0
 11
-18.9999999999999964
 21
50.0
 31
0.0
  0
LINE
  5
81
100
AcDbEntity
100
AcDbLine
  8
skeleton
 62
256
370
-1
  6
ByLayer
 10
-20.399999999999995
 20
50.0
 30
0.0
 11
-4.5999999999999979
 21
50.0
 31
0.0
  0
LINE
  5
82
100
AcDbEntity
100
AcDbLine
  8
skeleton
 62
256
370
-1
  6
ByLayer
 10
-4.5999999999999979
 20
9.9999999999999982
 30
0.0
 11
-20.399999999999995
 21
10.0
 31
0.0
  0
LINE
  5
83
100
AcDbEntity
100
AcDbLine
  8
cut
 62
256
370
-1
  6
ByLayer
 10
-4.5999999999999979
 20
40.0
 30
0.0
 11
-4.5999999999999979
 21
20.0
 31
0.0
  0
LINE
  5
84
100
AcDbEntity
100
AcDbLine
  8
cut
 62
256
370
-1
  6
ByLayer
 10
-4.5999999999999979
 20
20.0
 30
0.0
 11
-6.0000000000000036
 21
20.0
 31
0.0
  0
LINE
  5
85
100
AcDbEntity
100
AcDbLine
  8
cut
 62
256
370
-1
  6
ByLayer
 10
-6.0000000000000036
 20
20.0
 30
0.0
 11
-6.0000000000000036
 21
40.0
 31
0.0
  0
LINE
  5
86
100
AcDbEntity
100
AcDbLine
  8
cut
 62
256
370
-1
  6
ByLayer
 10
-6.0000000000000036
 20
40.0
 30
0.0
 11
-9.399999999999995
 21
40.0
 31
0.0
  0
LINE
  5
87
100
AcDbEntity
100
AcDbLine
  8
cut
 62
256
370
-1
  6
ByLayer
 10
-9.399999999999995
 20
40.0
 30
0.0
 11
-9.399999999999995
 21
20.0
 31
0.0
  0
LINE
  5
88
100
AcDbEntity
100
AcDbLine
  8
cut
 62
256
370
-1
  6
ByLayer
 10
-9.399999999999995
 20
20.0
 30
0.0
 11
-10.8000000000000007
 21
20.0
 31
0.0
  0
LINE
  5
89
100
AcDbEntity
100
AcDbLine
  8
cut
 62
256
370
-1
  6
ByLayer
 10
-10.8000000000000007
 20
20.0
 30
0.0
 11
-10.8000000000000007
 21
40.0
 31
0.0
  0
LINE
  5
8A
100
AcDbEntity
100
AcDbLine
  8
cut
 62
256
370
-1
  6
ByLayer
 10
-10.8000000000000007
 20
40.0
 30
0.0
 11
-14.1999999999999922
 21
40.0
 31
0.0
  0
LINE
  5
8B
100
AcDbEntity
100
AcDbLine
  8
cut
 62
256
370
-1
  6
ByLayer
 10
-14.1999999999999922
 20
40.0
 30
0.0
 11
-14.1999999999999922
 21
20.0
 31
0.0
  0
LINE
  5
8C
100
AcDbEntity
100
AcDbLine
  8
cut
 62
256
370
-1
  6
ByLayer
 10
-14.1999999999999922
 20
20.0
 30
0.0
 11
-15.5999999999999979
 21
20.0
 31
0.0
  0
LINE
  5
8D
100
AcDbEntity
100
AcDbLine
  8
cut
 62
256
370
-1
  6
ByLayer
 10
-15.5999999999999979
 20
20.0
 30
0.0
 11
-15.5999999999999979
 21
40.0
 31
0.0
  0
LINE
  5
8E
100
AcDbEntity
100
AcDbLine
  8
cut
 62
256
370
-1
  6
ByLayer
 10
-15.5999999999999979
 20
40.0
 30
0.0
 11
-18.9999999999999964
 21
40.0
 31
0.0
  0
LINE
  5
8F
100
AcDbEntity
100
AcDbLine
  8
cut
 62
256
370
-1
  6
ByLayer
 10
-18.9999999999999964
 20
40.0
 30
0.0
 11
-18.9999999999999964
 21
20.0
 31
0.0
  0
LINE
  5
90
100
AcDbEntity
100
AcDbLine
  8
cut
 62
256
370
-1
  6
ByLayer
 10
-18.9999999999999964
 20
20.0
 30
0.0
 11
-20.399999999999995
 21
20.0
 31
0.0
  0
LINE
  5
91
100
AcDbEntity
100
AcDbLine
  8
cut
 62
256
370
-1
  6
ByLayer
 10
-20.399999999999995
 20
20.0
 30
0.0
 11
-20.399999999999995
 21
40.0
 31
0.0
  0
LINE
  5
92
100
AcDbEntity
100
AcDbLine
  8
etch
 62
256
370
-1
  6
ByLayer
 10
-15.9349333333333227
 20
17.293600000000005
 30
0.0
 11
-16.4349333333333227
 21
17.293600000000005
 31
0.0
  0
ARC
  5
93
100
AcDbEntity
  8
etch
 62
256
370
-1
  6
ByLayer
100
AcDbCircle
 10
-16.4349333333333227
 20
16.793600000000005
 30
0.0
 40
0.5
100
AcDbArc
 50
90.0
 51
180.0
  0
LINE
  5
94
100
AcDbEntity
100
AcDbLine
  8
etch
 62
256
370
-1
  6
ByLayer
 10
-16.9349333333333156
 20
16.793600000000005
 30
0.0
 11
-16.9349333333333156
 21
15.7936000000000067
 31
0.0
  0
ARC
  5
95
100
AcDbEntity
  8
etch
 62
256
370
-1
  6
ByLayer
100
AcDbCircle
 10
-16.4349333333333227
 20
15.7936000000000067
 30
0.0
 40
0.5
100
AcDbArc
 50
180.0
 51
270.0
  0
LINE
  5
96
100
AcDbEntity
100
AcDbLine
  8
etch
 62
256
370
-1
  6
ByLayer
 10
-16.4349333333333227
 20
15.2936000000000067
 30
0.0
 11
-15.9349333333333227
 21
15.2936000000000067
 31
0.0
  0
LINE
  5
97
100
AcDbEntity
100
AcDbLine
  8
etch
 62
256
370
-1
  6
ByLayer
 10
-14.9349333333333085
 20
16.6269333333333371
 30
0.0
 11
-14.9349333333333085
 21
15.960266666666671
 31
0.0
  0
ARC
  5
98
100
AcDbEntity
  8
etch
 62
256
370
-1
  6
ByLayer
100
AcDbCircle
 10
-14.2682666666666371
 20
15.960266666666671
 30
0.0
 40
0.6666666666666666
100
AcDbArc
 50
180.0
 51
0.0
  0
LINE
  5
99
100
AcDbEntity
100
AcDbLine
  8
etch
 62
256
370
-1
  6
ByLayer
 10
-13.6015999999999799
 20
15.960266666666671
 30
0.0
 11
-13.6015999999999799
 21
16.6269333333333371
 31
0.0
  0
ARC
  5
9A
100
AcDbEntity
  8
etch
 62
256
370
-1
  6
ByLayer
100
AcDbCircle
 10
-14.2682666666666371
 20
16.6269333333333371
 30
0.0
 40
0.6666666666666666
100
AcDbArc
 50
0.0
 51
180.0
  0
LINE
  5
9B
100
AcDbEntity
100
AcDbLine
  8
etch
 62
256
370
-1
  6
ByLayer
 10
-12.6015999999999799
 20
15.293600000000005
 30
0.0
 11
-12.6015999999999799
 21
17.293600000000005
 31
0.0
  0
LINE
  5
9C
100
AcDbEntity
100
AcDbLine
  8
etch
 62
256
370
-1
  6
ByLayer
 10
-12.6015999999999799
 20
17.293600000000005
 30
0.0
 11
-11.1015999999999799
 21
17.293600000000005
 31
0.0
  0
ARC
  5
9D
100
AcDbEntity
  8
etch
 62
256
370
-1
  6
ByLayer
100
AcDbCircle
 10
-11.1015999999999799
 20
16.793600000000005
 30
0.0
 40
0.5
100
AcDbArc
 50
0.0
 51
90.0
  0
LINE
  5
9E
100
AcDbEntity
100
AcDbLine
  8
etch
 62
256
370
-1
  6
ByLayer
 10
-10.6015999999999799
 20
16.793600000000005
 30
0.0
 11
-10.6015999999999799
 21
15.293600000000005
 31
0.0
  0
LINE
  5
9F
100
AcDbEntity
100
AcDbLine
  8
etch
 62
256
370
-1
  6
ByLayer
 10
-11.6015999999999799
 20
17.293600000000005
 30
0.0
 11
-11.6015999999999799
 21
15.293600000000005
 31
0.0
  0
LINE
  5
A0
100
AcDbEntity
100
AcDbLine
  8
etch
 62
256
370
-1
  6
ByLayer
 10
-9.6015999999999799
 20
18.293600000000005
 30
0.0
 11
-9.6015999999999799
 21
15.293600000000005
 31
0.0
  0
LINE
  5
A1
100
AcDbEntity
100
AcDbLine
  8
etch
 62
256
370
-1
  6
ByLayer
 10
-9.6015999999999799
 20
15.293600000000005
 30
0.0
 11
-8.7682666666666513
 21
15.293600000000005
 31
0.0
  0
ARC
  5
A2
100
AcDbEntity
  8
etch
 62
256
370
-1
  6
ByLayer
100
AcDbCircle
 10
-8.7682666666666513
 20
15.793600000000005
 30
0.0
 40
0.5
100
AcDbArc
 50
270.0
 51
0.0
  0
LINE
  5
A3
100
AcDbEntity
100
AcDbLine
  8
etch
 62
256
370
-1
  6
ByLayer
 10
-8.2682666666666513
 20
15.793600000000005
 30
0.0
 11
-8.2682666666666513
 21
16.793600000000005
 31
0.0
  0
ARC
  5
A4
100
AcDbEntity
  8
etch
 62
256
370
-1
  6
ByLayer
100
AcDbCircle
 10
-8.7682666666666513
 20
16.793600000000005
 30
0.0
 40
0.5
100
AcDbArc
 50
0.0
 51
90.0
  0
LINE
  5
A5
100
AcDbEntity
100
AcDbLine
  8
etch
 62
256
370
-1
  6
ByLayer
 10
-8.7682666666666513
 20
17.293600000000005
 30
0.0
 11
-9.6015999999999799
 21
17.293600000000005
 31
0.0
  0
LINE
  5
A6
100
AcDbEntity
100
AcDbLine
  8
skeleton
 62
256
370
-1
  6
ByLayer
 10
8.3999999999999986
 20
10.0
 30
0.0
 11
8.3999999999999986
 21
50.0
 31
0.0
  0
LINE
  5
A7
100
AcDbEntity
100
AcDbLine
  8
skeleton
 62
256
370
-1
  6
ByLayer
 10
13.1999999999999957
 20
9.9999999999999982
 30
0.0
 11
13.1999999999999957
 21
50.0
 31
0.0
  0
LINE
  5
A8
100
AcDbEntity
100
AcDbLine
  8
skeleton
 62
256
370
-1
  6
ByLayer
 10
3.6000000000000014
 20
10.0
 30
0.0
 11
3.6000000000000014
 21
50.0
 31
0.0
  0
LINE
  5
A9
100
AcDbEntity
100
AcDbLine
  8
skeleton
 62
256
370
-1
  6
ByLayer
 10
-1.1999999999999957
 20
10.0
 30
0.0
 11
-1.1999999999999957
 21
50.0
 31
0.0
  0
LINE
  5
AA
100
AcDbEntity
100
AcDbLine
  8
skeleton
 62
256
370
-1
  6
ByLayer
 10
14.6000000000000014
 20
9.9999999999999982
 30
0.0
 11
14.6000000000000014
 21
50.0
 31
0.0
  0
LINE
  5
AB
100
AcDbEntity
100
AcDbLine
  8
skeleton
 62
256
370
-1
  6
ByLayer
 10
9.8000000000000043
 20
10.0
 30
0.0
 11
9.8000000000000043
 21
50.0
 31
0.0
  0
LINE
  5
AC
100
AcDbEntity
100
AcDbLine
  8
skeleton
 62
256
370
-1
  6
ByLayer
 10
5.0000000000000071
 20
10.0
 30
0.0
 11
5.0000000000000071
 21
50.0
 31
0.0
  0
LINE
  5
AD
100
AcDbEntity
100
AcDbLine
  8
skeleton
 62
256
370
-1
  6
ByLayer
 10
0.2000000000000028
 20
10.0
 30
0.0
 11
0.2000000000000028
 21
50.0
 31
0.0
  0
LINE
  5
AE
100
AcDbEntity
100
AcDbLine
  8
skeleton
 62
256
370
-1
  6
ByLayer
 10
-1.1999999999999957
 20
50.0
 30
0.0
 11
14.6000000000000014
 21
50.0
 31
0.0
  0
LINE
  5
AF
100
AcDbEntity
100
AcDbLine
  8
skeleton
 62
256
370
-1
  6
ByLayer
 10
14.6000000000000014
 20
9.9999999999999982
 30
0.0
 11
-1.1999999999999957
 21
10.0
 31
0.0
  0
LINE
  5
B0
100
AcDbEntity
100
AcDbLine
  8
cut
 62
256
370
-1
  6
ByLayer
 10
14.6000000000000014
 20
40.0
 30
0.0
 11
14.6000000000000014
 21
20.0
 31
0.0
  0
LINE
  5
B1
100
AcDbEntity
100
AcDbLine
  8
cut
 62
256
370
-1
  6
ByLayer
 10
14.6000000000000014
 20
20.0
 30
0.0
 11
13.1999999999999957
 21
20.0
 31
0.0
  0
LINE
  5
B2
100
AcDbEntity
100
AcDbLine
  8
cut
 62
256
370
-1
  6
ByLayer
 10
13.1999999999999957
 20
20.0
 30
0.0
 11
13.1999999999999957
 21
40.0
 31
0.0
  0
LINE
  5
B3
100
AcDbEntity
100
AcDbLine
  8
cut
 62
256
370
-1
  6
ByLayer
 10
13.1999999999999957
 20
40.0
 30
0.0
 11
9.8000000000000043
 21
40.0
 31
0.0
  0
LINE
  5
B4
100
AcDbEntity
100
AcDbLine
  8
cut
 62
256
370
-1
  6
ByLayer
 10
9.8000000000000043
 20
40.0
 30
0.0
 11
9.8000000000000043
 21
20.0
 31
0.0
  0
LINE
  5
B5
100
AcDbEntity
100
AcDbLine
  8
cut
 62
256
370
-1
  6
ByLayer
 10
9.8000000000000043
 20
20.0
 30
0.0
 11
8.3999999999999986
 21
20.0
 31
0.0
  0
LINE
  5
B6
100
AcDbEntity
100
AcDbLine
  8
cut
 62
256
370
-1
  6
ByLayer
 10
8.3999999999999986
 20
20.0
 30
0.0
 11
8.3999999999999986
 21
40.0
 31
0.0
  0
LINE
  5
B7
100
AcDbEntity
100
AcDbLine
  8
cut
 62
256
370
-1
  6
ByLayer
 10
8.3999999999999986
 20
40.0
 30
0.0
 11
5.0000000000000071
 21
40.0
 31
0.0
  0
LINE
  5
B8
100
AcDbEntity
100
AcDbLine
  8
cut
 62
256
370
-1
  6
ByLayer
 10
5.0000000000000071
 20
40.0
 30
0.0
 11
5.0000000000000071
 21
20.0
 31
0.0
  0
LINE
  5
B9
100
AcDbEntity
100
AcDbLine
  8
cut
 62
256
370
-1
  6
ByLayer
 10
5.0000000000000071
 20
20.0
 30
0.0
 11
3.6000000000000014
 21
20.0
 31
0.0
  0
LINE
  5
BA
100
AcDbEntity
100
AcDbLine
  8
cut
 62
256
370
-1
  6
ByLayer
 10
3.6000000000000014
 20
20.0
 30
0.0
 11
3.6000000000000014
 21
40.0
 31
0.0
  0
LINE
  5
BB
100
AcDbEntity
100
AcDbLine
  8
cut
 62
256
370
-1
  6
ByLayer
 10
3.6000000000000014
 20
40.0
 30
0.0
 11
0.2000000000000028
 21
40.0
 31
0.0
  0
LINE
  5
BC
100
AcDbEntity
100
AcDbLine
  8
cut
 62
256
370
-1
  6
ByLayer
 10
0.2000000000000028
 20
40.0
 30
0.0
 11
0.2000000000000028
 21
20.0
 31
0.0
  0
LINE
  5
BD
100
AcDbEntity
100
AcDbLine
  8
cut
 62
256
370
-1
  6
ByLayer
 10
0.2000000000000028
 20
20.0
 30
0.0
 11
-1.1999999999999957
 21
20.0
 31
0.0
  0
LINE
  5
BE
100
AcDbEntity
100
AcDbLine
  8
cut
 62
256
370
-1
  6
ByLayer
 10
-1.1999999999999957
 20
20.0
 30
0.0
 11
-1.1999999999999957
 21
40.0
 31
0.0
  0
LINE
  5
BF
100
AcDbEntity
100
AcDbLine
  8
skeleton
 62
256
370
-1
  6
ByLayer
 10
27.5999999999999943
 20
10.0
 30
0.0
 11
27.5999999999999943
 21
50.0
 31
0.0
  0
LINE
  5
C0
100
AcDbEntity
100
AcDbLine
  8
skeleton
 62
256
370
-1
  6
ByLayer
 10
32.3999999999999915
 20
9.9999999999999982
 30
0.0
 11
32.3999999999999915
 21
50.0
 31
0.0
  0
LINE
  5
C1
100
AcDbEntity
100
AcDbLine
  8
skeleton
 62
256
370
-1
  6
ByLayer
 10
22.7999999999999972
 20
10.0
 30
0.0
 11
22.7999999999999972
 21
50.0
 31
0.0
  0
LINE
  5
C2
100
AcDbEntity
100
AcDbLine
  8
skeleton
 62
256
370
-1
  6
ByLayer
 10
18.0
 20
10.0
 30
0.0
 11
18.0
 21
50.0
 31
0.0
  0
LINE
  5
C3
100
AcDbEntity
100
AcDbLine
  8
skeleton
 62
256
370
-1
  6
ByLayer
 10
33.7999999999999972
 20
9.9999999999999982
 30
0.0
 11
33.7999999999999972
 21
50.0
 31
0.0
  0
LINE
  5
C4
100
AcDbEntity
100
AcDbLine
  8
skeleton
 62
256
370
-1
  6
ByLayer
 10
29.0
 20
10.0
 30
0.0
 11
29.0
 21
50.0
 31
0.0
  0
LINE
  5
C5
100
AcDbEntity
100
AcDbLine
  8
skeleton
 62
256
370
-1
  6
ByLayer
 10
24.2000000000000028
 20
10.0
 30
0.0
 11
24.2000000000000028
 21
50.0
 31
0.0
  0
LINE
  5
C6
100
AcDbEntity
100
AcDbLine
  8
skeleton
 62
256
370
-1
  6
ByLayer
 10
19.3999999999999986
 20
10.0
 30
0.0
 11
19.3999999999999986
 21
50.0
 31
0.0
  0
LINE
  5
C7
100
AcDbEntity
100
AcDbLine
  8
skeleton
 62
256
370
-1
  6
ByLayer
 10
18.0
 20
50.0
 30
0.0
 11
33.7999999999999972
 21
50.0
 31
0.0
  0
LINE
  5
C8
100
AcDbEntity
100
AcDbLine
  8
skeleton
 62
256
370
-1
  6
ByLayer
 10
33.7999999999999972
 20
9.9999999999999982
 30
0.0
 11
18.0
 21
10.0
 31
0.0
  0
LINE
  5
C9
100
AcDbEntity
100
AcDbLine
  8
cut
 62
256
370
-1
  6
ByLayer
 10
33.7999999999999972
 20
40.0
 30
0.0
 11
33.7999999999999972
 21
20.0
 31
0.0
  0
LINE
  5
CA
100
AcDbEntity
100
AcDbLine
  8
cut
 62
256
370
-1
  6
ByLayer
 10
33.7999999999999972
 20
20.0
 30
0.0
 11
32.3999999999999915
 21
20.0
 31
0.0
  0
LINE
  5
CB
100
AcDbEntity
100
AcDbLine
  8
cut
 62
256
370
-1
  6
ByLayer
 10
32.3999999999999915
 20
20.0
 30
0.0
 11
32.3999999999999915
 21
40.0
 31
0.0
  0
LINE
  5
CC
100
AcDbEntity
100
AcDbLine
  8
cut
 62
256
370
-1
  6
ByLayer
 10
32.3999999999999915
 20
40.0
 30
0.0
 11
29.0
 21
40.0
 31
0.0
  0
LINE
  5
CD
100
AcDbEntity
100
AcDbLine
  8
cut
 62
256
370
-1
  6
ByLayer
 10
29.0
 20
40.0
 30
0.0
 11
29.0
 21
20.0
 31
0.0
  0
LINE
  5
CE
100
AcDbEntity
100
AcDbLine
  8
cut
 62
256
370
-1
  6
ByLayer
 10
29.0
 20
20.0
 30
0.0
 11
27.5999999999999943
 21
20.0
 31
0.0
  0
LINE
  5
CF
100
AcDbEntity
100
AcDbLine
  8
cut
 62
256
370
-1
  6
ByLayer
 10
27.5999999999999943
 20
20.0
 30
0.0
 11
27.5999999999999943
 21
40.0
 31
0.0
  0
LINE
  5
D0
100
AcDbEntity
100
AcDbLine
  8
cut
 62
256
370
-1
  6
ByLayer
 10
27.5999999999999943
 20
40.0
 30
0.0
 11
24.2000000000000028
 21
40.0
 31
0.0
  0
LINE
  5
D1
100
AcDbEntity
100
AcDbLine
  8
cut
 62
256
370
-1
  6
ByLayer
 10
24.2000000000000028
 20
40.0
 30
0.0
 11
24.2000000000000028
 21
20.0
 31
0.0
  0
LINE
  5
D2
100
AcDbEntity
100
AcDbLine
  8
cut
 62
256
370
-1
  6
ByLayer
 10
24.2000000000000028
 20
20.0
 30
0.0
 11
22.7999999999999972
 21
20.0
 31
0.0
  0
LINE
  5
D3
100
AcDbEntity
100
AcDbLine
  8
cut
 62
256
370
-1
  6
ByLayer
 10
22.7999999999999972
 20
20.0
 30
0.0
 11
22.7999999999999972
 21
40.0
 31
0.0
  0
LINE
  5
D4
100
AcDbEntity
100
AcDbLine
  8
cut
 62
256
370
-1
  6
ByLayer
 10
22.7999999999999972
 20
40.0
 30
0.0
 11
19.3999999999999986
 21
40.0
 31
0.0
  0
LINE
  5
D5
100
AcDbEntity
100
AcDbLine
  8
cut
 62
256
370
-1
  6
ByLayer
 10
19.3999999999999986
 20
40.0
 30
0.0
 11
19.3999999999999986
 21
20.0
 31
0.0
  0
LINE
  5
D6
100
AcDbEntity
100
AcDbLine
  8
cut
 62
256
370
-1
  6
ByLayer
 10
19.3999999999999986
 20
20.0
 30
0.0
 11
18.0
 21
20.0
 31
0.0
  0
LINE
  5
D7
100
AcDbEntity
100
AcDbLine
  8
cut
 62
256
370
-1
  6
ByLayer
 10
18.0
 20
20.0
 30
0.0
 11
18.0
 21
40.0
 31
0.0
  0
LINE
  5
D8
100
AcDbEntity
100
AcDbLine
  8
cut
 62
256
370
-1
  6
ByLayer
 10
-23.7999999999999972
 20
40.0
 30
0.0
 11
-20.399999999999995
 21
40.0
 31
0.0
  0
LINE
  5
D9
100
AcDbEntity
100
AcDbLine
  8
cut
 62
256
370
-1
  6
ByLayer
 10
-4.5999999999999979
 20
40.0
 30
0.0
 11
-1.1999999999999957
 21
40.0
 31
0.0
  0
LINE
  5
DA
100
AcDbEntity
100
AcDbLine
  8
cut
 62
256
370
-1
  6
ByLayer
 10
14.6000000000000014
 20
40.0
 30
0.0
 11
18.0
 21
40.0
 31
0.0
  0
LINE
  5
DB
100
AcDbEntity
100
AcDbLine
  8
skeleton2
 62
256
370
-1
  6
ByLayer
 10
41.3999999999999986
 20
9.9999999999999964
 30
0.0
 11
41.3999999999999986
 21
50.0
 31
0.0
  0
LINE
  5
DC
100
AcDbEntity
100
AcDbLine
  8
skeleton2
 62
256
370
-1
  6
ByLayer
 10
-44.1999999999999886
 20
50.0
 30
0.0
 11
-44.1999999999999886
 21
6.0000000000000044
 31
0.0
  0
LINE
  5
DD
100
AcDbEntity
100
AcDbLine
  8
skeleton2
 62
256
370
-1
  6
ByLayer
 10
38.3999999999999986
 20
6.0000000000000009
 30
0.0
 11
38.3999999999999986
 21
50.0
 31
0.0
  0
LINE
  5
DE
100
AcDbEntity
100
AcDbLine
  8
skeleton2
 62
256
370
-1
  6
ByLayer
 10
-44.1999999999999957
 20
6.0
 30
0.0
 11
38.3999999999999915
 21
6.0
 31
0.0
  0
LINE
  5
DF
100
AcDbEntity
100
AcDbLine
  8
skeleton
 62
256
370
-1
  6
ByLayer
 10
-47.1999999999999886
 20
14.0
 30
0.0
 11
41.3999999999999915
 21
14.0
 31
0.0
  0
LINE
  5
E0
100
AcDbEntity
100
AcDbLine
  8
skeleton
 62
256
370
-1
  6
ByLayer
 10
-47.1999999999999886
 20
20.0
 30
0.0
 11
41.3999999999999915
 21
20.0
 31
0.0
  0
LINE
  5
E1
100
AcDbEntity
100
AcDbLine
  8
skeleton
 62
256
370
-1
  6
ByLayer
 10
-47.1999999999999886
 20
34.0
 30
0.0
 11
41.3999999999999773
 21
34.0
 31
0.0
  0
LINE
  5
E2
100
AcDbEntity
100
AcDbLine
  8
skeleton
 62
256
370
-1
  6
ByLayer
 10
-47.1999999999999886
 20
40.0
 30
0.0
 11
41.3999999999999773
 21
40.0
 31
0.0
  0
LINE
  5
E3
100
AcDbEntity
100
AcDbLine
  8
cut
 62
256
370
-1
  6
ByLayer
 10
-47.1999999999999886
 20
13.9999999999999964
 30
0.0
 11
-44.1999999999999886
 21
14.0
 31
0.0
  0
LINE
  5
E4
100
AcDbEntity
100
AcDbLine
  8
cut
 62
256
370
-1
  6
ByLayer
 10
-44.1999999999999886
 20
14.0
 30
0.0
 11
-44.1999999999999886
 21
6.0000000000000018
 31
0.0
  0
LINE
  5
E5
100
AcDbEntity
100
AcDbLine
  8
cut
 62
256
370
-1
  6
ByLayer
 10
-44.1999999999999886
 20
6.0000000000000018
 30
0.0
 11
38.3999999999999986
 21
6.0
 31
0.0
  0
LINE
  5
E6
100
AcDbEntity
100
AcDbLine
  8
cut
 62
256
370
-1
  6
ByLayer
 10
38.3999999999999986
 20
6.0
 30
0.0
 11
38.3999999999999986
 21
14.0
 31
0.0
  0
LINE
  5
E7
100
AcDbEntity
100
AcDbLine
  8
cut
 62
256
370
-1
  6
ByLayer
 10
38.3999999999999986
 20
14.0
 30
0.0
 11
41.3999999999999986
 21
14.0
 31
0.0
  0
LINE
  5
E8
100
AcDbEntity
100
AcDbLine
  8
cut
 62
256
370
-1
  6
ByLayer
 10
41.3999999999999986
 20
14.0
 30
0.0
 11
41.4000000000000057
 21
20.0
 31
0.0
  0
LINE
  5
E9
100
AcDbEntity
100
AcDbLine
  8
cut
 62
256
370
-1
  6
ByLayer
 10
41.4000000000000057
 20
20.0
 30
0.0
 11
38.3999999999999915
 21
20.0
 31
0.0
  0
LINE
  5
EA
100
AcDbEntity
100
AcDbLine
  8
cut
 62
256
370
-1
  6
ByLayer
 10
38.3999999999999915
 20
20.0
 30
0.0
 11
38.3999999999999915
 21
34.0
 31
0.0
  0
LINE
  5
EB
100
AcDbEntity
100
AcDbLine
  8
cut
 62
256
370
-1
  6
ByLayer
 10
38.3999999999999915
 20
34.0
 30
0.0
 11
41.4000000000000057
 21
34.0
 31
0.0
  0
LINE
  5
EC
100
AcDbEntity
100
AcDbLine
  8
cut
 62
256
370
-1
  6
ByLayer
 10
41.4000000000000057
 20
34.0
 30
0.0
 11
41.3999999999999986
 21
39.9999999999999929
 31
0.0
  0
LINE
  5
ED
100
AcDbEntity
100
AcDbLine
  8
cut
 62
256
370
-1
  6
ByLayer
 10
41.3999999999999986
 20
39.9999999999999929
 30
0.0
 11
33.7999999999999972
 21
40.0
 31
0.0
  0
LINE
  5
EE
100
AcDbEntity
100
AcDbLine
  8
skeleton2
 62
256
370
-1
  6
ByLayer
 10
-38.8999999999999915
 20
20.0
 30
0.0
 11
-38.8999999999999915
 21
10.0
 31
0.0
  0
CIRCLE
  5
EF
100
AcDbEntity
100
AcDbCircle
  8
cut
 62
256
370
-1
  6
ByLayer
 10
-38.8999999999999915
 20
10.0
 30
0.0
 40
1.0
  0
CIRCLE
  5
F0
100
AcDbEntity
100
AcDbCircle
  8
cut
 62
256
370
-1
  6
ByLayer
 10
-34.0999999999999943
 20
10.0
 30
0.0
 40
1.0
  0
CIRCLE
  5
F1
100
AcDbEntity
100
AcDbCircle
  8
cut
 62
256
370
-1
  6
ByLayer
 10
-29.2999999999999972
 20
10.0
 30
0.0
 40
1.0
  0
CIRCLE
  5
F2
100
AcDbEntity
100
AcDbCircle
  8
cut
 62
256
370
-1
  6
ByLayer
 10
-24.5
 20
10.0
 30
0.0
 40
1.0
  0
CIRCLE
  5
F3
100
AcDbEntity
100
AcDbCircle
  8
cut
 62
256
370
-1
  6
ByLayer
 10
-19.7000000000000028
 20
10.0
 30
0.0
 40
1.0
  0
CIRCLE
  5
F4
100
AcDbEntity
100
AcDbCircle
  8
cut
 62
256
370
-1
  6
ByLayer
 10
-14.9000000000000057
 20
10.0
 30
0.0
 40
1.0
  0
CIRCLE
  5
F5
100
AcDbEntity
100
AcDbCircle
  8
cut
 62
256
370
-1
  6
ByLayer
 10
-10.1000000000000085
 20
10.0
 30
0.0
 40
1.0
  0
CIRCLE
  5
F6
100
AcDbEntity
100
AcDbCircle
  8
cut
 62
256
370
-1
  6
ByLayer
 10
-5.3000000000000114
 20
10.0
 30
0.0
 40
1.0
  0
CIRCLE
  5
F7
100
AcDbEntity
100
AcDbCircle
  8
cut
 62
256
370
-1
  6
ByLayer
 10
-0.5000000000000142
 20
10.0
 30
0.0
 40
1.0
  0
CIRCLE
  5
F8
100
AcDbEntity
100
AcDbCircle
  8
cut
 62
256
370
-1
  6
ByLayer
 10
4.2999999999999829
 20
10.0
 30
0.0
 40
1.0
  0
CIRCLE
  5
F9
100
AcDbEntity
100
AcDbCircle
  8
cut
 62
256
370
-1
  6
ByLayer
 10
9.0999999999999801
 20
10.0
 30
0.0
 40
1.0
  0
CIRCLE
  5
FA
100
AcDbEntity
100
AcDbCircle
  8
cut
 62
256
370
-1
  6
ByLayer
 10
13.8999999999999773
 20
10.0
 30
0.0
 40
1.0
  0
CIRCLE
  5
FB
100
AcDbEntity
100
AcDbCircle
  8
cut
 62
256
370
-1
  6
ByLayer
 10
18.6999999999999744
 20
10.0
 30
0.0
 40
1.0
  0
CIRCLE
  5
FC
100
AcDbEntity
100
AcDbCircle
  8
cut
 62
256
370
-1
  6
ByLayer
 10
23.4999999999999716
 20
10.0
 30
0.0
 40
1.0
  0
CIRCLE
  5
FD
100
AcDbEntity
100
AcDbCircle
  8
cut
 62
256
370
-1
  6
ByLayer
 10
28.2999999999999687
 20
10.0
 30
0.0
 40
1.0
  0
CIRCLE
  5
FE
100
AcDbEntity
100
AcDbCircle
  8
cut
 62
256
370
-1
  6
ByLayer
 10
33.0999999999999659
 20
10.0
 30
0.0
 40
1.0
  0
LINE
  5
FF
100
AcDbEntity
100
AcDbLine
  8
skeleton2
 62
256
370
-1
  6
ByLayer
 10
-44.1999999999999886
 20
-20.0
 30
0.0
 11
-19.1999999999999886
 21
-20.0
 31
0.0
  0
LINE
  5
100
100
AcDbEntity
100
AcDbLine
  8
skeleton2
 62
256
370
-1
  6
ByLayer
 10
-44.1999999999999886
 20
-60.0
 30
0.0
 11
-19.1999999999999886
 21
-60.0
 31
0.0
  0
LINE
  5
101
100
AcDbEntity
100
AcDbLine
  8
skeleton2
 62
256
370
-1
  6
ByLayer
 10
-47.1999999999999886
 20
-20.0
 30
0.0
 11
-47.1999999999999886
 21
-60.0
 31
0.0
  0
LINE
  5
102
100
AcDbEntity
100
AcDbLine
  8
skeleton2
 62
256
370
-1
  6
ByLayer
 10
41.3999999999999986
 20
-60.0
 30
0.0
 11
41.3999999999999986
 21
-20.0
 31
0.0
  0
LINE
  5
103
100
AcDbEntity
100
AcDbLine
  8
skeleton2
 62
256
370
-1
  6
ByLayer
 10
-44.1999999999999886
 20
-20.0
 30
0.0
 11
-44.1999999999999886
 21
-63.9999999999999929
 31
0.0
  0
LINE
  5
104
100
AcDbEntity
100
AcDbLine
  8
skeleton2
 62
256
370
-1
  6
ByLayer
 10
38.3999999999999986
 20
-64.0
 30
0.0
 11
38.3999999999999986
 21
-20.0
 31
0.0
  0
LINE
  5
105
100
AcDbEntity
100
AcDbLine
  8
skeleton2
 62
256
370
-1
  6
ByLayer
 10
-44.1999999999999957
 20
-64.0
 30
0.0
 11
38.3999999999999915
 21
-64.0
 31
0.0
  0
LINE
  5
106
100
AcDbEntity
100
AcDbLine
  8
skeleton
 62
256
370
-1
  6
ByLayer
 10
189.5999999999999943
 20
60.0
 30
0.0
 11
189.5999999999999943
 21
84.0
 31
0.0
  0
LINE
  5
107
100
AcDbEntity
100
AcDbLine
  8
skeleton
 62
256
370
-1
  6
ByLayer
 10
191.0
 20
60.0
 30
0.0
 11
191.0
 21
84.0
 31
0.0
  0
LINE
  5
108
100
AcDbEntity
100
AcDbLine
  8
skeleton2
 62
256
370
-1
  6
ByLayer
 10
192.0
 20
60.0
 30
0.0
 11
192.0
 21
84.0
 31
0.0
  0
LINE
  5
109
100
AcDbEntity
100
AcDbLine
  8
skeleton2
 62
256
370
-1
  6
ByLayer
 10
193.4000000000000057
 20
60.0
 30
0.0
 11
193.4000000000000057
 21
84.0
 31
0.0
  0
LINE
  5
10A
100
AcDbEntity
100
AcDbLine
  8
skeleton
 62
256
370
-1
  6
ByLayer
 10
195.8000000000000114
 20
60.0
 30
0.0
 11
195.8000000000000114
 21
84.0
 31
0.0
  0
LINE
  5
10B
100
AcDbEntity
100
AcDbLine
  8
skeleton2
 62
256
370
-1
  6
ByLayer
 10
198.2000000000000171
 20
60.0
 30
0.0
 11
198.2000000000000171
 21
84.0
 31
0.0
  0
LINE
  5
10C
100
AcDbEntity
100
AcDbLine
  8
skeleton2
 62
256
370
-1
  6
ByLayer
 10
201.5999999999999943
 20
60.0
 30
0.0
 11
201.5999999999999943
 21
84.0
 31
0.0
  0
LINE
  5
10D
100
AcDbEntity
100
AcDbLine
  8
skeleton2
 62
256
370
-1
  6
ByLayer
 10
207.7999999999999829
 20
60.0
 30
0.0
 11
207.7999999999999829
 21
84.0
 31
0.0
  0
LINE
  5
10E
100
AcDbEntity
100
AcDbLine
  8
skeleton2
 62
256
370
-1
  6
ByLayer
 10
206.4000000000000057
 20
60.0
 30
0.0
 11
206.4000000000000057
 21
84.0
 31
0.0
  0
LINE
  5
10F
100
AcDbEntity
100
AcDbLine
  8
skeleton
 62
256
370
-1
  6
ByLayer
 10
205.3999999999999773
 20
60.0
 30
0.0
 11
205.3999999999999773
 21
84.0
 31
0.0
  0
LINE
  5
110
100
AcDbEntity
100
AcDbLine
  8
skeleton
 62
256
370
-1
  6
ByLayer
 10
204.0
 20
60.0
 30
0.0
 11
204.0
 21
84.0
 31
0.0
  0
LINE
  5
111
100
AcDbEntity
100
AcDbLine
  8
skeleton2
 62
256
370
-1
  6
ByLayer
 10
203.0
 20
60.0
 30
0.0
 11
203.0
 21
84.0
 31
0.0
  0
LINE
  5
112
100
AcDbEntity
100
AcDbLine
  8
skeleton
 62
256
370
-1
  6
ByLayer
 10
200.5999999999999943
 20
60.0
 30
0.0
 11
200.5999999999999943
 21
84.0
 31
0.0
  0
LINE
  5
113
100
AcDbEntity
100
AcDbLine
  8
skeleton
 62
256
370
-1
  6
ByLayer
 10
199.1999999999999886
 20
60.0
 30
0.0
 11
199.1999999999999886
 21
84.0
 31
0.0
  0
LINE
  5
114
100
AcDbEntity
100
AcDbLine
  8
skeleton2
 62
256
370
-1
  6
ByLayer
 10
196.7999999999999829
 20
60.0
 30
0.0
 11
196.7999999999999829
 21
84.0
 31
0.0
  0
LINE
  5
115
100
AcDbEntity
100
AcDbLine
  8
skeleton
 62
256
370
-1
  6
ByLayer
 10
194.3999999999999773
 20
60.0
 30
0.0
 11
194.3999999999999773
 21
84.0
 31
0.0
  0
LINE
  5
116
100
AcDbEntity
100
AcDbLine
  8
skeleton
 62
256
370
-1
  6
ByLayer
 10
208.7999999999999829
 20
60.0
 30
0.0
 11
208.7999999999999829
 21
84.0
 31
0.0
  0
LINE
  5
117
100
AcDbEntity
100
AcDbLine
  8
skeleton
 62
256
370
-1
  6
ByLayer
 10
210.1999999999999886
 20
60.0
 30
0.0
 11
210.1999999999999886
 21
84.0
 31
0.0
  0
LINE
  5
118
100
AcDbEntity
100
AcDbLine
  8
skeleton2
 62
256
370
-1
  6
ByLayer
 10
211.1999999999999886
 20
60.0
 30
0.0
 11
211.1999999999999886
 21
84.0
 31
0.0
  0
LINE
  5
119
100
AcDbEntity
100
AcDbLine
  8
skeleton2
 62
256
370
-1
  6
ByLayer
 10
212.5999999999999943
 20
60.0
 30
0.0
 11
212.5999999999999943
 21
84.0
 31
0.0
  0
LINE
  5
11A
100
AcDbEntity
100
AcDbLine
  8
skeleton
 62
256
370
-1
  6
ByLayer
 10
215.0
 20
60.0
 30
0.0
 11
215.0
 21
84.0
 31
0.0
  0
LINE
  5
11B
100
AcDbEntity
100
AcDbLine
  8
skeleton2
 62
256
370
-1
  6
ByLayer
 10
217.4000000000000057
 20
60.0
 30
0.0
 11
217.4000000000000057
 21
84.0
 31
0.0
  0
LINE
  5
11C
100
AcDbEntity
100
AcDbLine
  8
skeleton2
 62
256
370
-1
  6
ByLayer
 10
220.7999999999999829
 20
60.0
 30
0.0
 11
220.7999999999999829
 21
84.0
 31
0.0
  0
LINE
  5
11D
100
AcDbEntity
100
AcDbLine
  8
skeleton2
 62
256
370
-1
  6
ByLayer
 10
226.9999999999999716
 20
60.0
 30
0.0
 11
226.9999999999999716
 21
84.0
 31
0.0
  0
LINE
  5
11E
100
AcDbEntity
100
AcDbLine
  8
skeleton2
 62
256
370
-1
  6
ByLayer
 10
225.5999999999999943
 20
60.0
 30
0.0
 11
225.5999999999999943
 21
84.0
 31
0.0
  0
LINE
  5
11F
100
AcDbEntity
100
AcDbLine
  8
skeleton
 62
256
370
-1
  6
ByLayer
 10
224.5999999999999659
 20
60.0
 30
0.0
 11
224.5999999999999659
 21
84.0
 31
0.0
  0
LINE
  5
120
100
AcDbEntity
100
AcDbLine
  8
skeleton
 62
256
370
-1
  6
ByLayer
 10
223.1999999999999886
 20
60.0
 30
0.0
 11
223.1999999999999886
 21
84.0
 31
0.0
  0
LINE
  5
121
100
AcDbEntity
100
AcDbLine
  8
skeleton2
 62
256
370
-1
  6
ByLayer
 10
222.1999999999999886
 20
60.0
 30
0.0
 11
222.1999999999999886
 21
84.0
 31
0.0
  0
LINE
  5
122
100
AcDbEntity
100
AcDbLine
  8
skeleton
 62
256
370
-1
  6
ByLayer
 10
219.7999999999999829
 20
60.0
 30
0.0
 11
219.7999999999999829
 21
84.0
 31
0.0
  0
LINE
  5
123
100
AcDbEntity
100
AcDbLine
  8
skeleton
 62
256
370
-1
  6
ByLayer
 10
218.3999999999999773
 20
60.0
 30
0.0
 11
218.3999999999999773
 21
84.0
 31
0.0
  0
LINE
  5
124
100
AcDbEntity
100
AcDbLine
  8
skeleton2
 62
256
370
-1
  6
ByLayer
 10
215.9999999999999716
 20
60.0
 30
0.0
 11
215.9999999999999716
 21
84.0
 31
0.0
  0
LINE
  5
125
100
AcDbEntity
100
AcDbLine
  8
skeleton
 62
256
370
-1
  6
ByLayer
 10
213.5999999999999659
 20
60.0
 30
0.0
 11
213.5999999999999659
 21
84.0
 31
0.0
  0
LINE
  5
126
100
AcDbEntity
100
AcDbLine
  8
skeleton
 62
256
370
-1
  6
ByLayer
 10
227.9999999999999716
 20
60.0
 30
0.0
 11
227.9999999999999716
 21
84.0
 31
0.0
  0
LINE
  5
127
100
AcDbEntity
100
AcDbLine
  8
skeleton
 62
256
370
-1
  6
ByLayer
 10
229.3999999999999773
 20
60.0
 30
0.0
 11
229.3999999999999773
 21
84.0
 31
0.0
  0
LINE
  5
128
100
AcDbEntity
100
AcDbLine
  8
skeleton2
 62
256
370
-1
  6
ByLayer
 10
230.3999999999999773
 20
60.0
 30
0.0
 11
230.3999999999999773
 21
84.0
 31
0.0
  0
LINE
  5
129
100
AcDbEntity
100
AcDbLine
  8
skeleton2
 62
256
370
-1
  6
ByLayer
 10
231.7999999999999829
 20
60.0
 30
0.0
 11
231.7999999999999829
 21
84.0
 31
0.0
  0
LINE
  5
12A
100
AcDbEntity
100
AcDbLine
  8
skeleton
 62
256
370
-1
  6
ByLayer
 10
234.1999999999999886
 20
60.0
 30
0.0
 11
234.1999999999999886
 21
84.0
 31
0.0
  0
LINE
  5
12B
100
AcDbEntity
100
AcDbLine
  8
skeleton2
 62
256
370
-1
  6
ByLayer
 10
236.5999999999999943
 20
60.0
 30
0.0
 11
236.5999999999999943
 21
84.0
 31
0.0
  0
LINE
  5
12C
100
AcDbEntity
100
AcDbLine
  8
skeleton2
 62
256
370
-1
  6
ByLayer
 10
239.9999999999999716
 20
60.0
 30
0.0
 11
239.9999999999999716
 21
84.0
 31
0.0
  0
LINE
  5
12D
100
AcDbEntity
100
AcDbLine
  8
skeleton2
 62
256
370
-1
  6
ByLayer
 10
246.1999999999999602
 20
60.0
 30
0.0
 11
246.1999999999999602
 21
84.0
 31
0.0
  0
LINE
  5
12E
100
AcDbEntity
100
AcDbLine
  8
skeleton2
 62
256
370
-1
  6
ByLayer
 10
244.7999999999999829
 20
60.0
 30
0.0
 11
244.7999999999999829
 21
84.0
 31
0.0
  0
LINE
  5
12F
100
AcDbEntity
100
AcDbLine
  8
skeleton
 62
256
370
-1
  6
ByLayer
 10
243.7999999999999545
 20
60.0
 30
0.0
 11
243.7999999999999545
 21
84.0
 31
0.0
  0
LINE
  5
130
100
AcDbEntity
100
AcDbLine
  8
skeleton
 62
256
370
-1
  6
ByLayer
 10
242.3999999999999773
 20
60.0
 30
0.0
 11
242.3999999999999773
 21
84.0
 31
0.0
  0
LINE
  5
131
100
AcDbEntity
100
AcDbLine
  8
skeleton2
 62
256
370
-1
  6
ByLayer
 10
241.3999999999999773
 20
60.0
 30
0.0
 11
241.3999999999999773
 21
84.0
 31
0.0
  0
LINE
  5
132
100
AcDbEntity
100
AcDbLine
  8
skeleton
 62
256
370
-1
  6
ByLayer
 10
238.9999999999999716
 20
60.0
 30
0.0
 11
238.9999999999999716
 21
84.0
 31
0.0
  0
LINE
  5
133
100
AcDbEntity
100
AcDbLine
  8
skeleton
 62
256
370
-1
  6
ByLayer
 10
237.5999999999999659
 20
60.0
 30
0.0
 11
237.5999999999999659
 21
84.0
 31
0.0
  0
LINE
  5
134
100
AcDbEntity
100
AcDbLine
  8
skeleton2
 62
256
370
-1
  6
ByLayer
 10
235.1999999999999602
 20
60.0
 30
0.0
 11
235.1999999999999602
 21
84.0
 31
0.0
  0
LINE
  5
135
100
AcDbEntity
100
AcDbLine
  8
skeleton
 62
256
370
-1
  6
ByLayer
 10
232.7999999999999545
 20
60.0
 30
0.0
 11
232.7999999999999545
 21
84.0
 31
0.0
  0
LINE
  5
136
100
AcDbEntity
100
AcDbLine
  8
skeleton2
 62
256
370
-1
  6
ByLayer
 10
168.2000000000000171
 20
60.0
 30
0.0
 11
168.2000000000000171
 21
84.0
 31
0.0
  0
LINE
  5
137
100
AcDbEntity
100
AcDbLine
  8
skeleton2
 62
256
370
-1
  6
ByLayer
 10
248.3999999999999488
 20
60.0
 30
0.0
 11
248.3999999999999488
 21
84.0
 31
0.0
  0
LINE
  5
138
100
AcDbEntity
100
AcDbLine
  8
skeleton2
 62
256
370
-1
  6
ByLayer
 10
158.2000000000000171
 20
60.0
 30
0.0
 11
158.2000000000000171
 21
84.0
 31
0.0
  0
LINE
  5
139
100
AcDbEntity
100
AcDbLine
  8
skeleton2
 62
256
370
-1
  6
ByLayer
 10
258.3999999999999773
 20
60.0
 30
0.0
 11
258.3999999999999773
 21
84.0
 31
0.0
  0
LINE
  5
13A
100
AcDbEntity
100
AcDbLine
  8
skeleton
 62
256
370
-1
  6
ByLayer
 10
158.2000000000000171
 20
70.0
 30
0.0
 11
258.3999999999999773
 21
70.0
 31
0.0
  0
LINE
  5
13B
100
AcDbEntity
100
AcDbLine
  8
skeleton
 62
256
370
-1
  6
ByLayer
 10
158.2000000000000171
 20
64.0
 30
0.0
 11
258.3999999999999773
 21
64.0
 31
0.0
  0
LINE
  5
13C
100
AcDbEntity
100
AcDbLine
  8
skeleton
 62
256
370
-1
  6
ByLayer
 10
168.2000000000000171
 20
84.0
 30
0.0
 11
248.3999999999999488
 21
84.0
 31
0.0
  0
LINE
  5
13D
100
AcDbEntity
100
AcDbLine
  8
skeleton2
 62
256
370
-1
  6
ByLayer
 10
168.2000000000000171
 20
60.0
 30
0.0
 11
248.3999999999999488
 21
60.0
 31
0.0
  0
LINE
  5
13E
100
AcDbEntity
100
AcDbLine
  8
cut
 62
256
370
-1
  6
ByLayer
 10
168.2000000000000171
 20
84.0
 30
0.0
 11
168.2000000000000171
 21
70.0
 31
0.0
  0
LINE
  5
13F
100
AcDbEntity
100
AcDbLine
  8
cut
 62
256
370
-1
  6
ByLayer
 10
168.2000000000000171
 20
70.0
 30
0.0
 11
158.2000000000000171
 21
70.0
 31
0.0
  0
LINE
  5
140
100
AcDbEntity
100
AcDbLine
  8
cut
 62
256
370
-1
  6
ByLayer
 10
158.2000000000000171
 20
70.0
 30
0.0
 11
158.2000000000000171
 21
64.0
 31
0.0
  0
LINE
  5
141
100
AcDbEntity
100
AcDbLine
  8
cut
 62
256
370
-1
  6
ByLayer
 10
158.2000000000000171
 20
64.0
 30
0.0
 11
258.3999999999999773
 21
64.0
 31
0.0
  0
LINE
  5
142
100
AcDbEntity
100
AcDbLine
  8
cut
 62
256
370
-1
  6
ByLayer
 10
258.3999999999999773
 20
64.0
 30
0.0
 11
258.3999999999999773
 21
70.0
 31
0.0
  0
LINE
  5
143
100
AcDbEntity
100
AcDbLine
  8
cut
 62
256
370
-1
  6
ByLayer
 10
258.3999999999999773
 20
70.0
 30
0.0
 11
248.3999999999999204
 21
70.0
 31
0.0
  0
LINE
  5
144
100
AcDbEntity
100
AcDbLine
  8
cut
 62
256
370
-1
  6
ByLayer
 10
248.3999999999999204
 20
70.0
 30
0.0
 11
248.3999999999999488
 21
84.0
 31
0.0
  0
LINE
  5
145
100
AcDbEntity
100
AcDbLine
  8
skeleton
 62
256
370
-1
  6
ByLayer
 10
170.4000000000000057
 20
100.0
 30
0.0
 11
170.4000000000000057
 21
124.0
 31
0.0
  0
LINE
  5
146
100
AcDbEntity
100
AcDbLine
  8
skeleton
 62
256
370
-1
  6
ByLayer
 10
171.8000000000000114
 20
100.0
 30
0.0
 11
171.8000000000000114
 21
124.0
 31
0.0
  0
LINE
  5
147
100
AcDbEntity
100
AcDbLine
  8
skeleton2
 62
256
370
-1
  6
ByLayer
 10
172.8000000000000114
 20
100.0
 30
0.0
 11
172.8000000000000114
 21
124.0
 31
0.0
  0
LINE
  5
148
100
AcDbEntity
100
AcDbLine
  8
skeleton2
 62
256
370
-1
  6
ByLayer
 10
174.2000000000000171
 20
100.0
 30
0.0
 11
174.2000000000000171
 21
124.0
 31
0.0
  0
LINE
  5
149
100
AcDbEntity
100
AcDbLine
  8
skeleton
 62
256
370
-1
  6
ByLayer
 10
176.6000000000000227
 20
100.0
 30
0.0
 11
176.6000000000000227
 21
124.0
 31
0.0
  0
LINE
  5
14A
100
AcDbEntity
100
AcDbLine
  8
skeleton2
 62
256
370
-1
  6
ByLayer
 10
179.0000000000000284
 20
100.0
 30
0.0
 11
179.0000000000000284
 21
124.0
 31
0.0
  0
LINE
  5
14B
100
AcDbEntity
100
AcDbLine
  8
skeleton2
 62
256
370
-1
  6
ByLayer
 10
182.4000000000000057
 20
100.0
 30
0.0
 11
182.4000000000000057
 21
124.0
 31
0.0
  0
LINE
  5
14C
100
AcDbEntity
100
AcDbLine
  8
skeleton2
 62
256
370
-1
  6
ByLayer
 10
188.5999999999999943
 20
100.0
 30
0.0
 11
188.5999999999999943
 21
124.0
 31
0.0
  0
LINE
  5
14D
100
AcDbEntity
100
AcDbLine
  8
skeleton2
 62
256
370
-1
  6
ByLayer
 10
187.2000000000000171
 20
100.0
 30
0.0
 11
187.2000000000000171
 21
124.0
 31
0.0
  0
LINE
  5
14E
100
AcDbEntity
100
AcDbLine
  8
skeleton
 62
256
370
-1
  6
ByLayer
 10
186.1999999999999886
 20
100.0
 30
0.0
 11
186.1999999999999886
 21
124.0
 31
0.0
  0
LINE
  5
14F
100
AcDbEntity
100
AcDbLine
  8
skeleton
 62
256
370
-1
  6
ByLayer
 10
184.8000000000000114
 20
100.0
 30
0.0
 11
184.8000000000000114
 21
124.0
 31
0.0
  0
LINE
  5
150
100
AcDbEntity
100
AcDbLine
  8
skeleton2
 62
256
370
-1
  6
ByLayer
 10
183.8000000000000114
 20
100.0
 30
0.0
 11
183.8000000000000114
 21
124.0
 31
0.0
  0
LINE
  5
151
100
AcDbEntity
100
AcDbLine
  8
skeleton
 62
256
370
-1
  6
ByLayer
 10
181.4000000000000057
 20
100.0
 30
0.0
 11
181.4000000000000057
 21
124.0
 31
0.0
  0
LINE
  5
152
100
AcDbEntity
100
AcDbLine
  8
skeleton
 62
256
370
-1
  6
ByLayer
 10
180.0
 20
100.0
 30
0.0
 11
180.0
 21
124.0
 31
0.0
  0
LINE
  5
153
100
AcDbEntity
100
AcDbLine
  8
skeleton2
 62
256
370
-1
  6
ByLayer
 10
177.5999999999999943
 20
100.0
 30
0.0
 11
177.5999999999999943
 21
124.0
 31
0.0
  0
LINE
  5
154
100
AcDbEntity
100
AcDbLine
  8
skeleton
 62
256
370
-1
  6
ByLayer
 10
175.1999999999999886
 20
100.0
 30
0.0
 11
175.1999999999999886
 21
124.0
 31
0.0
  0
LINE
  5
155
100
AcDbEntity
100
AcDbLine
  8
skeleton
 62
256
370
-1
  6
ByLayer
 10
189.5999999999999943
 20
100.0
 30
0.0
 11
189.5999999999999943
 21
124.0
 31
0.0
  0
LINE
  5
156
100
AcDbEntity
100
AcDbLine
  8
skeleton
 62
256
370
-1
  6
ByLayer
 10
191.0
 20
100.0
 30
0.0
 11
191.0
 21
124.0
 31
0.0
  0
LINE
  5
157
100
AcDbEntity
100
AcDbLine
  8
skeleton2
 62
256
370
-1
  6
ByLayer
 10
192.0
 20
100.0
 30
0.0
 11
192.0
 21
124.0
 31
0.0
  0
LINE
  5
158
100
AcDbEntity
100
AcDbLine
  8
skeleton2
 62
256
370
-1
  6
ByLayer
 10
193.4000000000000057
 20
100.0
 30
0.0
 11
193.4000000000000057
 21
124.0
 31
0.0
  0
LINE
  5
159
100
AcDbEntity
100
AcDbLine
  8
skeleton
 62
256
370
-1
  6
ByLayer
 10
195.8000000000000114
 20
100.0
 30
0.0
 11
195.8000000000000114
 21
124.0
 31
0.0
  0
LINE
  5
15A
100
AcDbEntity
100
AcDbLine
  8
skeleton2
 62
256
370
-1
  6
ByLayer
 10
198.2000000000000171
 20
100.0
 30
0.0
 11
198.2000000000000171
 21
124.0
 31
0.0
  0
LINE
  5
15B
100
AcDbEntity
100
AcDbLine
  8
skeleton2
 62
256
370
-1
  6
ByLayer
 10
201.5999999999999943
 20
100.0
 30
0.0
 11
201.5999999999999943
 21
124.0
 31
0.0
  0
LINE
  5
15C
100
AcDbEntity
100
AcDbLine
  8
skeleton2
 62
256
370
-1
  6
ByLayer
 10
207.7999999999999829
 20
100.0
 30
0.0
 11
207.7999999999999829
 21
124.0
 31
0.0
  0
LINE
  5
15D
100
AcDbEntity
100
AcDbLine
  8
skeleton2
 62
256
370
-1
  6
ByLayer
 10
206.4000000000000057
 20
100.0
 30
0.0
 11
206.4000000000000057
 21
124.0
 31
0.0
  0
LINE
  5
15E
100
AcDbEntity
100
AcDbLine
  8
skeleton
 62
256
370
-1
  6
ByLayer
 10
205.3999999999999773
 20
100.0
 30
0.0
 11
205.3999999999999773
 21
124.0
 31
0.0
  0
LINE
  5
15F
100
AcDbEntity
100
AcDbLine
  8
skeleton
 62
256
370
-1
  6
ByLayer
 10
204.0
 20
100.0
 30
0.0
 11
204.0
 21
124.0
 31
0.0
  0
LINE
  5
160
100
AcDbEntity
100
AcDbLine
  8
skeleton2
 62
256
370
-1
  6
ByLayer
 10
203.0
 20
100.0
 30
0.0
 11
203.0
 21
124.0
 31
0.0
  0
LINE
  5
161
100
AcDbEntity
100
AcDbLine
  8
skeleton
 62
256
370
-1
  6
ByLayer
 10
200.5999999999999943
 20
100.0
 30
0.0
 11
200.5999999999999943
 21
124.0
 31
0.0
  0
LINE
  5
162
100
AcDbEntity
100
AcDbLine
  8
skeleton
 62
256
370
-1
  6
ByLayer
 10
199.1999999999999886
 20
100.0
 30
0.0
 11
199.1999999999999886
 21
124.0
 31
0.0
  0
LINE
  5
163
100
AcDbEntity
100
AcDbLine
  8
skeleton2
 62
256
370
-1
  6
ByLayer
 10
196.7999999999999829
 20
100.0
 30
0.0
 11
196.7999999999999829
 21
124.0
 31
0.0
  0
LINE
  5
164
100
AcDbEntity
100
AcDbLine
  8
skeleton
 62
256
370
-1
  6
ByLayer
 10
194.3999999999999773
 20
100.0
 30
0.0
 11
194.3999999999999773
 21
124.0
 31
0.0
  0
LINE
  5
165
100
AcDbEntity
100
AcDbLine
  8
skeleton
 62
256
370
-1
  6
ByLayer
 10
208.7999999999999829
 20
100.0
 30
0.0
 11
208.7999999999999829
 21
124.0
 31
0.0
  0
LINE
  5
166
100
AcDbEntity
100
AcDbLine
  8
skeleton
 62
256
370
-1
  6
ByLayer
 10
210.1999999999999886
 20
100.0
 30
0.0
 11
210.1999999999999886
 21
124.0
 31
0.0
  0
LINE
  5
167
100
AcDbEntity
100
AcDbLine
  8
skeleton2
 62
256
370
-1
  6
ByLayer
 10
211.1999999999999886
 20
100.0
 30
0.0
 11
211.1999999999999886
 21
124.0
 31
0.0
  0
LINE
  5
168
100
AcDbEntity
100
AcDbLine
  8
skeleton2
 62
256
370
-1
  6
ByLayer
 10
212.5999999999999943
 20
100.0
 30
0.0
 11
212.5999999999999943
 21
124.0
 31
0.0
  0
LINE
  5
169
100
AcDbEntity
100
AcDbLine
  8
skeleton
 62
256
370
-1
  6
ByLayer
 10
215.0
 20
100.0
 30
0.0
 11
215.0
 21
124.0
 31
0.0
  0
LINE
  5
16A
100
AcDbEntity
100
AcDbLine
  8
skeleton2
 62
256
370
-1
  6
ByLayer
 10
217.4000000000000057
 20
100.0
 30
0.0
 11
217.4000000000000057
 21
124.0
 31
0.0
  0
LINE
  5
16B
100
AcDbEntity
100
AcDbLine
  8
skeleton2
 62
256
370
-1
  6
ByLayer
 10
220.7999999999999829
 20
100.0
 30
0.0
 11
220.7999999999999829
 21
124.0
 31
0.0
  0
LINE
  5
16C
100
AcDbEntity
100
AcDbLine
  8
skeleton2
 62
256
370
-1
  6
ByLayer
 10
226.9999999999999716
 20
100.0
 30
0.0
 11
226.9999999999999716
 21
124.0
 31
0.0
  0
LINE
  5
16D
100
AcDbEntity
100
AcDbLine
  8
skeleton2
 62
256
370
-1
  6
ByLayer
 10
225.5999999999999943
 20
100.0
 30
0.0
 11
225.5999999999999943
 21
124.0
 31
0.0
  0
LINE
  5
16E
100
AcDbEntity
100
AcDbLine
  8
skeleton
 62
256
370
-1
  6
ByLayer
 10
224.5999999999999659
 20
100.0
 30
0.0
 11
224.5999999999999659
 21
124.0
 31
0.0
  0
LINE
  5
16F
100
AcDbEntity
100
AcDbLine
  8
skeleton
 62
256
370
-1
  6
ByLayer
 10
223.1999999999999886
 20
100.0
 30
0.0
 11
223.1999999999999886
 21
124.0
 31
0.0
  0
LINE
  5
170
100
AcDbEntity
100
AcDbLine
  8
skeleton2
 62
256
370
-1
  6
ByLayer
 10
222.1999999999999886
 20
100.0
 30
0.0
 11
222.1999999999999886
 21
124.0
 31
0.0
  0
LINE
  5
171
100
AcDbEntity
100
AcDbLine
  8
skeleton
 62
256
370
-1
  6
ByLayer
 10
219.7999999999999829
 20
100.0
 30
0.0
 11
219.7999999999999829
 21
124.0
 31
0.0
  0
LINE
  5
172
100
AcDbEntity
100
AcDbLine
  8
skeleton
 62
256
370
-1
  6
ByLayer
 10
218.3999999999999773
 20
100.0
 30
0.0
 11
218.3999999999999773
 21
124.0
 31
0.0
  0
LINE
  5
173
100
AcDbEntity
100
AcDbLine
  8
skeleton2
 62
256
370
-1
  6
ByLayer
 10
215.9999999999999716
 20
100.0
 30
0.0
 11
215.9999999999999716
 21
124.0
 31
0.0
  0
LINE
  5
174
100
AcDbEntity
100
AcDbLine
  8
skeleton
 62
256
370
-1
  6
ByLayer
 10
213.5999999999999659
 20
100.0
 30
0.0
 11
213.5999999999999659
 21
124.0
 31
0.0
  0
LINE
  5
175
100
AcDbEntity
100
AcDbLine
  8
skeleton
 62
256
370
-1
  6
ByLayer
 10
227.9999999999999716
 20
100.0
 30
0.0
 11
227.9999999999999716
 21
124.0
 31
0.0
  0
LINE
  5
176
100
AcDbEntity
100
AcDbLine
  8
skeleton
 62
256
370
-1
  6
ByLayer
 10
229.3999999999999773
 20
100.0
 30
0.0
 11
229.3999999999999773
 21
124.0
 31
0.0
  0
LINE
  5
177
100
AcDbEntity
100
AcDbLine
  8
skeleton2
 62
256
370
-1
  6
ByLayer
 10
230.3999999999999773
 20
100.0
 30
0.0
 11
230.3999999999999773
 21
124.0
 31
0.0
  0
LINE
  5
178
100
AcDbEntity
100
AcDbLine
  8
skeleton2
 62
256
370
-1
  6
ByLayer
 10
231.7999999999999829
 20
100.0
 30
0.0
 11
231.7999999999999829
 21
124.0
 31
0.0
  0
LINE
  5
179
100
AcDbEntity
100
AcDbLine
  8
skeleton
 62
256
370
-1
  6
ByLayer
 10
234.1999999999999886
 20
100.0
 30
0.0
 11
234.1999999999999886
 21
124.0
 31
0.0
  0
LINE
  5
17A
100
AcDbEntity
100
AcDbLine
  8
skeleton2
 62
256
370
-1
  6
ByLayer
 10
236.5999999999999943
 20
100.0
 30
0.0
 11
236.5999999999999943
 21
124.0
 31
0.0
  0
LINE
  5
17B
100
AcDbEntity
100
AcDbLine
  8
skeleton2
 62
256
370
-1
  6
ByLayer
 10
239.9999999999999716
 20
100.0
 30
0.0
 11
239.9999999999999716
 21
124.0
 31
0.0
  0
LINE
  5
17C
100
AcDbEntity
100
AcDbLine
  8
skeleton2
 62
256
370
-1
  6
ByLayer
 10
246.1999999999999602
 20
100.0
 30
0.0
 11
246.1999999999999602
 21
124.0
 31
0.0
  0
LINE
  5
17D
100
AcDbEntity
100
AcDbLine
  8
skeleton2
 62
256
370
-1
  6
ByLayer
 10
244.7999999999999829
 20
100.0
 30
0.0
 11
244.7999999999999829
 21
124.0
 31
0.0
  0
LINE
  5
17E
100
AcDbEntity
100
AcDbLine
  8
skeleton
 62
256
370
-1
  6
ByLayer
 10
243.7999999999999545
 20
100.0
 30
0.0
 11
243.7999999999999545
 21
124.0
 31
0.0
  0
LINE
  5
17F
100
AcDbEntity
100
AcDbLine
  8
skeleton
 62
256
370
-1
  6
ByLayer
 10
242.3999999999999773
 20
100.0
 30
0.0
 11
242.3999999999999773
 21
124.0
 31
0.0
  0
LINE
  5
180
100
AcDbEntity
100
AcDbLine
  8
skeleton2
 62
256
370
-1
  6
ByLayer
 10
241.3999999999999773
 20
100.0
 30
0.0
 11
241.3999999999999773
 21
124.0
 31
0.0
  0
LINE
  5
181
100
AcDbEntity
100
AcDbLine
  8
skeleton
 62
256
370
-1
  6
ByLayer
 10
238.9999999999999716
 20
100.0
 30
0.0
 11
238.9999999999999716
 21
124.0
 31
0.0
  0
LINE
  5
182
100
AcDbEntity
100
AcDbLine
  8
skeleton
 62
256
370
-1
  6
ByLayer
 10
237.5999999999999659
 20
100.0
 30
0.0
 11
237.5999999999999659
 21
124.0
 31
0.0
  0
LINE
  5
183
100
AcDbEntity
100
AcDbLine
  8
skeleton2
 62
256
370
-1
  6
ByLayer
 10
235.1999999999999602
 20
100.0
 30
0.0
 11
235.1999999999999602
 21
124.0
 31
0.0
  0
LINE
  5
184
100
AcDbEntity
100
AcDbLine
  8
skeleton
 62
256
370
-1
  6
ByLayer
 10
232.7999999999999545
 20
100.0
 30
0.0
 11
232.7999999999999545
 21
124.0
 31
0.0
  0
LINE
  5
185
100
AcDbEntity
100
AcDbLine
  8
skeleton2
 62
256
370
-1
  6
ByLayer
 10
168.2000000000000171
 20
100.0
 30
0.0
 11
168.2000000000000171
 21
124.0
 31
0.0
  0
LINE
  5
186
100
AcDbEntity
100
AcDbLine
  8
skeleton2
 62
256
370
-1
  6
ByLayer
 10
248.3999999999999488
 20
100.0
 30
0.0
 11
248.3999999999999488
 21
124.0
 31
0.0
  0
LINE
  5
187
100
AcDbEntity
100
AcDbLine
  8
skeleton2
 62
256
370
-1
  6
ByLayer
 10
158.2000000000000171
 20
100.0
 30
0.0
 11
158.2000000000000171
 21
124.0
 31
0.0
  0
LINE
  5
188
100
AcDbEntity
100
AcDbLine
  8
skeleton2
 62
256
370
-1
  6
ByLayer
 10
258.3999999999999773
 20
100.0
 30
0.0
 11
258.3999999999999773
 21
124.0
 31
0.0
  0
LINE
  5
189
100
AcDbEntity
100
AcDbLine
  8
skeleton
 62
256
370
-1
  6
ByLayer
 10
158.2000000000000171
 20
110.0
 30
0.0
 11
258.3999999999999773
 21
110.0
 31
0.0
  0
LINE
  5
18A
100
AcDbEntity
100
AcDbLine
  8
skeleton
 62
256
370
-1
  6
ByLayer
 10
158.2000000000000171
 20
104.0
 30
0.0
 11
258.3999999999999773
 21
104.0
 31
0.0
  0
LINE
  5
18B
100
AcDbEntity
100
AcDbLine
  8
skeleton
 62
256
370
-1
  6
ByLayer
 10
168.2000000000000171
 20
124.0
 30
0.0
 11
248.3999999999999488
 21
124.0
 31
0.0
  0
LINE
  5
18C
100
AcDbEntity
100
AcDbLine
  8
skeleton2
 62
256
370
-1
  6
ByLayer
 10
168.2000000000000171
 20
100.0
 30
0.0
 11
248.3999999999999488
 21
100.0
 31
0.0
  0
LINE
  5
18D
100
AcDbEntity
100
AcDbLine
  8
cut
 62
256
370
-1
  6
ByLayer
 10
168.2000000000000171
 20
124.0
 30
0.0
 11
168.2000000000000171
 21
110.0
 31
0.0
  0
LINE
  5
18E
100
AcDbEntity
100
AcDbLine
  8
cut
 62
256
370
-1
  6
ByLayer
 10
168.2000000000000171
 20
110.0
 30
0.0
 11
158.2000000000000171
 21
110.0
 31
0.0
  0
LINE
  5
18F
100
AcDbEntity
100
AcDbLine
  8
cut
 62
256
370
-1
  6
ByLayer
 10
158.2000000000000171
 20
110.0
 30
0.0
 11
158.2000000000000171
 21
104.0
 31
0.0
  0
LINE
  5
190
100
AcDbEntity
100
AcDbLine
  8
cut
 62
256
370
-1
  6
ByLayer
 10
158.2000000000000171
 20
104.0
 30
0.0
 11
258.3999999999999773
 21
104.0
 31
0.0
  0
LINE
  5
191
100
AcDbEntity
100
AcDbLine
  8
cut
 62
256
370
-1
  6
ByLayer
 10
258.3999999999999773
 20
104.0
 30
0.0
 11
258.3999999999999773
 21
110.0
 31
0.0
  0
LINE
  5
192
100
AcDbEntity
100
AcDbLine
  8
cut
 62
256
370
-1
  6
ByLayer
 10
258.3999999999999773
 20
110.0
 30
0.0
 11
248.3999999999999204
 21
110.0
 31
0.0
  0
LINE
  5
193
100
AcDbEntity
100
AcDbLine
  8
cut
 62
256
370
-1
  6
ByLayer
 10
248.3999999999999204
 20
110.0
 30
0.0
 11
248.3999999999999488
 21
124.0
 31
0.0
  0
LINE
  5
194
100
AcDbEntity
100
AcDbLine
  8
skeleton
 62
256
370
-1
  6
ByLayer
 10
170.4000000000000057
 20
140.0
 30
0.0
 11
170.4000000000000057
 21
164.0
 31
0.0
  0
LINE
  5
195
100
AcDbEntity
100
AcDbLine
  8
skeleton
 62
256
370
-1
  6
ByLayer
 10
171.8000000000000114
 20
140.0
 30
0.0
 11
171.8000000000000114
 21
164.0
 31
0.0
  0
LINE
  5
196
100
AcDbEntity
100
AcDbLine
  8
skeleton2
 62
256
370
-1
  6
ByLayer
 10
172.8000000000000114
 20
140.0
 30
0.0
 11
172.8000000000000114
 21
164.0
 31
0.0
  0
LINE
  5
197
100
AcDbEntity
100
AcDbLine
  8
skeleton2
 62
256
370
-1
  6
ByLayer
 10
174.2000000000000171
 20
140.0
 30
0.0
 11
174.2000000000000171
 21
164.0
 31
0.0
  0
LINE
  5
198
100
AcDbEntity
100
AcDbLine
  8
skeleton
 62
256
370
-1
  6
ByLayer
 10
176.6000000000000227
 20
140.0
 30
0.0
 11
176.6000000000000227
 21
164.0
 31
0.0
  0
LINE
  5
199
100
AcDbEntity
100
AcDbLine
  8
skeleton2
 62
256
370
-1
  6
ByLayer
 10
179.0000000000000284
 20
140.0
 30
0.0
 11
179.0000000000000284
 21
164.0
 31
0.0
  0
LINE
  5
19A
100
AcDbEntity
100
AcDbLine
  8
skeleton2
 62
256
370
-1
  6
ByLayer
 10
182.4000000000000057
 20
140.0
 30
0.0
 11
182.4000000000000057
 21
164.0
 31
0.0
  0
LINE
  5
19B
100
AcDbEntity
100
AcDbLine
  8
skeleton2
 62
256
370
-1
  6
ByLayer
 10
188.5999999999999943
 20
140.0
 30
0.0
 11
188.5999999999999943
 21
164.0
 31
0.0
  0
LINE
  5
19C
100
AcDbEntity
100
AcDbLine
  8
skeleton2
 62
256
370
-1
  6
ByLayer
 10
187.2000000000000171
 20
140.0
 30
0.0
 11
187.2000000000000171
 21
164.0
 31
0.0
  0
LINE
  5
19D
100
AcDbEntity
100
AcDbLine
  8
skeleton
 62
256
370
-1
  6
ByLayer
 10
186.1999999999999886
 20
140.0
 30
0.0
 11
186.1999999999999886
 21
164.0
 31
0.0
  0
LINE
  5
19E
100
AcDbEntity
100
AcDbLine
  8
skeleton
 62
256
370
-1
  6
ByLayer
 10
184.8000000000000114
 20
140.0
 30
0.0
 11
184.8000000000000114
 21
164.0
 31
0.0
  0
LINE
  5
19F
100
AcDbEntity
100
AcDbLine
  8
skeleton2
 62
256
370
-1
  6
ByLayer
 10
183.8000000000000114
 20
140.0
 30
0.0
 11
183.8000000000000114
 21
164.0
 31
0.0
  0
LINE
  5
1A0
100
AcDbEntity
100
AcDbLine
  8
skeleton
 62
256
370
-1
  6
ByLayer
 10
181.4000000000000057
 20
140.0
 30
0.0
 11
181.4000000000000057
 21
164.0
 31
0.0
  0
LINE
  5
1A1
100
AcDbEntity
100
AcDbLine
  8
skeleton
 62
256
370
-1
  6
ByLayer
 10
180.0
 20
140.0
 30
0.0
 11
180.0
 21
164.0
 31
0.0
  0
LINE
  5
1A2
100
AcDbEntity
100
AcDbLine
  8
skeleton2
 62
256
370
-1
  6
ByLayer
 10
177.5999999999999943
 20
140.0
 30
0.0
 11
177.5999999999999943
 21
164.0
 31
0.0
  0
LINE
  5
1A3
100
AcDbEntity
100
AcDbLine
  8
skeleton
 62
256
370
-1
  6
ByLayer
 10
175.1999999999999886
 20
140.0
 30
0.0
 11
175.1999999999999886
 21
164.0
 31
0.0
  0
LINE
  5
1A4
100
AcDbEntity
100
AcDbLine
  8
skeleton
 62
256
370
-1
  6
ByLayer
 10
189.5999999999999943
 20
140.0
 30
0.0
 11
189.5999999999999943
 21
164.0
 31
0.0
  0
LINE
  5
1A5
100
AcDbEntity
100
AcDbLine
  8
skeleton
 62
256
370
-1
  6
ByLayer
 10
191.0
 20
140.0
 30
0.0
 11
191.0
 21
164.0
 31
0.0
  0
LINE
  5
1A6
100
AcDbEntity
100
AcDbLine
  8
skeleton2
 62
256
370
-1
  6
ByLayer
 10
192.0
 20
140.0
 30
0.0
 11
192.0
 21
164.0
 31
0.0
  0
LINE
  5
1A7
100
AcDbEntity
100
AcDbLine
  8
skeleton2
 62
256
370
-1
  6
ByLayer
 10
193.4000000000000057
 20
140.0
 30
0.0
 11
193.4000000000000057
 21
164.0
 31
0.0
  0
LINE
  5
1A8
100
AcDbEntity
100
AcDbLine
  8
skeleton
 62
256
370
-1
  6
ByLayer
 10
195.8000000000000114
 20
140.0
 30
0.0
 11
195.8000000000000114
 21
164.0
 31
0.0
  0
LINE
  5
1A9
100
AcDbEntity
100
AcDbLine
  8
skeleton2
 62
256
370
-1
  6
ByLayer
 10
198.2000000000000171
 20
140.0
 30
0.0
 11
198.2000000000000171
 21
164.0
 31
0.0
  0
LINE
  5
1AA
100
AcDbEntity
100
AcDbLine
  8
skeleton2
 62
256
370
-1
  6
ByLayer
 10
201.5999999999999943
 20
140.0
 30
0.0
 11
201.5999999999999943
 21
164.0
 31
0.0
  0
LINE
  5
1AB
100
AcDbEntity
100
AcDbLine
  8
skeleton2
 62
256
370
-1
  6
ByLayer
 10
207.7999999999999829
 20
140.0
 30
0.0
 11
207.7999999999999829
 21
164.0
 31
0.0
  0
LINE
  5
1AC
100
AcDbEntity
100
AcDbLine
  8
skeleton2
 62
256
370
-1
  6
ByLayer
 10
206.4000000000000057
 20
140.0
 30
0.0
 11
206.4000000000000057
 21
164.0
 31
0.0
  0
LINE
  5
1AD
100
AcDbEntity
100
AcDbLine
  8
skeleton
 62
256
370
-1
  6
ByLayer
 10
205.3999999999999773
 20
140.0
 30
0.0
 11
205.3999999999999773
 21
164.0
 31
0.0
  0
LINE
  5
1AE
100
AcDbEntity
100
AcDbLine
  8
skeleton
 62
256
370
-1
  6
ByLayer
 10
204.0
 20
140.0
 30
0.0
 11
204.0
 21
164.0
 31
0.0
  0
LINE
  5
1AF
100
AcDbEntity
100
AcDbLine
  8
skeleton2
 62
256
370
-1
  6
ByLayer
 10
203.0
 20
140.0
 30
0.0
 11
203.0
 21
164.0
 31
0.0
  0
LINE
  5
1B0
100
AcDbEntity
100
AcDbLine
  8
skeleton
 62
256
370
-1
  6
ByLayer
 10
200.5999999999999943
 20
140.0
 30
0.0
 11
200.5999999999999943
 21
164.0
 31
0.0
  0
LINE
  5
1B1
100
AcDbEntity
100
AcDbLine
  8
skeleton
 62
256
370
-1
  6
ByLayer
 10
199.1999999999999886
 20
140.0
 30
0.0
 11
199.1999999999999886
 21
164.0
 31
0.0
  0
LINE
  5
1B2
100
AcDbEntity
100
AcDbLine
  8
skeleton2
 62
256
370
-1
  6
ByLayer
 10
196.7999999999999829
 20
140.0
 30
0.0
 11
196.7999999999999829
 21
164.0
 31
0.0
  0
LINE
  5
1B3
100
AcDbEntity
100
AcDbLine
  8
skeleton
 62
256
370
-1
  6
ByLayer
 10
194.3999999999999773
 20
140.0
 30
0.0
 11
194.3999999999999773
 21
164.0
 31
0.0
  0
LINE
  5
1B4
100
AcDbEntity
100
AcDbLine
  8
skeleton
 62
256
370
-1
  6
ByLayer
 10
208.7999999999999829
 20
140.0
 30
0.0
 11
208.7999999999999829
 21
164.0
 31
0.0
  0
LINE
  5
1B5
100
AcDbEntity
100
AcDbLine
  8
skeleton
 62
256
370
-1
  6
ByLayer
 10
210.1999999999999886
 20
140.0
 30
0.0
 11
210.1999999999999886
 21
164.0
 31
0.0
  0
LINE
  5
1B6
100
AcDbEntity
100
AcDbLine
  8
skeleton2
 62
256
370
-1
  6
ByLayer
 10
211.1999999999999886
 20
140.0
 30
0.0
 11
211.1999999999999886
 21
164.0
 31
0.0
  0
LINE
  5
1B7
100
AcDbEntity
100
AcDbLine
  8
skeleton2
 62
256
370
-1
  6
ByLayer
 10
212.5999999999999943
 20
140.0
 30
0.0
 11
212.5999999999999943
 21
164.0
 31
0.0
  0
LINE
  5
1B8
100
AcDbEntity
100
AcDbLine
  8
skeleton
 62
256
370
-1
  6
ByLayer
 10
215.0
 20
140.0
 30
0.0
 11
215.0
 21
164.0
 31
0.0
  0
LINE
  5
1B9
100
AcDbEntity
100
AcDbLine
  8
skeleton2
 62
256
370
-1
  6
ByLayer
 10
217.4000000000000057
 20
140.0
 30
0.0
 11
217.4000000000000057
 21
164.0
 31
0.0
  0
LINE
  5
1BA
100
AcDbEntity
100
AcDbLine
  8
skeleton2
 62
256
370
-1
  6
ByLayer
 10
220.7999999999999829
 20
140.0
 30
0.0
 11
220.7999999999999829
 21
164.0
 31
0.0
  0
LINE
  5
1BB
100
AcDbEntity
100
AcDbLine
  8
skeleton2
 62
256
370
-1
  6
ByLayer
 10
226.9999999999999716
 20
140.0
 30
0.0
 11
226.9999999999999716
 21
164.0
 31
0.0
  0
LINE
  5
1BC
100
AcDbEntity
100
AcDbLine
  8
skeleton2
 62
256
370
-1
  6
ByLayer
 10
225.5999999999999943
 20
140.0
 30
0.0
 11
225.5999999999999943
 21
164.0
 31
0.0
  0
LINE
  5
1BD
100
AcDbEntity
100
AcDbLine
  8
skeleton
 62
256
370
-1
  6
ByLayer
 10
224.5999999999999659
 20
140.0
 30
0.0
 11
224.5999999999999659
 21
164.0
 31
0.0
  0
LINE
  5
1BE
100
AcDbEntity
100
AcDbLine
  8
skeleton
 62
256
370
-1
  6
ByLayer
 10
223.1999999999999886
 20
140.0
 30
0.0
 11
223.1999999999999886
 21
164.0
 31
0.0
  0
LINE
  5
1BF
100
AcDbEntity
100
AcDbLine
  8
skeleton2
 62
256
370
-1
  6
ByLayer
 10
222.1999999999999886
 20
140.0
 30
0.0
 11
222.1999999999999886
 21
164.0
 31
0.0
  0
LINE
  5
1C0
100
AcDbEntity
100
AcDbLine
  8
skeleton
 62
256
370
-1
  6
ByLayer
 10
219.7999999999999829
 20
140.0
 30
0.0
 11
219.7999999999999829
 21
164.0
 31
0.0
  0
LINE
  5
1C1
100
AcDbEntity
100
AcDbLine
  8
skeleton
 62
256
370
-1
  6
ByLayer
 10
218.3999999999999773
 20
140.0
 30
0.0
 11
218.3999999999999773
 21
164.0
 31
0.0
  0
LINE
  5
1C2
100
AcDbEntity
100
AcDbLine
  8
skeleton2
 62
256
370
-1
  6
ByLayer
 10
215.9999999999999716
 20
140.0
 30
0.0
 11
215.9999999999999716
 21
164.0
 31
0.0
  0
LINE
  5
1C3
100
AcDbEntity
100
AcDbLine
  8
skeleton
 62
256
370
-1
  6
ByLayer
 10
213.5999999999999659
 20
140.0
 30
0.0
 11
213.5999999999999659
 21
164.0
 31
0.0
  0
LINE
  5
1C4
100
AcDbEntity
100
AcDbLine
  8
skeleton
 62
256
370
-1
  6
ByLayer
 10
227.9999999999999716
 20
140.0
 30
0.0
 11
227.9999999999999716
 21
164.0
 31
0.0
  0
LINE
  5
1C5
100
AcDbEntity
100
AcDbLine
  8
skeleton
 62
256
370
-1
  6
ByLayer
 10
229.3999999999999773
 20
140.0
 30
0.0
 11
229.3999999999999773
 21
164.0
 31
0.0
  0
LINE
  5
1C6
100
AcDbEntity
100
AcDbLine
  8
skeleton2
 62
256
370
-1
  6
ByLayer
 10
230.3999999999999773
 20
140.0
 30
0.0
 11
230.3999999999999773
 21
164.0
 31
0.0
  0
LINE
  5
1C7
100
AcDbEntity
100
AcDbLine
  8
skeleton2
 62
256
370
-1
  6
ByLayer
 10
231.7999999999999829
 20
140.0
 30
0.0
 11
231.7999999999999829
 21
164.0
 31
0.0
  0
LINE
  5
1C8
100
AcDbEntity
100
AcDbLine
  8
skeleton
 62
256
370
-1
  6
ByLayer
 10
234.1999999999999886
 20
140.0
 30
0.0
 11
234.1999999999999886
 21
164.0
 31
0.0
  0
LINE
  5
1C9
100
AcDbEntity
100
AcDbLine
  8
skeleton2
 62
256
370
-1
  6
ByLayer
 10
236.5999999999999943
 20
140.0
 30
0.0
 11
236.5999999999999943
 21
164.0
 31
0.0
  0
LINE
  5
1CA
100
AcDbEntity
100
AcDbLine
  8
skeleton2
 62
256
370
-1
  6
ByLayer
 10
239.9999999999999716
 20
140.0
 30
0.0
 11
239.9999999999999716
 21
164.0
 31
0.0
  0
LINE
  5
1CB
100
AcDbEntity
100
AcDbLine
  8
skeleton2
 62
256
370
-1
  6
ByLayer
 10
246.1999999999999602
 20
140.0
 30
0.0
 11
246.1999999999999602
 21
164.0
 31
0.0
  0
LINE
  5
1CC
100
AcDbEntity
100
AcDbLine
  8
skeleton2
 62
256
370
-1
  6
ByLayer
 10
244.7999999999999829
 20
140.0
 30
0.0
 11
244.7999999999999829
 21
164.0
 31
0.0
  0
LINE
  5
1CD
100
AcDbEntity
100
AcDbLine
  8
skeleton
 62
256
370
-1
  6
ByLayer
 10
243.7999999999999545
 20
140.0
 30
0.0
 11
243.7999999999999545
 21
164.0
 31
0.0
  0
LINE
  5
1CE
100
AcDbEntity
100
AcDbLine
  8
skeleton
 62
256
370
-1
  6
ByLayer
 10
242.3999999999999773
 20
140.0
 30
0.0
 11
242.3999999999999773
 21
164.0
 31
0.0
  0
LINE
  5
1CF
100
AcDbEntity
100
AcDbLine
  8
skeleton2
 62
256
370
-1
  6
ByLayer
 10
241.3999999999999773
 20
140.0
 30
0.0
 11
241.3999999999999773
 21
164.0
 31
0.0
  0
LINE
  5
1D0
100
AcDbEntity
100
AcDbLine
  8
skeleton
 62
256
370
-1
  6
ByLayer
 10
238.9999999999999716
 20
140.0
 30
0.0
 11
238.9999999999999716
 21
164.0
 31
0.0
  0
LINE
  5
1D1
100
AcDbEntity
100
AcDbLine
  8
skeleton
 62
256
370
-1
  6
ByLayer
 10
237.5999999999999659
 20
140.0
 30
0.0
 11
237.5999999999999659
 21
164.0
 31
0.0
  0
LINE
  5
1D2
100
AcDbEntity
100
AcDbLine
  8
skeleton2
 62
256
370
-1
  6
ByLayer
 10
235.1999999999999602
 20
140.0
 30
0.0
 11
235.1999999999999602
 21
164.0
 31
0.0
  0
LINE
  5
1D3
100
AcDbEntity
100
AcDbLine
  8
skeleton
 62
256
370
-1
  6
ByLayer
 10
232.7999999999999545
 20
140.0
 30
0.0
 11
232.7999999999999545
 21
164.0
 31
0.0
  0
LINE
  5
1D4
100
AcDbEntity
100
AcDbLine
  8
skeleton2
 62
256
370
-1
  6
ByLayer
 10
168.2000000000000171
 20
140.0
 30
0.0
 11
168.2000000000000171
 21
164.0
 31
0.0
  0
LINE
  5
1D5
100
AcDbEntity
100
AcDbLine
  8
skeleton2
 62
256
370
-1
  6
ByLayer
 10
248.3999999999999488
 20
140.0
 30
0.0
 11
248.3999999999999488
 21
164.0
 31
0.0
  0
LINE
  5
1D6
100
AcDbEntity
100
AcDbLine
  8
skeleton2
 62
256
370
-1
  6
ByLayer
 10
158.2000000000000171
 20
140.0
 30
0.0
 11
158.2000000000000171
 21
164.0
 31
0.0
  0
LINE
  5
1D7
100
AcDbEntity
100
AcDbLine
  8
skeleton2
 62
256
370
-1
  6
ByLayer
 10
258.3999999999999773
 20
140.0
 30
0.0
 11
258.3999999999999773
 21
164.0
 31
0.0
  0
LINE
  5
1D8
100
AcDbEntity
100
AcDbLine
  8
skeleton
 62
256
370
-1
  6
ByLayer
 10
158.2000000000000171
 20
150.0
 30
0.0
 11
258.3999999999999773
 21
150.0
 31
0.0
  0
LINE
  5
1D9
100
AcDbEntity
100
AcDbLine
  8
skeleton
 62
256
370
-1
  6
ByLayer
 10
158.2000000000000171
 20
144.0
 30
0.0
 11
258.3999999999999773
 21
144.0
 31
0.0
  0
LINE
  5
1DA
100
AcDbEntity
100
AcDbLine
  8
skeleton
 62
256
370
-1
  6
ByLayer
 10
168.2000000000000171
 20
164.0
 30
0.0
 11
248.3999999999999488
 21
164.0
 31
0.0
  0
LINE
  5
1DB
100
AcDbEntity
100
AcDbLine
  8
skeleton2
 62
256
370
-1
  6
ByLayer
 10
168.2000000000000171
 20
140.0
 30
0.0
 11
248.3999999999999488
 21
140.0
 31
0.0
  0
LINE
  5
1DC
100
AcDbEntity
100
AcDbLine
  8
cut
 62
256
370
-1
  6
ByLayer
 10
168.2000000000000171
 20
164.0
 30
0.0
 11
168.2000000000000171
 21
150.0
 31
0.0
  0
LINE
  5
1DD
100
AcDbEntity
100
AcDbLine
  8
cut
 62
256
370
-1
  6
ByLayer
 10
168.2000000000000171
 20
150.0
 30
0.0
 11
158.2000000000000171
 21
150.0
 31
0.0
  0
LINE
  5
1DE
100
AcDbEntity
100
AcDbLine
  8
cut
 62
256
370
-1
  6
ByLayer
 10
158.2000000000000171
 20
150.0
 30
0.0
 11
158.2000000000000171
 21
144.0
 31
0.0
  0
LINE
  5
1DF
100
AcDbEntity
100
AcDbLine
  8
cut
 62
256
370
-1
  6
ByLayer
 10
158.2000000000000171
 20
144.0
 30
0.0
 11
258.3999999999999773
 21
144.0
 31
0.0
  0
LINE
  5
1E0
100
AcDbEntity
100
AcDbLine
  8
cut
 62
256
370
-1
  6
ByLayer
 10
258.3999999999999773
 20
144.0
 30
0.0
 11
258.3999999999999773
 21
150.0
 31
0.0
  0
LINE
  5
1E1
100
AcDbEntity
100
AcDbLine
  8
cut
 62
256
370
-1
  6
ByLayer
 10
258.3999999999999773
 20
150.0
 30
0.0
 11
248.3999999999999204
 21
150.0
 31
0.0
  0
LINE
  5
1E2
100
AcDbEntity
100
AcDbLine
  8
cut
 62
256
370
-1
  6
ByLayer
 10
248.3999999999999204
 20
150.0
 30
0.0
 11
248.3999999999999488
 21
164.0
 31
0.0
  0
LINE
  5
1E3
100
AcDbEntity
100
AcDbLine
  8
skeleton
 62
256
370
-1
  6
ByLayer
 10
170.4000000000000057
 20
180.0
 30
0.0
 11
170.4000000000000057
 21
204.0
 31
0.0
  0
LINE
  5
1E4
100
AcDbEntity
100
AcDbLine
  8
skeleton
 62
256
370
-1
  6
ByLayer
 10
171.8000000000000114
 20
180.0
 30
0.0
 11
171.8000000000000114
 21
204.0
 31
0.0
  0
LINE
  5
1E5
100
AcDbEntity
100
AcDbLine
  8
skeleton2
 62
256
370
-1
  6
ByLayer
 10
172.8000000000000114
 20
180.0
 30
0.0
 11
172.8000000000000114
 21
204.0
 31
0.0
  0
LINE
  5
1E6
100
AcDbEntity
100
AcDbLine
  8
skeleton2
 62
256
370
-1
  6
ByLayer
 10
174.2000000000000171
 20
180.0
 30
0.0
 11
174.2000000000000171
 21
204.0
 31
0.0
  0
LINE
  5
1E7
100
AcDbEntity
100
AcDbLine
  8
skeleton
 62
256
370
-1
  6
ByLayer
 10
176.6000000000000227
 20
180.0
 30
0.0
 11
176.6000000000000227
 21
204.0
 31
0.0
  0
LINE
  5
1E8
100
AcDbEntity
100
AcDbLine
  8
skeleton2
 62
256
370
-1
  6
ByLayer
 10
179.0000000000000284
 20
180.0
 30
0.0
 11
179.0000000000000284
 21
204.0
 31
0.0
  0
LINE
  5
1E9
100
AcDbEntity
100
AcDbLine
  8
skeleton2
 62
256
370
-1
  6
ByLayer
 10
182.4000000000000057
 20
180.0
 30
0.0
 11
182.4000000000000057
 21
204.0
 31
0.0
  0
LINE
  5
1EA
100
AcDbEntity
100
AcDbLine
  8
skeleton2
 62
256
370
-1
  6
ByLayer
 10
188.5999999999999943
 20
180.0
 30
0.0
 11
188.5999999999999943
 21
204.0
 31
0.0
  0
LINE
  5
1EB
100
AcDbEntity
100
AcDbLine
  8
skeleton2
 62
256
370
-1
  6
ByLayer
 10
187.2000000000000171
 20
180.0
 30
0.0
 11
187.2000000000000171
 21
204.0
 31
0.0
  0
LINE
  5
1EC
100
AcDbEntity
100
AcDbLine
  8
skeleton
 62
256
370
-1
  6
ByLayer
 10
186.1999999999999886
 20
180.0
 30
0.0
 11
186.1999999999999886
 21
204.0
 31
0.0
  0
LINE
  5
1ED
100
AcDbEntity
100
AcDbLine
  8
skeleton
 62
256
370
-1
  6
ByLayer
 10
184.8000000000000114
 20
180.0
 30
0.0
 11
184.8000000000000114
 21
204.0
 31
0.0
  0
LINE
  5
1EE
100
AcDbEntity
100
AcDbLine
  8
skeleton2
 62
256
370
-1
  6
ByLayer
 10
183.8000000000000114
 20
180.0
 30
0.0
 11
183.8000000000000114
 21
204.0
 31
0.0
  0
LINE
  5
1EF
100
AcDbEntity
100
AcDbLine
  8
skeleton
 62
256
370
-1
  6
ByLayer
 10
181.4000000000000057
 20
180.0
 30
0.0
 11
181.4000000000000057
 21
204.0
 31
0.0
  0
LINE
  5
1F0
100
AcDbEntity
100
AcDbLine
  8
skeleton
 62
256
370
-1
  6
ByLayer
 10
180.0
 20
180.0
 30
0.0
 11
180.0
 21
204.0
 31
0.0
  0
LINE
  5
1F1
100
AcDbEntity
100
AcDbLine
  8
skeleton2
 62
256
370
-1
  6
ByLayer
 10
177.5999999999999943
 20
180.0
 30
0.0
 11
177.5999999999999943
 21
204.0
 31
0.0
  0
LINE
  5
1F2
100
AcDbEntity
100
AcDbLine
  8
skeleton
 62
256
370
-1
  6
ByLayer
 10
175.1999999999999886
 20
180.0
 30
0.0
 11
175.1999999999999886
 21
204.0
 31
0.0
  0
LINE
  5
1F3
100
AcDbEntity
100
AcDbLine
  8
skeleton
 62
256
370
-1
  6
ByLayer
 10
189.5999999999999943
 20
180.0
 30
0.0
 11
189.5999999999999943
 21
204.0
 31
0.0
  0
LINE
  5
1F4
100
AcDbEntity
100
AcDbLine
  8
skeleton
 62
256
370
-1
  6
ByLayer
 10
191.0
 20
180.0
 30
0.0
 11
191.0
 21
204.0
 31
0.0
  0
LINE
  5
1F5
100
AcDbEntity
100
AcDbLine
  8
skeleton2
 62
256
370
-1
  6
ByLayer
 10
192.0
 20
180.0
 30
0.0
 11
192.0
 21
204.0
 31
0.0
  0
LINE
  5
1F6
100
AcDbEntity
100
AcDbLine
  8
skeleton2
 62
256
370
-1
  6
ByLayer
 10
193.4000000000000057
 20
180.0
 30
0.0
 11
193.4000000000000057
 21
204.0
 31
0.0
  0
LINE
  5
1F7
100
AcDbEntity
100
AcDbLine
  8
skeleton
 62
256
370
-1
  6
ByLayer
 10
195.8000000000000114
 20
180.0
 30
0.0
 11
195.8000000000000114
 21
204.0
 31
0.0
  0
LINE
  5
1F8
100
AcDbEntity
100
AcDbLine
  8
skeleton2
 62
256
370
-1
  6
ByLayer
 10
198.2000000000000171
 20
180.0
 30
0.0
 11
198.2000000000000171
 21
204.0
 31
0.0
  0
LINE
  5
1F9
100
AcDbEntity
100
AcDbLine
  8
skeleton2
 62
256
370
-1
  6
ByLayer
 10
201.5999999999999943
 20
180.0
 30
0.0
 11
201.5999999999999943
 21
204.0
 31
0.0
  0
LINE
  5
1FA
100
AcDbEntity
100
AcDbLine
  8
skeleton2
 62
256
370
-1
  6
ByLayer
 10
207.7999999999999829
 20
180.0
 30
0.0
 11
207.7999999999999829
 21
204.0
 31
0.0
  0
LINE
  5
1FB
100
AcDbEntity
100
AcDbLine
  8
skeleton2
 62
256
370
-1
  6
ByLayer
 10
206.4000000000000057
 20
180.0
 30
0.0
 11
206.4000000000000057
 21
204.0
 31
0.0
  0
LINE
  5
1FC
100
AcDbEntity
100
AcDbLine
  8
skeleton
 62
256
370
-1
  6
ByLayer
 10
205.3999999999999773
 20
180.0
 30
0.0
 11
205.3999999999999773
 21
204.0
 31
0.0
  0
LINE
  5
1FD
100
AcDbEntity
100
AcDbLine
  8
skeleton
 62
256
370
-1
  6
ByLayer
 10
204.0
 20
180.0
 30
0.0
 11
204.0
 21
204.0
 31
0.0
  0
LINE
  5
1FE
100
AcDbEntity
100
AcDbLine
  8
skeleton2
 62
256
370
-1
  6
ByLayer
 10
203.0
 20
180.0
 30
0.0
 11
203.0
 21
204.0
 31
0.0
  0
LINE
  5
1FF
100
AcDbEntity
100
AcDbLine
  8
skeleton
 62
256
370
-1
  6
ByLayer
 10
200.5999999999999943
 20
180.0
 30
0.0
 11
200.5999999999999943
 21
204.0
 31
0.0
  0
LINE
  5
200
100
AcDbEntity
100
AcDbLine
  8
skeleton
 62
256
370
-1
  6
ByLayer
 10
199.1999999999999886
 20
180.0
 30
0.0
 11
199.1999999999999886
 21
204.0
 31
0.0
  0
LINE
  5
201
100
AcDbEntity
100
AcDbLine
  8
skeleton2
 62
256
370
-1
  6
ByLayer
 10
196.7999999999999829
 20
180.0
 30
0.0
 11
196.7999999999999829
 21
204.0
 31
0.0
  0
LINE
  5
202
100
AcDbEntity
100
AcDbLine
  8
skeleton
 62
256
370
-1
  6
ByLayer
 10
194.3999999999999773
 20
180.0
 30
0.0
 11
194.3999999999999773
 21
204.0
 31
0.0
  0
LINE
  5
203
100
AcDbEntity
100
AcDbLine
  8
skeleton
 62
256
370
-1
  6
ByLayer
 10
208.7999999999999829
 20
180.0
 30
0.0
 11
208.7999999999999829
 21
204.0
 31
0.0
  0
LINE
  5
204
100
AcDbEntity
100
AcDbLine
  8
skeleton
 62
256
370
-1
  6
ByLayer
 10
210.1999999999999886
 20
180.0
 30
0.0
 11
210.1999999999999886
 21
204.0
 31
0.0
  0
LINE
  5
205
100
AcDbEntity
100
AcDbLine
  8
skeleton2
 62
256
370
-1
  6
ByLayer
 10
211.1999999999999886
 20
180.0
 30
0.0
 11
211.1999999999999886
 21
204.0
 31
0.0
  0
LINE
  5
206
100
AcDbEntity
100
AcDbLine
  8
skeleton2
 62
256
370
-1
  6
ByLayer
 10
212.5999999999999943
 20
180.0
 30
0.0
 11
212.5999999999999943
 21
204.0
 31
0.0
  0
LINE
  5
207
100
AcDbEntity
100
AcDbLine
  8
skeleton
 62
256
370
-1
  6
ByLayer
 10
215.0
 20
180.0
 30
0.0
 11
215.0
 21
204.0
 31
0.0
  0
LINE
  5
208
100
AcDbEntity
100
AcDbLine
  8
skeleton2
 62
256
370
-1
  6
ByLayer
 10
217.4000000000000057
 20
180.0
 30
0.0
 11
217.4000000000000057
 21
204.0
 31
0.0
  0
LINE
  5
209
100
AcDbEntity
100
AcDbLine
  8
skeleton2
 62
256
370
-1
  6
ByLayer
 10
220.7999999999999829
 20
180.0
 30
0.0
 11
220.7999999999999829
 21
204.0
 31
0.0
  0
LINE
  5
20A
100
AcDbEntity
100
AcDbLine
  8
skeleton2
 62
256
370
-1
  6
ByLayer
 10
226.9999999999999716
 20
180.0
 30
0.0
 11
226.9999999999999716
 21
204.0
 31
0.0
  0
LINE
  5
20B
100
AcDbEntity
100
AcDbLine
  8
skeleton2
 62
256
370
-1
  6
ByLayer
 10
225.5999999999999943
 20
180.0
 30
0.0
 11
225.5999999999999943
 21
204.0
 31
0.0
  0
LINE
  5
20C
100
AcDbEntity
100
AcDbLine
  8
skeleton
 62
256
370
-1
  6
ByLayer
 10
224.5999999999999659
 20
180.0
 30
0.0
 11
224.5999999999999659
 21
204.0
 31
0.0
  0
LINE
  5
20D
100
AcDbEntity
100
AcDbLine
  8
skeleton
 62
256
370
-1
  6
ByLayer
 10
223.1999999999999886
 20
180.0
 30
0.0
 11
223.1999999999999886
 21
204.0
 31
0.0
  0
LINE
  5
20E
100
AcDbEntity
100
AcDbLine
  8
skeleton2
 62
256
370
-1
  6
ByLayer
 10
222.1999999999999886
 20
180.0
 30
0.0
 11
222.1999999999999886
 21
204.0
 31
0.0
  0
LINE
  5
20F
100
AcDbEntity
100
AcDbLine
  8
skeleton
 62
256
370
-1
  6
ByLayer
 10
219.7999999999999829
 20
180.0
 30
0.0
 11
219.7999999999999829
 21
204.0
 31
0.0
  0
LINE
  5
210
100
AcDbEntity
100
AcDbLine
  8
skeleton
 62
256
370
-1
  6
ByLayer
 10
218.3999999999999773
 20
180.0
 30
0.0
 11
218.3999999999999773
 21
204.0
 31
0.0
  0
LINE
  5
211
100
AcDbEntity
100
AcDbLine
  8
skeleton2
 62
256
370
-1
  6
ByLayer
 10
215.9999999999999716
 20
180.0
 30
0.0
 11
215.9999999999999716
 21
204.0
 31
0.0
  0
LINE
  5
212
100
AcDbEntity
100
AcDbLine
  8
skeleton
 62
256
370
-1
  6
ByLayer
 10
213.5999999999999659
 20
180.0
 30
0.0
 11
213.5999999999999659
 21
204.0
 31
0.0
  0
LINE
  5
213
100
AcDbEntity
100
AcDbLine
  8
skeleton
 62
256
370
-1
  6
ByLayer
 10
227.9999999999999716
 20
180.0
 30
0.0
 11
227.9999999999999716
 21
204.0
 31
0.0
  0
LINE
  5
214
100
AcDbEntity
100
AcDbLine
  8
skeleton
 62
256
370
-1
  6
ByLayer
 10
229.3999999999999773
 20
180.0
 30
0.0
 11
229.3999999999999773
 21
204.0
 31
0.0
  0
LINE
  5
215
100
AcDbEntity
100
AcDbLine
  8
skeleton2
 62
256
370
-1
  6
ByLayer
 10
230.3999999999999773
 20
180.0
 30
0.0
 11
230.3999999999999773
 21
204.0
 31
0.0
  0
LINE
  5
216
100
AcDbEntity
100
AcDbLine
  8
skeleton2
 62
256
370
-1
  6
ByLayer
 10
231.7999999999999829
 20
180.0
 30
0.0
 11
231.7999999999999829
 21
204.0
 31
0.0
  0
LINE
  5
217
100
AcDbEntity
100
AcDbLine
  8
skeleton
 62
256
370
-1
  6
ByLayer
 10
234.1999999999999886
 20
180.0
 30
0.0
 11
234.1999999999999886
 21
204.0
 31
0.0
  0
LINE
  5
218
100
AcDbEntity
100
AcDbLine
  8
skeleton2
 62
256
370
-1
  6
ByLayer
 10
236.5999999999999943
 20
180.0
 30
0.0
 11
236.5999999999999943
 21
204.0
 31
0.0
  0
LINE
  5
219
100
AcDbEntity
100
AcDbLine
  8
skeleton2
 62
256
370
-1
  6
ByLayer
 10
239.9999999999999716
 20
180.0
 30
0.0
 11
239.9999999999999716
 21
204.0
 31
0.0
  0
LINE
  5
21A
100
AcDbEntity
100
AcDbLine
  8
skeleton2
 62
256
370
-1
  6
ByLayer
 10
246.1999999999999602
 20
180.0
 30
0.0
 11
246.1999999999999602
 21
204.0
 31
0.0
  0
LINE
  5
21B
100
AcDbEntity
100
AcDbLine
  8
skeleton2
 62
256
370
-1
  6
ByLayer
 10
244.7999999999999829
 20
180.0
 30
0.0
 11
244.7999999999999829
 21
204.0
 31
0.0
  0
LINE
  5
21C
100
AcDbEntity
100
AcDbLine
  8
skeleton
 62
256
370
-1
  6
ByLayer
 10
243.7999999999999545
 20
180.0
 30
0.0
 11
243.7999999999999545
 21
204.0
 31
0.0
  0
LINE
  5
21D
100
AcDbEntity
100
AcDbLine
  8
skeleton
 62
256
370
-1
  6
ByLayer
 10
242.3999999999999773
 20
180.0
 30
0.0
 11
242.3999999999999773
 21
204.0
 31
0.0
  0
LINE
  5
21E
100
AcDbEntity
100
AcDbLine
  8
skeleton2
 62
256
370
-1
  6
ByLayer
 10
241.3999999999999773
 20
180.0
 30
0.0
 11
241.3999999999999773
 21
204.0
 31
0.0
  0
LINE
  5
21F
100
AcDbEntity
100
AcDbLine
  8
skeleton
 62
256
370
-1
  6
ByLayer
 10
238.9999999999999716
 20
180.0
 30
0.0
 11
238.9999999999999716
 21
204.0
 31
0.0
  0
LINE
  5
220
100
AcDbEntity
100
AcDbLine
  8
skeleton
 62
256
370
-1
  6
ByLayer
 10
237.5999999999999659
 20
180.0
 30
0.0
 11
237.5999999999999659
 21
204.0
 31
0.0
  0
LINE
  5
221
100
AcDbEntity
100
AcDbLine
  8
skeleton2
 62
256
370
-1
  6
ByLayer
 10
235.1999999999999602
 20
180.0
 30
0.0
 11
235.1999999999999602
 21
204.0
 31
0.0
  0
LINE
  5
222
100
AcDbEntity
100
AcDbLine
  8
skeleton
 62
256
370
-1
  6
ByLayer
 10
232.7999999999999545
 20
180.0
 30
0.0
 11
232.7999999999999545
 21
204.0
 31
0.0
  0
LINE
  5
223
100
AcDbEntity
100
AcDbLine
  8
skeleton2
 62
256
370
-1
  6
ByLayer
 10
168.2000000000000171
 20
180.0
 30
0.0
 11
168.2000000000000171
 21
204.0
 31
0.0
  0
LINE
  5
224
100
AcDbEntity
100
AcDbLine
  8
skeleton2
 62
256
370
-1
  6
ByLayer
 10
248.3999999999999488
 20
180.0
 30
0.0
 11
248.3999999999999488
 21
204.0
 31
0.0
  0
LINE
  5
225
100
AcDbEntity
100
AcDbLine
  8
skeleton2
 62
256
370
-1
  6
ByLayer
 10
158.2000000000000171
 20
180.0
 30
0.0
 11
158.2000000000000171
 21
204.0
 31
0.0
  0
LINE
  5
226
100
AcDbEntity
100
AcDbLine
  8
skeleton2
 62
256
370
-1
  6
ByLayer
 10
258.3999999999999773
 20
180.0
 30
0.0
 11
258.3999999999999773
 21
204.0
 31
0.0
  0
LINE
  5
227
100
AcDbEntity
100
AcDbLine
  8
skeleton
 62
256
370
-1
  6
ByLayer
 10
158.2000000000000171
 20
190.0
 30
0.0
 11
258.3999999999999773
 21
190.0
 31
0.0
  0
LINE
  5
228
100
AcDbEntity
100
AcDbLine
  8
skeleton
 62
256
370
-1
  6
ByLayer
 10
158.2000000000000171
 20
184.0
 30
0.0
 11
258.3999999999999773
 21
184.0
 31
0.0
  0
LINE
  5
229
100
AcDbEntity
100
AcDbLine
  8
skeleton
 62
256
370
-1
  6
ByLayer
 10
168.2000000000000171
 20
204.0
 30
0.0
 11
248.3999999999999488
 21
204.0
 31
0.0
  0
LINE
  5
22A
100
AcDbEntity
100
AcDbLine
  8
skeleton2
 62
256
370
-1
  6
ByLayer
 10
168.2000000000000171
 20
180.0
 30
0.0
 11
248.3999999999999488
 21
180.0
 31
0.0
  0
LINE
  5
22B
100
AcDbEntity
100
AcDbLine
  8
cut
 62
256
370
-1
  6
ByLayer
 10
168.2000000000000171
 20
204.0
 30
0.0
 11
168.2000000000000171
 21
190.0
 31
0.0
  0
LINE
  5
22C
100
AcDbEntity
100
AcDbLine
  8
cut
 62
256
370
-1
  6
ByLayer
 10
168.2000000000000171
 20
190.0
 30
0.0
 11
158.2000000000000171
 21
190.0
 31
0.0
  0
LINE
  5
22D
100
AcDbEntity
100
AcDbLine
  8
cut
 62
256
370
-1
  6
ByLayer
 10
158.2000000000000171
 20
190.0
 30
0.0
 11
158.2000000000000171
 21
184.0
 31
0.0
  0
LINE
  5
22E
100
AcDbEntity
100
AcDbLine
  8
cut
 62
256
370
-1
  6
ByLayer
 10
158.2000000000000171
 20
184.0
 30
0.0
 11
258.3999999999999773
 21
184.0
 31
0.0
  0
LINE
  5
22F
100
AcDbEntity
100
AcDbLine
  8
cut
 62
256
370
-1
  6
ByLayer
 10
258.3999999999999773
 20
184.0
 30
0.0
 11
258.3999999999999773
 21
190.0
 31
0.0
  0
LINE
  5
230
100
AcDbEntity
100
AcDbLine
  8
cut
 62
256
370
-1
  6
ByLayer
 10
258.3999999999999773
 20
190.0
 30
0.0
 11
248.3999999999999204
 21
190.0
 31
0.0
  0
LINE
  5
231
100
AcDbEntity
100
AcDbLine
  8
cut
 62
256
370
-1
  6
ByLayer
 10
248.3999999999999204
 20
190.0
 30
0.0
 11
248.3999999999999488
 21
204.0
 31
0.0
  0
MTEXT
  5
232
100
AcDbEntity
100
AcDbMText
  8
skeleton
 62
256
370
-1
  6
ByLayer
 10
176.6000000000000227
 20
204.0
 30
0.0
 40
2.0
 41
100.0
 71
8
 72
0
  1
1
  7
standard
 50
0.0
 73
1
 44
1.0
  0
MTEXT
  5
233
100
AcDbEntity
100
AcDbMText
  8
skeleton
 62
256
370
-1
  6
ByLayer
 10
181.4000000000000057
 20
204.0
 30
0.0
 40
2.0
 41
100.0
 71
8
 72
0
  1
2
  7
standard
 50
0.0
 73
1
 44
1.0
  0
MTEXT
  5
234
100
AcDbEntity
100
AcDbMText
  8
skeleton
 62
256
370
-1
  6
ByLayer
 10
171.8000000000000114
 20
204.0
 30
0.0
 40
2.0
 41
100.0
 71
8
 72
0
  1
0
  7
standard
 50
0.0
 73
1
 44
1.0
  0
MTEXT
  5
235
100
AcDbEntity
100
AcDbMText
  8
skeleton
 62
256
370
-1
  6
ByLayer
 10
186.1999999999999886
 20
204.0
 30
0.0
 40
2.0
 41
100.0
 71
8
 72
0
  1
3
  7
standard
 50
0.0
 73
1
 44
1.0
  0
MTEXT
  5
236
100
AcDbEntity
100
AcDbMText
  8
skeleton
 62
256
370
-1
  6
ByLayer
 10
191.0
 20
204.0
 30
0.0
 40
2.0
 41
100.0
 71
8
 72
0
  1
4
  7
standard
 50
0.0
 73
1
 44
1.0
  0
MTEXT
  5
237
100
AcDbEntity
100
AcDbMText
  8
skeleton
 62
256
370
-1
  6
ByLayer
 10
195.8000000000000114
 20
204.0
 30
0.0
 40
2.0
 41
100.0
 71
8
 72
0
  1
5
  7
standard
 50
0.0
 73
1
 44
1.0
  0
MTEXT
  5
238
100
AcDbEntity
100
AcDbMText
  8
skeleton
 62
256
370
-1
  6
ByLayer
 10
200.5999999999999943
 20
204.0
 30
0.0
 40
2.0
 41
100.0
 71
8
 72
0
  1
6
  7
standard
 50
0.0
 73
1
 44
1.0
  0
MTEXT
  5
239
100
AcDbEntity
100
AcDbMText
  8
skeleton
 62
256
370
-1
  6
ByLayer
 10
205.3999999999999773
 20
204.0
 30
0.0
 40
2.0
 41
100.0
 71
8
 72
0
  1
7
  7
standard
 50
0.0
 73
1
 44
1.0
  0
MTEXT
  5
23A
100
AcDbEntity
100
AcDbMText
  8
skeleton
 62
256
370
-1
  6
ByLayer
 10
210.1999999999999886
 20
204.0
 30
0.0
 40
2.0
 41
100.0
 71
8
 72
0
  1
8
  7
standard
 50
0.0
 73
1
 44
1.0
  0
MTEXT
  5
23B
100
AcDbEntity
100
AcDbMText
  8
skeleton
 62
256
370
-1
  6
ByLayer
 10
215.0
 20
204.0
 30
0.0
 40
2.0
 41
100.0
 71
8
 72
0
  1
9
  7
standard
 50
0.0
 73
1
 44
1.0
  0
MTEXT
  5
23C
100
AcDbEntity
100
AcDbMText
  8
skeleton
 62
256
370
-1
  6
ByLayer
 10
219.7999999999999829
 20
204.0
 30
0.0
 40
2.0
 41
100.0
 71
8
 72
0
  1
10
  7
standard
 50
0.0
 73
1
 44
1.0
  0
MTEXT
  5
23D
100
AcDbEntity
100
AcDbMText
  8
skeleton
 62
256
370
-1
  6
ByLayer
 10
224.5999999999999659
 20
204.0
 30
0.0
 40
2.0
 41
100.0
 71
8
 72
0
  1
11
  7
standard
 50
0.0
 73
1
 44
1.0
  0
MTEXT
  5
23E
100
AcDbEntity
100
AcDbMText
  8
skeleton
 62
256
370
-1
  6
ByLayer
 10
229.3999999999999773
 20
204.0
 30
0.0
 40
2.0
 41
100.0
 71
8
 72
0
  1
12
  7
standard
 50
0.0
 73
1
 44
1.0
  0
MTEXT
  5
23F
100
AcDbEntity
100
AcDbMText
  8
skeleton
 62
256
370
-1
  6
ByLayer
 10
234.1999999999999886
 20
204.0
 30
0.0
 40
2.0
 41
100.0
 71
8
 72
0
  1
13
  7
standard
 50
0.0
 73
1
 44
1.0
  0
MTEXT
  5
240
100
AcDbEntity
100
AcDbMText
  8
skeleton
 62
256
370
-1
  6
ByLayer
 10
238.9999999999999716
 20
204.0
 30
0.0
 40
2.0
 41
100.0
 71
8
 72
0
  1
14
  7
standard
 50
0.0
 73
1
 44
1.0
  0
MTEXT
  5
241
100
AcDbEntity
100
AcDbMText
  8
skeleton
 62
256
370
-1
  6
ByLayer
 10
243.7999999999999545
 20
204.0
 30
0.0
 40
2.0
 41
100.0
 71
8
 72
0
  1
15
  7
standard
 50
0.0
 73
1
 44
1.0
  0
MTEXT
  5
242
100
AcDbEntity
100
AcDbMText
  8
skeleton
 62
256
370
-1
  6
ByLayer
 10
176.6000000000000227
 20
164.0
 30
0.0
 40
2.0
 41
100.0
 71
8
 72
0
  1
1
  7
standard
 50
0.0
 73
1
 44
1.0
  0
MTEXT
  5
243
100
AcDbEntity
100
AcDbMText
  8
skeleton
 62
256
370
-1
  6
ByLayer
 10
181.4000000000000057
 20
164.0
 30
0.0
 40
2.0
 41
100.0
 71
8
 72
0
  1
2
  7
standard
 50
0.0
 73
1
 44
1.0
  0
MTEXT
  5
244
100
AcDbEntity
100
AcDbMText
  8
skeleton
 62
256
370
-1
  6
ByLayer
 10
171.8000000000000114
 20
164.0
 30
0.0
 40
2.0
 41
100.0
 71
8
 72
0
  1
0
  7
standard
 50
0.0
 73
1
 44
1.0
  0
MTEXT
  5
245
100
AcDbEntity
100
AcDbMText
  8
skeleton
 62
256
370
-1
  6
ByLayer
 10
186.1999999999999886
 20
164.0
 30
0.0
 40
2.0
 41
100.0
 71
8
 72
0
  1
3
  7
standard
 50
0.0
 73
1
 44
1.0
  0
MTEXT
  5
246
100
AcDbEntity
100
AcDbMText
  8
skeleton
 62
256
370
-1
  6
ByLayer
 10
191.0
 20
164.0
 30
0.0
 40
2.0
 41
100.0
 71
8
 72
0
  1
4
  7
standard
 50
0.0
 73
1
 44
1.0
  0
MTEXT
  5
247
100
AcDbEntity
100
AcDbMText
  8
skeleton
 62
256
370
-1
  6
ByLayer
 10
195.8000000000000114
 20
164.0
 30
0.0
 40
2.0
 41
100.0
 71
8
 72
0
  1
5
  7
standard
 50
0.0
 73
1
 44
1.0
  0
MTEXT
  5
248
100
AcDbEntity
100
AcDbMText
  8
skeleton
 62
256
370
-1
  6
ByLayer
 10
200.5999999999999943
 20
164.0
 30
0.0
 40
2.0
 41
100.0
 71
8
 72
0
  1
6
  7
standard
 50
0.0
 73
1
 44
1.0
  0
MTEXT
  5
249
100
AcDbEntity
100
AcDbMText
  8
skeleton
 62
256
370
-1
  6
ByLayer
 10
205.3999999999999773
 20
164.0
 30
0.0
 40
2.0
 41
100.0
 71
8
 72
0
  1
7
  7
standard
 50
0.0
 73
1
 44
1.0
  0
MTEXT
  5
24A
100
AcDbEntity
100
AcDbMText
  8
skeleton
 62
256
370
-1
  6
ByLayer
 10
210.1999999999999886
 20
164.0
 30
0.0
 40
2.0
 41
100.0
 71
8
 72
0
  1
8
  7
standard
 50
0.0
 73
1
 44
1.0
  0
MTEXT
  5
24B
100
AcDbEntity
100
AcDbMText
  8
skeleton
 62
256
370
-1
  6
ByLayer
 10
215.0
 20
164.0
 30
0.0
 40
2.0
 41
100.0
 71
8
 72
0
  1
9
  7
standard
 50
0.0
 73
1
 44
1.0
  0
MTEXT
  5
24C
100
AcDbEntity
100
AcDbMText
  8
skeleton
 62
256
370
-1
  6
ByLayer
 10
219.7999999999999829
 20
164.0
 30
0.0
 40
2.0
 41
100.0
 71
8
 72
0
  1
10
  7
standard
 50
0.0
 73
1
 44
1.0
  0
MTEXT
  5
24D
100
AcDbEntity
100
AcDbMText
  8
skeleton
 62
256
370
-1
  6
ByLayer
 10
224.5999999999999659
 20
164.0
 30
0.0
 40
2.0
 41
100.0
 71
8
 72
0
  1
11
  7
standard
 50
0.0
 73
1
 44
1.0
  0
MTEXT
  5
24E
100
AcDbEntity
100
AcDbMText
  8
skeleton
 62
256
370
-1
  6
ByLayer
 10
229.3999999999999773
 20
164.0
 30
0.0
 40
2.0
 41
100.0
 71
8
 72
0
  1
12
  7
standard
 50
0.0
 73
1
 44
1.0
  0
MTEXT
  5
24F
100
AcDbEntity
100
AcDbMText
  8
skeleton
 62
256
370
-1
  6
ByLayer
 10
234.1999999999999886
 20
164.0
 30
0.0
 40
2.0
 41
100.0
 71
8
 72
0
  1
13
  7
standard
 50
0.0
 73
1
 44
1.0
  0
MTEXT
  5
250
100
AcDbEntity
100
AcDbMText
  8
skeleton
 62
256
370
-1
  6
ByLayer
 10
238.9999999999999716
 20
164.0
 30
0.0
 40
2.0
 41
100.0
 71
8
 72
0
  1
14
  7
standard
 50
0.0
 73
1
 44
1.0
  0
MTEXT
  5
251
100
AcDbEntity
100
AcDbMText
  8
skeleton
 62
256
370
-1
  6
ByLayer
 10
243.7999999999999545
 20
164.0
 30
0.0
 40
2.0
 41
100.0
 71
8
 72
0
  1
15
  7
standard
 50
0.0
 73
1
 44
1.0
  0
MTEXT
  5
252
100
AcDbEntity
100
AcDbMText
  8
skeleton
 62
256
370
-1
  6
ByLayer
 10
176.6000000000000227
 20
124.0
 30
0.0
 40
2.0
 41
100.0
 71
8
 72
0
  1
1
  7
standard
 50
0.0
 73
1
 44
1.0
  0
MTEXT
  5
253
100
AcDbEntity
100
AcDbMText
  8
skeleton
 62
256
370
-1
  6
ByLayer
 10
181.4000000000000057
 20
124.0
 30
0.0
 40
2.0
 41
100.0
 71
8
 72
0
  1
2
  7
standard
 50
0.0
 73
1
 44
1.0
  0
MTEXT
  5
254
100
AcDbEntity
100
AcDbMText
  8
skeleton
 62
256
370
-1
  6
ByLayer
 10
171.8000000000000114
 20
124.0
 30
0.0
 40
2.0
 41
100.0
 71
8
 72
0
  1
0
  7
standard
 50
0.0
 73
1
 44
1.0
  0
MTEXT
  5
255
100
AcDbEntity
100
AcDbMText
  8
skeleton
 62
256
370
-1
  6
ByLayer
 10
186.1999999999999886
 20
124.0
 30
0.0
 40
2.0
 41
100.0
 71
8
 72
0
  1
3
  7
standard
 50
0.0
 73
1
 44
1.0
  0
MTEXT
  5
256
100
AcDbEntity
100
AcDbMText
  8
skeleton
 62
256
370
-1
  6
ByLayer
 10
191.0
 20
124.0
 30
0.0
 40
2.0
 41
100.0
 71
8
 72
0
  1
4
  7
standard
 50
0.0
 73
1
 44
1.0
  0
MTEXT
  5
257
100
AcDbEntity
100
AcDbMText
  8
skeleton
 62
256
370
-1
  6
ByLayer
 10
195.8000000000000114
 20
124.0
 30
0.0
 40
2.0
 41
100.0
 71
8
 72
0
  1
5
  7
standard
 50
0.0
 73
1
 44
1.0
  0
MTEXT
  5
258
100
AcDbEntity
100
AcDbMText
  8
skeleton
 62
256
370
-1
  6
ByLayer
 10
200.5999999999999943
 20
124.0
 30
0.0
 40
2.0
 41
100.0
 71
8
 72
0
  1
6
  7
standard
 50
0.0
 73
1
 44
1.0
  0
MTEXT
  5
259
100
AcDbEntity
100
AcDbMText
  8
skeleton
 62
256
370
-1
  6
ByLayer
 10
205.3999999999999773
 20
124.0
 30
0.0
 40
2.0
 41
100.0
 71
8
 72
0
  1
7
  7
standard
 50
0.0
 73
1
 44
1.0
  0
MTEXT
  5
25A
100
AcDbEntity
100
AcDbMText
  8
skeleton
 62
256
370
-1
  6
ByLayer
 10
210.1999999999999886
 20
124.0
 30
0.0
 40
2.0
 41
100.0
 71
8
 72
0
  1
8
  7
standard
 50
0.0
 73
1
 44
1.0
  0
MTEXT
  5
25B
100
AcDbEntity
100
AcDbMText
  8
skeleton
 62
256
370
-1
  6
ByLayer
 10
215.0
 20
124.0
 30
0.0
 40
2.0
 41
100.0
 71
8
 72
0
  1
9
  7
standard
 50
0.0
 73
1
 44
1.0
  0
MTEXT
  5
25C
100
AcDbEntity
100
AcDbMText
  8
skeleton
 62
256
370
-1
  6
ByLayer
 10
219.7999999999999829
 20
124.0
 30
0.0
 40
2.0
 41
100.0
 71
8
 72
0
  1
10
  7
standard
 50
0.0
 73
1
 44
1.0
  0
MTEXT
  5
25D
100
AcDbEntity
100
AcDbMText
  8
skeleton
 62
256
370
-1
  6
ByLayer
 10
224.5999999999999659
 20
124.0
 30
0.0
 40
2.0
 41
100.0
 71
8
 72
0
  1
11
  7
standard
 50
0.0
 73
1
 44
1.0
  0
MTEXT
  5
25E
100
AcDbEntity
100
AcDbMText
  8
skeleton
 62
256
370
-1
  6
ByLayer
 10
229.3999999999999773
 20
124.0
 30
0.0
 40
2.0
 41
100.0
 71
8
 72
0
  1
12
  7
standard
 50
0.0
 73
1
 44
1.0
  0
MTEXT
  5
25F
100
AcDbEntity
100
AcDbMText
  8
skeleton
 62
256
370
-1
  6
ByLayer
 10
234.1999999999999886
 20
124.0
 30
0.0
 40
2.0
 41
100.0
 71
8
 72
0
  1
13
  7
standard
 50
0.0
 73
1
 44
1.0
  0
MTEXT
  5
260
100
AcDbEntity
100
AcDbMText
  8
skeleton
 62
256
370
-1
  6
ByLayer
 10
238.9999999999999716
 20
124.0
 30
0.0
 40
2.0
 41
100.0
 71
8
 72
0
  1
14
  7
standard
 50
0.0
 73
1
 44
1.0
  0
MTEXT
  5
261
100
AcDbEntity
100
AcDbMText
  8
skeleton
 62
256
370
-1
  6
ByLayer
 10
243.7999999999999545
 20
124.0
 30
0.0
 40
2.0
 41
100.0
 71
8
 72
0
  1
15
  7
standard
 50
0.0
 73
1
 44
1.0
  0
MTEXT
  5
262
100
AcDbEntity
100
AcDbMText
  8
skeleton
 62
256
370
-1
  6
ByLayer
 10
176.6000000000000227
 20
84.0
 30
0.0
 40
2.0
 41
100.0
 71
8
 72
0
  1
1
  7
standard
 50
0.0
 73
1
 44
1.0
  0
MTEXT
  5
263
100
AcDbEntity
100
AcDbMText
  8
skeleton
 62
256
370
-1
  6
ByLayer
 10
181.4000000000000057
 20
84.0
 30
0.0
 40
2.0
 41
100.0
 71
8
 72
0
  1
2
  7
standard
 50
0.0
 73
1
 44
1.0
  0
MTEXT
  5
264
100
AcDbEntity
100
AcDbMText
  8
skeleton
 62
256
370
-1
  6
ByLayer
 10
171.8000000000000114
 20
84.0
 30
0.0
 40
2.0
 41
100.0
 71
8
 72
0
  1
0
  7
standard
 50
0.0
 73
1
 44
1.0
  0
MTEXT
  5
265
100
AcDbEntity
100
AcDbMText
  8
skeleton
 62
256
370
-1
  6
ByLayer
 10
186.1999999999999886
 20
84.0
 30
0.0
 40
2.0
 41
100.0
 71
8
 72
0
  1
3
  7
standard
 50
0.0
 73
1
 44
1.0
  0
MTEXT
  5
266
100
AcDbEntity
100
AcDbMText
  8
skeleton
 62
256
370
-1
  6
ByLayer
 10
191.0
 20
84.0
 30
0.0
 40
2.0
 41
100.0
 71
8
 72
0
  1
4
  7
standard
 50
0.0
 73
1
 44
1.0
  0
MTEXT
  5
267
100
AcDbEntity
100
AcDbMText
  8
skeleton
 62
256
370
-1
  6
ByLayer
 10
195.8000000000000114
 20
84.0
 30
0.0
 40
2.0
 41
100.0
 71
8
 72
0
  1
5
  7
standard
 50
0.0
 73
1
 44
1.0
  0
MTEXT
  5
268
100
AcDbEntity
100
AcDbMText
  8
skeleton
 62
256
370
-1
  6
ByLayer
 10
200.5999999999999943
 20
84.0
 30
0.0
 40
2.0
 41
100.0
 71
8
 72
0
  1
6
  7
standard
 50
0.0
 73
1
 44
1.0
  0
MTEXT
  5
269
100
AcDbEntity
100
AcDbMText
  8
skeleton
 62
256
370
-1
  6
ByLayer
 10
205.3999999999999773
 20
84.0
 30
0.0
 40
2.0
 41
100.0
 71
8
 72
0
  1
7
  7
standard
 50
0.0
 73
1
 44
1.0
  0
MTEXT
  5
26A
100
AcDbEntity
100
AcDbMText
  8
skeleton
 62
256
370
-1
  6
ByLayer
 10
210.1999999999999886
 20
84.0
 30
0.0
 40
2.0
 41
100.0
 71
8
 72
0
  1
8
  7
standard
 50
0.0
 73
1
 44
1.0
  0
MTEXT
  5
26B
100
AcDbEntity
100
AcDbMText
  8
skeleton
 62
256
370
-1
  6
ByLayer
 10
215.0
 20
84.0
 30
0.0
 40
2.0
 41
100.0
 71
8
 72
0
  1
9
  7
standard
 50
0.0
 73
1
 44
1.0
  0
MTEXT
  5
26C
100
AcDbEntity
100
AcDbMText
  8
skeleton
 62
256
370
-1
  6
ByLayer
 10
219.7999999999999829
 20
84.0
 30
0.0
 40
2.0
 41
100.0
 71
8
 72
0
  1
10
  7
standard
 50
0.0
 73
1
 44
1.0
  0
MTEXT
  5
26D
100
AcDbEntity
100
AcDbMText
  8
skeleton
 62
256
370
-1
  6
ByLayer
 10
224.5999999999999659
 20
84.0
 30
0.0
 40
2.0
 41
100.0
 71
8
 72
0
  1
11
  7
standard
 50
0.0
 73
1
 44
1.0
  0
MTEXT
  5
26E
100
AcDbEntity
100
AcDbMText
  8
skeleton
 62
256
370
-1
  6
ByLayer
 10
229.3999999999999773
 20
84.0
 30
0.0
 40
2.0
 41
100.0
 71
8
 72
0
  1
12
  7
standard
 50
0.0
 73
1
 44
1.0
  0
MTEXT
  5
26F
100
AcDbEntity
100
AcDbMText
  8
skeleton
 62
256
370
-1
  6
ByLayer
 10
234.1999999999999886
 20
84.0
 30
0.0
 40
2.0
 41
100.0
 71
8
 72
0
  1
13
  7
standard
 50
0.0
 73
1
 44
1.0
  0
MTEXT
  5
270
100
AcDbEntity
100
AcDbMText
  8
skeleton
 62
256
370
-1
  6
ByLayer
 10
238.9999999999999716
 20
84.0
 30
0.0
 40
2.0
 41
100.0
 71
8
 72
0
  1
14
  7
standard
 50
0.0
 73
1
 44
1.0
  0
MTEXT
  5
271
100
AcDbEntity
100
AcDbMText
  8
skeleton
 62
256
370
-1
  6
ByLayer
 10
243.7999999999999545
 20
84.0
 30
0.0
 40
2.0
 41
100.0
 71
8
 72
0
  1
15
  7
standard
 50
0.0
 73
1
 44
1.0
  0
LINE
  5
272
100
AcDbEntity
100
AcDbLine
  8
cut
 62
256
370
-1
  6
ByLayer
 10
168.2000000000000171
 20
204.0
 30
0.0
 11
170.4000000000000057
 21
204.0
 31
0.0
  0
LINE
  5
273
100
AcDbEntity
100
AcDbLine
  8
cut
 62
256
370
-1
  6
ByLayer
 10
170.4000000000000057
 20
204.0
 30
0.0
 11
170.4000000000000057
 21
190.0
 31
0.0
  0
LINE
  5
274
100
AcDbEntity
100
AcDbLine
  8
cut
 62
256
370
-1
  6
ByLayer
 10
170.4000000000000057
 20
190.0
 30
0.0
 11
171.8000000000000114
 21
190.0
 31
0.0
  0
LINE
  5
275
100
AcDbEntity
100
AcDbLine
  8
cut
 62
256
370
-1
  6
ByLayer
 10
171.8000000000000114
 20
190.0
 30
0.0
 11
171.8000000000000114
 21
203.9999999999999716
 31
0.0
  0
LINE
  5
276
100
AcDbEntity
100
AcDbLine
  8
cut
 62
256
370
-1
  6
ByLayer
 10
171.8000000000000114
 20
203.9999999999999716
 30
0.0
 11
177.5999999999999943
 21
204.0
 31
0.0
  0
LINE
  5
277
100
AcDbEntity
100
AcDbLine
  8
cut
 62
256
370
-1
  6
ByLayer
 10
177.5999999999999943
 20
204.0
 30
0.0
 11
177.5999999999999943
 21
190.0
 31
0.0
  0
LINE
  5
278
100
AcDbEntity
100
AcDbLine
  8
cut
 62
256
370
-1
  6
ByLayer
 10
177.5999999999999943
 20
190.0
 30
0.0
 11
179.0000000000000284
 21
190.0
 31
0.0
  0
LINE
  5
279
100
AcDbEntity
100
AcDbLine
  8
cut
 62
256
370
-1
  6
ByLayer
 10
179.0000000000000284
 20
190.0
 30
0.0
 11
179.0000000000000284
 21
204.0
 31
0.0
  0
LINE
  5
27A
100
AcDbEntity
100
AcDbLine
  8
cut
 62
256
370
-1
  6
ByLayer
 10
179.0000000000000284
 20
204.0
 30
0.0
 11
180.0
 21
204.0
 31
0.0
  0
LINE
  5
27B
100
AcDbEntity
100
AcDbLine
  8
cut
 62
256
370
-1
  6
ByLayer
 10
180.0
 20
204.0
 30
0.0
 11
180.0
 21
190.0
 31
0.0
  0
LINE
  5
27C
100
AcDbEntity
100
AcDbLine
  8
cut
 62
256
370
-1
  6
ByLayer
 10
180.0
 20
190.0
 30
0.0
 11
181.4000000000000057
 21
190.0
 31
0.0
  0
LINE
  5
27D
100
AcDbEntity
100
AcDbLine
  8
cut
 62
256
370
-1
  6
ByLayer
 10
181.4000000000000057
 20
190.0
 30
0.0
 11
181.4000000000000057
 21
204.0
 31
0.0
  0
LINE
  5
27E
100
AcDbEntity
100
AcDbLine
  8
cut
 62
256
370
-1
  6
ByLayer
 10
181.4000000000000057
 20
204.0
 30
0.0
 11
187.2000000000000171
 21
204.0
 31
0.0
  0
LINE
  5
27F
100
AcDbEntity
100
AcDbLine
  8
cut
 62
256
370
-1
  6
ByLayer
 10
187.2000000000000171
 20
204.0
 30
0.0
 11
187.2000000000000171
 21
190.0
 31
0.0
  0
LINE
  5
280
100
AcDbEntity
100
AcDbLine
  8
cut
 62
256
370
-1
  6
ByLayer
 10
187.2000000000000171
 20
190.0
 30
0.0
 11
188.5999999999999943
 21
190.0
 31
0.0
  0
LINE
  5
281
100
AcDbEntity
100
AcDbLine
  8
cut
 62
256
370
-1
  6
ByLayer
 10
188.5999999999999943
 20
190.0
 30
0.0
 11
188.5999999999999943
 21
204.0
 31
0.0
  0
LINE
  5
282
100
AcDbEntity
100
AcDbLine
  8
cut
 62
256
370
-1
  6
ByLayer
 10
188.5999999999999943
 20
204.0
 30
0.0
 11
189.5999999999999943
 21
204.0
 31
0.0
  0
LINE
  5
283
100
AcDbEntity
100
AcDbLine
  8
cut
 62
256
370
-1
  6
ByLayer
 10
189.5999999999999943
 20
204.0
 30
0.0
 11
189.5999999999999943
 21
190.0
 31
0.0
  0
LINE
  5
284
100
AcDbEntity
100
AcDbLine
  8
cut
 62
256
370
-1
  6
ByLayer
 10
189.5999999999999943
 20
190.0
 30
0.0
 11
191.0
 21
190.0
 31
0.0
  0
LINE
  5
285
100
AcDbEntity
100
AcDbLine
  8
cut
 62
256
370
-1
  6
ByLayer
 10
191.0
 20
190.0
 30
0.0
 11
191.0
 21
204.0
 31
0.0
  0
LINE
  5
286
100
AcDbEntity
100
AcDbLine
  8
cut
 62
256
370
-1
  6
ByLayer
 10
191.0
 20
204.0
 30
0.0
 11
196.7999999999999829
 21
204.0
 31
0.0
  0
LINE
  5
287
100
AcDbEntity
100
AcDbLine
  8
cut
 62
256
370
-1
  6
ByLayer
 10
196.7999999999999829
 20
204.0
 30
0.0
 11
196.7999999999999829
 21
190.0
 31
0.0
  0
LINE
  5
288
100
AcDbEntity
100
AcDbLine
  8
cut
 62
256
370
-1
  6
ByLayer
 10
196.7999999999999829
 20
190.0
 30
0.0
 11
198.2000000000000171
 21
190.0
 31
0.0
  0
LINE
  5
289
100
AcDbEntity
100
AcDbLine
  8
cut
 62
256
370
-1
  6
ByLayer
 10
198.2000000000000171
 20
190.0
 30
0.0
 11
198.2000000000000171
 21
204.0
 31
0.0
  0
LINE
  5
28A
100
AcDbEntity
100
AcDbLine
  8
cut
 62
256
370
-1
  6
ByLayer
 10
198.2000000000000171
 20
204.0
 30
0.0
 11
199.1999999999999886
 21
204.0
 31
0.0
  0
LINE
  5
28B
100
AcDbEntity
100
AcDbLine
  8
cut
 62
256
370
-1
  6
ByLayer
 10
199.1999999999999886
 20
204.0
 30
0.0
 11
199.1999999999999886
 21
190.0
 31
0.0
  0
LINE
  5
28C
100
AcDbEntity
100
AcDbLine
  8
cut
 62
256
370
-1
  6
ByLayer
 10
199.1999999999999886
 20
190.0
 30
0.0
 11
200.5999999999999943
 21
190.0
 31
0.0
  0
LINE
  5
28D
100
AcDbEntity
100
AcDbLine
  8
cut
 62
256
370
-1
  6
ByLayer
 10
200.5999999999999943
 20
190.0
 30
0.0
 11
200.5999999999999943
 21
204.0
 31
0.0
  0
LINE
  5
28E
100
AcDbEntity
100
AcDbLine
  8
cut
 62
256
370
-1
  6
ByLayer
 10
200.5999999999999943
 20
204.0
 30
0.0
 11
206.4000000000000057
 21
204.0
 31
0.0
  0
LINE
  5
28F
100
AcDbEntity
100
AcDbLine
  8
cut
 62
256
370
-1
  6
ByLayer
 10
206.4000000000000057
 20
204.0
 30
0.0
 11
206.4000000000000057
 21
190.0
 31
0.0
  0
LINE
  5
290
100
AcDbEntity
100
AcDbLine
  8
cut
 62
256
370
-1
  6
ByLayer
 10
206.4000000000000057
 20
190.0
 30
0.0
 11
207.7999999999999829
 21
190.0
 31
0.0
  0
LINE
  5
291
100
AcDbEntity
100
AcDbLine
  8
cut
 62
256
370
-1
  6
ByLayer
 10
207.7999999999999829
 20
190.0
 30
0.0
 11
207.7999999999999829
 21
204.0
 31
0.0
  0
LINE
  5
292
100
AcDbEntity
100
AcDbLine
  8
cut
 62
256
370
-1
  6
ByLayer
 10
207.7999999999999829
 20
204.0
 30
0.0
 11
208.7999999999999829
 21
204.0
 31
0.0
  0
LINE
  5
293
100
AcDbEntity
100
AcDbLine
  8
cut
 62
256
370
-1
  6
ByLayer
 10
208.7999999999999829
 20
204.0
 30
0.0
 11
208.7999999999999829
 21
190.0
 31
0.0
  0
LINE
  5
294
100
AcDbEntity
100
AcDbLine
  8
cut
 62
256
370
-1
  6
ByLayer
 10
208.7999999999999829
 20
190.0
 30
0.0
 11
210.1999999999999886
 21
190.0
 31
0.0
  0
LINE
  5
295
100
AcDbEntity
100
AcDbLine
  8
cut
 62
256
370
-1
  6
ByLayer
 10
210.1999999999999886
 20
190.0
 30
0.0
 11
210.1999999999999886
 21
204.0
 31
0.0
  0
LINE
  5
296
100
AcDbEntity
100
AcDbLine
  8
cut
 62
256
370
-1
  6
ByLayer
 10
210.1999999999999886
 20
204.0
 30
0.0
 11
215.9999999999999716
 21
204.0
 31
0.0
  0
LINE
  5
297
100
AcDbEntity
100
AcDbLine
  8
cut
 62
256
370
-1
  6
ByLayer
 10
215.9999999999999716
 20
204.0
 30
0.0
 11
215.9999999999999716
 21
190.0
 31
0.0
  0
LINE
  5
298
100
AcDbEntity
100
AcDbLine
  8
cut
 62
256
370
-1
  6
ByLayer
 10
215.9999999999999716
 20
190.0
 30
0.0
 11
217.4000000000000057
 21
190.0
 31
0.0
  0
LINE
  5
299
100
AcDbEntity
100
AcDbLine
  8
cut
 62
256
370
-1
  6
ByLayer
 10
217.4000000000000057
 20
190.0
 30
0.0
 11
217.4000000000000057
 21
204.0
 31
0.0
  0
LINE
  5
29A
100
AcDbEntity
100
AcDbLine
  8
cut
 62
256
370
-1
  6
ByLayer
 10
217.4000000000000057
 20
204.0
 30
0.0
 11
218.3999999999999773
 21
204.0
 31
0.0
  0
LINE
  5
29B
100
AcDbEntity
100
AcDbLine
  8
cut
 62
256
370
-1
  6
ByLayer
 10
218.3999999999999773
 20
204.0
 30
0.0
 11
218.3999999999999773
 21
190.0
 31
0.0
  0
LINE
  5
29C
100
AcDbEntity
100
AcDbLine
  8
cut
 62
256
370
-1
  6
ByLayer
 10
218.3999999999999773
 20
190.0
 30
0.0
 11
219.7999999999999829
 21
190.0
 31
0.0
  0
LINE
  5
29D
100
AcDbEntity
100
AcDbLine
  8
cut
 62
256
370
-1
  6
ByLayer
 10
219.7999999999999829
 20
190.0
 30
0.0
 11
219.7999999999999829
 21
204.0
 31
0.0
  0
LINE
  5
29E
100
AcDbEntity
100
AcDbLine
  8
cut
 62
256
370
-1
  6
ByLayer
 10
219.7999999999999829
 20
204.0
 30
0.0
 11
225.5999999999999943
 21
204.0
 31
0.0
  0
LINE
  5
29F
100
AcDbEntity
100
AcDbLine
  8
cut
 62
256
370
-1
  6
ByLayer
 10
225.5999999999999943
 20
204.0
 30
0.0
 11
225.5999999999999943
 21
190.0
 31
0.0
  0
LINE
  5
2A0
100
AcDbEntity
100
AcDbLine
  8
cut
 62
256
370
-1
  6
ByLayer
 10
225.5999999999999943
 20
190.0
 30
0.0
 11
226.9999999999999716
 21
190.0
 31
0.0
  0
LINE
  5
2A1
100
AcDbEntity
100
AcDbLine
  8
cut
 62
256
370
-1
  6
ByLayer
 10
226.9999999999999716
 20
190.0
 30
0.0
 11
226.9999999999999716
 21
204.0
 31
0.0
  0
LINE
  5
2A2
100
AcDbEntity
100
AcDbLine
  8
cut
 62
256
370
-1
  6
ByLayer
 10
226.9999999999999716
 20
204.0
 30
0.0
 11
227.9999999999999716
 21
204.0
 31
0.0
  0
LINE
  5
2A3
100
AcDbEntity
100
AcDbLine
  8
cut
 62
256
370
-1
  6
ByLayer
 10
227.9999999999999716
 20
204.0
 30
0.0
 11
227.9999999999999716
 21
190.0
 31
0.0
  0
LINE
  5
2A4
100
AcDbEntity
100
AcDbLine
  8
cut
 62
256
370
-1
  6
ByLayer
 10
227.9999999999999716
 20
190.0
 30
0.0
 11
229.3999999999999773
 21
190.0
 31
0.0
  0
LINE
  5
2A5
100
AcDbEntity
100
AcDbLine
  8
cut
 62
256
370
-1
  6
ByLayer
 10
229.3999999999999773
 20
190.0
 30
0.0
 11
229.3999999999999773
 21
204.0
 31
0.0
  0
LINE
  5
2A6
100
AcDbEntity
100
AcDbLine
  8
cut
 62
256
370
-1
  6
ByLayer
 10
229.3999999999999773
 20
204.0
 30
0.0
 11
235.1999999999999602
 21
204.0
 31
0.0
  0
LINE
  5
2A7
100
AcDbEntity
100
AcDbLine
  8
cut
 62
256
370
-1
  6
ByLayer
 10
235.1999999999999602
 20
204.0
 30
0.0
 11
235.1999999999999602
 21
190.0
 31
0.0
  0
LINE
  5
2A8
100
AcDbEntity
100
AcDbLine
  8
cut
 62
256
370
-1
  6
ByLayer
 10
235.1999999999999602
 20
190.0
 30
0.0
 11
236.5999999999999943
 21
190.0
 31
0.0
  0
LINE
  5
2A9
100
AcDbEntity
100
AcDbLine
  8
cut
 62
256
370
-1
  6
ByLayer
 10
236.5999999999999943
 20
190.0
 30
0.0
 11
236.5999999999999943
 21
204.0
 31
0.0
  0
LINE
  5
2AA
100
AcDbEntity
100
AcDbLine
  8
cut
 62
256
370
-1
  6
ByLayer
 10
236.5999999999999943
 20
204.0
 30
0.0
 11
237.5999999999999659
 21
204.0
 31
0.0
  0
LINE
  5
2AB
100
AcDbEntity
100
AcDbLine
  8
cut
 62
256
370
-1
  6
ByLayer
 10
237.5999999999999659
 20
204.0
 30
0.0
 11
237.5999999999999659
 21
190.0
 31
0.0
  0
LINE
  5
2AC
100
AcDbEntity
100
AcDbLine
  8
cut
 62
256
370
-1
  6
ByLayer
 10
237.5999999999999659
 20
190.0
 30
0.0
 11
238.9999999999999716
 21
190.0
 31
0.0
  0
LINE
  5
2AD
100
AcDbEntity
100
AcDbLine
  8
cut
 62
256
370
-1
  6
ByLayer
 10
238.9999999999999716
 20
190.0
 30
0.0
 11
238.9999999999999716
 21
204.0
 31
0.0
  0
LINE
  5
2AE
100
AcDbEntity
100
AcDbLine
  8
cut
 62
256
370
-1
  6
ByLayer
 10
238.9999999999999716
 20
204.0
 30
0.0
 11
244.7999999999999829
 21
204.0
 31
0.0
  0
LINE
  5
2AF
100
AcDbEntity
100
AcDbLine
  8
cut
 62
256
370
-1
  6
ByLayer
 10
244.7999999999999829
 20
204.0
 30
0.0
 11
244.7999999999999545
 21
190.0
 31
0.0
  0
LINE
  5
2B0
100
AcDbEntity
100
AcDbLine
  8
cut
 62
256
370
-1
  6
ByLayer
 10
244.7999999999999545
 20
190.0
 30
0.0
 11
246.1999999999999318
 21
190.0
 31
0.0
  0
LINE
  5
2B1
100
AcDbEntity
100
AcDbLine
  8
cut
 62
256
370
-1
  6
ByLayer
 10
246.1999999999999318
 20
190.0
 30
0.0
 11
246.1999999999999602
 21
204.0
 31
0.0
  0
LINE
  5
2B2
100
AcDbEntity
100
AcDbLine
  8
cut
 62
256
370
-1
  6
ByLayer
 10
246.1999999999999602
 20
204.0
 30
0.0
 11
248.3999999999999488
 21
204.0
 31
0.0
  0
LINE
  5
2B3
100
AcDbEntity
100
AcDbLine
  8
cut
 62
256
370
-1
  6
ByLayer
 10
168.2000000000000171
 20
164.0
 30
0.0
 11
170.4000000000000057
 21
164.0
 31
0.0
  0
LINE
  5
2B4
100
AcDbEntity
100
AcDbLine
  8
cut
 62
256
370
-1
  6
ByLayer
 10
170.4000000000000057
 20
164.0
 30
0.0
 11
170.4000000000000057
 21
150.0
 31
0.0
  0
LINE
  5
2B5
100
AcDbEntity
100
AcDbLine
  8
cut
 62
256
370
-1
  6
ByLayer
 10
170.4000000000000057
 20
150.0
 30
0.0
 11
171.8000000000000114
 21
150.0
 31
0.0
  0
LINE
  5
2B6
100
AcDbEntity
100
AcDbLine
  8
cut
 62
256
370
-1
  6
ByLayer
 10
171.8000000000000114
 20
150.0
 30
0.0
 11
171.8000000000000114
 21
163.9999999999999716
 31
0.0
  0
LINE
  5
2B7
100
AcDbEntity
100
AcDbLine
  8
cut
 62
256
370
-1
  6
ByLayer
 10
171.8000000000000114
 20
163.9999999999999716
 30
0.0
 11
175.1999999999999886
 21
164.0
 31
0.0
  0
LINE
  5
2B8
100
AcDbEntity
100
AcDbLine
  8
cut
 62
256
370
-1
  6
ByLayer
 10
175.1999999999999886
 20
164.0
 30
0.0
 11
175.1999999999999886
 21
150.0
 31
0.0
  0
LINE
  5
2B9
100
AcDbEntity
100
AcDbLine
  8
cut
 62
256
370
-1
  6
ByLayer
 10
175.1999999999999886
 20
150.0
 30
0.0
 11
176.6000000000000227
 21
150.0
 31
0.0
  0
LINE
  5
2BA
100
AcDbEntity
100
AcDbLine
  8
cut
 62
256
370
-1
  6
ByLayer
 10
176.6000000000000227
 20
150.0
 30
0.0
 11
176.6000000000000227
 21
164.0
 31
0.0
  0
LINE
  5
2BB
100
AcDbEntity
100
AcDbLine
  8
cut
 62
256
370
-1
  6
ByLayer
 10
176.6000000000000227
 20
164.0
 30
0.0
 11
182.4000000000000057
 21
164.0
 31
0.0
  0
LINE
  5
2BC
100
AcDbEntity
100
AcDbLine
  8
cut
 62
256
370
-1
  6
ByLayer
 10
182.4000000000000057
 20
164.0
 30
0.0
 11
182.4000000000000057
 21
150.0
 31
0.0
  0
LINE
  5
2BD
100
AcDbEntity
100
AcDbLine
  8
cut
 62
256
370
-1
  6
ByLayer
 10
182.4000000000000057
 20
150.0
 30
0.0
 11
183.8000000000000114
 21
150.0
 31
0.0
  0
LINE
  5
2BE
100
AcDbEntity
100
AcDbLine
  8
cut
 62
256
370
-1
  6
ByLayer
 10
183.8000000000000114
 20
150.0
 30
0.0
 11
183.8000000000000114
 21
164.0
 31
0.0
  0
LINE
  5
2BF
100
AcDbEntity
100
AcDbLine
  8
cut
 62
256
370
-1
  6
ByLayer
 10
183.8000000000000114
 20
164.0
 30
0.0
 11
187.2000000000000171
 21
164.0
 31
0.0
  0
LINE
  5
2C0
100
AcDbEntity
100
AcDbLine
  8
cut
 62
256
370
-1
  6
ByLayer
 10
187.2000000000000171
 20
164.0
 30
0.0
 11
187.2000000000000171
 21
150.0
 31
0.0
  0
LINE
  5
2C1
100
AcDbEntity
100
AcDbLine
  8
cut
 62
256
370
-1
  6
ByLayer
 10
187.2000000000000171
 20
150.0
 30
0.0
 11
188.5999999999999943
 21
150.0
 31
0.0
  0
LINE
  5
2C2
100
AcDbEntity
100
AcDbLine
  8
cut
 62
256
370
-1
  6
ByLayer
 10
188.5999999999999943
 20
150.0
 30
0.0
 11
188.5999999999999943
 21
164.0
 31
0.0
  0
LINE
  5
2C3
100
AcDbEntity
100
AcDbLine
  8
cut
 62
256
370
-1
  6
ByLayer
 10
188.5999999999999943
 20
164.0
 30
0.0
 11
189.5999999999999943
 21
164.0
 31
0.0
  0
LINE
  5
2C4
100
AcDbEntity
100
AcDbLine
  8
cut
 62
256
370
-1
  6
ByLayer
 10
189.5999999999999943
 20
164.0
 30
0.0
 11
189.5999999999999943
 21
150.0
 31
0.0
  0
LINE
  5
2C5
100
AcDbEntity
100
AcDbLine
  8
cut
 62
256
370
-1
  6
ByLayer
 10
189.5999999999999943
 20
150.0
 30
0.0
 11
191.0
 21
150.0
 31
0.0
  0
LINE
  5
2C6
100
AcDbEntity
100
AcDbLine
  8
cut
 62
256
370
-1
  6
ByLayer
 10
191.0
 20
150.0
 30
0.0
 11
191.0
 21
164.0
 31
0.0
  0
LINE
  5
2C7
100
AcDbEntity
100
AcDbLine
  8
cut
 62
256
370
-1
  6
ByLayer
 10
191.0
 20
164.0
 30
0.0
 11
194.3999999999999773
 21
164.0
 31
0.0
  0
LINE
  5
2C8
100
AcDbEntity
100
AcDbLine
  8
cut
 62
256
370
-1
  6
ByLayer
 10
194.3999999999999773
 20
164.0
 30
0.0
 11
194.3999999999999773
 21
150.0
 31
0.0
  0
LINE
  5
2C9
100
AcDbEntity
100
AcDbLine
  8
cut
 62
256
370
-1
  6
ByLayer
 10
194.3999999999999773
 20
150.0
 30
0.0
 11
195.8000000000000114
 21
150.0
 31
0.0
  0
LINE
  5
2CA
100
AcDbEntity
100
AcDbLine
  8
cut
 62
256
370
-1
  6
ByLayer
 10
195.8000000000000114
 20
150.0
 30
0.0
 11
195.8000000000000114
 21
164.0
 31
0.0
  0
LINE
  5
2CB
100
AcDbEntity
100
AcDbLine
  8
cut
 62
256
370
-1
  6
ByLayer
 10
195.8000000000000114
 20
164.0
 30
0.0
 11
201.5999999999999943
 21
164.0
 31
0.0
  0
LINE
  5
2CC
100
AcDbEntity
100
AcDbLine
  8
cut
 62
256
370
-1
  6
ByLayer
 10
201.5999999999999943
 20
164.0
 30
0.0
 11
201.5999999999999943
 21
150.0
 31
0.0
  0
LINE
  5
2CD
100
AcDbEntity
100
AcDbLine
  8
cut
 62
256
370
-1
  6
ByLayer
 10
201.5999999999999943
 20
150.0
 30
0.0
 11
203.0
 21
150.0
 31
0.0
  0
LINE
  5
2CE
100
AcDbEntity
100
AcDbLine
  8
cut
 62
256
370
-1
  6
ByLayer
 10
203.0
 20
150.0
 30
0.0
 11
203.0
 21
164.0
 31
0.0
  0
LINE
  5
2CF
100
AcDbEntity
100
AcDbLine
  8
cut
 62
256
370
-1
  6
ByLayer
 10
203.0
 20
164.0
 30
0.0
 11
206.4000000000000057
 21
164.0
 31
0.0
  0
LINE
  5
2D0
100
AcDbEntity
100
AcDbLine
  8
cut
 62
256
370
-1
  6
ByLayer
 10
206.4000000000000057
 20
164.0
 30
0.0
 11
206.4000000000000057
 21
150.0
 31
0.0
  0
LINE
  5
2D1
100
AcDbEntity
100
AcDbLine
  8
cut
 62
256
370
-1
  6
ByLayer
 10
206.4000000000000057
 20
150.0
 30
0.0
 11
207.7999999999999829
 21
150.0
 31
0.0
  0
LINE
  5
2D2
100
AcDbEntity
100
AcDbLine
  8
cut
 62
256
370
-1
  6
ByLayer
 10
207.7999999999999829
 20
150.0
 30
0.0
 11
207.7999999999999829
 21
164.0
 31
0.0
  0
LINE
  5
2D3
100
AcDbEntity
100
AcDbLine
  8
cut
 62
256
370
-1
  6
ByLayer
 10
207.7999999999999829
 20
164.0
 30
0.0
 11
208.7999999999999829
 21
164.0
 31
0.0
  0
LINE
  5
2D4
100
AcDbEntity
100
AcDbLine
  8
cut
 62
256
370
-1
  6
ByLayer
 10
208.7999999999999829
 20
164.0
 30
0.0
 11
208.7999999999999829
 21
150.0
 31
0.0
  0
LINE
  5
2D5
100
AcDbEntity
100
AcDbLine
  8
cut
 62
256
370
-1
  6
ByLayer
 10
208.7999999999999829
 20
150.0
 30
0.0
 11
210.1999999999999886
 21
150.0
 31
0.0
  0
LINE
  5
2D6
100
AcDbEntity
100
AcDbLine
  8
cut
 62
256
370
-1
  6
ByLayer
 10
210.1999999999999886
 20
150.0
 30
0.0
 11
210.1999999999999886
 21
164.0
 31
0.0
  0
LINE
  5
2D7
100
AcDbEntity
100
AcDbLine
  8
cut
 62
256
370
-1
  6
ByLayer
 10
210.1999999999999886
 20
164.0
 30
0.0
 11
213.5999999999999659
 21
164.0
 31
0.0
  0
LINE
  5
2D8
100
AcDbEntity
100
AcDbLine
  8
cut
 62
256
370
-1
  6
ByLayer
 10
213.5999999999999659
 20
164.0
 30
0.0
 11
213.5999999999999659
 21
150.0
 31
0.0
  0
LINE
  5
2D9
100
AcDbEntity
100
AcDbLine
  8
cut
 62
256
370
-1
  6
ByLayer
 10
213.5999999999999659
 20
150.0
 30
0.0
 11
215.0
 21
150.0
 31
0.0
  0
LINE
  5
2DA
100
AcDbEntity
100
AcDbLine
  8
cut
 62
256
370
-1
  6
ByLayer
 10
215.0
 20
150.0
 30
0.0
 11
215.0
 21
164.0
 31
0.0
  0
LINE
  5
2DB
100
AcDbEntity
100
AcDbLine
  8
cut
 62
256
370
-1
  6
ByLayer
 10
215.0
 20
164.0
 30
0.0
 11
220.7999999999999829
 21
164.0
 31
0.0
  0
LINE
  5
2DC
100
AcDbEntity
100
AcDbLine
  8
cut
 62
256
370
-1
  6
ByLayer
 10
220.7999999999999829
 20
164.0
 30
0.0
 11
220.7999999999999829
 21
150.0
 31
0.0
  0
LINE
  5
2DD
100
AcDbEntity
100
AcDbLine
  8
cut
 62
256
370
-1
  6
ByLayer
 10
220.7999999999999829
 20
150.0
 30
0.0
 11
222.1999999999999886
 21
150.0
 31
0.0
  0
LINE
  5
2DE
100
AcDbEntity
100
AcDbLine
  8
cut
 62
256
370
-1
  6
ByLayer
 10
222.1999999999999886
 20
150.0
 30
0.0
 11
222.1999999999999886
 21
164.0
 31
0.0
  0
LINE
  5
2DF
100
AcDbEntity
100
AcDbLine
  8
cut
 62
256
370
-1
  6
ByLayer
 10
222.1999999999999886
 20
164.0
 30
0.0
 11
225.5999999999999943
 21
164.0
 31
0.0
  0
LINE
  5
2E0
100
AcDbEntity
100
AcDbLine
  8
cut
 62
256
370
-1
  6
ByLayer
 10
225.5999999999999943
 20
164.0
 30
0.0
 11
225.5999999999999943
 21
150.0
 31
0.0
  0
LINE
  5
2E1
100
AcDbEntity
100
AcDbLine
  8
cut
 62
256
370
-1
  6
ByLayer
 10
225.5999999999999943
 20
150.0
 30
0.0
 11
226.9999999999999716
 21
150.0
 31
0.0
  0
LINE
  5
2E2
100
AcDbEntity
100
AcDbLine
  8
cut
 62
256
370
-1
  6
ByLayer
 10
226.9999999999999716
 20
150.0
 30
0.0
 11
226.9999999999999716
 21
164.0
 31
0.0
  0
LINE
  5
2E3
100
AcDbEntity
100
AcDbLine
  8
cut
 62
256
370
-1
  6
ByLayer
 10
226.9999999999999716
 20
164.0
 30
0.0
 11
227.9999999999999716
 21
164.0
 31
0.0
  0
LINE
  5
2E4
100
AcDbEntity
100
AcDbLine
  8
cut
 62
256
370
-1
  6
ByLayer
 10
227.9999999999999716
 20
164.0
 30
0.0
 11
227.9999999999999716
 21
150.0
 31
0.0
  0
LINE
  5
2E5
100
AcDbEntity
100
AcDbLine
  8
cut
 62
256
370
-1
  6
ByLayer
 10
227.9999999999999716
 20
150.0
 30
0.0
 11
229.3999999999999773
 21
150.0
 31
0.0
  0
LINE
  5
2E6
100
AcDbEntity
100
AcDbLine
  8
cut
 62
256
370
-1
  6
ByLayer
 10
229.3999999999999773
 20
150.0
 30
0.0
 11
229.3999999999999773
 21
164.0
 31
0.0
  0
LINE
  5
2E7
100
AcDbEntity
100
AcDbLine
  8
cut
 62
256
370
-1
  6
ByLayer
 10
229.3999999999999773
 20
164.0
 30
0.0
 11
232.7999999999999545
 21
164.0
 31
0.0
  0
LINE
  5
2E8
100
AcDbEntity
100
AcDbLine
  8
cut
 62
256
370
-1
  6
ByLayer
 10
232.7999999999999545
 20
164.0
 30
0.0
 11
232.7999999999999545
 21
150.0
 31
0.0
  0
LINE
  5
2E9
100
AcDbEntity
100
AcDbLine
  8
cut
 62
256
370
-1
  6
ByLayer
 10
232.7999999999999545
 20
150.0
 30
0.0
 11
234.1999999999999886
 21
150.0
 31
0.0
  0
LINE
  5
2EA
100
AcDbEntity
100
AcDbLine
  8
cut
 62
256
370
-1
  6
ByLayer
 10
234.1999999999999886
 20
150.0
 30
0.0
 11
234.1999999999999886
 21
164.0
 31
0.0
  0
LINE
  5
2EB
100
AcDbEntity
100
AcDbLine
  8
cut
 62
256
370
-1
  6
ByLayer
 10
234.1999999999999886
 20
164.0
 30
0.0
 11
239.9999999999999716
 21
164.0
 31
0.0
  0
LINE
  5
2EC
100
AcDbEntity
100
AcDbLine
  8
cut
 62
256
370
-1
  6
ByLayer
 10
239.9999999999999716
 20
164.0
 30
0.0
 11
239.9999999999999716
 21
150.0
 31
0.0
  0
LINE
  5
2ED
100
AcDbEntity
100
AcDbLine
  8
cut
 62
256
370
-1
  6
ByLayer
 10
239.9999999999999716
 20
150.0
 30
0.0
 11
241.3999999999999773
 21
150.0
 31
0.0
  0
LINE
  5
2EE
100
AcDbEntity
100
AcDbLine
  8
cut
 62
256
370
-1
  6
ByLayer
 10
241.3999999999999773
 20
150.0
 30
0.0
 11
241.3999999999999773
 21
164.0
 31
0.0
  0
LINE
  5
2EF
100
AcDbEntity
100
AcDbLine
  8
cut
 62
256
370
-1
  6
ByLayer
 10
241.3999999999999773
 20
164.0
 30
0.0
 11
244.7999999999999829
 21
164.0
 31
0.0
  0
LINE
  5
2F0
100
AcDbEntity
100
AcDbLine
  8
cut
 62
256
370
-1
  6
ByLayer
 10
244.7999999999999829
 20
164.0
 30
0.0
 11
244.7999999999999545
 21
150.0
 31
0.0
  0
LINE
  5
2F1
100
AcDbEntity
100
AcDbLine
  8
cut
 62
256
370
-1
  6
ByLayer
 10
244.7999999999999545
 20
150.0
 30
0.0
 11
246.1999999999999318
 21
150.0
 31
0.0
  0
LINE
  5
2F2
100
AcDbEntity
100
AcDbLine
  8
cut
 62
256
370
-1
  6
ByLayer
 10
246.1999999999999318
 20
150.0
 30
0.0
 11
246.1999999999999602
 21
164.0
 31
0.0
  0
LINE
  5
2F3
100
AcDbEntity
100
AcDbLine
  8
cut
 62
256
370
-1
  6
ByLayer
 10
246.1999999999999602
 20
164.0
 30
0.0
 11
248.3999999999999488
 21
164.0
 31
0.0
  0
LINE
  5
2F4
100
AcDbEntity
100
AcDbLine
  8
cut
 62
256
370
-1
  6
ByLayer
 10
168.2000000000000171
 20
124.0
 30
0.0
 11
170.4000000000000057
 21
124.0
 31
0.0
  0
LINE
  5
2F5
100
AcDbEntity
100
AcDbLine
  8
cut
 62
256
370
-1
  6
ByLayer
 10
170.4000000000000057
 20
124.0
 30
0.0
 11
170.4000000000000057
 21
110.0
 31
0.0
  0
LINE
  5
2F6
100
AcDbEntity
100
AcDbLine
  8
cut
 62
256
370
-1
  6
ByLayer
 10
170.4000000000000057
 20
110.0
 30
0.0
 11
171.8000000000000114
 21
110.0
 31
0.0
  0
LINE
  5
2F7
100
AcDbEntity
100
AcDbLine
  8
cut
 62
256
370
-1
  6
ByLayer
 10
171.8000000000000114
 20
110.0
 30
0.0
 11
171.8000000000000114
 21
123.9999999999999289
 31
0.0
  0
LINE
  5
2F8
100
AcDbEntity
100
AcDbLine
  8
cut
 62
256
370
-1
  6
ByLayer
 10
171.8000000000000114
 20
123.9999999999999289
 30
0.0
 11
175.1999999999999886
 21
124.0
 31
0.0
  0
LINE
  5
2F9
100
AcDbEntity
100
AcDbLine
  8
cut
 62
256
370
-1
  6
ByLayer
 10
175.1999999999999886
 20
124.0
 30
0.0
 11
175.1999999999999886
 21
110.0
 31
0.0
  0
LINE
  5
2FA
100
AcDbEntity
100
AcDbLine
  8
cut
 62
256
370
-1
  6
ByLayer
 10
175.1999999999999886
 20
110.0
 30
0.0
 11
176.5999999999999943
 21
110.0
 31
0.0
  0
LINE
  5
2FB
100
AcDbEntity
100
AcDbLine
  8
cut
 62
256
370
-1
  6
ByLayer
 10
176.5999999999999943
 20
110.0
 30
0.0
 11
176.5999999999999943
 21
123.9999999999999289
 31
0.0
  0
LINE
  5
2FC
100
AcDbEntity
100
AcDbLine
  8
cut
 62
256
370
-1
  6
ByLayer
 10
176.5999999999999943
 20
123.9999999999999289
 30
0.0
 11
179.9999999999999716
 21
124.0
 31
0.0
  0
LINE
  5
2FD
100
AcDbEntity
100
AcDbLine
  8
cut
 62
256
370
-1
  6
ByLayer
 10
179.9999999999999716
 20
124.0
 30
0.0
 11
179.9999999999999716
 21
110.0
 31
0.0
  0
LINE
  5
2FE
100
AcDbEntity
100
AcDbLine
  8
cut
 62
256
370
-1
  6
ByLayer
 10
179.9999999999999716
 20
110.0
 30
0.0
 11
181.3999999999999773
 21
110.0
 31
0.0
  0
LINE
  5
2FF
100
AcDbEntity
100
AcDbLine
  8
cut
 62
256
370
-1
  6
ByLayer
 10
181.3999999999999773
 20
110.0
 30
0.0
 11
181.3999999999999773
 21
123.9999999999999289
 31
0.0
  0
LINE
  5
300
100
AcDbEntity
100
AcDbLine
  8
cut
 62
256
370
-1
  6
ByLayer
 10
181.3999999999999773
 20
123.9999999999999289
 30
0.0
 11
184.7999999999999545
 21
124.0
 31
0.0
  0
LINE
  5
301
100
AcDbEntity
100
AcDbLine
  8
cut
 62
256
370
-1
  6
ByLayer
 10
184.7999999999999545
 20
124.0
 30
0.0
 11
184.7999999999999545
 21
110.0
 31
0.0
  0
LINE
  5
302
100
AcDbEntity
100
AcDbLine
  8
cut
 62
256
370
-1
  6
ByLayer
 10
184.7999999999999545
 20
110.0
 30
0.0
 11
186.1999999999999602
 21
110.0
 31
0.0
  0
LINE
  5
303
100
AcDbEntity
100
AcDbLine
  8
cut
 62
256
370
-1
  6
ByLayer
 10
186.1999999999999602
 20
110.0
 30
0.0
 11
186.1999999999999602
 21
123.9999999999999289
 31
0.0
  0
LINE
  5
304
100
AcDbEntity
100
AcDbLine
  8
cut
 62
256
370
-1
  6
ByLayer
 10
186.1999999999999602
 20
124.0
 30
0.0
 11
192.0
 21
124.0
 31
0.0
  0
LINE
  5
305
100
AcDbEntity
100
AcDbLine
  8
cut
 62
256
370
-1
  6
ByLayer
 10
192.0
 20
124.0
 30
0.0
 11
192.0
 21
110.0
 31
0.0
  0
LINE
  5
306
100
AcDbEntity
100
AcDbLine
  8
cut
 62
256
370
-1
  6
ByLayer
 10
192.0
 20
110.0
 30
0.0
 11
193.4000000000000057
 21
110.0
 31
0.0
  0
LINE
  5
307
100
AcDbEntity
100
AcDbLine
  8
cut
 62
256
370
-1
  6
ByLayer
 10
193.4000000000000057
 20
110.0
 30
0.0
 11
193.4000000000000057
 21
124.0
 31
0.0
  0
LINE
  5
308
100
AcDbEntity
100
AcDbLine
  8
cut
 62
256
370
-1
  6
ByLayer
 10
193.4000000000000057
 20
124.0
 30
0.0
 11
196.7999999999999829
 21
124.0
 31
0.0
  0
LINE
  5
309
100
AcDbEntity
100
AcDbLine
  8
cut
 62
256
370
-1
  6
ByLayer
 10
196.7999999999999829
 20
124.0
 30
0.0
 11
196.7999999999999829
 21
110.0
 31
0.0
  0
LINE
  5
30A
100
AcDbEntity
100
AcDbLine
  8
cut
 62
256
370
-1
  6
ByLayer
 10
196.7999999999999829
 20
110.0
 30
0.0
 11
198.1999999999999886
 21
110.0
 31
0.0
  0
LINE
  5
30B
100
AcDbEntity
100
AcDbLine
  8
cut
 62
256
370
-1
  6
ByLayer
 10
198.1999999999999886
 20
110.0
 30
0.0
 11
198.1999999999999886
 21
124.0
 31
0.0
  0
LINE
  5
30C
100
AcDbEntity
100
AcDbLine
  8
cut
 62
256
370
-1
  6
ByLayer
 10
198.1999999999999886
 20
124.0
 30
0.0
 11
201.5999999999999659
 21
124.0
 31
0.0
  0
LINE
  5
30D
100
AcDbEntity
100
AcDbLine
  8
cut
 62
256
370
-1
  6
ByLayer
 10
201.5999999999999659
 20
124.0
 30
0.0
 11
201.5999999999999659
 21
110.0
 31
0.0
  0
LINE
  5
30E
100
AcDbEntity
100
AcDbLine
  8
cut
 62
256
370
-1
  6
ByLayer
 10
201.5999999999999659
 20
110.0
 30
0.0
 11
202.9999999999999716
 21
110.0
 31
0.0
  0
LINE
  5
30F
100
AcDbEntity
100
AcDbLine
  8
cut
 62
256
370
-1
  6
ByLayer
 10
202.9999999999999716
 20
110.0
 30
0.0
 11
202.9999999999999716
 21
124.0
 31
0.0
  0
LINE
  5
310
100
AcDbEntity
100
AcDbLine
  8
cut
 62
256
370
-1
  6
ByLayer
 10
202.9999999999999716
 20
124.0
 30
0.0
 11
206.3999999999999488
 21
124.0
 31
0.0
  0
LINE
  5
311
100
AcDbEntity
100
AcDbLine
  8
cut
 62
256
370
-1
  6
ByLayer
 10
206.3999999999999488
 20
124.0
 30
0.0
 11
206.3999999999999488
 21
110.0
 31
0.0
  0
LINE
  5
312
100
AcDbEntity
100
AcDbLine
  8
cut
 62
256
370
-1
  6
ByLayer
 10
206.3999999999999488
 20
110.0
 30
0.0
 11
207.7999999999999545
 21
110.0
 31
0.0
  0
LINE
  5
313
100
AcDbEntity
100
AcDbLine
  8
cut
 62
256
370
-1
  6
ByLayer
 10
207.7999999999999545
 20
110.0
 30
0.0
 11
207.7999999999999545
 21
124.0
 31
0.0
  0
LINE
  5
314
100
AcDbEntity
100
AcDbLine
  8
cut
 62
256
370
-1
  6
ByLayer
 10
207.7999999999999545
 20
124.0
 30
0.0
 11
208.7999999999999829
 21
124.0
 31
0.0
  0
LINE
  5
315
100
AcDbEntity
100
AcDbLine
  8
cut
 62
256
370
-1
  6
ByLayer
 10
208.7999999999999829
 20
124.0
 30
0.0
 11
208.7999999999999829
 21
110.0
 31
0.0
  0
LINE
  5
316
100
AcDbEntity
100
AcDbLine
  8
cut
 62
256
370
-1
  6
ByLayer
 10
208.7999999999999829
 20
110.0
 30
0.0
 11
210.1999999999999886
 21
110.0
 31
0.0
  0
LINE
  5
317
100
AcDbEntity
100
AcDbLine
  8
cut
 62
256
370
-1
  6
ByLayer
 10
210.1999999999999886
 20
110.0
 30
0.0
 11
210.1999999999999886
 21
123.9999999999999289
 31
0.0
  0
LINE
  5
318
100
AcDbEntity
100
AcDbLine
  8
cut
 62
256
370
-1
  6
ByLayer
 10
210.1999999999999886
 20
123.9999999999999289
 30
0.0
 11
213.5999999999999659
 21
124.0
 31
0.0
  0
LINE
  5
319
100
AcDbEntity
100
AcDbLine
  8
cut
 62
256
370
-1
  6
ByLayer
 10
213.5999999999999659
 20
124.0
 30
0.0
 11
213.5999999999999659
 21
110.0
 31
0.0
  0
LINE
  5
31A
100
AcDbEntity
100
AcDbLine
  8
cut
 62
256
370
-1
  6
ByLayer
 10
213.5999999999999659
 20
110.0
 30
0.0
 11
214.9999999999999716
 21
110.0
 31
0.0
  0
LINE
  5
31B
100
AcDbEntity
100
AcDbLine
  8
cut
 62
256
370
-1
  6
ByLayer
 10
214.9999999999999716
 20
110.0
 30
0.0
 11
214.9999999999999716
 21
123.9999999999999289
 31
0.0
  0
LINE
  5
31C
100
AcDbEntity
100
AcDbLine
  8
cut
 62
256
370
-1
  6
ByLayer
 10
214.9999999999999716
 20
123.9999999999999289
 30
0.0
 11
218.3999999999999488
 21
124.0
 31
0.0
  0
LINE
  5
31D
100
AcDbEntity
100
AcDbLine
  8
cut
 62
256
370
-1
  6
ByLayer
 10
218.3999999999999488
 20
124.0
 30
0.0
 11
218.3999999999999488
 21
110.0
 31
0.0
  0
LINE
  5
31E
100
AcDbEntity
100
AcDbLine
  8
cut
 62
256
370
-1
  6
ByLayer
 10
218.3999999999999488
 20
110.0
 30
0.0
 11
219.7999999999999545
 21
110.0
 31
0.0
  0
LINE
  5
31F
100
AcDbEntity
100
AcDbLine
  8
cut
 62
256
370
-1
  6
ByLayer
 10
219.7999999999999545
 20
110.0
 30
0.0
 11
219.7999999999999545
 21
123.9999999999999289
 31
0.0
  0
LINE
  5
320
100
AcDbEntity
100
AcDbLine
  8
cut
 62
256
370
-1
  6
ByLayer
 10
219.7999999999999545
 20
123.9999999999999289
 30
0.0
 11
223.1999999999999318
 21
124.0
 31
0.0
  0
LINE
  5
321
100
AcDbEntity
100
AcDbLine
  8
cut
 62
256
370
-1
  6
ByLayer
 10
223.1999999999999318
 20
124.0
 30
0.0
 11
223.1999999999999318
 21
110.0
 31
0.0
  0
LINE
  5
322
100
AcDbEntity
100
AcDbLine
  8
cut
 62
256
370
-1
  6
ByLayer
 10
223.1999999999999318
 20
110.0
 30
0.0
 11
224.5999999999999375
 21
110.0
 31
0.0
  0
LINE
  5
323
100
AcDbEntity
100
AcDbLine
  8
cut
 62
256
370
-1
  6
ByLayer
 10
224.5999999999999375
 20
110.0
 30
0.0
 11
224.5999999999999375
 21
123.9999999999999289
 31
0.0
  0
LINE
  5
324
100
AcDbEntity
100
AcDbLine
  8
cut
 62
256
370
-1
  6
ByLayer
 10
224.5999999999999375
 20
124.0
 30
0.0
 11
230.3999999999999773
 21
124.0
 31
0.0
  0
LINE
  5
325
100
AcDbEntity
100
AcDbLine
  8
cut
 62
256
370
-1
  6
ByLayer
 10
230.3999999999999773
 20
124.0
 30
0.0
 11
230.3999999999999773
 21
110.0
 31
0.0
  0
LINE
  5
326
100
AcDbEntity
100
AcDbLine
  8
cut
 62
256
370
-1
  6
ByLayer
 10
230.3999999999999773
 20
110.0
 30
0.0
 11
231.7999999999999829
 21
110.0
 31
0.0
  0
LINE
  5
327
100
AcDbEntity
100
AcDbLine
  8
cut
 62
256
370
-1
  6
ByLayer
 10
231.7999999999999829
 20
110.0
 30
0.0
 11
231.7999999999999829
 21
124.0
 31
0.0
  0
LINE
  5
328
100
AcDbEntity
100
AcDbLine
  8
cut
 62
256
370
-1
  6
ByLayer
 10
231.7999999999999829
 20
124.0
 30
0.0
 11
235.1999999999999602
 21
124.0
 31
0.0
  0
LINE
  5
329
100
AcDbEntity
100
AcDbLine
  8
cut
 62
256
370
-1
  6
ByLayer
 10
235.1999999999999602
 20
124.0
 30
0.0
 11
235.1999999999999602
 21
110.0
 31
0.0
  0
LINE
  5
32A
100
AcDbEntity
100
AcDbLine
  8
cut
 62
256
370
-1
  6
ByLayer
 10
235.1999999999999602
 20
110.0
 30
0.0
 11
236.5999999999999659
 21
110.0
 31
0.0
  0
LINE
  5
32B
100
AcDbEntity
100
AcDbLine
  8
cut
 62
256
370
-1
  6
ByLayer
 10
236.5999999999999659
 20
110.0
 30
0.0
 11
236.5999999999999659
 21
124.0
 31
0.0
  0
LINE
  5
32C
100
AcDbEntity
100
AcDbLine
  8
cut
 62
256
370
-1
  6
ByLayer
 10
236.5999999999999659
 20
124.0
 30
0.0
 11
239.9999999999999432
 21
124.0
 31
0.0
  0
LINE
  5
32D
100
AcDbEntity
100
AcDbLine
  8
cut
 62
256
370
-1
  6
ByLayer
 10
239.9999999999999432
 20
124.0
 30
0.0
 11
239.9999999999999432
 21
110.0
 31
0.0
  0
LINE
  5
32E
100
AcDbEntity
100
AcDbLine
  8
cut
 62
256
370
-1
  6
ByLayer
 10
239.9999999999999432
 20
110.0
 30
0.0
 11
241.3999999999999488
 21
110.0
 31
0.0
  0
LINE
  5
32F
100
AcDbEntity
100
AcDbLine
  8
cut
 62
256
370
-1
  6
ByLayer
 10
241.3999999999999488
 20
110.0
 30
0.0
 11
241.3999999999999488
 21
124.0
 31
0.0
  0
LINE
  5
330
100
AcDbEntity
100
AcDbLine
  8
cut
 62
256
370
-1
  6
ByLayer
 10
241.3999999999999488
 20
124.0
 30
0.0
 11
244.7999999999999261
 21
124.0
 31
0.0
  0
LINE
  5
331
100
AcDbEntity
100
AcDbLine
  8
cut
 62
256
370
-1
  6
ByLayer
 10
244.7999999999999261
 20
124.0
 30
0.0
 11
244.7999999999999261
 21
110.0
 31
0.0
  0
LINE
  5
332
100
AcDbEntity
100
AcDbLine
  8
cut
 62
256
370
-1
  6
ByLayer
 10
244.7999999999999261
 20
110.0
 30
0.0
 11
246.1999999999999318
 21
110.0
 31
0.0
  0
LINE
  5
333
100
AcDbEntity
100
AcDbLine
  8
cut
 62
256
370
-1
  6
ByLayer
 10
246.1999999999999318
 20
110.0
 30
0.0
 11
246.1999999999999318
 21
124.0
 31
0.0
  0
LINE
  5
334
100
AcDbEntity
100
AcDbLine
  8
cut
 62
256
370
-1
  6
ByLayer
 10
246.1999999999999318
 20
124.0
 30
0.0
 11
248.3999999999999488
 21
124.0
 31
0.0
  0
LINE
  5
335
100
AcDbEntity
100
AcDbLine
  8
cut
 62
256
370
-1
  6
ByLayer
 10
168.2000000000000171
 20
84.0
 30
0.0
 11
170.4000000000000057
 21
84.0
 31
0.0
  0
LINE
  5
336
100
AcDbEntity
100
AcDbLine
  8
cut
 62
256
370
-1
  6
ByLayer
 10
170.4000000000000057
 20
84.0
 30
0.0
 11
170.4000000000000057
 21
70.0
 31
0.0
  0
LINE
  5
337
100
AcDbEntity
100
AcDbLine
  8
cut
 62
256
370
-1
  6
ByLayer
 10
170.4000000000000057
 20
70.0
 30
0.0
 11
171.8000000000000114
 21
70.0
 31
0.0
  0
LINE
  5
338
100
AcDbEntity
100
AcDbLine
  8
cut
 62
256
370
-1
  6
ByLayer
 10
171.8000000000000114
 20
70.0
 30
0.0
 11
171.8000000000000114
 21
83.9999999999999289
 31
0.0
  0
LINE
  5
339
100
AcDbEntity
100
AcDbLine
  8
cut
 62
256
370
-1
  6
ByLayer
 10
171.8000000000000114
 20
83.9999999999999289
 30
0.0
 11
175.1999999999999886
 21
84.0
 31
0.0
  0
LINE
  5
33A
100
AcDbEntity
100
AcDbLine
  8
cut
 62
256
370
-1
  6
ByLayer
 10
175.1999999999999886
 20
84.0
 30
0.0
 11
175.1999999999999886
 21
70.0
 31
0.0
  0
LINE
  5
33B
100
AcDbEntity
100
AcDbLine
  8
cut
 62
256
370
-1
  6
ByLayer
 10
175.1999999999999886
 20
70.0
 30
0.0
 11
176.5999999999999943
 21
70.0
 31
0.0
  0
LINE
  5
33C
100
AcDbEntity
100
AcDbLine
  8
cut
 62
256
370
-1
  6
ByLayer
 10
176.5999999999999943
 20
70.0
 30
0.0
 11
176.5999999999999943
 21
83.9999999999999289
 31
0.0
  0
LINE
  5
33D
100
AcDbEntity
100
AcDbLine
  8
cut
 62
256
370
-1
  6
ByLayer
 10
176.5999999999999943
 20
83.9999999999999289
 30
0.0
 11
179.9999999999999716
 21
84.0
 31
0.0
  0
LINE
  5
33E
100
AcDbEntity
100
AcDbLine
  8
cut
 62
256
370
-1
  6
ByLayer
 10
179.9999999999999716
 20
84.0
 30
0.0
 11
179.9999999999999716
 21
70.0
 31
0.0
  0
LINE
  5
33F
100
AcDbEntity
100
AcDbLine
  8
cut
 62
256
370
-1
  6
ByLayer
 10
179.9999999999999716
 20
70.0
 30
0.0
 11
181.3999999999999773
 21
70.0
 31
0.0
  0
LINE
  5
340
100
AcDbEntity
100
AcDbLine
  8
cut
 62
256
370
-1
  6
ByLayer
 10
181.3999999999999773
 20
70.0
 30
0.0
 11
181.3999999999999773
 21
83.9999999999999289
 31
0.0
  0
LINE
  5
341
100
AcDbEntity
100
AcDbLine
  8
cut
 62
256
370
-1
  6
ByLayer
 10
181.3999999999999773
 20
83.9999999999999289
 30
0.0
 11
184.7999999999999545
 21
84.0
 31
0.0
  0
LINE
  5
342
100
AcDbEntity
100
AcDbLine
  8
cut
 62
256
370
-1
  6
ByLayer
 10
184.7999999999999545
 20
84.0
 30
0.0
 11
184.7999999999999545
 21
70.0
 31
0.0
  0
LINE
  5
343
100
AcDbEntity
100
AcDbLine
  8
cut
 62
256
370
-1
  6
ByLayer
 10
184.7999999999999545
 20
70.0
 30
0.0
 11
186.1999999999999602
 21
70.0
 31
0.0
  0
LINE
  5
344
100
AcDbEntity
100
AcDbLine
  8
cut
 62
256
370
-1
  6
ByLayer
 10
186.1999999999999602
 20
70.0
 30
0.0
 11
186.1999999999999602
 21
83.9999999999999289
 31
0.0
  0
LINE
  5
345
100
AcDbEntity
100
AcDbLine
  8
cut
 62
256
370
-1
  6
ByLayer
 10
186.1999999999999602
 20
83.9999999999999289
 30
0.0
 11
189.5999999999999375
 21
84.0
 31
0.0
  0
LINE
  5
346
100
AcDbEntity
100
AcDbLine
  8
cut
 62
256
370
-1
  6
ByLayer
 10
189.5999999999999375
 20
84.0
 30
0.0
 11
189.5999999999999375
 21
70.0
 31
0.0
  0
LINE
  5
347
100
AcDbEntity
100
AcDbLine
  8
cut
 62
256
370
-1
  6
ByLayer
 10
189.5999999999999375
 20
70.0
 30
0.0
 11
190.9999999999999432
 21
70.0
 31
0.0
  0
LINE
  5
348
100
AcDbEntity
100
AcDbLine
  8
cut
 62
256
370
-1
  6
ByLayer
 10
190.9999999999999432
 20
70.0
 30
0.0
 11
190.9999999999999432
 21
83.9999999999999289
 31
0.0
  0
LINE
  5
349
100
AcDbEntity
100
AcDbLine
  8
cut
 62
256
370
-1
  6
ByLayer
 10
190.9999999999999432
 20
83.9999999999999289
 30
0.0
 11
194.3999999999999204
 21
84.0
 31
0.0
  0
LINE
  5
34A
100
AcDbEntity
100
AcDbLine
  8
cut
 62
256
370
-1
  6
ByLayer
 10
194.3999999999999204
 20
84.0
 30
0.0
 11
194.3999999999999204
 21
70.0
 31
0.0
  0
LINE
  5
34B
100
AcDbEntity
100
AcDbLine
  8
cut
 62
256
370
-1
  6
ByLayer
 10
194.3999999999999204
 20
70.0
 30
0.0
 11
195.7999999999999261
 21
70.0
 31
0.0
  0
LINE
  5
34C
100
AcDbEntity
100
AcDbLine
  8
cut
 62
256
370
-1
  6
ByLayer
 10
195.7999999999999261
 20
70.0
 30
0.0
 11
195.7999999999999261
 21
83.9999999999999289
 31
0.0
  0
LINE
  5
34D
100
AcDbEntity
100
AcDbLine
  8
cut
 62
256
370
-1
  6
ByLayer
 10
195.7999999999999261
 20
83.9999999999999289
 30
0.0
 11
199.1999999999999034
 21
84.0
 31
0.0
  0
LINE
  5
34E
100
AcDbEntity
100
AcDbLine
  8
cut
 62
256
370
-1
  6
ByLayer
 10
199.1999999999999034
 20
84.0
 30
0.0
 11
199.1999999999999034
 21
70.0
 31
0.0
  0
LINE
  5
34F
100
AcDbEntity
100
AcDbLine
  8
cut
 62
256
370
-1
  6
ByLayer
 10
199.1999999999999034
 20
70.0
 30
0.0
 11
200.5999999999999091
 21
70.0
 31
0.0
  0
LINE
  5
350
100
AcDbEntity
100
AcDbLine
  8
cut
 62
256
370
-1
  6
ByLayer
 10
200.5999999999999091
 20
70.0
 30
0.0
 11
200.5999999999999091
 21
83.9999999999999289
 31
0.0
  0
LINE
  5
351
100
AcDbEntity
100
AcDbLine
  8
cut
 62
256
370
-1
  6
ByLayer
 10
200.5999999999999091
 20
83.9999999999999289
 30
0.0
 11
203.9999999999998863
 21
84.0
 31
0.0
  0
LINE
  5
352
100
AcDbEntity
100
AcDbLine
  8
cut
 62
256
370
-1
  6
ByLayer
 10
203.9999999999998863
 20
84.0
 30
0.0
 11
203.9999999999998863
 21
70.0
 31
0.0
  0
LINE
  5
353
100
AcDbEntity
100
AcDbLine
  8
cut
 62
256
370
-1
  6
ByLayer
 10
203.9999999999998863
 20
70.0
 30
0.0
 11
205.399999999999892
 21
70.0
 31
0.0
  0
LINE
  5
354
100
AcDbEntity
100
AcDbLine
  8
cut
 62
256
370
-1
  6
ByLayer
 10
205.399999999999892
 20
70.0
 30
0.0
 11
205.399999999999892
 21
83.9999999999999289
 31
0.0
  0
LINE
  5
355
100
AcDbEntity
100
AcDbLine
  8
cut
 62
256
370
-1
  6
ByLayer
 10
205.3999999999999773
 20
84.0
 30
0.0
 11
211.1999999999999886
 21
84.0
 31
0.0
  0
LINE
  5
356
100
AcDbEntity
100
AcDbLine
  8
cut
 62
256
370
-1
  6
ByLayer
 10
211.1999999999999886
 20
84.0
 30
0.0
 11
211.1999999999999886
 21
70.0
 31
0.0
  0
LINE
  5
357
100
AcDbEntity
100
AcDbLine
  8
cut
 62
256
370
-1
  6
ByLayer
 10
211.1999999999999886
 20
70.0
 30
0.0
 11
212.5999999999999943
 21
70.0
 31
0.0
  0
LINE
  5
358
100
AcDbEntity
100
AcDbLine
  8
cut
 62
256
370
-1
  6
ByLayer
 10
212.5999999999999943
 20
70.0
 30
0.0
 11
212.5999999999999943
 21
83.9999999999999289
 31
0.0
  0
LINE
  5
359
100
AcDbEntity
100
AcDbLine
  8
cut
 62
256
370
-1
  6
ByLayer
 10
212.5999999999999943
 20
83.9999999999999289
 30
0.0
 11
215.9999999999999716
 21
84.0
 31
0.0
  0
LINE
  5
35A
100
AcDbEntity
100
AcDbLine
  8
cut
 62
256
370
-1
  6
ByLayer
 10
215.9999999999999716
 20
84.0
 30
0.0
 11
215.9999999999999716
 21
70.0
 31
0.0
  0
LINE
  5
35B
100
AcDbEntity
100
AcDbLine
  8
cut
 62
256
370
-1
  6
ByLayer
 10
215.9999999999999716
 20
70.0
 30
0.0
 11
217.3999999999999773
 21
70.0
 31
0.0
  0
LINE
  5
35C
100
AcDbEntity
100
AcDbLine
  8
cut
 62
256
370
-1
  6
ByLayer
 10
217.3999999999999773
 20
70.0
 30
0.0
 11
217.3999999999999773
 21
83.9999999999999289
 31
0.0
  0
LINE
  5
35D
100
AcDbEntity
100
AcDbLine
  8
cut
 62
256
370
-1
  6
ByLayer
 10
217.3999999999999773
 20
83.9999999999999289
 30
0.0
 11
220.7999999999999545
 21
84.0
 31
0.0
  0
LINE
  5
35E
100
AcDbEntity
100
AcDbLine
  8
cut
 62
256
370
-1
  6
ByLayer
 10
220.7999999999999545
 20
84.0
 30
0.0
 11
220.7999999999999545
 21
70.0
 31
0.0
  0
LINE
  5
35F
100
AcDbEntity
100
AcDbLine
  8
cut
 62
256
370
-1
  6
ByLayer
 10
220.7999999999999545
 20
70.0
 30
0.0
 11
222.1999999999999602
 21
70.0
 31
0.0
  0
LINE
  5
360
100
AcDbEntity
100
AcDbLine
  8
cut
 62
256
370
-1
  6
ByLayer
 10
222.1999999999999602
 20
70.0
 30
0.0
 11
222.1999999999999602
 21
83.9999999999999289
 31
0.0
  0
LINE
  5
361
100
AcDbEntity
100
AcDbLine
  8
cut
 62
256
370
-1
  6
ByLayer
 10
222.1999999999999602
 20
83.9999999999999289
 30
0.0
 11
225.5999999999999375
 21
84.0
 31
0.0
  0
LINE
  5
362
100
AcDbEntity
100
AcDbLine
  8
cut
 62
256
370
-1
  6
ByLayer
 10
225.5999999999999375
 20
84.0
 30
0.0
 11
225.5999999999999375
 21
70.0
 31
0.0
  0
LINE
  5
363
100
AcDbEntity
100
AcDbLine
  8
cut
 62
256
370
-1
  6
ByLayer
 10
225.5999999999999375
 20
70.0
 30
0.0
 11
226.9999999999999432
 21
70.0
 31
0.0
  0
LINE
  5
364
100
AcDbEntity
100
AcDbLine
  8
cut
 62
256
370
-1
  6
ByLayer
 10
226.9999999999999432
 20
70.0
 30
0.0
 11
226.9999999999999432
 21
83.9999999999999289
 31
0.0
  0
LINE
  5
365
100
AcDbEntity
100
AcDbLine
  8
cut
 62
256
370
-1
  6
ByLayer
 10
226.9999999999999432
 20
83.9999999999999289
 30
0.0
 11
230.3999999999999204
 21
84.0
 31
0.0
  0
LINE
  5
366
100
AcDbEntity
100
AcDbLine
  8
cut
 62
256
370
-1
  6
ByLayer
 10
230.3999999999999204
 20
84.0
 30
0.0
 11
230.3999999999999204
 21
70.0
 31
0.0
  0
LINE
  5
367
100
AcDbEntity
100
AcDbLine
  8
cut
 62
256
370
-1
  6
ByLayer
 10
230.3999999999999204
 20
70.0
 30
0.0
 11
231.7999999999999261
 21
70.0
 31
0.0
  0
LINE
  5
368
100
AcDbEntity
100
AcDbLine
  8
cut
 62
256
370
-1
  6
ByLayer
 10
231.7999999999999261
 20
70.0
 30
0.0
 11
231.7999999999999261
 21
83.9999999999999289
 31
0.0
  0
LINE
  5
369
100
AcDbEntity
100
AcDbLine
  8
cut
 62
256
370
-1
  6
ByLayer
 10
231.7999999999999261
 20
83.9999999999999289
 30
0.0
 11
235.1999999999999034
 21
84.0
 31
0.0
  0
LINE
  5
36A
100
AcDbEntity
100
AcDbLine
  8
cut
 62
256
370
-1
  6
ByLayer
 10
235.1999999999999034
 20
84.0
 30
0.0
 11
235.1999999999999034
 21
70.0
 31
0.0
  0
LINE
  5
36B
100
AcDbEntity
100
AcDbLine
  8
cut
 62
256
370
-1
  6
ByLayer
 10
235.1999999999999034
 20
70.0
 30
0.0
 11
236.5999999999999091
 21
70.0
 31
0.0
  0
LINE
  5
36C
100
AcDbEntity
100
AcDbLine
  8
cut
 62
256
370
-1
  6
ByLayer
 10
236.5999999999999091
 20
70.0
 30
0.0
 11
236.5999999999999091
 21
83.9999999999999289
 31
0.0
  0
LINE
  5
36D
100
AcDbEntity
100
AcDbLine
  8
cut
 62
256
370
-1
  6
ByLayer
 10
236.5999999999999091
 20
83.9999999999999289
 30
0.0
 11
239.9999999999998863
 21
84.0
 31
0.0
  0
LINE
  5
36E
100
AcDbEntity
100
AcDbLine
  8
cut
 62
256
370
-1
  6
ByLayer
 10
239.9999999999998863
 20
84.0
 30
0.0
 11
239.9999999999998863
 21
70.0
 31
0.0
  0
LINE
  5
36F
100
AcDbEntity
100
AcDbLine
  8
cut
 62
256
370
-1
  6
ByLayer
 10
239.9999999999998863
 20
70.0
 30
0.0
 11
241.399999999999892
 21
70.0
 31
0.0
  0
LINE
  5
370
100
AcDbEntity
100
AcDbLine
  8
cut
 62
256
370
-1
  6
ByLayer
 10
241.399999999999892
 20
70.0
 30
0.0
 11
241.399999999999892
 21
83.9999999999999289
 31
0.0
  0
LINE
  5
371
100
AcDbEntity
100
AcDbLine
  8
cut
 62
256
370
-1
  6
ByLayer
 10
241.399999999999892
 20
83.9999999999999289
 30
0.0
 11
244.7999999999998693
 21
84.0
 31
0.0
  0
LINE
  5
372
100
AcDbEntity
100
AcDbLine
  8
cut
 62
256
370
-1
  6
ByLayer
 10
244.7999999999998693
 20
84.0
 30
0.0
 11
244.7999999999998693
 21
70.0
 31
0.0
  0
LINE
  5
373
100
AcDbEntity
100
AcDbLine
  8
cut
 62
256
370
-1
  6
ByLayer
 10
244.7999999999998693
 20
70.0
 30
0.0
 11
246.1999999999998749
 21
70.0
 31
0.0
  0
LINE
  5
374
100
AcDbEntity
100
AcDbLine
  8
cut
 62
256
370
-1
  6
ByLayer
 10
246.1999999999998749
 20
70.0
 30
0.0
 11
246.1999999999998749
 21
83.9999999999999289
 31
0.0
  0
LINE
  5
375
100
AcDbEntity
100
AcDbLine
  8
cut
 62
256
370
-1
  6
ByLayer
 10
246.1999999999998749
 20
84.0
 30
0.0
 11
248.3999999999999488
 21
84.0
 31
0.0
  0
LINE
  5
376
100
AcDbEntity
100
AcDbLine
  8
etch
 62
256
370
-1
  6
ByLayer
 10
202.7225385978242116
 20
187.4009111617320116
 30
0.0
 11
202.7225385978242116
 21
185.4009111617320116
 31
0.0
  0
LINE
  5
377
100
AcDbEntity
100
AcDbLine
  8
etch
 62
256
370
-1
  6
ByLayer
 10
202.7225385978242116
 20
185.4009111617320116
 30
0.0
 11
203.2780941533797545
 21
185.4009111617320116
 31
0.0
  0
ARC
  5
378
100
AcDbEntity
  8
etch
 62
256
370
-1
  6
ByLayer
100
AcDbCircle
 10
203.2780941533797545
 20
185.7342444950653544
 30
0.0
 40
0.3333333333333333
100
AcDbArc
 50
270.0
 51
0.0
  0
LINE
  5
379
100
AcDbEntity
100
AcDbLine
  8
etch
 62
256
370
-1
  6
ByLayer
 10
203.6114274867130973
 20
185.7342444950653544
 30
0.0
 11
203.6114274867130973
 21
186.4009111617320116
 31
0.0
  0
ARC
  5
37A
100
AcDbEntity
  8
etch
 62
256
370
-1
  6
ByLayer
100
AcDbCircle
 10
203.2780941533797545
 20
186.4009111617320116
 30
0.0
 40
0.3333333333333333
100
AcDbArc
 50
0.0
 51
90.0
  0
LINE
  5
37B
100
AcDbEntity
100
AcDbLine
  8
etch
 62
256
370
-1
  6
ByLayer
 10
203.2780941533797545
 20
186.7342444950653544
 30
0.0
 11
202.7225385978242116
 21
186.7342444950653544
 31
0.0
  0
LINE
  5
37C
100
AcDbEntity
100
AcDbLine
  8
etch
 62
256
370
-1
  6
ByLayer
 10
204.2780941533797829
 20
185.4009111617320116
 30
0.0
 11
204.2780941533797829
 21
186.7342444950653544
 31
0.0
  0
LINE
  5
37D
100
AcDbEntity
100
AcDbLine
  8
etch
 62
256
370
-1
  6
ByLayer
 10
204.2780941533797829
 20
187.2898000506208973
 30
0.0
 11
204.2780941533797829
 21
187.4009111617320116
 31
0.0
  0
LINE
  5
37E
100
AcDbEntity
100
AcDbLine
  8
etch
 62
256
370
-1
  6
ByLayer
 10
204.9447608200464401
 20
186.7342444950653544
 30
0.0
 11
205.6114274867130973
 21
186.7342444950653544
 31
0.0
  0
LINE
  5
37F
100
AcDbEntity
100
AcDbLine
  8
etch
 62
256
370
-1
  6
ByLayer
 10
205.1669830422686687
 20
187.4009111617320116
 30
0.0
 11
205.1669830422686687
 21
185.4009111617320116
 31
0.0
  0
ARC
  5
380
100
AcDbEntity
  8
etch
 62
256
370
-1
  6
ByLayer
100
AcDbCircle
 10
208.22253859782424
 20
187.1586889395098012
 30
0.0
 40
0.2422222222222222
100
AcDbArc
 50
32.759999999999998
 51
147.1999999999999886
  0
ARC
  5
381
100
AcDbEntity
  8
etch
 62
256
370
-1
  6
ByLayer
100
AcDbCircle
 10
208.8743163756020067
 20
186.6506889395097915
 30
0.0
 40
1.0680000000000001
100
AcDbArc
 50
143.1999999999999886
 51
169.5
  0
ARC
  5
382
100
AcDbEntity
  8
etch
 62
256
370
-1
  6
ByLayer
100
AcDbCircle
 10
208.8743163756020067
 20
186.1511333839542317
 30
0.0
 40
1.0680000000000001
100
AcDbArc
 50
190.5
 51
216.8000000000000114
  0
ARC
  5
383
100
AcDbEntity
  8
etch
 62
256
370
-1
  6
ByLayer
100
AcDbCircle
 10
208.22253859782424
 20
185.6431333839542219
 30
0.0
 40
0.2422222222222222
100
AcDbArc
 50
212.8000000000000114
 51
327.1999999999999886
  0
ARC
  5
384
100
AcDbEntity
  8
etch
 62
256
370
-1
  6
ByLayer
100
AcDbCircle
 10
207.5706719311575625
 20
186.1511333839542317
 30
0.0
 40
1.0680000000000001
100
AcDbArc
 50
323.1999999999999886
 51
349.5
  0
ARC
  5
385
100
AcDbEntity
  8
etch
 62
256
370
-1
  6
ByLayer
100
AcDbCircle
 10
206.5769830422686653
 20
186.3940222728431308
 30
0.0
 40
2.0899999999999999
100
AcDbArc
 50
347.8999999999999773
 51
0.1885
  0
ARC
  5
386
100
AcDbEntity
  8
etch
 62
256
370
-1
  6
ByLayer
100
AcDbCircle
 10
206.5769830422686653
 20
186.4078000506208923
 30
0.0
 40
2.0899999999999999
100
AcDbArc
 50
359.8000000000000114
 51
12.0899999999999999
  0
ARC
  5
387
100
AcDbEntity
  8
etch
 62
256
370
-1
  6
ByLayer
100
AcDbCircle
 10
207.5706719311575625
 20
186.6506889395097915
 30
0.0
 40
1.0680000000000001
100
AcDbArc
 50
10.5099999999999998
 51
36.7700000000000031
  0
ARC
  5
388
100
AcDbEntity
  8
etch
 62
256
370
-1
  6
ByLayer
100
AcDbCircle
 10
209.8680941533797863
 20
186.3940222728431308
 30
0.0
 40
2.0899999999999999
100
AcDbArc
 50
179.8000000000000114
 51
192.0999999999999943
  0
ARC
  5
389
100
AcDbEntity
  8
etch
 62
256
370
-1
  6
ByLayer
100
AcDbCircle
 10
209.8680941533797863
 20
186.4078000506208923
 30
0.0
 40
2.0899999999999999
100
AcDbArc
 50
167.9000000000000057
 51
180.1999999999999886
  0
LINE
  5
38A
100
AcDbEntity
100
AcDbLine
  8
etch
 62
256
370
-1
  6
ByLayer
 10
202.147494305240059
 20
148.0159453302967449
 30
0.0
 11
202.147494305240059
 21
146.0159453302967449
 31
0.0
  0
LINE
  5
38B
100
AcDbEntity
100
AcDbLine
  8
etch
 62
256
370
-1
  6
ByLayer
 10
202.147494305240059
 20
146.0159453302967449
 30
0.0
 11
202.7030498607956019
 21
146.0159453302967449
 31
0.0
  0
ARC
  5
38C
100
AcDbEntity
  8
etch
 62
256
370
-1
  6
ByLayer
100
AcDbCircle
 10
202.7030498607956019
 20
146.3492786636300877
 30
0.0
 40
0.3333333333333333
100
AcDbArc
 50
270.0
 51
0.0
  0
LINE
  5
38D
100
AcDbEntity
100
AcDbLine
  8
etch
 62
256
370
-1
  6
ByLayer
 10
203.0363831941289448
 20
146.3492786636300877
 30
0.0
 11
203.0363831941289448
 21
147.0159453302967449
 31
0.0
  0
ARC
  5
38E
100
AcDbEntity
  8
etch
 62
256
370
-1
  6
ByLayer
100
AcDbCircle
 10
202.7030498607956019
 20
147.0159453302967449
 30
0.0
 40
0.3333333333333333
100
AcDbArc
 50
0.0
 51
90.0
  0
LINE
  5
38F
100
AcDbEntity
100
AcDbLine
  8
etch
 62
256
370
-1
  6
ByLayer
 10
202.7030498607956019
 20
147.3492786636300877
 30
0.0
 11
202.147494305240059
 21
147.3492786636300877
 31
0.0
  0
LINE
  5
390
100
AcDbEntity
100
AcDbLine
  8
etch
 62
256
370
-1
  6
ByLayer
 10
203.7030498607956019
 20
146.0159453302967449
 30
0.0
 11
203.7030498607956019
 21
147.3492786636300877
 31
0.0
  0
LINE
  5
391
100
AcDbEntity
100
AcDbLine
  8
etch
 62
256
370
-1
  6
ByLayer
 10
203.7030498607956019
 20
147.9048342191856307
 30
0.0
 11
203.7030498607956019
 21
148.0159453302967449
 31
0.0
  0
LINE
  5
392
100
AcDbEntity
100
AcDbLine
  8
etch
 62
256
370
-1
  6
ByLayer
 10
204.3697165274622876
 20
147.3492786636300877
 30
0.0
 11
205.0363831941289448
 21
147.3492786636300877
 31
0.0
  0
LINE
  5
393
100
AcDbEntity
100
AcDbLine
  8
etch
 62
256
370
-1
  6
ByLayer
 10
204.5919387496845161
 20
148.0159453302967449
 30
0.0
 11
204.5919387496845161
 21
146.0159453302967449
 31
0.0
  0
LINE
  5
394
100
AcDbEntity
100
AcDbLine
  8
etch
 62
256
370
-1
  6
ByLayer
 10
207.2030498607956019
 20
147.5715008858522879
 30
0.0
 11
207.647494305240059
 21
148.0159453302967449
 31
0.0
  0
LINE
  5
395
100
AcDbEntity
100
AcDbLine
  8
etch
 62
256
370
-1
  6
ByLayer
 10
207.647494305240059
 20
148.0159453302967449
 30
0.0
 11
207.647494305240059
 21
146.0159453302967449
 31
0.0
  0
LINE
  5
396
100
AcDbEntity
100
AcDbLine
  8
etch
 62
256
370
-1
  6
ByLayer
 10
201.6063654770952667
 20
107.9931662870164075
 30
0.0
 11
201.6063654770952667
 21
105.9931662870164075
 31
0.0
  0
LINE
  5
397
100
AcDbEntity
100
AcDbLine
  8
etch
 62
256
370
-1
  6
ByLayer
 10
201.6063654770952667
 20
105.9931662870164075
 30
0.0
 11
202.1619210326508096
 21
105.9931662870164075
 31
0.0
  0
ARC
  5
398
100
AcDbEntity
  8
etch
 62
256
370
-1
  6
ByLayer
100
AcDbCircle
 10
202.1619210326508096
 20
106.3264996203497361
 30
0.0
 40
0.3333333333333333
100
AcDbArc
 50
270.0
 51
0.0
  0
LINE
  5
399
100
AcDbEntity
100
AcDbLine
  8
etch
 62
256
370
-1
  6
ByLayer
 10
202.4952543659841524
 20
106.3264996203497361
 30
0.0
 11
202.4952543659841524
 21
106.9931662870164075
 31
0.0
  0
ARC
  5
39A
100
AcDbEntity
  8
etch
 62
256
370
-1
  6
ByLayer
100
AcDbCircle
 10
202.1619210326508096
 20
106.9931662870164075
 30
0.0
 40
0.3333333333333333
100
AcDbArc
 50
0.0
 51
90.0
  0
LINE
  5
39B
100
AcDbEntity
100
AcDbLine
  8
etch
 62
256
370
-1
  6
ByLayer
 10
202.1619210326508096
 20
107.3264996203497361
 30
0.0
 11
201.6063654770952667
 21
107.3264996203497361
 31
0.0
  0
LINE
  5
39C
100
AcDbEntity
100
AcDbLine
  8
etch
 62
256
370
-1
  6
ByLayer
 10
203.161921032650838
 20
105.9931662870164075
 30
0.0
 11
203.161921032650838
 21
107.3264996203497361
 31
0.0
  0
LINE
  5
39D
100
AcDbEntity
100
AcDbLine
  8
etch
 62
256
370
-1
  6
ByLayer
 10
203.161921032650838
 20
107.8820551759052933
 30
0.0
 11
203.161921032650838
 21
107.9931662870164075
 31
0.0
  0
LINE
  5
39E
100
AcDbEntity
100
AcDbLine
  8
etch
 62
256
370
-1
  6
ByLayer
 10
203.8285876993174952
 20
107.3264996203497361
 30
0.0
 11
204.4952543659841524
 21
107.3264996203497361
 31
0.0
  0
LINE
  5
39F
100
AcDbEntity
100
AcDbLine
  8
etch
 62
256
370
-1
  6
ByLayer
 10
204.0508099215397237
 20
107.9931662870164075
 30
0.0
 11
204.0508099215397237
 21
105.9931662870164075
 31
0.0
  0
LINE
  5
3A0
100
AcDbEntity
100
AcDbLine
  8
etch
 62
256
370
-1
  6
ByLayer
 10
207.5508099215397237
 20
105.9931662870164075
 30
0.0
 11
206.661921032650838
 21
105.9931662870164075
 31
0.0
  0
LINE
  5
3A1
100
AcDbEntity
100
AcDbLine
  8
etch
 62
256
370
-1
  6
ByLayer
 10
206.661921032650838
 20
105.9931662870164075
 30
0.0
 11
207.5208099215397226
 21
107.4702773981275215
 31
0.0
  0
ARC
  5
3A2
100
AcDbEntity
  8
etch
 62
256
370
-1
  6
ByLayer
100
AcDbCircle
 10
207.3285876993174952
 20
107.581832953683076
 30
0.0
 40
0.2222222222222222
100
AcDbArc
 50
329.8000000000000114
 51
20.5300000000000011
  0
ARC
  5
3A3
100
AcDbEntity
  8
etch
 62
256
370
-1
  6
ByLayer
100
AcDbCircle
 10
207.1063654770952951
 20
107.5487218425719647
 30
0.0
 40
0.4444444444444444
100
AcDbArc
 50
14.4799999999999986
 51
165.5
  0
LINE
  5
3A4
100
AcDbEntity
100
AcDbLine
  8
etch
 62
256
370
-1
  6
ByLayer
 10
200.0118324474825044
 20
67.810933940774774
 30
0.0
 11
200.0118324474825044
 21
65.810933940774774
 31
0.0
  0
LINE
  5
3A5
100
AcDbEntity
100
AcDbLine
  8
etch
 62
256
370
-1
  6
ByLayer
 10
200.0118324474825044
 20
65.810933940774774
 30
0.0
 11
200.5673880030380474
 21
65.810933940774774
 31
0.0
  0
ARC
  5
3A6
100
AcDbEntity
  8
etch
 62
256
370
-1
  6
ByLayer
100
AcDbCircle
 10
200.5673880030380474
 20
66.1442672741081026
 30
0.0
 40
0.3333333333333333
100
AcDbArc
 50
270.0
 51
0.0
  0
LINE
  5
3A7
100
AcDbEntity
100
AcDbLine
  8
etch
 62
256
370
-1
  6
ByLayer
 10
200.9007213363713902
 20
66.1442672741081026
 30
0.0
 11
200.9007213363713902
 21
66.810933940774774
 31
0.0
  0
ARC
  5
3A8
100
AcDbEntity
  8
etch
 62
256
370
-1
  6
ByLayer
100
AcDbCircle
 10
200.5673880030380474
 20
66.810933940774774
 30
0.0
 40
0.3333333333333333
100
AcDbArc
 50
0.0
 51
90.0
  0
LINE
  5
3A9
100
AcDbEntity
100
AcDbLine
  8
etch
 62
256
370
-1
  6
ByLayer
 10
200.5673880030380474
 20
67.1442672741081026
 30
0.0
 11
200.0118324474825044
 21
67.1442672741081026
 31
0.0
  0
LINE
  5
3AA
100
AcDbEntity
100
AcDbLine
  8
etch
 62
256
370
-1
  6
ByLayer
 10
201.5673880030380758
 20
65.810933940774774
 30
0.0
 11
201.5673880030380758
 21
67.1442672741081026
 31
0.0
  0
LINE
  5
3AB
100
AcDbEntity
100
AcDbLine
  8
etch
 62
256
370
-1
  6
ByLayer
 10
201.5673880030380758
 20
67.6998228296636597
 30
0.0
 11
201.5673880030380758
 21
67.810933940774774
 31
0.0
  0
LINE
  5
3AC
100
AcDbEntity
100
AcDbLine
  8
etch
 62
256
370
-1
  6
ByLayer
 10
202.234054669704733
 20
67.1442672741081026
 30
0.0
 11
202.9007213363713902
 21
67.1442672741081026
 31
0.0
  0
LINE
  5
3AD
100
AcDbEntity
100
AcDbLine
  8
etch
 62
256
370
-1
  6
ByLayer
 10
202.4562768919269615
 20
67.810933940774774
 30
0.0
 11
202.4562768919269615
 21
65.810933940774774
 31
0.0
  0
LINE
  5
3AE
100
AcDbEntity
100
AcDbLine
  8
etch
 62
256
370
-1
  6
ByLayer
 10
205.0673880030380758
 20
67.810933940774774
 30
0.0
 11
205.5118324474825329
 21
67.810933940774774
 31
0.0
  0
ARC
  5
3AF
100
AcDbEntity
  8
etch
 62
256
370
-1
  6
ByLayer
100
AcDbCircle
 10
205.5118324474825329
 20
67.3664894963303311
 30
0.0
 40
0.4444444444444444
100
AcDbArc
 50
270.0
 51
90.0
  0
LINE
  5
3B0
100
AcDbEntity
100
AcDbLine
  8
etch
 62
256
370
-1
  6
ByLayer
 10
205.5118324474825329
 20
66.9220450518858883
 30
0.0
 11
205.2896102252603043
 21
66.9220450518858883
 31
0.0
  0
ARC
  5
3B1
100
AcDbEntity
  8
etch
 62
256
370
-1
  6
ByLayer
100
AcDbCircle
 10
205.5118324474825329
 20
66.4776006074414454
 30
0.0
 40
0.4444444444444444
100
AcDbArc
 50
0.0
 51
90.0
  0
LINE
  5
3B2
100
AcDbEntity
100
AcDbLine
  8
etch
 62
256
370
-1
  6
ByLayer
 10
205.9562768919269615
 20
66.4776006074414454
 30
0.0
 11
205.9562768919269615
 21
66.2553783852192169
 31
0.0
  0
ARC
  5
3B3
100
AcDbEntity
  8
etch
 62
256
370
-1
  6
ByLayer
100
AcDbCircle
 10
205.5118324474825329
 20
66.2553783852192169
 30
0.0
 40
0.4444444444444444
100
AcDbArc
 50
270.0
 51
0.0
  0
LINE
  5
3B4
100
AcDbEntity
100
AcDbLine
  8
etch
 62
256
370
-1
  6
ByLayer
 10
205.5118324474825329
 20
65.810933940774774
 30
0.0
 11
205.0673880030380758
 21
65.810933940774774
 31
0.0
  0
LINE
  5
3B5
100
AcDbEntity
100
AcDbLine
  8
skeleton
 62
256
370
-1
  6
ByLayer
 10
46.3999999999999986
 20
-60.0
 30
0.0
 11
46.3999999999999986
 21
-20.0
 31
0.0
  0
LINE
  5
3B6
100
AcDbEntity
100
AcDbLine
  8
skeleton
 62
256
370
-1
  6
ByLayer
 10
-52.1999999999999886
 20
-19.9999999999999964
 30
0.0
 11
-52.1999999999999886
 21
-60.0
 31
0.0
  0
LINE
  5
3B7
100
AcDbEntity
100
AcDbLine
  8
skeleton
 62
256
370
-1
  6
ByLayer
 10
-52.1999999999999886
 20
-30.0
 30
0.0
 11
46.4000000000000057
 21
-30.0
 31
0.0
  0
LINE
  5
3B8
100
AcDbEntity
100
AcDbLine
  8
skeleton
 62
256
370
-1
  6
ByLayer
 10
-52.1999999999999886
 20
-36.0
 30
0.0
 11
46.4000000000000057
 21
-36.0
 31
0.0
  0
LINE
  5
3B9
100
AcDbEntity
100
AcDbLine
  8
skeleton
 62
256
370
-1
  6
ByLayer
 10
-52.1999999999999886
 20
-50.0
 30
0.0
 11
46.4000000000000057
 21
-50.0
 31
0.0
  0
LINE
  5
3BA
100
AcDbEntity
100
AcDbLine
  8
skeleton
 62
256
370
-1
  6
ByLayer
 10
-52.1999999999999886
 20
-56.0
 30
0.0
 11
46.4000000000000057
 21
-56.0
 31
0.0
  0
LINE
  5
3BB
100
AcDbEntity
100
AcDbLine
  8
cut
 62
256
370
-1
  6
ByLayer
 10
-52.1999999999999886
 20
-30.0
 30
0.0
 11
-52.1999999999999886
 21
-56.0
 31
0.0
  0
LINE
  5
3BC
100
AcDbEntity
100
AcDbLine
  8
cut
 62
256
370
-1
  6
ByLayer
 10
-52.1999999999999886
 20
-56.0
 30
0.0
 11
46.3999999999999986
 21
-56.0
 31
0.0
  0
LINE
  5
3BD
100
AcDbEntity
100
AcDbLine
  8
cut
 62
256
370
-1
  6
ByLayer
 10
46.3999999999999986
 20
-56.0
 30
0.0
 11
46.3999999999999986
 21
-30.0
 31
0.0
  0
LINE
  5
3BE
100
AcDbEntity
100
AcDbLine
  8
cut
 62
256
370
-1
  6
ByLayer
 10
46.3999999999999986
 20
-30.0
 30
0.0
 11
41.3999999999999986
 21
-30.0
 31
0.0
  0
LINE
  5
3BF
100
AcDbEntity
100
AcDbLine
  8
cut
 62
256
370
-1
  6
ByLayer
 10
41.3999999999999986
 20
-30.0
 30
0.0
 11
41.3999999999999986
 21
-50.0
 31
0.0
  0
LINE
  5
3C0
100
AcDbEntity
100
AcDbLine
  8
cut
 62
256
370
-1
  6
ByLayer
 10
41.3999999999999986
 20
-50.0
 30
0.0
 11
38.4000000000000057
 21
-50.0
 31
0.0
  0
LINE
  5
3C1
100
AcDbEntity
100
AcDbLine
  8
cut
 62
256
370
-1
  6
ByLayer
 10
38.4000000000000057
 20
-50.0
 30
0.0
 11
38.4000000000000057
 21
-36.0
 31
0.0
  0
LINE
  5
3C2
100
AcDbEntity
100
AcDbLine
  8
cut
 62
256
370
-1
  6
ByLayer
 10
38.4000000000000057
 20
-36.0
 30
0.0
 11
-44.1999999999999886
 21
-36.0
 31
0.0
  0
LINE
  5
3C3
100
AcDbEntity
100
AcDbLine
  8
cut
 62
256
370
-1
  6
ByLayer
 10
-44.1999999999999886
 20
-36.0
 30
0.0
 11
-44.1999999999999886
 21
-50.0000000000000071
 31
0.0
  0
LINE
  5
3C4
100
AcDbEntity
100
AcDbLine
  8
cut
 62
256
370
-1
  6
ByLayer
 10
-44.1999999999999886
 20
-50.0000000000000071
 30
0.0
 11
-47.1999999999999886
 21
-50.0
 31
0.0
  0
LINE
  5
3C5
100
AcDbEntity
100
AcDbLine
  8
cut
 62
256
370
-1
  6
ByLayer
 10
-47.1999999999999886
 20
-50.0
 30
0.0
 11
-47.1999999999999886
 21
-30.0
 31
0.0
  0
LINE
  5
3C6
100
AcDbEntity
100
AcDbLine
  8
cut
 62
256
370
-1
  6
ByLayer
 10
-47.1999999999999886
 20
-30.0
 30
0.0
 11
-52.1999999999999886
 21
-30.0
 31
0.0
  0
CIRCLE
  5
3C7
100
AcDbEntity
100
AcDbCircle
  8
cut
 62
256
370
-1
  6
ByLayer
 10
0.0
 20
-40.0
 30
0.0
 40
1.2
  0
CIRCLE
  5
3C8
100
AcDbEntity
100
AcDbCircle
  8
cut
 62
256
370
-1
  6
ByLayer
 10
-10.0
 20
-40.0
 30
0.0
 40
1.2
  0
CIRCLE
  5
3C9
100
AcDbEntity
100
AcDbCircle
  8
cut
 62
256
370
-1
  6
ByLayer
 10
-20.0
 20
-40.0
 30
0.0
 40
1.2
  0
CIRCLE
  5
3CA
100
AcDbEntity
100
AcDbCircle
  8
cut
 62
256
370
-1
  6
ByLayer
 10
-30.0
 20
-40.0
 30
0.0
 40
1.2
  0
CIRCLE
  5
3CB
100
AcDbEntity
100
AcDbCircle
  8
cut
 62
256
370
-1
  6
ByLayer
 10
-40.0
 20
-40.0
 30
0.0
 40
1.2
  0
CIRCLE
  5
3CC
100
AcDbEntity
100
AcDbCircle
  8
cut
 62
256
370
-1
  6
ByLayer
 10
10.0
 20
-40.0
 30
0.0
 40
1.2
  0
CIRCLE
  5
3CD
100
AcDbEntity
100
AcDbCircle
  8
cut
 62
256
370
-1
  6
ByLayer
 10
20.0
 20
-40.0
 30
0.0
 40
1.2
  0
CIRCLE
  5
3CE
100
AcDbEntity
100
AcDbCircle
  8
cut
 62
256
370
-1
  6
ByLayer
 10
30.0
 20
-40.0
 30
0.0
 40
1.2
  0
ENDSEC
  0
SECTION
  2
OBJECTS
  0
DICTIONARY
  5
C
100
AcDbDictionary
280
0
281
1
  3
ACAD_GROUP
350
D
  3
ACAD_LAYOUT
350
1A
  3
ACAD_MLINESTYLE
350
17
  3
ACAD_PLOTSETTINGS
350
19
  3
ACAD_PLOTSTYLENAME
350
E
  3
AcDbVariableDictionary
350
3CF
  0
DICTIONARY
  5
D
100
AcDbDictionary
280
0
281
1
  0
ACDBDICTIONARYWDFLT
  5
E
100
AcDbDictionary
281
1
  3
Normal
350
F
100
AcDbDictionaryWithDefault
340
F
  0
ACDBPLACEHOLDER
  5
F
  0
DICTIONARY
  5
17
100
AcDbDictionary
280
0
281
1
  3
Standard
350
18
  0
MLINESTYLE
  5
18
100
AcDbMlineStyle
  2
STANDARD
 70
0
  3

 62
256
 51
90.0
 52
90.0
 71
2
 49
0.5
 62
256
  6
BYLAYER
 49
-0.5
 62
256
  6
BYLAYER
  0
DICTIONARY
  5
19
100
AcDbDictionary
280
0
281
1
  0
DICTIONARY
  5
1A
100
AcDbDictionary
281
1
  3
Layout1
350
1E
  3
Layout2
350
26
  3
Model
350
22
  0
LAYOUT
  5
1E
100
AcDbPlotSettings
  1

  2
C:\Program Files\AutoCAD 2002\plotters\DWF ePlot (optimized for plotting).pc3
  4

  6

 40
0.0
 41
0.0
 42
0.0
 43
0.0
 44
0.0
 45
0.0
 46
0.0
 47
0.0
 48
0.0
 49
0.0
140
0.0
141
0.0
142
1.0
143
1.0
 70
688
 72
0
 73
0
 74
5
  7

 75
16
147
1.0
148
0.0
149
0.0
100
AcDbLayout
  1
Layout1
 70
1
 71
1
 10
0.0
 20
0.0
 11
420.0
 21
297.0
 12
0.0
 22
0.0
 32
0.0
 14
100000000000000000000.0
 24
100000000000000000000.0
 34
100000000000000000000.0
 15
-100000000000000000000.0
 25
-100000000000000000000.0
 35
-100000000000000000000.0
146
0.0
 13
0.0
 23
0.0
 33
0.0
 16
1.0
 26
0.0
 36
0.0
 17
0.0
 27
1.0
 37
0.0
 76
0
330
1B
  0
LAYOUT
  5
22
100
AcDbPlotSettings
  1

  2
C:\Program Files\AutoCAD 2002\plotters\DWF ePlot (optimized for plotting).pc3
  4

  6

 40
0.0
 41
0.0
 42
0.0
 43
0.0
 44
0.0
 45
0.0
 46
0.0
 47
0.0
 48
0.0
 49
0.0
140
0.0
141
0.0
142
1.0
143
1.0
 70
1712
 72
0
 73
0
 74
0
  7

 75
0
147
1.0
148
0.0
149
0.0
100
AcDbLayout
  1
Model
 70
1
 71
0
 10
0.0
 20
0.0
 11
12.0
 21
9.0
 12
0.0
 22
0.0
 32
0.0
 14
0.0
 24
0.0
 34
0.0
 15
0.0
 25
0.0
 35
0.0
146
0.0
 13
0.0
 23
0.0
 33
0.0
 16
1.0
 26
0.0
 36
0.0
 17
0.0
 27
1.0
 37
0.0
 76
0
330
1F
  0
LAYOUT
  5
26
100
AcDbPlotSettings
  1

  2
C:\Program Files\AutoCAD 2002\plotters\DWF ePlot (optimized for plotting).pc3
  4

  6

 40
0.0
 41
0.0
 42
0.0
 43
0.0
 44
0.0
 45
0.0
 46
0.0
 47
0.0
 48
0.0
 49
0.0
140
0.0
141
0.0
142
1.0
143
1.0
 70
688
 72
0
 73
0
 74
5
  7

 75
16
147
1.0
148
0.0
149
0.0
100
AcDbLayout
  1
Layout2
 70
1
 71
2
 10
0.0
 20
0.0
 11
12.0
 21
9.0
 12
0.0
 22
0.0
 32
0.0
 14
0.0
 24
0.0
 34
0.0
 15
0.0
 25
0.0
 35
0.0
146
0.0
 13
0.0
 23
0.0
 33
0.0
 16
1.0
 26
0.0
 36
0.0
 17
0.0
 27
1.0
 37
0.0
 76
0
330
23
  0
DICTIONARY
  5
3CF
100
AcDbDictionary
281
1
  3
DIMASSOC
350
3D1
  3
HIDETEXT
350
3D0
  0
DICTIONARYVAR
  5
3D0
100
DictionaryVariables
280
0
  1
2
  0
DICTIONARYVAR
  5
3D1
100
DictionaryVariables
280
0
  1
1
  0
ENDSEC
  0
EOF
