999
dxflib 2.2.0.0
  0
SECTION
  2
HEADER
  9
$ACADVER
  1
AC1015
  9
$HANDSEED
  5
FFFF
  9
$DIMASZ
 40
2.5
  9
$PLIMMIN
 10
0.0
 20
0.0
  9
$DIMEXE
 40
1.25
  9
$DIMGAP
 40
0.625
  9
$PLIMMAX
 10
210.0
 20
297.0
  9
$INSUNITS
 70
4
  9
$DIMSTYLE
  2
Standard
  9
$CLAYER
  8
bottom
  9
$DIMEXO
 40
0.625
  9
$DIMTXT
 40
2.5
  9
$CLAYER
  8
front
  0
ENDSEC
  0
SECTION
  2
TABLES
  0
TABLE
  2
VPORT
  5
8
100
AcDbSymbolTable
 70
1
  0
VPORT
  5
30
100
AcDbSymbolTableRecord
100
AcDbViewportTableRecord
  2
*Active
 70
0
 10
0.0
 20
0.0
 11
1.0
 21
1.0
 12
286.3055555555554861
 22
148.5
 13
0.0
 23
0.0
 14
10.0
 24
10.0
 15
10.0
 25
10.0
 16
0.0
 26
0.0
 36
1.0
 17
0.0
 27
0.0
 37
0.0
 40
297.0
 41
1.92798353909465
 42
50.0
 43
0.0
 44
0.0
 50
0.0
 51
0.0
 71
0
 72
100
 73
1
 74
3
 75
1
 76
1
 77
0
 78
0
281
0
 65
1
110
0.0
120
0.0
130
0.0
111
1.0
121
0.0
131
0.0
112
0.0
122
1.0
132
0.0
 79
0
146
0.0
  0
ENDTAB
  0
TABLE
  2
LTYPE
  5
5
100
AcDbSymbolTable
 70
21
  0
LTYPE
  5
14
100
AcDbSymbolTableRecord
100
AcDbLinetypeTableRecord
  2
ByBlock
 70
0
  3

 72
65
 73
0
 40
0.0
  0
LTYPE
  5
15
100
AcDbSymbolTableRecord
100
AcDbLinetypeTableRecord
  2
ByLayer
 70
0
  3

 72
65
 73
0
 40
0.0
  0
LTYPE
  5
16
100
AcDbSymbolTableRecord
100
AcDbLinetypeTableRecord
  2
CONTINUOUS
 70
0
  3
Solid line
 72
65
 73
0
 40
0.0
  0
LTYPE
  5
31
100
AcDbSymbolTableRecord
100
AcDbLinetypeTableRecord
  2
DOT
 70
0
  3
Dot . . . . . . . . . . . . . . . . . . . . . .
 72
65
 73
2
 40
6.3499999999999996
 49
0.0
 74
0
 49
-6.3499999999999996
 74
0
  0
LTYPE
  5
32
100
AcDbSymbolTableRecord
100
AcDbLinetypeTableRecord
  2
DOT2
 70
0
  3
Dot (.5x) .....................................
 72
65
 73
2
 40
3.1749999999999998
 49
0.0
 74
0
 49
-3.1749999999999998
 74
0
  0
LTYPE
  5
33
100
AcDbSymbolTableRecord
100
AcDbLinetypeTableRecord
  2
DOTX2
 70
0
  3
Dot (2x) .  .  .  .  .  .  .  .  .  .  .  .  .
 72
65
 73
2
 40
12.6999999999999993
 49
0.0
 74
0
 49
-12.6999999999999993
 74
0
  0
LTYPE
  5
34
100
AcDbSymbolTableRecord
100
AcDbLinetypeTableRecord
  2
DASHED
 70
0
  3
Dashed __ __ __ __ __ __ __ __ __ __ __ __ __ _
 72
65
 73
2
 40
19.0500000000000007
 49
12.6999999999999993
 74
0
 49
-6.3499999999999996
 74
0
  0
LTYPE
  5
35
100
AcDbSymbolTableRecord
100
AcDbLinetypeTableRecord
  2
DASHED2
 70
0
  3
Dashed (.5x) _ _ _ _ _ _ _ _ _ _ _ _ _ _ _ _ _
 72
65
 73
2
 40
9.5250000000000004
 49
6.3499999999999996
 74
0
 49
-3.1749999999999998
 74
0
  0
LTYPE
  5
36
100
AcDbSymbolTableRecord
100
AcDbLinetypeTableRecord
  2
DASHEDX2
 70
0
  3
Dashed (2x) ____  ____  ____  ____  ____  ___
 72
65
 73
2
 40
38.1000000000000014
 49
25.3999999999999986
 74
0
 49
-12.6999999999999993
 74
0
  0
LTYPE
  5
37
100
AcDbSymbolTableRecord
100
AcDbLinetypeTableRecord
  2
DASHDOT
 70
0
  3
Dash dot __ . __ . __ . __ . __ . __ . __ . __
 72
65
 73
4
 40
25.3999999999999986
 49
12.6999999999999993
 74
0
 49
-6.3499999999999996
 74
0
 49
0.0
 74
0
 49
-6.3499999999999996
 74
0
  0
LTYPE
  5
38
100
AcDbSymbolTableRecord
100
AcDbLinetypeTableRecord
  2
DASHDOT2
 70
0
  3
Dash dot (.5x) _._._._._._._._._._._._._._._.
 72
65
 73
4
 40
12.6999999999999993
 49
6.3499999999999996
 74
0
 49
-3.1749999999999998
 74
0
 49
0.0
 74
0
 49
-3.1749999999999998
 74
0
  0
LTYPE
  5
39
100
AcDbSymbolTableRecord
100
AcDbLinetypeTableRecord
  2
DASHDOTX2
 70
0
  3
Dash dot (2x) ____  .  ____  .  ____  .  ___
 72
65
 73
4
 40
50.7999999999999972
 49
25.3999999999999986
 74
0
 49
-12.6999999999999993
 74
0
 49
0.0
 74
0
 49
-12.6999999999999993
 74
0
  0
LTYPE
  5
3A
100
AcDbSymbolTableRecord
100
AcDbLinetypeTableRecord
  2
DIVIDE
 70
0
  3
Divide ____ . . ____ . . ____ . . ____ . . ____
 72
65
 73
6
 40
31.75
 49
12.6999999999999993
 74
0
 49
-6.3499999999999996
 74
0
 49
0.0
 74
0
 49
-6.3499999999999996
 74
0
 49
0.0
 74
0
 49
-6.3499999999999996
 74
0
  0
LTYPE
  5
3B
100
AcDbSymbolTableRecord
100
AcDbLinetypeTableRecord
  2
DIVIDE2
 70
0
  3
Divide (.5x) __..__..__..__..__..__..__..__.._
 72
65
 73
6
 40
15.875
 49
6.3499999999999996
 74
0
 49
-3.1749999999999998
 74
0
 49
0.0
 74
0
 49
-3.1749999999999998
 74
0
 49
0.0
 74
0
 49
-3.1749999999999998
 74
0
  0
LTYPE
  5
3C
100
AcDbSymbolTableRecord
100
AcDbLinetypeTableRecord
  2
DIVIDEX2
 70
0
  3
Divide (2x) ________  .  .  ________  .  .  _
 72
65
 73
6
 40
63.5
 49
25.3999999999999986
 74
0
 49
-12.6999999999999993
 74
0
 49
0.0
 74
0
 49
-12.6999999999999993
 74
0
 49
0.0
 74
0
 49
-12.6999999999999993
 74
0
  0
LTYPE
  5
3D
100
AcDbSymbolTableRecord
100
AcDbLinetypeTableRecord
  2
CENTER
 70
0
  3
Center ____ _ ____ _ ____ _ ____ _ ____ _ ____
 72
65
 73
4
 40
50.7999999999999972
 49
31.75
 74
0
 49
-6.3499999999999996
 74
0
 49
6.3499999999999996
 74
0
 49
-6.3499999999999996
 74
0
  0
LTYPE
  5
3E
100
AcDbSymbolTableRecord
100
AcDbLinetypeTableRecord
  2
CENTER2
 70
0
  3
Center (.5x) ___ _ ___ _ ___ _ ___ _ ___ _ ___
 72
65
 73
4
 40
28.5749999999999993
 49
19.0500000000000007
 74
0
 49
-3.1749999999999998
 74
0
 49
3.1749999999999998
 74
0
 49
-3.1749999999999998
 74
0
  0
LTYPE
  5
3F
100
AcDbSymbolTableRecord
100
AcDbLinetypeTableRecord
  2
CENTERX2
 70
0
  3
Center (2x) ________  __  ________  __  _____
 72
65
 73
4
 40
101.5999999999999943
 49
63.5
 74
0
 49
-12.6999999999999993
 74
0
 49
12.6999999999999993
 74
0
 49
-12.6999999999999993
 74
0
  0
LTYPE
  5
40
100
AcDbSymbolTableRecord
100
AcDbLinetypeTableRecord
  2
BORDER
 70
0
  3
Border __ __ . __ __ . __ __ . __ __ . __ __ .
 72
65
 73
6
 40
44.4500000000000028
 49
12.6999999999999993
 74
0
 49
-6.3499999999999996
 74
0
 49
12.6999999999999993
 74
0
 49
-6.3499999999999996
 74
0
 49
0.0
 74
0
 49
-6.3499999999999996
 74
0
  0
LTYPE
  5
41
100
AcDbSymbolTableRecord
100
AcDbLinetypeTableRecord
  2
BORDER2
 70
0
  3
Border (.5x) __.__.__.__.__.__.__.__.__.__.__.
 72
65
 73
6
 40
22.2250000000000014
 49
6.3499999999999996
 74
0
 49
-3.1749999999999998
 74
0
 49
6.3499999999999996
 74
0
 49
-3.1749999999999998
 74
0
 49
0.0
 74
0
 49
-3.1749999999999998
 74
0
  0
LTYPE
  5
42
100
AcDbSymbolTableRecord
100
AcDbLinetypeTableRecord
  2
BORDERX2
 70
0
  3
Border (2x) ____  ____  .  ____  ____  .  ___
 72
65
 73
6
 40
88.9000000000000057
 49
25.3999999999999986
 74
0
 49
-12.6999999999999993
 74
0
 49
25.3999999999999986
 74
0
 49
-12.6999999999999993
 74
0
 49
0.0
 74
0
 49
-12.6999999999999993
 74
0
  0
ENDTAB
  0
TABLE
  2
LAYER
  5
2
100
AcDbSymbolTable
 70
5
  0
LAYER
  5
10
100
AcDbSymbolTableRecord
100
AcDbLayerTableRecord
  2
0
 70
0
 62
7
420
0
  6
CONTINUOUS
370
25
390
F
  0
LAYER
  5
43
100
AcDbSymbolTableRecord
100
AcDbLayerTableRecord
  2
side
 70
0
 62
7
420
0
  6
CONTINUOUS
370
0
390
F
  0
LAYER
  5
44
100
AcDbSymbolTableRecord
100
AcDbLayerTableRecord
  2
bottom
 70
0
 62
7
420
0
  6
CONTINUOUS
370
0
390
F
  0
LAYER
  5
45
100
AcDbSymbolTableRecord
100
AcDbLayerTableRecord
  2
front
 70
0
 62
7
420
0
  6
CONTINUOUS
370
0
390
F
  0
LAYER
  5
46
100
AcDbSymbolTableRecord
100
AcDbLayerTableRecord
  2
blocks
 70
0
 62
7
420
0
  6
CONTINUOUS
370
0
390
F
  0
ENDTAB
  0
TABLE
  2
STYLE
  5
3
100
AcDbSymbolTable
 70
1
  0
STYLE
  5
11
100
AcDbSymbolTableRecord
100
AcDbTextStyleTableRecord
  2
Standard
 70
0
 40
0.0
 41
0.75
 50
0.0
 71
0
 42
2.5
  3
txt
  4

  0
ENDTAB
  0
TABLE
  2
VIEW
  5
6
100
AcDbSymbolTable
 70
0
  0
ENDTAB
  0
TABLE
  2
UCS
  5
7
100
AcDbSymbolTable
 70
0
  0
ENDTAB
  0
TABLE
  2
APPID
  5
9
100
AcDbSymbolTable
 70
1
  0
APPID
  5
12
100
AcDbSymbolTableRecord
100
AcDbRegAppTableRecord
  2
ACAD
 70
0
  0
ENDTAB
  0
TABLE
  2
DIMSTYLE
  5
A
100
AcDbSymbolTable
 70
1
100
AcDbDimStyleTable
 71
0
  0
DIMSTYLE
105
27
100
AcDbSymbolTableRecord
100
AcDbDimStyleTableRecord
  2
Standard
 41
2.5
 42
0.625
 43
3.75
 44
1.25
 70
0
 73
0
 74
0
 77
1
 78
8
140
2.5
141
2.5
143
0.03937007874016
147
0.625
171
3
172
1
271
2
272
2
274
3
278
44
283
0
284
8
340
11
  0
ENDTAB
  0
TABLE
  2
BLOCK_RECORD
  5
1
100
AcDbSymbolTable
 70
1
  0
BLOCK_RECORD
  5
1F
100
AcDbSymbolTableRecord
100
AcDbBlockTableRecord
  2
*Model_Space
340
22
  0
BLOCK_RECORD
  5
1B
100
AcDbSymbolTableRecord
100
AcDbBlockTableRecord
  2
*Paper_Space
340
1E
  0
BLOCK_RECORD
  5
23
100
AcDbSymbolTableRecord
100
AcDbBlockTableRecord
  2
*Paper_Space0
340
26
  0
BLOCK_RECORD
  5
47
100
AcDbSymbolTableRecord
100
AcDbBlockTableRecord
  2
slots
340
0
  0
BLOCK_RECORD
  5
48
100
AcDbSymbolTableRecord
100
AcDbBlockTableRecord
  2
tabs
340
0
  0
ENDTAB
  0
ENDSEC
  0
SECTION
  2
BLOCKS
  0
BLOCK
  5
20
100
AcDbEntity
  8
0
100
AcDbBlockBegin
  2
*Model_Space
 70
0
 10
0.0
 20
0.0
 30
0.0
  3
*Model_Space
  1

  0
ENDBLK
  5
21
100
AcDbEntity
  8
0
100
AcDbBlockEnd
  0
BLOCK
  5
1C
100
AcDbEntity
 67
1
  8
0
100
AcDbBlockBegin
  2
*Paper_Space
 70
0
 10
0.0
 20
0.0
 30
0.0
  3
*Paper_Space
  1

  0
ENDBLK
  5
1D
100
AcDbEntity
 67
1
  8
0
100
AcDbBlockEnd
  0
BLOCK
  5
24
100
AcDbEntity
  8
0
100
AcDbBlockBegin
  2
*Paper_Space0
 70
0
 10
0.0
 20
0.0
 30
0.0
  3
*Paper_Space0
  1

  0
ENDBLK
  5
25
100
AcDbEntity
  8
0
100
AcDbBlockEnd
  0
BLOCK
  5
49
100
AcDbEntity
  8
0
100
AcDbBlockBegin
  2
slots
 70
0
 10
0.0
 20
0.0
 30
0.0
  3
slots
  1

  0
LINE
  5
4A
100
AcDbEntity
100
AcDbLine
  8
blocks
 62
256
370
-1
  6
ByLayer
 10
-20.0
 20
-2.5
 30
0.0
 11
-10.0
 21
-2.5
 31
0.0
  0
LINE
  5
4B
100
AcDbEntity
100
AcDbLine
  8
blocks
 62
256
370
-1
  6
ByLayer
 10
-10.0
 20
-2.5
 30
0.0
 11
-10.0
 21
2.5
 31
0.0
  0
LINE
  5
4C
100
AcDbEntity
100
AcDbLine
  8
blocks
 62
256
370
-1
  6
ByLayer
 10
-10.0
 20
2.5
 30
0.0
 11
-20.0
 21
2.5
 31
0.0
  0
LINE
  5
4D
100
AcDbEntity
100
AcDbLine
  8
blocks
 62
256
370
-1
  6
ByLayer
 10
-20.0
 20
2.5
 30
0.0
 11
-20.0
 21
-2.5
 31
0.0
  0
LINE
  5
4E
100
AcDbEntity
100
AcDbLine
  8
blocks
 62
256
370
-1
  6
ByLayer
 10
10.0
 20
-2.5
 30
0.0
 11
20.0
 21
-2.5
 31
0.0
  0
LINE
  5
4F
100
AcDbEntity
100
AcDbLine
  8
blocks
 62
256
370
-1
  6
ByLayer
 10
20.0
 20
-2.5
 30
0.0
 11
20.0
 21
2.5
 31
0.0
  0
LINE
  5
50
100
AcDbEntity
100
AcDbLine
  8
blocks
 62
256
370
-1
  6
ByLayer
 10
20.0
 20
2.5
 30
0.0
 11
10.0
 21
2.5
 31
0.0
  0
LINE
  5
51
100
AcDbEntity
100
AcDbLine
  8
blocks
 62
256
370
-1
  6
ByLayer
 10
10.0
 20
2.5
 30
0.0
 11
10.0
 21
-2.5
 31
0.0
  0
CIRCLE
  5
52
100
AcDbEntity
100
AcDbCircle
  8
blocks
 62
256
370
-1
  6
ByLayer
 10
0.0
 20
0.0
 30
0.0
 40
1.5
  0
ENDBLK
  5
53
100
AcDbEntity
  8
0
100
AcDbBlockEnd
  0
BLOCK
  5
54
100
AcDbEntity
  8
0
100
AcDbBlockBegin
  2
tabs
 70
0
 10
0.0
 20
0.0
 30
0.0
  3
tabs
  1

  0
LINE
  5
55
100
AcDbEntity
100
AcDbLine
  8
blocks
 62
256
370
-1
  6
ByLayer
 10
-20.0
 20
0.0
 30
0.0
 11
-20.0
 21
5.0
 31
0.0
  0
LINE
  5
56
100
AcDbEntity
100
AcDbLine
  8
blocks
 62
256
370
-1
  6
ByLayer
 10
-20.0
 20
5.0
 30
0.0
 11
-10.0
 21
5.0
 31
0.0
  0
LINE
  5
57
100
AcDbEntity
100
AcDbLine
  8
blocks
 62
256
370
-1
  6
ByLayer
 10
-10.0
 20
5.0
 30
0.0
 11
-10.0
 21
0.0
 31
0.0
  0
LINE
  5
58
100
AcDbEntity
100
AcDbLine
  8
blocks
 62
256
370
-1
  6
ByLayer
 10
-10.0
 20
0.0
 30
0.0
 11
-1.4100000000000001
 21
0.0
 31
0.0
  0
LINE
  5
59
100
AcDbEntity
100
AcDbLine
  8
blocks
 62
256
370
-1
  6
ByLayer
 10
-1.4100000000000001
 20
0.0
 30
0.0
 11
-1.4099999999999999
 21
-8.0
 31
0.0
  0
LINE
  5
5A
100
AcDbEntity
100
AcDbLine
  8
blocks
 62
256
370
-1
  6
ByLayer
 10
-1.4099999999999999
 20
-8.0
 30
0.0
 11
-2.75
 21
-8.0
 31
0.0
  0
LINE
  5
5B
100
AcDbEntity
100
AcDbLine
  8
blocks
 62
256
370
-1
  6
ByLayer
 10
-2.75
 20
-8.0
 30
0.0
 11
-2.75
 21
-10.9999999999999982
 31
0.0
  0
LINE
  5
5C
100
AcDbEntity
100
AcDbLine
  8
blocks
 62
256
370
-1
  6
ByLayer
 10
-2.75
 20
-10.9999999999999982
 30
0.0
 11
-1.4100000000000001
 21
-11.0
 31
0.0
  0
LINE
  5
5D
100
AcDbEntity
100
AcDbLine
  8
blocks
 62
256
370
-1
  6
ByLayer
 10
-1.4100000000000001
 20
-11.0
 30
0.0
 11
-1.4099999999999966
 21
-12.0
 31
0.0
  0
LINE
  5
5E
100
AcDbEntity
100
AcDbLine
  8
blocks
 62
256
370
-1
  6
ByLayer
 10
-1.4099999999999966
 20
-12.0
 30
0.0
 11
1.4100000000000001
 21
-12.0
 31
0.0
  0
LINE
  5
5F
100
AcDbEntity
100
AcDbLine
  8
blocks
 62
256
370
-1
  6
ByLayer
 10
1.4100000000000001
 20
-12.0
 30
0.0
 11
1.4100000000000001
 21
-11.0
 31
0.0
  0
LINE
  5
60
100
AcDbEntity
100
AcDbLine
  8
blocks
 62
256
370
-1
  6
ByLayer
 10
1.4100000000000001
 20
-11.0
 30
0.0
 11
2.75
 21
-11.0
 31
0.0
  0
LINE
  5
61
100
AcDbEntity
100
AcDbLine
  8
blocks
 62
256
370
-1
  6
ByLayer
 10
2.75
 20
-11.0
 30
0.0
 11
2.75
 21
-8.0
 31
0.0
  0
LINE
  5
62
100
AcDbEntity
100
AcDbLine
  8
blocks
 62
256
370
-1
  6
ByLayer
 10
2.75
 20
-8.0
 30
0.0
 11
1.4099999999999999
 21
-8.0
 31
0.0
  0
LINE
  5
63
100
AcDbEntity
100
AcDbLine
  8
blocks
 62
256
370
-1
  6
ByLayer
 10
1.4099999999999999
 20
-8.0
 30
0.0
 11
1.4099999999999999
 21
0.0
 31
0.0
  0
LINE
  5
64
100
AcDbEntity
100
AcDbLine
  8
blocks
 62
256
370
-1
  6
ByLayer
 10
1.4099999999999999
 20
0.0
 30
0.0
 11
10.0
 21
0.0
 31
0.0
  0
LINE
  5
65
100
AcDbEntity
100
AcDbLine
  8
blocks
 62
256
370
-1
  6
ByLayer
 10
10.0
 20
0.0
 30
0.0
 11
10.0
 21
5.0
 31
0.0
  0
LINE
  5
66
100
AcDbEntity
100
AcDbLine
  8
blocks
 62
256
370
-1
  6
ByLayer
 10
10.0
 20
5.0
 30
0.0
 11
20.0
 21
5.0
 31
0.0
  0
LINE
  5
67
100
AcDbEntity
100
AcDbLine
  8
blocks
 62
256
370
-1
  6
ByLayer
 10
20.0
 20
5.0
 30
0.0
 11
20.0
 21
0.0
 31
0.0
  0
ENDBLK
  5
68
100
AcDbEntity
  8
0
100
AcDbBlockEnd
  0
ENDSEC
  0
SECTION
  2
ENTITIES
  0
INSERT
  5
69
100
AcDbEntity
100
AcDbBlockReference
  8
side
 62
256
370
-1
  6
ByLayer
  2
slots
 10
192.5
 20
140.0
 30
0.0
 50
90.0
 44
1.0
 45
1.0
  0
INSERT
  5
6A
100
AcDbEntity
100
AcDbBlockReference
  8
side
 62
256
370
-1
  6
ByLayer
  2
slots
 10
192.5
 20
40.0
 30
0.0
 50
90.0
 44
1.0
 45
1.0
  0
INSERT
  5
6B
100
AcDbEntity
100
AcDbBlockReference
  8
side
 62
256
370
-1
  6
ByLayer
  2
slots
 10
-2.4999999999999978
 20
40.0
 30
0.0
 50
90.0
 44
1.0
 45
1.0
  0
INSERT
  5
6C
100
AcDbEntity
100
AcDbBlockReference
  8
side
 62
256
370
-1
  6
ByLayer
  2
slots
 10
-2.4999999999999911
 20
140.0
 30
0.0
 50
90.0
 44
1.0
 45
1.0
  0
CIRCLE
  5
6D
100
AcDbEntity
100
AcDbCircle
  8
side
 62
256
370
-1
  6
ByLayer
 10
20.0000000000000107
 20
170.0
 30
0.0
 40
1.5
  0
CIRCLE
  5
6E
100
AcDbEntity
100
AcDbCircle
  8
side
 62
256
370
-1
  6
ByLayer
 10
170.0
 20
170.0
 30
0.0
 40
1.5
  0
CIRCLE
  5
6F
100
AcDbEntity
100
AcDbCircle
  8
side
 62
256
370
-1
  6
ByLayer
 10
95.0
 20
170.0
 30
0.0
 40
1.5
  0
CIRCLE
  5
70
100
AcDbEntity
100
AcDbCircle
  8
side
 62
256
370
-1
  6
ByLayer
 10
10.0000000000000107
 20
160.0
 30
0.0
 40
1.5
  0
CIRCLE
  5
71
100
AcDbEntity
100
AcDbCircle
  8
side
 62
256
370
-1
  6
ByLayer
 10
10.0000000000000053
 20
90.0
 30
0.0
 40
1.5
  0
CIRCLE
  5
72
100
AcDbEntity
100
AcDbCircle
  8
side
 62
256
370
-1
  6
ByLayer
 10
10.0
 20
20.0000000000000036
 30
0.0
 40
1.5
  0
CIRCLE
  5
73
100
AcDbEntity
100
AcDbCircle
  8
side
 62
256
370
-1
  6
ByLayer
 10
19.9999999999999964
 20
10.0
 30
0.0
 40
1.5
  0
CIRCLE
  5
74
100
AcDbEntity
100
AcDbCircle
  8
side
 62
256
370
-1
  6
ByLayer
 10
95.0
 20
10.0
 30
0.0
 40
1.5
  0
CIRCLE
  5
75
100
AcDbEntity
100
AcDbCircle
  8
side
 62
256
370
-1
  6
ByLayer
 10
170.0
 20
10.0
 30
0.0
 40
1.5
  0
CIRCLE
  5
76
100
AcDbEntity
100
AcDbCircle
  8
side
 62
256
370
-1
  6
ByLayer
 10
180.0
 20
19.9999999999999964
 30
0.0
 40
1.5
  0
CIRCLE
  5
77
100
AcDbEntity
100
AcDbCircle
  8
side
 62
256
370
-1
  6
ByLayer
 10
180.0
 20
90.0
 30
0.0
 40
1.5
  0
CIRCLE
  5
78
100
AcDbEntity
100
AcDbCircle
  8
side
 62
256
370
-1
  6
ByLayer
 10
180.0
 20
160.0
 30
0.0
 40
1.5
  0
ARC
  5
79
100
AcDbEntity
  8
side
 62
256
370
-1
  6
ByLayer
100
AcDbCircle
 10
0.0000000000000107
 20
170.0
 30
0.0
 40
10.0
100
AcDbArc
 50
90.0
 51
180.0
  0
ARC
  5
7A
100
AcDbEntity
  8
side
 62
256
370
-1
  6
ByLayer
100
AcDbCircle
 10
190.0
 20
170.0
 30
0.0
 40
10.0
100
AcDbArc
 50
0.0
 51
90.0
  0
LINE
  5
7B
100
AcDbEntity
100
AcDbLine
  8
side
 62
256
370
-1
  6
ByLayer
 10
200.0
 20
170.0
 30
0.0
 11
200.0
 21
10.0
 31
0.0
  0
ARC
  5
7C
100
AcDbEntity
  8
side
 62
256
370
-1
  6
ByLayer
100
AcDbCircle
 10
190.0
 20
10.0
 30
0.0
 40
10.0
100
AcDbArc
 50
270.0
 51
0.0
  0
LINE
  5
7D
100
AcDbEntity
100
AcDbLine
  8
side
 62
256
370
-1
  6
ByLayer
 10
-9.9999999999999893
 20
10.0
 30
0.0
 11
-9.9999999999999893
 21
170.0
 31
0.0
  0
ARC
  5
7E
100
AcDbEntity
  8
side
 62
256
370
-1
  6
ByLayer
100
AcDbCircle
 10
0.0
 20
10.0
 30
0.0
 40
10.0
100
AcDbArc
 50
180.0
 51
270.0
  0
ARC
  5
7F
100
AcDbEntity
  8
side
 62
256
370
-1
  6
ByLayer
100
AcDbCircle
 10
40.0000000000000142
 20
140.0
 30
0.0
 40
20.0
100
AcDbArc
 50
90.0
 51
180.0
  0
LINE
  5
80
100
AcDbEntity
100
AcDbLine
  8
side
 62
256
370
-1
  6
ByLayer
 10
20.0000000000000107
 20
40.0
 30
0.0
 11
20.0000000000000107
 21
140.0
 31
0.0
  0
ARC
  5
81
100
AcDbEntity
  8
side
 62
256
370
-1
  6
ByLayer
100
AcDbCircle
 10
40.0000000000000142
 20
40.0
 30
0.0
 40
20.0
100
AcDbArc
 50
180.0
 51
269.9999999999999432
  0
LINE
  5
82
100
AcDbEntity
100
AcDbLine
  8
side
 62
256
370
-1
  6
ByLayer
 10
150.0
 20
20.0
 30
0.0
 11
40.0
 21
20.0
 31
0.0
  0
ARC
  5
83
100
AcDbEntity
  8
side
 62
256
370
-1
  6
ByLayer
100
AcDbCircle
 10
150.0
 20
40.0
 30
0.0
 40
20.0
100
AcDbArc
 50
270.0
 51
0.0
  0
LINE
  5
84
100
AcDbEntity
100
AcDbLine
  8
side
 62
256
370
-1
  6
ByLayer
 10
170.0
 20
140.0
 30
0.0
 11
170.0
 21
40.0
 31
0.0
  0
LINE
  5
85
100
AcDbEntity
100
AcDbLine
  8
side
 62
256
370
-1
  6
ByLayer
 10
40.0000000000000142
 20
160.0
 30
0.0
 11
150.0
 21
160.0
 31
0.0
  0
ARC
  5
86
100
AcDbEntity
  8
side
 62
256
370
-1
  6
ByLayer
100
AcDbCircle
 10
150.0
 20
140.0
 30
0.0
 40
20.0
100
AcDbArc
 50
0.0
 51
90.0
  0
LINE
  5
87
100
AcDbEntity
100
AcDbLine
  8
side
 62
256
370
-1
  6
ByLayer
 10
0.0000000000000113
 20
180.0
 30
0.0
 11
10.0000000000000107
 21
180.0
 31
0.0
  0
LINE
  5
88
100
AcDbEntity
100
AcDbLine
  8
side
 62
256
370
-1
  6
ByLayer
 10
50.0000000000000142
 20
180.0
 30
0.0
 11
140.0
 21
180.0
 31
0.0
  0
LINE
  5
89
100
AcDbEntity
100
AcDbLine
  8
side
 62
256
370
-1
  6
ByLayer
 10
180.0
 20
180.0
 30
0.0
 11
190.0
 21
180.0
 31
0.0
  0
LINE
  5
8A
100
AcDbEntity
100
AcDbLine
  8
side
 62
256
370
-1
  6
ByLayer
 10
-0.0000000000000018
 20
0.0
 30
0.0
 11
10.0
 21
0.0000000000000024
 31
0.0
  0
LINE
  5
8B
100
AcDbEntity
100
AcDbLine
  8
side
 62
256
370
-1
  6
ByLayer
 10
50.0
 20
-0.0000000000000049
 30
0.0
 11
140.0000000000000284
 21
0.0000000000000024
 31
0.0
  0
LINE
  5
8C
100
AcDbEntity
100
AcDbLine
  8
side
 62
256
370
-1
  6
ByLayer
 10
180.0000000000000284
 20
-0.0000000000000049
 30
0.0
 11
190.0
 21
0.0
 31
0.0
  0
INSERT
  5
8D
100
AcDbEntity
100
AcDbBlockReference
  8
side
 62
256
370
-1
  6
ByLayer
  2
tabs
 10
30.0000000000000107
 20
180.0
 30
0.0
 44
1.0
 45
1.0
  0
INSERT
  5
8E
100
AcDbEntity
100
AcDbBlockReference
  8
side
 62
256
370
-1
  6
ByLayer
  2
tabs
 10
160.0
 20
180.0
 30
0.0
 44
1.0
 45
1.0
  0
INSERT
  5
8F
100
AcDbEntity
100
AcDbBlockReference
  8
side
 62
256
370
-1
  6
ByLayer
  2
tabs
 10
160.0000000000000284
 20
0.0
 30
0.0
 50
180.0
 44
1.0
 45
1.0
  0
INSERT
  5
90
100
AcDbEntity
100
AcDbBlockReference
  8
side
 62
256
370
-1
  6
ByLayer
  2
tabs
 10
30.0
 20
0.0
 30
0.0
 50
180.0
 44
1.0
 45
1.0
  0
INSERT
  5
91
100
AcDbEntity
100
AcDbBlockReference
  8
front
 62
256
370
-1
  6
ByLayer
  2
tabs
 10
340.0
 20
0.0
 30
0.0
 50
180.0
 44
1.0
 45
1.0
  0
INSERT
  5
92
100
AcDbEntity
100
AcDbBlockReference
  8
front
 62
256
370
-1
  6
ByLayer
  2
tabs
 10
490.0
 20
0.0
 30
0.0
 50
180.0
 44
1.0
 45
1.0
  0
INSERT
  5
93
100
AcDbEntity
100
AcDbBlockReference
  8
front
 62
256
370
-1
  6
ByLayer
  2
tabs
 10
300.0
 20
40.0
 30
0.0
 50
90.0
 44
1.0
 45
1.0
  0
INSERT
  5
94
100
AcDbEntity
100
AcDbBlockReference
  8
front
 62
256
370
-1
  6
ByLayer
  2
tabs
 10
300.0
 20
140.0
 30
0.0
 50
90.0
 44
1.0
 45
1.0
  0
INSERT
  5
95
100
AcDbEntity
100
AcDbBlockReference
  8
front
 62
256
370
-1
  6
ByLayer
  2
tabs
 10
340.0
 20
180.0
 30
0.0
 44
1.0
 45
1.0
  0
INSERT
  5
96
100
AcDbEntity
100
AcDbBlockReference
  8
front
 62
256
370
-1
  6
ByLayer
  2
tabs
 10
490.0
 20
180.0
 30
0.0
 44
1.0
 45
1.0
  0
INSERT
  5
97
100
AcDbEntity
100
AcDbBlockReference
  8
front
 62
256
370
-1
  6
ByLayer
  2
tabs
 10
530.0
 20
140.0
 30
0.0
 50
270.0
 44
1.0
 45
1.0
  0
INSERT
  5
98
100
AcDbEntity
100
AcDbBlockReference
  8
front
 62
256
370
-1
  6
ByLayer
  2
tabs
 10
530.0
 20
40.0
 30
0.0
 50
270.0
 44
1.0
 45
1.0
  0
LINE
  5
99
100
AcDbEntity
100
AcDbLine
  8
front
 62
256
370
-1
  6
ByLayer
 10
300.0
 20
120.0
 30
0.0
 11
300.0
 21
60.0
 31
0.0
  0
LINE
  5
9A
100
AcDbEntity
100
AcDbLine
  8
front
 62
256
370
-1
  6
ByLayer
 10
360.0
 20
0.0
 30
0.0
 11
470.0
 21
0.0
 31
0.0
  0
LINE
  5
9B
100
AcDbEntity
100
AcDbLine
  8
front
 62
256
370
-1
  6
ByLayer
 10
530.0
 20
60.0
 30
0.0
 11
530.0
 21
120.0
 31
0.0
  0
LINE
  5
9C
100
AcDbEntity
100
AcDbLine
  8
front
 62
256
370
-1
  6
ByLayer
 10
470.0
 20
180.0
 30
0.0
 11
360.0
 21
180.0
 31
0.0
  0
CIRCLE
  5
9D
100
AcDbEntity
100
AcDbCircle
  8
front
 62
256
370
-1
  6
ByLayer
 10
320.0
 20
170.0
 30
0.0
 40
1.5
  0
CIRCLE
  5
9E
100
AcDbEntity
100
AcDbCircle
  8
front
 62
256
370
-1
  6
ByLayer
 10
415.0
 20
170.0
 30
0.0
 40
1.5
  0
CIRCLE
  5
9F
100
AcDbEntity
100
AcDbCircle
  8
front
 62
256
370
-1
  6
ByLayer
 10
510.0
 20
170.0
 30
0.0
 40
1.5
  0
CIRCLE
  5
A0
100
AcDbEntity
100
AcDbCircle
  8
front
 62
256
370
-1
  6
ByLayer
 10
520.0
 20
160.0
 30
0.0
 40
1.5
  0
CIRCLE
  5
A1
100
AcDbEntity
100
AcDbCircle
  8
front
 62
256
370
-1
  6
ByLayer
 10
520.0
 20
90.0
 30
0.0
 40
1.5
  0
CIRCLE
  5
A2
100
AcDbEntity
100
AcDbCircle
  8
front
 62
256
370
-1
  6
ByLayer
 10
520.0
 20
19.9999999999999964
 30
0.0
 40
1.5
  0
CIRCLE
  5
A3
100
AcDbEntity
100
AcDbCircle
  8
front
 62
256
370
-1
  6
ByLayer
 10
510.0
 20
10.0
 30
0.0
 40
1.5
  0
CIRCLE
  5
A4
100
AcDbEntity
100
AcDbCircle
  8
front
 62
256
370
-1
  6
ByLayer
 10
415.0
 20
10.0
 30
0.0
 40
1.5
  0
CIRCLE
  5
A5
100
AcDbEntity
100
AcDbCircle
  8
front
 62
256
370
-1
  6
ByLayer
 10
320.0
 20
10.0
 30
0.0
 40
1.5
  0
CIRCLE
  5
A6
100
AcDbEntity
100
AcDbCircle
  8
front
 62
256
370
-1
  6
ByLayer
 10
310.0
 20
20.0
 30
0.0
 40
1.5
  0
CIRCLE
  5
A7
100
AcDbEntity
100
AcDbCircle
  8
front
 62
256
370
-1
  6
ByLayer
 10
310.0
 20
90.0
 30
0.0
 40
1.5
  0
CIRCLE
  5
A8
100
AcDbEntity
100
AcDbCircle
  8
front
 62
256
370
-1
  6
ByLayer
 10
310.0
 20
160.0
 30
0.0
 40
1.5
  0
ARC
  5
A9
100
AcDbEntity
  8
front
 62
256
370
-1
  6
ByLayer
100
AcDbCircle
 10
340.0
 20
140.0
 30
0.0
 40
20.0
100
AcDbArc
 50
90.0
 51
180.0
  0
LINE
  5
AA
100
AcDbEntity
100
AcDbLine
  8
front
 62
256
370
-1
  6
ByLayer
 10
340.0
 20
160.0
 30
0.0
 11
490.0
 21
160.0
 31
0.0
  0
ARC
  5
AB
100
AcDbEntity
  8
front
 62
256
370
-1
  6
ByLayer
100
AcDbCircle
 10
490.0
 20
140.0
 30
0.0
 40
20.0
100
AcDbArc
 50
0.0
 51
90.0
  0
LINE
  5
AC
100
AcDbEntity
100
AcDbLine
  8
front
 62
256
370
-1
  6
ByLayer
 10
510.0
 20
140.0
 30
0.0
 11
510.0
 21
40.0
 31
0.0
  0
ARC
  5
AD
100
AcDbEntity
  8
front
 62
256
370
-1
  6
ByLayer
100
AcDbCircle
 10
490.0
 20
40.0
 30
0.0
 40
20.0
100
AcDbArc
 50
270.0
 51
0.0
  0
LINE
  5
AE
100
AcDbEntity
100
AcDbLine
  8
front
 62
256
370
-1
  6
ByLayer
 10
490.0
 20
20.0
 30
0.0
 11
340.0
 21
20.0
 31
0.0
  0
LINE
  5
AF
100
AcDbEntity
100
AcDbLine
  8
front
 62
256
370
-1
  6
ByLayer
 10
320.0
 20
40.0
 30
0.0
 11
320.0
 21
140.0
 31
0.0
  0
ARC
  5
B0
100
AcDbEntity
  8
front
 62
256
370
-1
  6
ByLayer
100
AcDbCircle
 10
340.0
 20
40.0
 30
0.0
 40
20.0
100
AcDbArc
 50
180.0
 51
270.0
  0
LINE
  5
B1
100
AcDbEntity
100
AcDbLine
  8
front
 62
256
370
-1
  6
ByLayer
 10
320.0
 20
180.0
 30
0.0
 11
310.0
 21
180.0
 31
0.0
  0
LINE
  5
B2
100
AcDbEntity
100
AcDbLine
  8
front
 62
256
370
-1
  6
ByLayer
 10
300.0
 20
170.0
 30
0.0
 11
300.0
 21
160.0
 31
0.0
  0
ARC
  5
B3
100
AcDbEntity
  8
front
 62
256
370
-1
  6
ByLayer
100
AcDbCircle
 10
310.0
 20
170.0
 30
0.0
 40
10.0
100
AcDbArc
 50
90.0
 51
180.0
  0
LINE
  5
B4
100
AcDbEntity
100
AcDbLine
  8
front
 62
256
370
-1
  6
ByLayer
 10
300.0
 20
20.0
 30
0.0
 11
300.0
 21
10.0
 31
0.0
  0
LINE
  5
B5
100
AcDbEntity
100
AcDbLine
  8
front
 62
256
370
-1
  6
ByLayer
 10
310.0
 20
0.0
 30
0.0
 11
320.0
 21
0.0
 31
0.0
  0
ARC
  5
B6
100
AcDbEntity
  8
front
 62
256
370
-1
  6
ByLayer
100
AcDbCircle
 10
310.0
 20
10.0
 30
0.0
 40
10.0
100
AcDbArc
 50
180.0
 51
270.0
  0
LINE
  5
B7
100
AcDbEntity
100
AcDbLine
  8
front
 62
256
370
-1
  6
ByLayer
 10
510.0
 20
0.0
 30
0.0
 11
520.0
 21
0.0
 31
0.0
  0
LINE
  5
B8
100
AcDbEntity
100
AcDbLine
  8
front
 62
256
370
-1
  6
ByLayer
 10
530.0
 20
10.0
 30
0.0
 11
530.0
 21
20.0
 31
0.0
  0
ARC
  5
B9
100
AcDbEntity
  8
front
 62
256
370
-1
  6
ByLayer
100
AcDbCircle
 10
520.0
 20
10.0
 30
0.0
 40
10.0
100
AcDbArc
 50
270.0
 51
0.0
  0
LINE
  5
BA
100
AcDbEntity
100
AcDbLine
  8
front
 62
256
370
-1
  6
ByLayer
 10
530.0
 20
160.0
 30
0.0
 11
530.0
 21
170.0
 31
0.0
  0
LINE
  5
BB
100
AcDbEntity
100
AcDbLine
  8
front
 62
256
370
-1
  6
ByLayer
 10
520.0
 20
180.0
 30
0.0
 11
510.0
 21
180.0
 31
0.0
  0
ARC
  5
BC
100
AcDbEntity
  8
front
 62
256
370
-1
  6
ByLayer
100
AcDbCircle
 10
520.0
 20
170.0
 30
0.0
 40
10.0
100
AcDbArc
 50
0.0
 51
90.0
  0
INSERT
  5
BD
100
AcDbEntity
100
AcDbBlockReference
  8
bottom
 62
256
370
-1
  6
ByLayer
  2
slots
 10
640.0
 20
192.5
 30
0.0
 44
1.0
 45
1.0
  0
INSERT
  5
BE
100
AcDbEntity
100
AcDbBlockReference
  8
bottom
 62
256
370
-1
  6
ByLayer
  2
slots
 10
790.0
 20
192.5
 30
0.0
 44
1.0
 45
1.0
  0
INSERT
  5
BF
100
AcDbEntity
100
AcDbBlockReference
  8
bottom
 62
256
370
-1
  6
ByLayer
  2
slots
 10
790.0
 20
-2.5
 30
0.0
 44
1.0
 45
1.0
  0
INSERT
  5
C0
100
AcDbEntity
100
AcDbBlockReference
  8
bottom
 62
256
370
-1
  6
ByLayer
  2
slots
 10
640.0
 20
-2.5
 30
0.0
 44
1.0
 45
1.0
  0
LINE
  5
C1
100
AcDbEntity
100
AcDbLine
  8
bottom
 62
256
370
-1
  6
ByLayer
 10
590.0
 20
200.0
 30
0.0
 11
840.0
 21
200.0
 31
0.0
  0
LINE
  5
C2
100
AcDbEntity
100
AcDbLine
  8
bottom
 62
256
370
-1
  6
ByLayer
 10
840.0
 20
200.0
 30
0.0
 11
840.0
 21
-10.0
 31
0.0
  0
LINE
  5
C3
100
AcDbEntity
100
AcDbLine
  8
bottom
 62
256
370
-1
  6
ByLayer
 10
840.0
 20
-10.0
 30
0.0
 11
590.0
 21
-10.0
 31
0.0
  0
LINE
  5
C4
100
AcDbEntity
100
AcDbLine
  8
bottom
 62
256
370
-1
  6
ByLayer
 10
590.0
 20
-10.0
 30
0.0
 11
590.0
 21
200.0
 31
0.0
  0
ARC
  5
C5
100
AcDbEntity
  8
bottom
 62
256
370
-1
  6
ByLayer
100
AcDbCircle
 10
675.5695628688849865
 20
160.0
 30
0.0
 40
10.0
100
AcDbArc
 50
90.0
 51
230.4403320310055676
  0
LINE
  5
C6
100
AcDbEntity
100
AcDbLine
  8
bottom
 62
256
370
-1
  6
ByLayer
 10
675.5695628688849865
 20
170.0
 30
0.0
 11
754.4304371311150135
 21
170.0
 31
0.0
  0
ARC
  5
C7
100
AcDbEntity
  8
bottom
 62
256
370
-1
  6
ByLayer
100
AcDbCircle
 10
754.4304371311150135
 20
160.0
 30
0.0
 40
10.0
100
AcDbArc
 50
309.559667968994404
 51
90.0
  0
LINE
  5
C8
100
AcDbEntity
100
AcDbLine
  8
bottom
 62
256
370
-1
  6
ByLayer
 10
760.7992516010779127
 20
152.290382483729104
 30
0.0
 11
721.3688144699628992
 21
119.7174126797645215
 31
0.0
  0
LINE
  5
C9
100
AcDbEntity
100
AcDbLine
  8
bottom
 62
256
370
-1
  6
ByLayer
 10
708.6311855300371008
 20
119.7174126797645215
 30
0.0
 11
669.2007483989220873
 21
152.290382483729104
 31
0.0
  0
ARC
  5
CA
100
AcDbEntity
  8
bottom
 62
256
370
-1
  6
ByLayer
100
AcDbCircle
 10
715.0
 20
127.4270301960354175
 30
0.0
 40
10.0
100
AcDbArc
 50
230.4403320310055676
 51
309.559667968994404
  0
ARC
  5
CB
100
AcDbEntity
  8
bottom
 62
256
370
-1
  6
ByLayer
100
AcDbCircle
 10
800.0
 20
132.7903611083124247
 30
0.0
 40
10.0
100
AcDbArc
 50
0.0
 51
129.5596679689944324
  0
LINE
  5
CC
100
AcDbEntity
100
AcDbLine
  8
bottom
 62
256
370
-1
  6
ByLayer
 10
810.0
 20
57.2096388916875753
 30
0.0
 11
810.0
 21
132.7903611083124247
 31
0.0
  0
ARC
  5
CD
100
AcDbEntity
  8
bottom
 62
256
370
-1
  6
ByLayer
100
AcDbCircle
 10
800.0
 20
57.2096388916875753
 30
0.0
 40
10.0
100
AcDbArc
 50
230.4403320310055676
 51
0.0
  0
LINE
  5
CE
100
AcDbEntity
100
AcDbLine
  8
bottom
 62
256
370
-1
  6
ByLayer
 10
747.8849589252379246
 20
87.2903824837290756
 30
0.0
 11
793.6311855300371008
 21
49.5000213754166865
 31
0.0
  0
LINE
  5
CF
100
AcDbEntity
100
AcDbLine
  8
bottom
 62
256
370
-1
  6
ByLayer
 10
793.6311855300371008
 20
140.4999786245833207
 30
0.0
 11
747.8849589252379246
 21
102.709617516270896
 31
0.0
  0
ARC
  5
D0
100
AcDbEntity
  8
bottom
 62
256
370
-1
  6
ByLayer
100
AcDbCircle
 10
754.2537733952008239
 20
94.9999999999999858
 30
0.0
 40
10.0
100
AcDbArc
 50
129.559667968994404
 51
230.4403320310055676
  0
ARC
  5
D1
100
AcDbEntity
  8
bottom
 62
256
370
-1
  6
ByLayer
100
AcDbCircle
 10
715.0
 20
62.5729698039645967
 30
0.0
 40
10.0
100
AcDbArc
 50
50.4403320310055747
 51
129.5596679689944324
  0
LINE
  5
D2
100
AcDbEntity
100
AcDbLine
  8
bottom
 62
256
370
-1
  6
ByLayer
 10
669.2007483989220873
 20
37.7096175162709386
 30
0.0
 11
708.6311855300371008
 21
70.2825873202354927
 31
0.0
  0
ARC
  5
D3
100
AcDbEntity
  8
bottom
 62
256
370
-1
  6
ByLayer
100
AcDbCircle
 10
675.5695628688849865
 20
30.0000000000000071
 30
0.0
 40
10.0
100
AcDbArc
 50
129.5596679689942903
 51
270.0
  0
LINE
  5
D4
100
AcDbEntity
100
AcDbLine
  8
bottom
 62
256
370
-1
  6
ByLayer
 10
754.4304371311151272
 20
20.0000000000000071
 30
0.0
 11
675.5695628688849865
 21
20.0000000000000071
 31
0.0
  0
LINE
  5
D5
100
AcDbEntity
100
AcDbLine
  8
bottom
 62
256
370
-1
  6
ByLayer
 10
721.3688144699628992
 20
70.2825873202354927
 30
0.0
 11
760.7992516010780264
 21
37.7096175162708747
 31
0.0
  0
ARC
  5
D6
100
AcDbEntity
  8
bottom
 62
256
370
-1
  6
ByLayer
100
AcDbCircle
 10
754.4304371311151272
 20
30.0000000000000071
 30
0.0
 40
10.0
100
AcDbArc
 50
270.0
 51
50.4403320310054681
  0
ARC
  5
D7
100
AcDbEntity
  8
bottom
 62
256
370
-1
  6
ByLayer
100
AcDbCircle
 10
630.0
 20
57.2096388916875895
 30
0.0
 40
10.0
100
AcDbArc
 50
180.0
 51
309.5596679689944608
  0
LINE
  5
D8
100
AcDbEntity
100
AcDbLine
  8
bottom
 62
256
370
-1
  6
ByLayer
 10
620.0
 20
132.7903611083124247
 30
0.0
 11
620.0
 21
57.2096388916875895
 31
0.0
  0
ARC
  5
D9
100
AcDbEntity
  8
bottom
 62
256
370
-1
  6
ByLayer
100
AcDbCircle
 10
630.0
 20
132.7903611083124247
 30
0.0
 40
10.0
100
AcDbArc
 50
50.4403320310055747
 51
180.0
  0
LINE
  5
DA
100
AcDbEntity
100
AcDbLine
  8
bottom
 62
256
370
-1
  6
ByLayer
 10
682.1150410747620754
 20
102.7096175162709102
 30
0.0
 11
636.3688144699628992
 21
140.4999786245833207
 31
0.0
  0
LINE
  5
DB
100
AcDbEntity
100
AcDbLine
  8
bottom
 62
256
370
-1
  6
ByLayer
 10
636.3688144699628992
 20
49.5000213754167007
 30
0.0
 11
682.1150410747620754
 21
87.290382483729104
 31
0.0
  0
ARC
  5
DC
100
AcDbEntity
  8
bottom
 62
256
370
-1
  6
ByLayer
100
AcDbCircle
 10
675.7462266047991761
 20
95.0000000000000142
 30
0.0
 40
10.0
100
AcDbArc
 50
309.5596679689943471
 51
50.4403320310055747
  0
INSERT
  5
DD
100
AcDbEntity
100
AcDbBlockReference
  8
bottom
 62
256
370
-1
  6
ByLayer
  2
slots
 10
597.5
 20
160.0
 30
0.0
 50
270.0
 44
1.0
 45
1.0
  0
INSERT
  5
DE
100
AcDbEntity
100
AcDbBlockReference
  8
bottom
 62
256
370
-1
  6
ByLayer
  2
slots
 10
832.5
 20
160.0
 30
0.0
 50
270.0
 44
1.0
 45
1.0
  0
INSERT
  5
DF
100
AcDbEntity
100
AcDbBlockReference
  8
bottom
 62
256
370
-1
  6
ByLayer
  2
slots
 10
597.5
 20
30.0
 30
0.0
 50
270.0
 44
1.0
 45
1.0
  0
INSERT
  5
E0
100
AcDbEntity
100
AcDbBlockReference
  8
bottom
 62
256
370
-1
  6
ByLayer
  2
slots
 10
832.5
 20
30.0
 30
0.0
 50
270.0
 44
1.0
 45
1.0
  0
ENDSEC
  0
SECTION
  2
OBJECTS
  0
DICTIONARY
  5
C
100
AcDbDictionary
280
0
281
1
  3
ACAD_GROUP
350
D
  3
ACAD_LAYOUT
350
1A
  3
ACAD_MLINESTYLE
350
17
  3
ACAD_PLOTSETTINGS
350
19
  3
ACAD_PLOTSTYLENAME
350
E
  3
AcDbVariableDictionary
350
E1
  0
DICTIONARY
  5
D
100
AcDbDictionary
280
0
281
1
  0
ACDBDICTIONARYWDFLT
  5
E
100
AcDbDictionary
281
1
  3
Normal
350
F
100
AcDbDictionaryWithDefault
340
F
  0
ACDBPLACEHOLDER
  5
F
  0
DICTIONARY
  5
17
100
AcDbDictionary
280
0
281
1
  3
Standard
350
18
  0
MLINESTYLE
  5
18
100
AcDbMlineStyle
  2
STANDARD
 70
0
  3

 62
256
 51
90.0
 52
90.0
 71
2
 49
0.5
 62
256
  6
BYLAYER
 49
-0.5
 62
256
  6
BYLAYER
  0
DICTIONARY
  5
19
100
AcDbDictionary
280
0
281
1
  0
DICTIONARY
  5
1A
100
AcDbDictionary
281
1
  3
Layout1
350
1E
  3
Layout2
350
26
  3
Model
350
22
  0
LAYOUT
  5
1E
100
AcDbPlotSettings
  1

  2
C:\Program Files\AutoCAD 2002\plotters\DWF ePlot (optimized for plotting).pc3
  4

  6

 40
0.0
 41
0.0
 42
0.0
 43
0.0
 44
0.0
 45
0.0
 46
0.0
 47
0.0
 48
0.0
 49
0.0
140
0.0
141
0.0
142
1.0
143
1.0
 70
688
 72
0
 73
0
 74
5
  7

 75
16
147
1.0
148
0.0
149
0.0
100
AcDbLayout
  1
Layout1
 70
1
 71
1
 10
0.0
 20
0.0
 11
420.0
 21
297.0
 12
0.0
 22
0.0
 32
0.0
 14
100000000000000000000.0
 24
100000000000000000000.0
 34
100000000000000000000.0
 15
-100000000000000000000.0
 25
-100000000000000000000.0
 35
-100000000000000000000.0
146
0.0
 13
0.0
 23
0.0
 33
0.0
 16
1.0
 26
0.0
 36
0.0
 17
0.0
 27
1.0
 37
0.0
 76
0
330
1B
  0
LAYOUT
  5
22
100
AcDbPlotSettings
  1

  2
C:\Program Files\AutoCAD 2002\plotters\DWF ePlot (optimized for plotting).pc3
  4

  6

 40
0.0
 41
0.0
 42
0.0
 43
0.0
 44
0.0
 45
0.0
 46
0.0
 47
0.0
 48
0.0
 49
0.0
140
0.0
141
0.0
142
1.0
143
1.0
 70
1712
 72
0
 73
0
 74
0
  7

 75
0
147
1.0
148
0.0
149
0.0
100
AcDbLayout
  1
Model
 70
1
 71
0
 10
0.0
 20
0.0
 11
12.0
 21
9.0
 12
0.0
 22
0.0
 32
0.0
 14
0.0
 24
0.0
 34
0.0
 15
0.0
 25
0.0
 35
0.0
146
0.0
 13
0.0
 23
0.0
 33
0.0
 16
1.0
 26
0.0
 36
0.0
 17
0.0
 27
1.0
 37
0.0
 76
0
330
1F
  0
LAYOUT
  5
26
100
AcDbPlotSettings
  1

  2
C:\Program Files\AutoCAD 2002\plotters\DWF ePlot (optimized for plotting).pc3
  4

  6

 40
0.0
 41
0.0
 42
0.0
 43
0.0
 44
0.0
 45
0.0
 46
0.0
 47
0.0
 48
0.0
 49
0.0
140
0.0
141
0.0
142
1.0
143
1.0
 70
688
 72
0
 73
0
 74
5
  7

 75
16
147
1.0
148
0.0
149
0.0
100
AcDbLayout
  1
Layout2
 70
1
 71
2
 10
0.0
 20
0.0
 11
12.0
 21
9.0
 12
0.0
 22
0.0
 32
0.0
 14
0.0
 24
0.0
 34
0.0
 15
0.0
 25
0.0
 35
0.0
146
0.0
 13
0.0
 23
0.0
 33
0.0
 16
1.0
 26
0.0
 36
0.0
 17
0.0
 27
1.0
 37
0.0
 76
0
330
23
  0
DICTIONARY
  5
E1
100
AcDbDictionary
281
1
  3
DIMASSOC
350
E3
  3
HIDETEXT
350
E2
  0
DICTIONARYVAR
  5
E2
100
DictionaryVariables
280
0
  1
2
  0
DICTIONARYVAR
  5
E3
100
DictionaryVariables
280
0
  1
1
  0
ENDSEC
  0
EOF
