999
dxflib 2.2.0.0
  0
SECTION
  2
HEADER
  9
$ACADVER
  1
AC1015
  9
$HANDSEED
  5
FFFF
  9
$DIMASZ
 40
2.5
  9
$PLIMMIN
 10
0.0
 20
0.0
  9
$DIMEXE
 40
1.25
  9
$DIMGAP
 40
0.625
  9
$PLIMMAX
 10
210.0
 20
297.0
  9
$INSUNITS
 70
4
  9
$DIMSTYLE
  2
Standard
  9
$CLAYER
  8
pulley_out2
  9
$DIMEXO
 40
0.625
  9
$DIMTXT
 40
2.5
  9
$CLAYER
  8
0
  0
ENDSEC
  0
SECTION
  2
TABLES
  0
TABLE
  2
VPORT
  5
8
100
AcDbSymbolTable
 70
1
  0
VPORT
  5
30
100
AcDbSymbolTableRecord
100
AcDbViewportTableRecord
  2
*Active
 70
0
 10
0.0
 20
0.0
 11
1.0
 21
1.0
 12
286.3055555555554861
 22
148.5
 13
0.0
 23
0.0
 14
10.0
 24
10.0
 15
10.0
 25
10.0
 16
0.0
 26
0.0
 36
1.0
 17
0.0
 27
0.0
 37
0.0
 40
297.0
 41
1.92798353909465
 42
50.0
 43
0.0
 44
0.0
 50
0.0
 51
0.0
 71
0
 72
100
 73
1
 74
3
 75
1
 76
1
 77
0
 78
0
281
0
 65
1
110
0.0
120
0.0
130
0.0
111
1.0
121
0.0
131
0.0
112
0.0
122
1.0
132
0.0
 79
0
146
0.0
  0
ENDTAB
  0
TABLE
  2
LTYPE
  5
5
100
AcDbSymbolTable
 70
21
  0
LTYPE
  5
14
100
AcDbSymbolTableRecord
100
AcDbLinetypeTableRecord
  2
ByBlock
 70
0
  3

 72
65
 73
0
 40
0.0
  0
LTYPE
  5
15
100
AcDbSymbolTableRecord
100
AcDbLinetypeTableRecord
  2
ByLayer
 70
0
  3

 72
65
 73
0
 40
0.0
  0
LTYPE
  5
16
100
AcDbSymbolTableRecord
100
AcDbLinetypeTableRecord
  2
CONTINUOUS
 70
0
  3
Solid line
 72
65
 73
0
 40
0.0
  0
LTYPE
  5
31
100
AcDbSymbolTableRecord
100
AcDbLinetypeTableRecord
  2
DOT
 70
0
  3
Dot . . . . . . . . . . . . . . . . . . . . . .
 72
65
 73
2
 40
6.3499999999999996
 49
0.0
 74
0
 49
-6.3499999999999996
 74
0
  0
LTYPE
  5
32
100
AcDbSymbolTableRecord
100
AcDbLinetypeTableRecord
  2
DOT2
 70
0
  3
Dot (.5x) .....................................
 72
65
 73
2
 40
3.1749999999999998
 49
0.0
 74
0
 49
-3.1749999999999998
 74
0
  0
LTYPE
  5
33
100
AcDbSymbolTableRecord
100
AcDbLinetypeTableRecord
  2
DOTX2
 70
0
  3
Dot (2x) .  .  .  .  .  .  .  .  .  .  .  .  .
 72
65
 73
2
 40
12.6999999999999993
 49
0.0
 74
0
 49
-12.6999999999999993
 74
0
  0
LTYPE
  5
34
100
AcDbSymbolTableRecord
100
AcDbLinetypeTableRecord
  2
DASHED
 70
0
  3
Dashed __ __ __ __ __ __ __ __ __ __ __ __ __ _
 72
65
 73
2
 40
19.0500000000000007
 49
12.6999999999999993
 74
0
 49
-6.3499999999999996
 74
0
  0
LTYPE
  5
35
100
AcDbSymbolTableRecord
100
AcDbLinetypeTableRecord
  2
DASHED2
 70
0
  3
Dashed (.5x) _ _ _ _ _ _ _ _ _ _ _ _ _ _ _ _ _
 72
65
 73
2
 40
9.5250000000000004
 49
6.3499999999999996
 74
0
 49
-3.1749999999999998
 74
0
  0
LTYPE
  5
36
100
AcDbSymbolTableRecord
100
AcDbLinetypeTableRecord
  2
DASHEDX2
 70
0
  3
Dashed (2x) ____  ____  ____  ____  ____  ___
 72
65
 73
2
 40
38.1000000000000014
 49
25.3999999999999986
 74
0
 49
-12.6999999999999993
 74
0
  0
LTYPE
  5
37
100
AcDbSymbolTableRecord
100
AcDbLinetypeTableRecord
  2
DASHDOT
 70
0
  3
Dash dot __ . __ . __ . __ . __ . __ . __ . __
 72
65
 73
4
 40
25.3999999999999986
 49
12.6999999999999993
 74
0
 49
-6.3499999999999996
 74
0
 49
0.0
 74
0
 49
-6.3499999999999996
 74
0
  0
LTYPE
  5
38
100
AcDbSymbolTableRecord
100
AcDbLinetypeTableRecord
  2
DASHDOT2
 70
0
  3
Dash dot (.5x) _._._._._._._._._._._._._._._.
 72
65
 73
4
 40
12.6999999999999993
 49
6.3499999999999996
 74
0
 49
-3.1749999999999998
 74
0
 49
0.0
 74
0
 49
-3.1749999999999998
 74
0
  0
LTYPE
  5
39
100
AcDbSymbolTableRecord
100
AcDbLinetypeTableRecord
  2
DASHDOTX2
 70
0
  3
Dash dot (2x) ____  .  ____  .  ____  .  ___
 72
65
 73
4
 40
50.7999999999999972
 49
25.3999999999999986
 74
0
 49
-12.6999999999999993
 74
0
 49
0.0
 74
0
 49
-12.6999999999999993
 74
0
  0
LTYPE
  5
3A
100
AcDbSymbolTableRecord
100
AcDbLinetypeTableRecord
  2
DIVIDE
 70
0
  3
Divide ____ . . ____ . . ____ . . ____ . . ____
 72
65
 73
6
 40
31.75
 49
12.6999999999999993
 74
0
 49
-6.3499999999999996
 74
0
 49
0.0
 74
0
 49
-6.3499999999999996
 74
0
 49
0.0
 74
0
 49
-6.3499999999999996
 74
0
  0
LTYPE
  5
3B
100
AcDbSymbolTableRecord
100
AcDbLinetypeTableRecord
  2
DIVIDE2
 70
0
  3
Divide (.5x) __..__..__..__..__..__..__..__.._
 72
65
 73
6
 40
15.875
 49
6.3499999999999996
 74
0
 49
-3.1749999999999998
 74
0
 49
0.0
 74
0
 49
-3.1749999999999998
 74
0
 49
0.0
 74
0
 49
-3.1749999999999998
 74
0
  0
LTYPE
  5
3C
100
AcDbSymbolTableRecord
100
AcDbLinetypeTableRecord
  2
DIVIDEX2
 70
0
  3
Divide (2x) ________  .  .  ________  .  .  _
 72
65
 73
6
 40
63.5
 49
25.3999999999999986
 74
0
 49
-12.6999999999999993
 74
0
 49
0.0
 74
0
 49
-12.6999999999999993
 74
0
 49
0.0
 74
0
 49
-12.6999999999999993
 74
0
  0
LTYPE
  5
3D
100
AcDbSymbolTableRecord
100
AcDbLinetypeTableRecord
  2
CENTER
 70
0
  3
Center ____ _ ____ _ ____ _ ____ _ ____ _ ____
 72
65
 73
4
 40
50.7999999999999972
 49
31.75
 74
0
 49
-6.3499999999999996
 74
0
 49
6.3499999999999996
 74
0
 49
-6.3499999999999996
 74
0
  0
LTYPE
  5
3E
100
AcDbSymbolTableRecord
100
AcDbLinetypeTableRecord
  2
CENTER2
 70
0
  3
Center (.5x) ___ _ ___ _ ___ _ ___ _ ___ _ ___
 72
65
 73
4
 40
28.5749999999999993
 49
19.0500000000000007
 74
0
 49
-3.1749999999999998
 74
0
 49
3.1749999999999998
 74
0
 49
-3.1749999999999998
 74
0
  0
LTYPE
  5
3F
100
AcDbSymbolTableRecord
100
AcDbLinetypeTableRecord
  2
CENTERX2
 70
0
  3
Center (2x) ________  __  ________  __  _____
 72
65
 73
4
 40
101.5999999999999943
 49
63.5
 74
0
 49
-12.6999999999999993
 74
0
 49
12.6999999999999993
 74
0
 49
-12.6999999999999993
 74
0
  0
LTYPE
  5
40
100
AcDbSymbolTableRecord
100
AcDbLinetypeTableRecord
  2
BORDER
 70
0
  3
Border __ __ . __ __ . __ __ . __ __ . __ __ .
 72
65
 73
6
 40
44.4500000000000028
 49
12.6999999999999993
 74
0
 49
-6.3499999999999996
 74
0
 49
12.6999999999999993
 74
0
 49
-6.3499999999999996
 74
0
 49
0.0
 74
0
 49
-6.3499999999999996
 74
0
  0
LTYPE
  5
41
100
AcDbSymbolTableRecord
100
AcDbLinetypeTableRecord
  2
BORDER2
 70
0
  3
Border (.5x) __.__.__.__.__.__.__.__.__.__.__.
 72
65
 73
6
 40
22.2250000000000014
 49
6.3499999999999996
 74
0
 49
-3.1749999999999998
 74
0
 49
6.3499999999999996
 74
0
 49
-3.1749999999999998
 74
0
 49
0.0
 74
0
 49
-3.1749999999999998
 74
0
  0
LTYPE
  5
42
100
AcDbSymbolTableRecord
100
AcDbLinetypeTableRecord
  2
BORDERX2
 70
0
  3
Border (2x) ____  ____  .  ____  ____  .  ___
 72
65
 73
6
 40
88.9000000000000057
 49
25.3999999999999986
 74
0
 49
-12.6999999999999993
 74
0
 49
25.3999999999999986
 74
0
 49
-12.6999999999999993
 74
0
 49
0.0
 74
0
 49
-12.6999999999999993
 74
0
  0
ENDTAB
  0
TABLE
  2
LAYER
  5
2
100
AcDbSymbolTable
 70
5
  0
LAYER
  5
10
100
AcDbSymbolTableRecord
100
AcDbLayerTableRecord
  2
0
 70
0
 62
7
420
0
  6
CONTINUOUS
370
25
390
F
  0
LAYER
  5
43
100
AcDbSymbolTableRecord
100
AcDbLayerTableRecord
  2
pulley_inside
 70
0
 62
7
420
0
  6
CONTINUOUS
370
0
390
F
  0
LAYER
  5
44
100
AcDbSymbolTableRecord
100
AcDbLayerTableRecord
  2
pulley_out2
 70
0
 62
7
420
0
  6
CONTINUOUS
370
0
390
F
  0
LAYER
  5
45
100
AcDbSymbolTableRecord
100
AcDbLayerTableRecord
  2
etch
 70
0
 62
1
420
16711680
  6
CONTINUOUS
370
0
390
F
  0
LAYER
  5
46
100
AcDbSymbolTableRecord
100
AcDbLayerTableRecord
  2
etch2
 70
0
 62
1
420
16711680
  6
CONTINUOUS
370
0
390
F
  0
ENDTAB
  0
TABLE
  2
STYLE
  5
3
100
AcDbSymbolTable
 70
1
  0
STYLE
  5
11
100
AcDbSymbolTableRecord
100
AcDbTextStyleTableRecord
  2
Standard
 70
0
 40
0.0
 41
0.75
 50
0.0
 71
0
 42
2.5
  3
txt
  4

  0
ENDTAB
  0
TABLE
  2
VIEW
  5
6
100
AcDbSymbolTable
 70
0
  0
ENDTAB
  0
TABLE
  2
UCS
  5
7
100
AcDbSymbolTable
 70
0
  0
ENDTAB
  0
TABLE
  2
APPID
  5
9
100
AcDbSymbolTable
 70
1
  0
APPID
  5
12
100
AcDbSymbolTableRecord
100
AcDbRegAppTableRecord
  2
ACAD
 70
0
  0
ENDTAB
  0
TABLE
  2
DIMSTYLE
  5
A
100
AcDbSymbolTable
 70
1
100
AcDbDimStyleTable
 71
0
  0
DIMSTYLE
105
27
100
AcDbSymbolTableRecord
100
AcDbDimStyleTableRecord
  2
Standard
 41
2.5
 42
0.625
 43
3.75
 44
1.25
 70
0
 73
0
 74
0
 77
1
 78
8
140
2.5
141
2.5
143
0.03937007874016
147
0.625
171
3
172
1
271
2
272
2
274
3
278
44
283
0
284
8
340
11
  0
ENDTAB
  0
TABLE
  2
BLOCK_RECORD
  5
1
100
AcDbSymbolTable
 70
1
  0
BLOCK_RECORD
  5
1F
100
AcDbSymbolTableRecord
100
AcDbBlockTableRecord
  2
*Model_Space
340
22
  0
BLOCK_RECORD
  5
1B
100
AcDbSymbolTableRecord
100
AcDbBlockTableRecord
  2
*Paper_Space
340
1E
  0
BLOCK_RECORD
  5
23
100
AcDbSymbolTableRecord
100
AcDbBlockTableRecord
  2
*Paper_Space0
340
26
  0
ENDTAB
  0
ENDSEC
  0
SECTION
  2
BLOCKS
  0
BLOCK
  5
20
100
AcDbEntity
  8
0
100
AcDbBlockBegin
  2
*Model_Space
 70
0
 10
0.0
 20
0.0
 30
0.0
  3
*Model_Space
  1

  0
ENDBLK
  5
21
100
AcDbEntity
  8
0
100
AcDbBlockEnd
  0
BLOCK
  5
1C
100
AcDbEntity
 67
1
  8
0
100
AcDbBlockBegin
  2
*Paper_Space
 70
0
 10
0.0
 20
0.0
 30
0.0
  3
*Paper_Space
  1

  0
ENDBLK
  5
1D
100
AcDbEntity
 67
1
  8
0
100
AcDbBlockEnd
  0
BLOCK
  5
24
100
AcDbEntity
  8
0
100
AcDbBlockBegin
  2
*Paper_Space0
 70
0
 10
0.0
 20
0.0
 30
0.0
  3
*Paper_Space0
  1

  0
ENDBLK
  5
25
100
AcDbEntity
  8
0
100
AcDbBlockEnd
  0
ENDSEC
  0
SECTION
  2
ENTITIES
  0
CIRCLE
  5
47
100
AcDbEntity
100
AcDbCircle
  8
pulley_out2
 62
256
370
-1
  6
ByLayer
 10
0.0
 20
0.0
 30
0.0
 40
3.125
  0
CIRCLE
  5
48
100
AcDbEntity
100
AcDbCircle
  8
pulley_out2
 62
256
370
-1
  6
ByLayer
 10
110.0
 20
0.0
 30
0.0
 40
2.5
  0
CIRCLE
  5
49
100
AcDbEntity
100
AcDbCircle
  8
pulley_out2
 62
256
370
-1
  6
ByLayer
 10
0.0
 20
0.0
 30
0.0
 40
118.0
  0
CIRCLE
  5
4A
100
AcDbEntity
100
AcDbCircle
  8
pulley_out2
 62
256
370
-1
  6
ByLayer
 10
70.0
 20
40.0
 30
0.0
 40
20.0
  0
CIRCLE
  5
4B
100
AcDbEntity
100
AcDbCircle
  8
pulley_out2
 62
256
370
-1
  6
ByLayer
 10
70.0
 20
-40.0
 30
0.0
 40
20.0
  0
CIRCLE
  5
4C
100
AcDbEntity
100
AcDbCircle
  8
pulley_out2
 62
256
370
-1
  6
ByLayer
 10
0.0
 20
60.0
 30
0.0
 40
30.0
  0
CIRCLE
  5
4D
100
AcDbEntity
100
AcDbCircle
  8
pulley_out2
 62
256
370
-1
  6
ByLayer
 10
0.0
 20
-60.0
 30
0.0
 40
30.0
  0
CIRCLE
  5
4E
100
AcDbEntity
100
AcDbCircle
  8
pulley_out2
 62
256
370
-1
  6
ByLayer
 10
-70.0
 20
40.0
 30
0.0
 40
20.0
  0
CIRCLE
  5
4F
100
AcDbEntity
100
AcDbCircle
  8
pulley_out2
 62
256
370
-1
  6
ByLayer
 10
-70.0
 20
-40.0
 30
0.0
 40
20.0
  0
ARC
  5
50
100
AcDbEntity
  8
etch2
 62
256
370
-1
  6
ByLayer
100
AcDbCircle
 10
-20.0
 20
0.0
 30
0.0
 40
134.0
100
AcDbArc
 50
324.6168883287105587
 51
35.3831116712894485
  0
ARC
  5
51
100
AcDbEntity
  8
etch2
 62
256
370
-1
  6
ByLayer
100
AcDbCircle
 10
-20.0
 20
0.0
 30
0.0
 40
122.0
100
AcDbArc
 50
286.1819473489355232
 51
73.8180526510645194
  0
ARC
  5
52
100
AcDbEntity
  8
etch2
 62
256
370
-1
  6
ByLayer
100
AcDbCircle
 10
-20.0
 20
0.0
 30
0.0
 40
128.0
100
AcDbArc
 50
303.9586018702697743
 51
56.041398129730176
  0
ARC
  5
53
100
AcDbEntity
  8
etch2
 62
256
370
-1
  6
ByLayer
100
AcDbCircle
 10
20.0
 20
0.0
 30
0.0
 40
128.0
100
AcDbArc
 50
123.9586018702698169
 51
236.0413981297301405
  0
ARC
  5
54
100
AcDbEntity
  8
etch2
 62
256
370
-1
  6
ByLayer
100
AcDbCircle
 10
20.0
 20
0.0
 30
0.0
 40
134.0
100
AcDbArc
 50
144.6168883287105587
 51
215.3831116712894413
  0
ARC
  5
55
100
AcDbEntity
  8
etch2
 62
256
370
-1
  6
ByLayer
100
AcDbCircle
 10
20.0
 20
0.0
 30
0.0
 40
122.0
100
AcDbArc
 50
106.1819473489354948
 51
253.8180526510645052
  0
ARC
  5
56
100
AcDbEntity
  8
etch2
 62
256
370
-1
  6
ByLayer
100
AcDbCircle
 10
20.0
 20
0.0
 30
0.0
 40
116.0
100
AcDbArc
 50
89.1602904128483402
 51
270.839709587151674
  0
ARC
  5
57
100
AcDbEntity
  8
etch2
 62
256
370
-1
  6
ByLayer
100
AcDbCircle
 10
20.0
 20
0.0
 30
0.0
 40
98.0
100
AcDbArc
 50
188.8741322513479588
 51
171.883225186533906
  0
ARC
  5
58
100
AcDbEntity
  8
etch2
 62
256
370
-1
  6
ByLayer
100
AcDbCircle
 10
20.0
 20
0.0
 30
0.0
 40
92.0
100
AcDbArc
 50
189.4580272795581948
 51
171.3499388202838247
  0
ARC
  5
59
100
AcDbEntity
  8
etch2
 62
256
370
-1
  6
ByLayer
100
AcDbCircle
 10
20.0
 20
0.0
 30
0.0
 40
104.0
100
AcDbArc
 50
48.2512503670860511
 51
172.3543876069611542
  0
ARC
  5
5A
100
AcDbEntity
  8
etch2
 62
256
370
-1
  6
ByLayer
100
AcDbCircle
 10
20.0
 20
0.0
 30
0.0
 40
104.0
100
AcDbArc
 50
188.3583850489411589
 51
311.7487496329139844
  0
ARC
  5
5B
100
AcDbEntity
  8
etch2
 62
256
370
-1
  6
ByLayer
100
AcDbCircle
 10
20.0
 20
0.0
 30
0.0
 40
110.0
100
AcDbArc
 50
71.1170200515646656
 51
172.7737118387592545
  0
ARC
  5
5C
100
AcDbEntity
  8
etch2
 62
256
370
-1
  6
ByLayer
100
AcDbCircle
 10
20.0
 20
0.0
 30
0.0
 40
110.0
100
AcDbArc
 50
187.8994763364943594
 51
288.8829799484353202
  0
ARC
  5
5D
100
AcDbEntity
  8
etch2
 62
256
370
-1
  6
ByLayer
100
AcDbCircle
 10
20.0
 20
0.0
 30
0.0
 40
86.0
100
AcDbArc
 50
190.1246102951504326
 51
170.741315734750259
  0
ARC
  5
5E
100
AcDbEntity
  8
etch2
 62
256
370
-1
  6
ByLayer
100
AcDbCircle
 10
-20.0
 20
0.0
 30
0.0
 40
26.0
100
AcDbArc
 50
32.1529868348177459
 51
147.8470131651822612
  0
ARC
  5
5F
100
AcDbEntity
  8
etch2
 62
256
370
-1
  6
ByLayer
100
AcDbCircle
 10
-20.0
 20
0.0
 30
0.0
 40
20.0
100
AcDbArc
 50
43.7756439452898363
 51
136.2243560547101708
  0
ARC
  5
60
100
AcDbEntity
  8
etch2
 62
256
370
-1
  6
ByLayer
100
AcDbCircle
 10
-20.0
 20
0.0
 30
0.0
 40
20.0
100
AcDbArc
 50
224.7650846713283954
 51
310.8963469742094503
  0
ARC
  5
61
100
AcDbEntity
  8
etch2
 62
256
370
-1
  6
ByLayer
100
AcDbCircle
 10
-20.0
 20
0.0
 30
0.0
 40
26.0
100
AcDbArc
 50
215.5531458873964823
 51
324.4468541126034893
  0
ARC
  5
62
100
AcDbEntity
  8
etch2
 62
256
370
-1
  6
ByLayer
100
AcDbCircle
 10
-20.0
 20
0.0
 30
0.0
 40
32.0
100
AcDbArc
 50
208.1924420862714555
 51
331.8075579137285445
  0
ARC
  5
63
100
AcDbEntity
  8
etch2
 62
256
370
-1
  6
ByLayer
100
AcDbCircle
 10
-20.0
 20
0.0
 30
0.0
 40
32.0
100
AcDbArc
 50
25.6198197603866049
 51
154.3801802396133951
  0
ARC
  5
64
100
AcDbEntity
  8
etch2
 62
256
370
-1
  6
ByLayer
100
AcDbCircle
 10
-20.0
 20
0.0
 30
0.0
 40
38.0
100
AcDbArc
 50
203.4431898191238588
 51
336.5568101808761412
  0
ARC
  5
65
100
AcDbEntity
  8
etch2
 62
256
370
-1
  6
ByLayer
100
AcDbCircle
 10
-20.0
 20
0.0
 30
0.0
 40
38.0
100
AcDbArc
 50
21.3537046432158171
 51
158.6462953567842078
  0
ARC
  5
66
100
AcDbEntity
  8
etch2
 62
256
370
-1
  6
ByLayer
100
AcDbCircle
 10
-20.0
 20
0.0
 30
0.0
 40
44.0
100
AcDbArc
 50
200.0956705573385932
 51
339.9043294426614352
  0
ARC
  5
67
100
AcDbEntity
  8
etch2
 62
256
370
-1
  6
ByLayer
100
AcDbCircle
 10
-20.0
 20
0.0
 30
0.0
 40
44.0
100
AcDbArc
 50
18.3288841389546775
 51
161.6711158610453651
  0
ARC
  5
68
100
AcDbEntity
  8
etch2
 62
256
370
-1
  6
ByLayer
100
AcDbCircle
 10
-20.0
 20
0.0
 30
0.0
 40
50.0
100
AcDbArc
 50
197.5992903557984164
 51
342.4007096442015836
  0
ARC
  5
69
100
AcDbEntity
  8
etch2
 62
256
370
-1
  6
ByLayer
100
AcDbCircle
 10
-20.0
 20
0.0
 30
0.0
 40
50.0
100
AcDbArc
 50
16.0654068364628699
 51
163.9345931635371585
  0
ARC
  5
6A
100
AcDbEntity
  8
etch2
 62
256
370
-1
  6
ByLayer
100
AcDbCircle
 10
-20.0
 20
0.0
 30
0.0
 40
56.0
100
AcDbArc
 50
195.6620399045387728
 51
345.4336723516768757
  0
ARC
  5
6B
100
AcDbEntity
  8
etch2
 62
256
370
-1
  6
ByLayer
100
AcDbCircle
 10
-20.0
 20
0.0
 30
0.0
 40
56.0
100
AcDbArc
 50
14.3050483100087806
 51
165.6949516899912282
  0
ARC
  5
6C
100
AcDbEntity
  8
etch2
 62
256
370
-1
  6
ByLayer
100
AcDbCircle
 10
20.0
 20
0.0
 30
0.0
 40
20.0
100
AcDbArc
 50
229.1036530257908623
 51
315.2349153286716046
  0
ARC
  5
6D
100
AcDbEntity
  8
etch2
 62
256
370
-1
  6
ByLayer
100
AcDbCircle
 10
20.0
 20
0.0
 30
0.0
 40
20.0
100
AcDbArc
 50
43.7756439452900352
 51
136.2243560547100287
  0
ARC
  5
6E
100
AcDbEntity
  8
etch2
 62
256
370
-1
  6
ByLayer
100
AcDbCircle
 10
-20.0
 20
0.0
 30
0.0
 40
62.0
100
AcDbArc
 50
194.1131242264796981
 51
345.8868757735203303
  0
ARC
  5
6F
100
AcDbEntity
  8
etch2
 62
256
370
-1
  6
ByLayer
100
AcDbCircle
 10
-20.0
 20
0.0
 30
0.0
 40
62.0
100
AcDbArc
 50
12.8954671377303303
 51
167.1045328622696786
  0
ARC
  5
70
100
AcDbEntity
  8
etch2
 62
256
370
-1
  6
ByLayer
100
AcDbCircle
 10
20.0
 20
0.0
 30
0.0
 40
26.0
100
AcDbArc
 50
215.553145887396596
 51
324.4468541126034324
  0
ARC
  5
71
100
AcDbEntity
  8
etch2
 62
256
370
-1
  6
ByLayer
100
AcDbCircle
 10
20.0
 20
0.0
 30
0.0
 40
26.0
100
AcDbArc
 50
32.1529868348178027
 51
147.8470131651822044
  0
ARC
  5
72
100
AcDbEntity
  8
etch2
 62
256
370
-1
  6
ByLayer
100
AcDbCircle
 10
-20.0
 20
0.0
 30
0.0
 40
68.0
100
AcDbArc
 50
192.8454590542475273
 51
347.1545409457524443
  0
ARC
  5
73
100
AcDbEntity
  8
etch2
 62
256
370
-1
  6
ByLayer
100
AcDbCircle
 10
-20.0
 20
0.0
 30
0.0
 40
68.0
100
AcDbArc
 50
11.7406080887254518
 51
168.2593919112745766
  0
ARC
  5
74
100
AcDbEntity
  8
etch2
 62
256
370
-1
  6
ByLayer
100
AcDbCircle
 10
20.0
 20
0.0
 30
0.0
 40
32.0
100
AcDbArc
 50
208.1924420862715124
 51
331.8075579137284876
  0
ARC
  5
75
100
AcDbEntity
  8
etch2
 62
256
370
-1
  6
ByLayer
100
AcDbCircle
 10
20.0
 20
0.0
 30
0.0
 40
32.0
100
AcDbArc
 50
25.6198197603866653
 51
154.3801802396133667
  0
ARC
  5
76
100
AcDbEntity
  8
etch2
 62
256
370
-1
  6
ByLayer
100
AcDbCircle
 10
-20.0
 20
0.0
 30
0.0
 40
80.0
100
AcDbArc
 50
9.959910651319678
 51
349.1070974192803646
  0
ARC
  5
77
100
AcDbEntity
  8
etch2
 62
256
370
-1
  6
ByLayer
100
AcDbCircle
 10
20.0
 20
0.0
 30
0.0
 40
38.0
100
AcDbArc
 50
203.4431898191238872
 51
336.5568101808760844
  0
ARC
  5
78
100
AcDbEntity
  8
etch2
 62
256
370
-1
  6
ByLayer
100
AcDbCircle
 10
20.0
 20
0.0
 30
0.0
 40
38.0
100
AcDbArc
 50
21.3537046432158171
 51
158.6462953567841794
  0
ARC
  5
79
100
AcDbEntity
  8
etch2
 62
256
370
-1
  6
ByLayer
100
AcDbCircle
 10
20.0
 20
0.0
 30
0.0
 40
44.0
100
AcDbArc
 50
200.0956705573386216
 51
339.9043294426613784
  0
ARC
  5
7A
100
AcDbEntity
  8
etch2
 62
256
370
-1
  6
ByLayer
100
AcDbCircle
 10
20.0
 20
0.0
 30
0.0
 40
44.0
100
AcDbArc
 50
18.3288841389546775
 51
161.6711158610453367
  0
ARC
  5
7B
100
AcDbEntity
  8
etch2
 62
256
370
-1
  6
ByLayer
100
AcDbCircle
 10
-20.0
 20
0.0
 30
0.0
 40
86.0
100
AcDbArc
 50
9.2586842652497481
 51
349.8753897048494537
  0
ARC
  5
7C
100
AcDbEntity
  8
etch2
 62
256
370
-1
  6
ByLayer
100
AcDbCircle
 10
20.0
 20
0.0
 30
0.0
 40
50.0
100
AcDbArc
 50
197.5992903557984448
 51
342.4007096442015836
  0
ARC
  5
7D
100
AcDbEntity
  8
etch2
 62
256
370
-1
  6
ByLayer
100
AcDbCircle
 10
20.0
 20
0.0
 30
0.0
 40
50.0
100
AcDbArc
 50
16.0654068364628699
 51
163.9345931635371301
  0
ARC
  5
7E
100
AcDbEntity
  8
etch2
 62
256
370
-1
  6
ByLayer
100
AcDbCircle
 10
20.0
 20
0.0
 30
0.0
 40
56.0
100
AcDbArc
 50
194.5663276483230959
 51
344.3379600954611988
  0
ARC
  5
7F
100
AcDbEntity
  8
etch2
 62
256
370
-1
  6
ByLayer
100
AcDbCircle
 10
20.0
 20
0.0
 30
0.0
 40
56.0
100
AcDbArc
 50
14.3050483100087806
 51
165.6949516899912282
  0
ARC
  5
80
100
AcDbEntity
  8
etch2
 62
256
370
-1
  6
ByLayer
100
AcDbCircle
 10
-20.0
 20
0.0
 30
0.0
 40
92.0
100
AcDbArc
 50
8.6500611797161771
 51
350.5419727204418336
  0
ARC
  5
81
100
AcDbEntity
  8
etch2
 62
256
370
-1
  6
ByLayer
100
AcDbCircle
 10
-20.0
 20
0.0
 30
0.0
 40
98.0
100
AcDbArc
 50
8.11677481346611
 51
351.1258677486520696
  0
ARC
  5
82
100
AcDbEntity
  8
etch2
 62
256
370
-1
  6
ByLayer
100
AcDbCircle
 10
20.0
 20
0.0
 30
0.0
 40
62.0
100
AcDbArc
 50
194.1131242264796981
 51
345.8868757735203303
  0
ARC
  5
83
100
AcDbEntity
  8
etch2
 62
256
370
-1
  6
ByLayer
100
AcDbCircle
 10
20.0
 20
0.0
 30
0.0
 40
62.0
100
AcDbArc
 50
12.8954671377303303
 51
167.1045328622696786
  0
ARC
  5
84
100
AcDbEntity
  8
etch2
 62
256
370
-1
  6
ByLayer
100
AcDbCircle
 10
-20.0
 20
0.0
 30
0.0
 40
104.0
100
AcDbArc
 50
228.251250367086044
 51
351.6416149510587843
  0
ARC
  5
85
100
AcDbEntity
  8
etch2
 62
256
370
-1
  6
ByLayer
100
AcDbCircle
 10
-20.0
 20
0.0
 30
0.0
 40
104.0
100
AcDbArc
 50
7.6456123930388475
 51
131.748749632913956
  0
ARC
  5
86
100
AcDbEntity
  8
etch2
 62
256
370
-1
  6
ByLayer
100
AcDbCircle
 10
20.0
 20
0.0
 30
0.0
 40
68.0
100
AcDbArc
 50
192.8454590542475273
 51
347.1545409457524443
  0
ARC
  5
87
100
AcDbEntity
  8
etch2
 62
256
370
-1
  6
ByLayer
100
AcDbCircle
 10
20.0
 20
0.0
 30
0.0
 40
68.0
100
AcDbArc
 50
11.7406080887254518
 51
168.2593919112745766
  0
ARC
  5
88
100
AcDbEntity
  8
etch2
 62
256
370
-1
  6
ByLayer
100
AcDbCircle
 10
-20.0
 20
0.0
 30
0.0
 40
110.0
100
AcDbArc
 50
251.1170200515646513
 51
352.100523663505669
  0
ARC
  5
89
100
AcDbEntity
  8
etch2
 62
256
370
-1
  6
ByLayer
100
AcDbCircle
 10
-20.0
 20
0.0
 30
0.0
 40
110.0
100
AcDbArc
 50
7.2262881612407481
 51
108.8829799484353487
  0
ARC
  5
8A
100
AcDbEntity
  8
etch2
 62
256
370
-1
  6
ByLayer
100
AcDbCircle
 10
20.0
 20
0.0
 30
0.0
 40
74.0
100
AcDbArc
 50
191.7882908619495765
 51
348.2117091380504235
  0
ARC
  5
8B
100
AcDbEntity
  8
etch2
 62
256
370
-1
  6
ByLayer
100
AcDbCircle
 10
20.0
 20
0.0
 30
0.0
 40
74.0
100
AcDbArc
 50
10.7767549523420918
 51
169.2232450476579686
  0
ARC
  5
8C
100
AcDbEntity
  8
etch2
 62
256
370
-1
  6
ByLayer
100
AcDbCircle
 10
-20.0
 20
0.0
 30
0.0
 40
116.0
100
AcDbArc
 50
269.160290412848326
 51
352.5115250304666006
  0
ARC
  5
8D
100
AcDbEntity
  8
etch2
 62
256
370
-1
  6
ByLayer
100
AcDbCircle
 10
-20.0
 20
0.0
 30
0.0
 40
116.0
100
AcDbArc
 50
6.8506735067064968
 51
90.839709587151674
  0
ARC
  5
8E
100
AcDbEntity
  8
etch2
 62
256
370
-1
  6
ByLayer
100
AcDbCircle
 10
20.0
 20
0.0
 30
0.0
 40
80.0
100
AcDbArc
 50
190.8929025807196069
 51
349.1070974192803646
  0
ARC
  5
8F
100
AcDbEntity
  8
etch2
 62
256
370
-1
  6
ByLayer
100
AcDbCircle
 10
20.0
 20
0.0
 30
0.0
 40
80.0
100
AcDbArc
 50
9.959910651319678
 51
170.0400893486803113
  0
ARC
  5
90
100
AcDbEntity
  8
etch2
 62
256
370
-1
  6
ByLayer
100
AcDbCircle
 10
-20.0
 20
0.0
 30
0.0
 40
74.0
100
AcDbArc
 50
10.7767549523420563
 51
169.2232450476579686
  0
ARC
  5
91
100
AcDbEntity
  8
etch2
 62
256
370
-1
  6
ByLayer
100
AcDbCircle
 10
-20.0
 20
0.0
 30
0.0
 40
74.0
100
AcDbArc
 50
173.5116408511527197
 51
186.4883591488472803
  0
ARC
  5
92
100
AcDbEntity
  8
etch2
 62
256
370
-1
  6
ByLayer
100
AcDbCircle
 10
-20.0
 20
0.0
 30
0.0
 40
74.0
100
AcDbArc
 50
191.7882908619495481
 51
348.2117091380504803
  0
LINE
  5
93
100
AcDbEntity
100
AcDbLine
  8
pulley_inside
 62
256
370
-1
  6
ByLayer
 10
-263.569500000000005
 20
3.0767395079856863
 30
0.0
 11
-263.569500000000005
 21
-3.0767395079856863
 31
0.0
  0
ARC
  5
94
100
AcDbEntity
  8
pulley_inside
 62
256
370
-1
  6
ByLayer
100
AcDbCircle
 10
-260.0
 20
0.0
 30
0.0
 40
4.7125000000000004
100
AcDbArc
 50
220.7597774370421178
 51
319.2402225629578538
  0
ARC
  5
95
100
AcDbEntity
  8
pulley_inside
 62
256
370
-1
  6
ByLayer
100
AcDbCircle
 10
-260.0
 20
0.0
 30
0.0
 40
4.7125000000000004
100
AcDbArc
 50
40.7597774370421249
 51
139.2402225629578822
  0
LINE
  5
96
100
AcDbEntity
100
AcDbLine
  8
pulley_inside
 62
256
370
-1
  6
ByLayer
 10
-256.430499999999995
 20
3.0767395079856863
 30
0.0
 11
-256.430499999999995
 21
-3.0767395079856863
 31
0.0
  0
LINE
  5
97
100
AcDbEntity
100
AcDbLine
  8
pulley_inside
 62
256
370
-1
  6
ByLayer
 10
-260.0
 20
25.0
 30
0.0
 11
-190.0
 21
25.0
 31
0.0
  0
LINE
  5
98
100
AcDbEntity
100
AcDbLine
  8
pulley_inside
 62
256
370
-1
  6
ByLayer
 10
-179.375
 20
22.6298337377895926
 30
0.0
 11
-146.5999999999999943
 21
7.2415467960926696
 31
0.0
  0
LINE
  5
99
100
AcDbEntity
100
AcDbLine
  8
pulley_inside
 62
256
370
-1
  6
ByLayer
 10
-146.6000000000000227
 20
-7.2415467960926696
 30
0.0
 11
-179.375
 21
-22.6298337377895926
 31
0.0
  0
LINE
  5
9A
100
AcDbEntity
100
AcDbLine
  8
pulley_inside
 62
256
370
-1
  6
ByLayer
 10
-190.0
 20
-25.0
 30
0.0
 11
-260.0
 21
-25.0
 31
0.0
  0
ARC
  5
9B
100
AcDbEntity
  8
pulley_inside
 62
256
370
-1
  6
ByLayer
100
AcDbCircle
 10
-260.0
 20
0.0
 30
0.0
 40
25.0
100
AcDbArc
 50
90.0
 51
270.0
  0
ARC
  5
9C
100
AcDbEntity
  8
pulley_inside
 62
256
370
-1
  6
ByLayer
100
AcDbCircle
 10
-190.0
 20
0.0
 30
0.0
 40
25.0
100
AcDbArc
 50
270.0
 51
295.150663412543679
  0
ARC
  5
9D
100
AcDbEntity
  8
pulley_inside
 62
256
370
-1
  6
ByLayer
100
AcDbCircle
 10
-190.0
 20
0.0
 30
0.0
 40
25.0
100
AcDbArc
 50
64.8493365874562926
 51
90.0
  0
ARC
  5
9E
100
AcDbEntity
  8
pulley_inside
 62
256
370
-1
  6
ByLayer
100
AcDbCircle
 10
-150.0
 20
0.0
 30
0.0
 40
8.0
100
AcDbArc
 50
295.1506634125437358
 51
64.8493365874562642
  0
CIRCLE
  5
9F
100
AcDbEntity
100
AcDbCircle
  8
pulley_inside
 62
256
370
-1
  6
ByLayer
 10
-150.0
 20
0.0
 30
0.0
 40
2.5
  0
CIRCLE
  5
A0
100
AcDbEntity
100
AcDbCircle
  8
pulley_inside
 62
256
370
-1
  6
ByLayer
 10
-240.0
 20
10.0
 30
0.0
 40
1.0
  0
CIRCLE
  5
A1
100
AcDbEntity
100
AcDbCircle
  8
pulley_inside
 62
256
370
-1
  6
ByLayer
 10
-230.0
 20
-10.0
 30
0.0
 40
1.0
  0
CIRCLE
  5
A2
100
AcDbEntity
100
AcDbCircle
  8
pulley_inside
 62
256
370
-1
  6
ByLayer
 10
-210.0
 20
10.0
 30
0.0
 40
1.0
  0
CIRCLE
  5
A3
100
AcDbEntity
100
AcDbCircle
  8
pulley_inside
 62
256
370
-1
  6
ByLayer
 10
-200.0
 20
-10.0
 30
0.0
 40
1.0
  0
CIRCLE
  5
A4
100
AcDbEntity
100
AcDbCircle
  8
pulley_inside
 62
256
370
-1
  6
ByLayer
 10
-180.0
 20
10.0
 30
0.0
 40
1.0
  0
CIRCLE
  5
A5
100
AcDbEntity
100
AcDbCircle
  8
pulley_inside
 62
256
370
-1
  6
ByLayer
 10
-170.0
 20
-10.0
 30
0.0
 40
1.0
  0
CIRCLE
  5
A6
100
AcDbEntity
100
AcDbCircle
  8
pulley_inside
 62
256
370
-1
  6
ByLayer
 10
-250.0
 20
-10.0
 30
0.0
 40
1.0
  0
CIRCLE
  5
A7
100
AcDbEntity
100
AcDbCircle
  8
pulley_inside
 62
256
370
-1
  6
ByLayer
 10
-270.0
 20
10.0
 30
0.0
 40
1.0
  0
CIRCLE
  5
A8
100
AcDbEntity
100
AcDbCircle
  8
pulley_inside
 62
256
370
-1
  6
ByLayer
 10
-270.0
 20
-10.0
 30
0.0
 40
1.0
  0
LINE
  5
A9
100
AcDbEntity
100
AcDbLine
  8
etch
 62
256
370
-1
  6
ByLayer
 10
-83.3102270149254736
 20
7.5999999999999615
 30
0.0
 11
-81.976893681592145
 21
7.5999999999999615
 31
0.0
  0
LINE
  5
AA
100
AcDbEntity
100
AcDbLine
  8
etch
 62
256
370
-1
  6
ByLayer
 10
-80.6435603482588022
 20
7.5999999999999615
 30
0.0
 11
-79.3102270149254736
 21
7.5999999999999615
 31
0.0
  0
LINE
  5
AB
100
AcDbEntity
100
AcDbLine
  8
etch
 62
256
370
-1
  6
ByLayer
 10
-83.3102270149254736
 20
11.5999999999999623
 30
0.0
 11
-81.976893681592145
 21
11.5999999999999623
 31
0.0
  0
LINE
  5
AC
100
AcDbEntity
100
AcDbLine
  8
etch
 62
256
370
-1
  6
ByLayer
 10
-80.6435603482588022
 20
11.5999999999999623
 30
0.0
 11
-79.3102270149254736
 21
11.5999999999999623
 31
0.0
  0
LINE
  5
AD
100
AcDbEntity
100
AcDbLine
  8
etch
 62
256
370
-1
  6
ByLayer
 10
-82.8657825704810307
 20
7.5999999999999615
 30
0.0
 11
-82.8657825704810307
 21
11.5999999999999623
 31
0.0
  0
LINE
  5
AE
100
AcDbEntity
100
AcDbLine
  8
etch
 62
256
370
-1
  6
ByLayer
 10
-79.7546714593699164
 20
11.5999999999999623
 30
0.0
 11
-79.7546714593699164
 21
7.5999999999999615
 31
0.0
  0
LINE
  5
AF
100
AcDbEntity
100
AcDbLine
  8
etch
 62
256
370
-1
  6
ByLayer
 10
-82.8657825704810307
 20
11.5999999999999623
 30
0.0
 11
-81.3102270149254736
 21
8.8222222222221838
 31
0.0
  0
LINE
  5
B0
100
AcDbEntity
100
AcDbLine
  8
etch
 62
256
370
-1
  6
ByLayer
 10
-81.3102270149254736
 20
8.8222222222221838
 30
0.0
 11
-79.7546714593699164
 21
11.5999999999999623
 31
0.0
  0
LINE
  5
B1
100
AcDbEntity
100
AcDbLine
  8
etch
 62
256
370
-1
  6
ByLayer
 10
-74.1991159038143735
 20
7.5999999999999615
 30
0.0
 11
-75.0880047927032592
 21
7.5999999999999615
 31
0.0
  0
ARC
  5
B2
100
AcDbEntity
  8
etch
 62
256
370
-1
  6
ByLayer
100
AcDbCircle
 10
-76.808164792703252
 20
8.4872844444444056
 30
0.0
 40
0.8888888888888888
100
AcDbArc
 50
99.5002999999999957
 51
263.4209999999999923
  0
ARC
  5
B3
100
AcDbEntity
  8
etch
 62
256
370
-1
  6
ByLayer
100
AcDbCircle
 10
-76.2457736815921407
 20
5.1264488888888495
 30
0.0
 40
4.2963022222222218
100
AcDbArc
 50
74.3666000000000054
 51
99.5002000000000066
  0
ARC
  5
B4
100
AcDbEntity
  8
etch
 62
256
370
-1
  6
ByLayer
100
AcDbCircle
 10
-76.6575559038143695
 20
9.7936311111110719
 30
0.0
 40
2.2034933333333333
100
AcDbArc
 50
263.4209999999999923
 51
315.4220000000000255
  0
ARC
  5
B5
100
AcDbEntity
  8
etch
 62
256
370
-1
  6
ByLayer
100
AcDbCircle
 10
-75.976893681592145
 20
9.6393155555555161
 30
0.0
 40
0.8888888888888888
100
AcDbArc
 50
0.0
 51
90.0
  0
ARC
  5
B6
100
AcDbEntity
  8
etch
 62
256
370
-1
  6
ByLayer
100
AcDbCircle
 10
-75.976893681592145
 20
8.4794177777777389
 30
0.0
 40
2.0487866666666665
100
AcDbArc
 50
90.0
 51
130.6009999999999991
  0
LINE
  5
B7
100
AcDbEntity
100
AcDbLine
  8
etch
 62
256
370
-1
  6
ByLayer
 10
-75.0880047927032592
 20
9.6393155555555161
 30
0.0
 11
-75.0880047927032592
 21
7.5999999999999615
 31
0.0
  0
LINE
  5
B8
100
AcDbEntity
100
AcDbLine
  8
etch
 62
256
370
-1
  6
ByLayer
 10
-69.0880047927032592
 20
7.6000000000000361
 30
0.0
 11
-69.976893681592145
 21
7.6000000000000361
 31
0.0
  0
LINE
  5
B9
100
AcDbEntity
100
AcDbLine
  8
etch
 62
256
370
-1
  6
ByLayer
 10
-69.976893681592145
 20
7.6000000000000361
 30
0.0
 11
-69.976893681592145
 21
11.6000000000000369
 31
0.0
  0
ARC
  5
BA
100
AcDbEntity
  8
etch
 62
256
370
-1
  6
ByLayer
100
AcDbCircle
 10
-71.3102270149254736
 20
8.9333333333333691
 30
0.0
 40
1.3333333333333333
100
AcDbArc
 50
0.0
 51
180.0
  0
ARC
  5
BB
100
AcDbEntity
  8
etch
 62
256
370
-1
  6
ByLayer
100
AcDbCircle
 10
-71.3102270149254736
 20
8.9333333333333691
 30
0.0
 40
1.3333333333333333
100
AcDbArc
 50
180.0
 51
0.0
  0
LINE
  5
BC
100
AcDbEntity
100
AcDbLine
  8
etch
 62
256
370
-1
  6
ByLayer
 10
-69.976893681592145
 20
11.6000000000000369
 30
0.0
 11
-70.8657825704810307
 21
11.6000000000000369
 31
0.0
  0
LINE
  5
BD
100
AcDbEntity
100
AcDbLine
  8
etch
 62
256
370
-1
  6
ByLayer
 10
-63.9768936815921379
 20
7.5999999999999401
 30
0.0
 11
-64.8657825704810307
 21
7.5999999999999401
 31
0.0
  0
ARC
  5
BE
100
AcDbEntity
  8
etch
 62
256
370
-1
  6
ByLayer
100
AcDbCircle
 10
-66.5859425704810235
 20
8.4872844444443842
 30
0.0
 40
0.8888888888888888
100
AcDbArc
 50
99.5002999999999957
 51
263.4209999999999923
  0
ARC
  5
BF
100
AcDbEntity
  8
etch
 62
256
370
-1
  6
ByLayer
100
AcDbCircle
 10
-66.0235514593699122
 20
5.1264488888888282
 30
0.0
 40
4.2963022222222218
100
AcDbArc
 50
74.3666000000000054
 51
99.5002000000000066
  0
ARC
  5
C0
100
AcDbEntity
  8
etch
 62
256
370
-1
  6
ByLayer
100
AcDbCircle
 10
-66.4353336815921409
 20
9.7936311111110506
 30
0.0
 40
2.2034933333333333
100
AcDbArc
 50
263.4209999999999923
 51
315.4220000000000255
  0
ARC
  5
C1
100
AcDbEntity
  8
etch
 62
256
370
-1
  6
ByLayer
100
AcDbCircle
 10
-65.7546714593699164
 20
9.6393155555554948
 30
0.0
 40
0.8888888888888888
100
AcDbArc
 50
0.0
 51
90.0
  0
ARC
  5
C2
100
AcDbEntity
  8
etch
 62
256
370
-1
  6
ByLayer
100
AcDbCircle
 10
-65.7546714593699164
 20
8.4794177777777175
 30
0.0
 40
2.0487866666666665
100
AcDbArc
 50
90.0
 51
130.6009999999999991
  0
LINE
  5
C3
100
AcDbEntity
100
AcDbLine
  8
etch
 62
256
370
-1
  6
ByLayer
 10
-64.8657825704810307
 20
9.6393155555554948
 30
0.0
 11
-64.8657825704810307
 21
7.5999999999999401
 31
0.0
  0
LINE
  5
C4
100
AcDbEntity
100
AcDbLine
  8
etch
 62
256
370
-1
  6
ByLayer
 10
-61.3102270149254807
 20
7.5999999999999899
 30
0.0
 11
-62.6435603482588164
 21
7.5999999999999899
 31
0.0
  0
LINE
  5
C5
100
AcDbEntity
100
AcDbLine
  8
etch
 62
256
370
-1
  6
ByLayer
 10
-62.6435603482588164
 20
10.2666666666666568
 30
0.0
 11
-61.9768936815921521
 21
10.2666666666666568
 31
0.0
  0
LINE
  5
C6
100
AcDbEntity
100
AcDbLine
  8
etch
 62
256
370
-1
  6
ByLayer
 10
-61.9768936815921521
 20
10.2666666666666568
 30
0.0
 11
-61.9768936815921521
 21
7.5999999999999899
 31
0.0
  0
LINE
  5
C7
100
AcDbEntity
100
AcDbLine
  8
etch
 62
256
370
-1
  6
ByLayer
 10
-60.6435603482588164
 20
7.5999999999999899
 30
0.0
 11
-60.6435603482588164
 21
9.8222222222222122
 31
0.0
  0
LINE
  5
C8
100
AcDbEntity
100
AcDbLine
  8
etch
 62
256
370
-1
  6
ByLayer
 10
-59.3102270149254807
 20
9.8222222222222122
 30
0.0
 11
-59.3102270149254807
 21
7.5999999999999899
 31
0.0
  0
LINE
  5
C9
100
AcDbEntity
100
AcDbLine
  8
etch
 62
256
370
-1
  6
ByLayer
 10
-59.9768936815921521
 20
7.5999999999999899
 30
0.0
 11
-60.6435603482588164
 21
7.5999999999999899
 31
0.0
  0
LINE
  5
CA
100
AcDbEntity
100
AcDbLine
  8
etch
 62
256
370
-1
  6
ByLayer
 10
-58.6435603482588164
 20
7.5999999999999899
 30
0.0
 11
-59.3102270149254807
 21
7.5999999999999899
 31
0.0
  0
LINE
  5
CB
100
AcDbEntity
100
AcDbLine
  8
etch
 62
256
370
-1
  6
ByLayer
 10
-60.6435603482588164
 20
9.6257999999999893
 30
0.0
 11
-60.0502447927032605
 21
10.1541422222222124
 31
0.0
  0
LINE
  5
CC
100
AcDbEntity
100
AcDbLine
  8
etch
 62
256
370
-1
  6
ByLayer
 10
-61.9768936815921521
 20
9.6257999999999893
 30
0.0
 11
-61.3835781260365962
 21
10.1541422222222124
 31
0.0
  0
ARC
  5
CD
100
AcDbEntity
  8
etch
 62
256
370
-1
  6
ByLayer
100
AcDbCircle
 10
-61.0880047927032592
 20
9.8222222222222122
 30
0.0
 40
0.4444444444444444
100
AcDbArc
 50
0.0
 51
131.6870000000000118
  0
ARC
  5
CE
100
AcDbEntity
  8
etch
 62
256
370
-1
  6
ByLayer
100
AcDbCircle
 10
-59.7546714593699306
 20
9.8222222222222122
 30
0.0
 40
0.4444444444444444
100
AcDbArc
 50
0.0
 51
131.6870000000000118
  0
LINE
  5
CF
100
AcDbEntity
100
AcDbLine
  8
etch
 62
256
370
-1
  6
ByLayer
 10
-56.6435603482588164
 20
8.9333333333333727
 30
0.0
 11
-53.976893681592145
 21
8.9333333333333727
 31
0.0
  0
LINE
  5
D0
100
AcDbEntity
100
AcDbLine
  8
etch
 62
256
370
-1
  6
ByLayer
 10
-53.976893681592145
 20
8.0444444444444834
 30
0.0
 11
-54.7974225704810394
 21
7.7025644444444854
 31
0.0
  0
ARC
  5
D1
100
AcDbEntity
  8
etch
 62
256
370
-1
  6
ByLayer
100
AcDbCircle
 10
-55.3102270149254807
 20
8.9333333333333727
 30
0.0
 40
1.3333333333333333
100
AcDbArc
 50
0.0
 51
292.6200000000000045
  0
LINE
  5
D2
100
AcDbEntity
100
AcDbLine
  8
etch
 62
256
370
-1
  6
ByLayer
 10
-49.1991159038143664
 20
7.6000000000000218
 30
0.0
 11
-49.1991159038143664
 21
8.9333333333333549
 31
0.0
  0
ARC
  5
D3
100
AcDbEntity
  8
etch
 62
256
370
-1
  6
ByLayer
100
AcDbCircle
 10
-48.1991159038143664
 20
10.6000000000000227
 30
0.0
 40
1.0
100
AcDbArc
 50
90.0
 51
270.0
  0
LINE
  5
D4
100
AcDbEntity
100
AcDbLine
  8
etch
 62
256
370
-1
  6
ByLayer
 10
-46.0880047927032521
 20
11.6000000000000227
 30
0.0
 11
-46.0880047927032521
 21
10.2666666666666888
 31
0.0
  0
ARC
  5
D5
100
AcDbEntity
  8
etch
 62
256
370
-1
  6
ByLayer
100
AcDbCircle
 10
-47.0880047927032521
 20
8.6000000000000227
 30
0.0
 40
1.0
100
AcDbArc
 50
270.0
 51
90.0
  0
LINE
  5
D6
100
AcDbEntity
100
AcDbLine
  8
etch
 62
256
370
-1
  6
ByLayer
 10
-48.1991159038143664
 20
9.6000000000000227
 30
0.0
 11
-47.0880047927032521
 21
9.6000000000000227
 31
0.0
  0
ARC
  5
D7
100
AcDbEntity
  8
etch
 62
256
370
-1
  6
ByLayer
100
AcDbCircle
 10
-46.976893681592145
 20
10.7111111111111335
 30
0.0
 40
0.8888888888888888
100
AcDbArc
 50
0.0
 51
90.0
  0
ARC
  5
D8
100
AcDbEntity
  8
etch
 62
256
370
-1
  6
ByLayer
100
AcDbCircle
 10
-48.3102270149254736
 20
8.488888888888912
 30
0.0
 40
0.8888888888888888
100
AcDbArc
 50
180.0
 51
270.0
  0
LINE
  5
D9
100
AcDbEntity
100
AcDbLine
  8
etch
 62
256
370
-1
  6
ByLayer
 10
-48.3102270149254736
 20
7.6000000000000218
 30
0.0
 11
-47.0880047927032521
 21
7.6000000000000218
 31
0.0
  0
LINE
  5
DA
100
AcDbEntity
100
AcDbLine
  8
etch
 62
256
370
-1
  6
ByLayer
 10
-46.976893681592145
 20
11.6000000000000227
 30
0.0
 11
-48.1991159038143664
 21
11.6000000000000227
 31
0.0
  0
ARC
  5
DB
100
AcDbEntity
  8
etch
 62
256
370
-1
  6
ByLayer
100
AcDbCircle
 10
-42.7546714593699235
 20
8.9333333333333211
 30
0.0
 40
1.3333333333333333
100
AcDbArc
 50
0.0
 51
180.0
  0
ARC
  5
DC
100
AcDbEntity
  8
etch
 62
256
370
-1
  6
ByLayer
100
AcDbCircle
 10
-42.7546714593699235
 20
8.9333333333333211
 30
0.0
 40
1.3333333333333333
100
AcDbArc
 50
180.0
 51
0.0
  0
LINE
  5
DD
100
AcDbEntity
100
AcDbLine
  8
etch
 62
256
370
-1
  6
ByLayer
 10
-36.7546714593699235
 20
10.266666666666687
 30
0.0
 11
-36.7546714593699235
 21
9.3777777777778013
 31
0.0
  0
ARC
  5
DE
100
AcDbEntity
  8
etch
 62
256
370
-1
  6
ByLayer
100
AcDbCircle
 10
-38.2532047927032579
 20
7.9048631111111343
 30
0.0
 40
2.4334888888888888
100
AcDbArc
 50
51.9902000000000015
 51
107.4549999999999983
  0
LINE
  5
DF
100
AcDbEntity
100
AcDbLine
  8
etch
 62
256
370
-1
  6
ByLayer
 10
-37.4213381260365949
 20
8.9333333333333567
 30
0.0
 11
-38.7546714593699235
 21
8.9333333333333567
 31
0.0
  0
ARC
  5
E0
100
AcDbEntity
  8
etch
 62
256
370
-1
  6
ByLayer
100
AcDbCircle
 10
-38.7546714593699235
 20
9.6000000000000227
 30
0.0
 40
0.6666666666666666
100
AcDbArc
 50
110.6659999999999968
 51
270.0
  0
ARC
  5
E1
100
AcDbEntity
  8
etch
 62
256
370
-1
  6
ByLayer
100
AcDbCircle
 10
-37.9228047927032605
 20
9.9618000000000215
 30
0.0
 40
2.4334888888888888
100
AcDbArc
 50
231.9900000000000091
 51
287.4549999999999841
  0
ARC
  5
E2
100
AcDbEntity
  8
etch
 62
256
370
-1
  6
ByLayer
100
AcDbCircle
 10
-37.4213381260365949
 20
8.266666666666687
 30
0.0
 40
0.6666666666666666
100
AcDbArc
 50
290.6659999999999968
 51
90.0
  0
LINE
  5
E3
100
AcDbEntity
100
AcDbLine
  8
etch
 62
256
370
-1
  6
ByLayer
 10
-39.4213381260365949
 20
7.6000000000000227
 30
0.0
 11
-39.4213381260365949
 21
8.488888888888912
 31
0.0
  0
ARC
  5
E4
100
AcDbEntity
  8
etch
 62
256
370
-1
  6
ByLayer
100
AcDbCircle
 10
-33.4213381260365878
 20
8.9333333333333407
 30
0.0
 40
1.3333333333333333
100
AcDbArc
 50
0.0
 51
180.0
  0
ARC
  5
E5
100
AcDbEntity
  8
etch
 62
256
370
-1
  6
ByLayer
100
AcDbCircle
 10
-33.4213381260365878
 20
8.9333333333333407
 30
0.0
 40
1.3333333333333333
100
AcDbArc
 50
180.0
 51
0.0
  0
LINE
  5
E6
100
AcDbEntity
100
AcDbLine
  8
etch
 62
256
370
-1
  6
ByLayer
 10
-27.4213381260365914
 20
10.2666666666666622
 30
0.0
 11
-27.4213381260365914
 21
9.3777777777777764
 31
0.0
  0
ARC
  5
E7
100
AcDbEntity
  8
etch
 62
256
370
-1
  6
ByLayer
100
AcDbCircle
 10
-28.9198714593699222
 20
7.9048631111111094
 30
0.0
 40
2.4334888888888888
100
AcDbArc
 50
51.9902000000000015
 51
107.4549999999999983
  0
LINE
  5
E8
100
AcDbEntity
100
AcDbLine
  8
etch
 62
256
370
-1
  6
ByLayer
 10
-28.0880047927032557
 20
8.9333333333333318
 30
0.0
 11
-29.4213381260365914
 21
8.9333333333333318
 31
0.0
  0
ARC
  5
E9
100
AcDbEntity
  8
etch
 62
256
370
-1
  6
ByLayer
100
AcDbCircle
 10
-29.4213381260365914
 20
9.5999999999999979
 30
0.0
 40
0.6666666666666666
100
AcDbArc
 50
110.6659999999999968
 51
270.0
  0
ARC
  5
EA
100
AcDbEntity
  8
etch
 62
256
370
-1
  6
ByLayer
100
AcDbCircle
 10
-28.5894714593699248
 20
9.9617999999999967
 30
0.0
 40
2.4334888888888888
100
AcDbArc
 50
231.9900000000000091
 51
287.4549999999999841
  0
ARC
  5
EB
100
AcDbEntity
  8
etch
 62
256
370
-1
  6
ByLayer
100
AcDbCircle
 10
-28.0880047927032557
 20
8.2666666666666639
 30
0.0
 40
0.6666666666666666
100
AcDbArc
 50
290.6659999999999968
 51
90.0
  0
LINE
  5
EC
100
AcDbEntity
100
AcDbLine
  8
etch
 62
256
370
-1
  6
ByLayer
 10
-30.0880047927032557
 20
7.5999999999999979
 30
0.0
 11
-30.0880047927032557
 21
8.4888888888888872
 31
0.0
  0
LINE
  5
ED
100
AcDbEntity
100
AcDbLine
  8
etch
 62
256
370
-1
  6
ByLayer
 10
-25.4213381260365878
 20
10.2666666666666817
 30
0.0
 11
-23.1991159038143664
 21
10.2666666666666817
 31
0.0
  0
LINE
  5
EE
100
AcDbEntity
100
AcDbLine
  8
etch
 62
256
370
-1
  6
ByLayer
 10
-24.976893681592145
 20
11.1555555555555692
 30
0.0
 11
-24.976893681592145
 21
8.4888888888889049
 31
0.0
  0
ARC
  5
EF
100
AcDbEntity
  8
etch
 62
256
370
-1
  6
ByLayer
100
AcDbCircle
 10
-24.0880047927032557
 20
8.4888888888889049
 30
0.0
 40
0.8888888888888888
100
AcDbArc
 50
180.0
 51
290.7970000000000255
  0
LINE
  5
F0
100
AcDbEntity
100
AcDbLine
  8
etch
 62
256
370
-1
  6
ByLayer
 10
-22.7546714593699235
 20
8.0444444444444621
 30
0.0
 11
-23.7724136815921447
 21
7.6579128888889008
 31
0.0
  0
LINE
  5
F1
100
AcDbEntity
100
AcDbLine
  8
etch
 62
256
370
-1
  6
ByLayer
 10
-20.3102270149254807
 20
10.2666666666666746
 30
0.0
 11
-20.3102270149254807
 21
7.6000000000000085
 31
0.0
  0
LINE
  5
F2
100
AcDbEntity
100
AcDbLine
  8
etch
 62
256
370
-1
  6
ByLayer
 10
-20.9768936815921485
 20
10.2666666666666746
 30
0.0
 11
-20.3102270149254807
 21
10.2666666666666746
 31
0.0
  0
LINE
  5
F3
100
AcDbEntity
100
AcDbLine
  8
etch
 62
256
370
-1
  6
ByLayer
 10
-20.3102270149254807
 20
9.2516622222222296
 30
0.0
 11
-19.4972403482588135
 21
9.9820755555555643
 31
0.0
  0
ARC
  5
F4
100
AcDbEntity
  8
etch
 62
256
370
-1
  6
ByLayer
100
AcDbCircle
 10
-18.7546714593699235
 20
9.1555555555555639
 30
0.0
 40
1.1111111111111112
100
AcDbArc
 50
42.1231999999999971
 51
131.9379999999999882
  0
LINE
  5
F5
100
AcDbEntity
100
AcDbLine
  8
etch
 62
256
370
-1
  6
ByLayer
 10
-20.9768936815921485
 20
7.6000000000000085
 30
0.0
 11
-18.7546714593699235
 21
7.6000000000000085
 31
0.0
  0
LINE
  5
F6
100
AcDbEntity
100
AcDbLine
  8
etch
 62
256
370
-1
  6
ByLayer
 10
-13.2638888888888893
 20
7.6000000000000059
 30
0.0
 11
-15.9305555555555554
 21
7.6000000000000059
 31
0.0
  0
LINE
  5
F7
100
AcDbEntity
100
AcDbLine
  8
etch
 62
256
370
-1
  6
ByLayer
 10
-14.5972222222222214
 20
7.6000000000000059
 30
0.0
 11
-14.5972222222222214
 21
10.2666666666666728
 31
0.0
  0
LINE
  5
F8
100
AcDbEntity
100
AcDbLine
  8
etch
 62
256
370
-1
  6
ByLayer
 10
-14.5972222222222214
 20
10.2666666666666728
 30
0.0
 11
-15.4861111111111107
 21
10.2666666666666728
 31
0.0
  0
LINE
  5
F9
100
AcDbEntity
100
AcDbLine
  8
etch
 62
256
370
-1
  6
ByLayer
 10
-14.5972222222222214
 20
11.1555555555555603
 30
0.0
 11
-14.5972222222222214
 21
11.600000000000005
 31
0.0
  0
LINE
  5
FA
100
AcDbEntity
100
AcDbLine
  8
etch
 62
256
370
-1
  6
ByLayer
 10
-8.5972222222222214
 20
10.2666666666666693
 30
0.0
 11
-8.5972222222222214
 21
9.37777777777778
 31
0.0
  0
ARC
  5
FB
100
AcDbEntity
  8
etch
 62
256
370
-1
  6
ByLayer
100
AcDbCircle
 10
-10.0957555555555558
 20
7.9048631111111138
 30
0.0
 40
2.4334888888888888
100
AcDbArc
 50
51.9902000000000015
 51
107.4549999999999983
  0
LINE
  5
FC
100
AcDbEntity
100
AcDbLine
  8
etch
 62
256
370
-1
  6
ByLayer
 10
-9.2638888888888893
 20
8.9333333333333353
 30
0.0
 11
-10.5972222222222214
 21
8.9333333333333353
 31
0.0
  0
ARC
  5
FD
100
AcDbEntity
  8
etch
 62
256
370
-1
  6
ByLayer
100
AcDbCircle
 10
-10.5972222222222214
 20
9.6000000000000014
 30
0.0
 40
0.6666666666666666
100
AcDbArc
 50
110.6659999999999968
 51
270.0
  0
ARC
  5
FE
100
AcDbEntity
  8
etch
 62
256
370
-1
  6
ByLayer
100
AcDbCircle
 10
-9.7653555555555549
 20
9.961800000000002
 30
0.0
 40
2.4334888888888888
100
AcDbArc
 50
231.9900000000000091
 51
287.4549999999999841
  0
ARC
  5
FF
100
AcDbEntity
  8
etch
 62
256
370
-1
  6
ByLayer
100
AcDbCircle
 10
-9.2638888888888893
 20
8.2666666666666693
 30
0.0
 40
0.6666666666666666
100
AcDbArc
 50
290.6659999999999968
 51
90.0
  0
LINE
  5
100
100
AcDbEntity
100
AcDbLine
  8
etch
 62
256
370
-1
  6
ByLayer
 10
-11.2638888888888893
 20
7.6000000000000023
 30
0.0
 11
-11.2638888888888893
 21
8.4888888888888907
 31
0.0
  0
LINE
  5
101
100
AcDbEntity
100
AcDbLine
  8
etch
 62
256
370
-1
  6
ByLayer
 10
-6.8194444444444429
 20
8.0444444444444425
 30
0.0
 11
-6.8194444444444429
 21
7.5999999999999988
 31
0.0
  0
LINE
  5
102
100
AcDbEntity
100
AcDbLine
  8
etch
 62
256
370
-1
  6
ByLayer
 10
-6.8194444444444429
 20
7.5999999999999988
 30
0.0
 11
-7.2638888888888875
 21
6.7111111111111104
 31
0.0
  0
LINE
  5
103
100
AcDbEntity
100
AcDbLine
  8
etch
 62
256
370
-1
  6
ByLayer
 10
-2.2638888888888884
 20
7.6000000000000005
 30
0.0
 11
-0.4861111111111107
 21
7.6000000000000005
 31
0.0
  0
LINE
  5
104
100
AcDbEntity
100
AcDbLine
  8
etch
 62
256
370
-1
  6
ByLayer
 10
-1.3749999999999996
 20
7.6000000000000005
 30
0.0
 11
-1.3749999999999993
 21
10.7111111111111121
 31
0.0
  0
LINE
  5
105
100
AcDbEntity
100
AcDbLine
  8
etch
 62
256
370
-1
  6
ByLayer
 10
-2.2638888888888884
 20
10.2666666666666675
 30
0.0
 11
-0.0416666666666665
 21
10.2666666666666675
 31
0.0
  0
LINE
  5
106
100
AcDbEntity
100
AcDbLine
  8
etch
 62
256
370
-1
  6
ByLayer
 10
0.8472222222222223
 20
11.155555555555555
 30
0.0
 11
-0.1705199999999998
 21
11.5420844444444448
 31
0.0
  0
ARC
  5
107
100
AcDbEntity
  8
etch
 62
256
370
-1
  6
ByLayer
100
AcDbCircle
 10
-0.4861111111111107
 20
10.7111111111111121
 30
0.0
 40
0.8888888888888888
100
AcDbArc
 50
69.2031000000000063
 51
180.0
  0
LINE
  5
108
100
AcDbEntity
100
AcDbLine
  8
etch
 62
256
370
-1
  6
ByLayer
 10
5.9583333333333339
 20
7.6000000000000005
 30
0.0
 11
5.0694444444444446
 21
7.6000000000000005
 31
0.0
  0
ARC
  5
109
100
AcDbEntity
  8
etch
 62
256
370
-1
  6
ByLayer
100
AcDbCircle
 10
3.3492844444444447
 20
8.4872844444444446
 30
0.0
 40
0.8888888888888888
100
AcDbArc
 50
99.5002999999999957
 51
263.4209999999999923
  0
ARC
  5
10A
100
AcDbEntity
  8
etch
 62
256
370
-1
  6
ByLayer
100
AcDbCircle
 10
3.9116755555555551
 20
5.1264488888888895
 30
0.0
 40
4.2963022222222218
100
AcDbArc
 50
74.3666000000000054
 51
99.5002000000000066
  0
ARC
  5
10B
100
AcDbEntity
  8
etch
 62
256
370
-1
  6
ByLayer
100
AcDbCircle
 10
3.4998933333333335
 20
9.793631111111111
 30
0.0
 40
2.2034933333333333
100
AcDbArc
 50
263.4209999999999923
 51
315.4220000000000255
  0
ARC
  5
10C
100
AcDbEntity
  8
etch
 62
256
370
-1
  6
ByLayer
100
AcDbCircle
 10
4.1805555555555554
 20
9.6393155555555552
 30
0.0
 40
0.8888888888888888
100
AcDbArc
 50
0.0
 51
90.0
  0
ARC
  5
10D
100
AcDbEntity
  8
etch
 62
256
370
-1
  6
ByLayer
100
AcDbCircle
 10
4.1805555555555554
 20
8.4794177777777779
 30
0.0
 40
2.0487866666666665
100
AcDbArc
 50
90.0
 51
130.6009999999999991
  0
LINE
  5
10E
100
AcDbEntity
100
AcDbLine
  8
etch
 62
256
370
-1
  6
ByLayer
 10
5.0694444444444446
 20
9.6393155555555552
 30
0.0
 11
5.0694444444444446
 21
7.6000000000000005
 31
0.0
  0
LINE
  5
10F
100
AcDbEntity
100
AcDbLine
  8
etch
 62
256
370
-1
  6
ByLayer
 10
8.625
 20
7.6000000000000014
 30
0.0
 11
7.2916666666666661
 21
7.6000000000000014
 31
0.0
  0
LINE
  5
110
100
AcDbEntity
100
AcDbLine
  8
etch
 62
256
370
-1
  6
ByLayer
 10
7.2916666666666661
 20
10.2666666666666675
 30
0.0
 11
7.958333333333333
 21
10.2666666666666675
 31
0.0
  0
LINE
  5
111
100
AcDbEntity
100
AcDbLine
  8
etch
 62
256
370
-1
  6
ByLayer
 10
7.958333333333333
 20
10.2666666666666675
 30
0.0
 11
7.958333333333333
 21
7.6000000000000014
 31
0.0
  0
LINE
  5
112
100
AcDbEntity
100
AcDbLine
  8
etch
 62
256
370
-1
  6
ByLayer
 10
9.2916666666666661
 20
7.6000000000000014
 30
0.0
 11
9.2916666666666661
 21
9.8222222222222229
 31
0.0
  0
LINE
  5
113
100
AcDbEntity
100
AcDbLine
  8
etch
 62
256
370
-1
  6
ByLayer
 10
10.625
 20
9.8222222222222229
 30
0.0
 11
10.625
 21
7.6000000000000014
 31
0.0
  0
LINE
  5
114
100
AcDbEntity
100
AcDbLine
  8
etch
 62
256
370
-1
  6
ByLayer
 10
9.9583333333333321
 20
7.6000000000000014
 30
0.0
 11
9.2916666666666661
 21
7.6000000000000014
 31
0.0
  0
LINE
  5
115
100
AcDbEntity
100
AcDbLine
  8
etch
 62
256
370
-1
  6
ByLayer
 10
11.2916666666666643
 20
7.6000000000000014
 30
0.0
 11
10.625
 21
7.6000000000000014
 31
0.0
  0
LINE
  5
116
100
AcDbEntity
100
AcDbLine
  8
etch
 62
256
370
-1
  6
ByLayer
 10
9.2916666666666661
 20
9.6258000000000017
 30
0.0
 11
9.8849822222222219
 21
10.1541422222222231
 31
0.0
  0
LINE
  5
117
100
AcDbEntity
100
AcDbLine
  8
etch
 62
256
370
-1
  6
ByLayer
 10
7.958333333333333
 20
9.6258000000000017
 30
0.0
 11
8.551648888888888
 21
10.1541422222222231
 31
0.0
  0
ARC
  5
118
100
AcDbEntity
  8
etch
 62
256
370
-1
  6
ByLayer
100
AcDbCircle
 10
8.8472222222222214
 20
9.8222222222222229
 30
0.0
 40
0.4444444444444444
100
AcDbArc
 50
0.0
 51
131.6870000000000118
  0
ARC
  5
119
100
AcDbEntity
  8
etch
 62
256
370
-1
  6
ByLayer
100
AcDbCircle
 10
10.1805555555555554
 20
9.8222222222222229
 30
0.0
 40
0.4444444444444444
100
AcDbArc
 50
0.0
 51
131.6870000000000118
  0
ARC
  5
11A
100
AcDbEntity
  8
etch
 62
256
370
-1
  6
ByLayer
100
AcDbCircle
 10
14.625
 20
8.9333333333333353
 30
0.0
 40
1.3333333333333333
100
AcDbArc
 50
0.0
 51
180.0
  0
ARC
  5
11B
100
AcDbEntity
  8
etch
 62
256
370
-1
  6
ByLayer
100
AcDbCircle
 10
14.625
 20
8.9333333333333353
 30
0.0
 40
1.3333333333333333
100
AcDbArc
 50
180.0
 51
0.0
  0
LINE
  5
11C
100
AcDbEntity
100
AcDbLine
  8
etch
 62
256
370
-1
  6
ByLayer
 10
18.1805555555555536
 20
10.2666666666666675
 30
0.0
 11
18.1805555555555536
 21
8.4888888888888907
 31
0.0
  0
LINE
  5
11D
100
AcDbEntity
100
AcDbLine
  8
etch
 62
256
370
-1
  6
ByLayer
 10
20.402777777777775
 20
10.2666666666666675
 30
0.0
 11
20.402777777777775
 21
7.6000000000000005
 31
0.0
  0
LINE
  5
11E
100
AcDbEntity
100
AcDbLine
  8
etch
 62
256
370
-1
  6
ByLayer
 10
20.402777777777775
 20
7.6000000000000005
 30
0.0
 11
21.2916666666666643
 21
7.6000000000000005
 31
0.0
  0
LINE
  5
11F
100
AcDbEntity
100
AcDbLine
  8
etch
 62
256
370
-1
  6
ByLayer
 10
20.402777777777775
 20
8.0444444444444461
 30
0.0
 11
19.3850355555555538
 21
7.6579137777777806
 31
0.0
  0
ARC
  5
120
100
AcDbEntity
  8
etch
 62
256
370
-1
  6
ByLayer
100
AcDbCircle
 10
19.0694444444444429
 20
8.4888888888888907
 30
0.0
 40
0.8888888888888888
100
AcDbArc
 50
180.0
 51
290.7970000000000255
  0
LINE
  5
121
100
AcDbEntity
100
AcDbLine
  8
etch
 62
256
370
-1
  6
ByLayer
 10
17.5138888888888857
 20
10.2666666666666675
 30
0.0
 11
18.1805555555555536
 21
10.2666666666666675
 31
0.0
  0
LINE
  5
122
100
AcDbEntity
100
AcDbLine
  8
etch
 62
256
370
-1
  6
ByLayer
 10
19.7361111111111072
 20
10.2666666666666675
 30
0.0
 11
20.402777777777775
 21
10.2666666666666675
 31
0.0
  0
LINE
  5
123
100
AcDbEntity
100
AcDbLine
  8
etch
 62
256
370
-1
  6
ByLayer
 10
25.9583333333333321
 20
10.2666666666666622
 30
0.0
 11
25.9583333333333321
 21
9.3777777777777729
 31
0.0
  0
ARC
  5
124
100
AcDbEntity
  8
etch
 62
256
370
-1
  6
ByLayer
100
AcDbCircle
 10
24.4598000000000013
 20
7.9048631111111067
 30
0.0
 40
2.4334888888888888
100
AcDbArc
 50
51.9902000000000015
 51
107.4549999999999983
  0
LINE
  5
125
100
AcDbEntity
100
AcDbLine
  8
etch
 62
256
370
-1
  6
ByLayer
 10
25.2916666666666679
 20
8.9333333333333282
 30
0.0
 11
23.9583333333333321
 21
8.9333333333333282
 31
0.0
  0
ARC
  5
126
100
AcDbEntity
  8
etch
 62
256
370
-1
  6
ByLayer
100
AcDbCircle
 10
23.9583333333333321
 20
9.5999999999999943
 30
0.0
 40
0.6666666666666666
100
AcDbArc
 50
110.6659999999999968
 51
270.0
  0
ARC
  5
127
100
AcDbEntity
  8
etch
 62
256
370
-1
  6
ByLayer
100
AcDbCircle
 10
24.7901999999999987
 20
9.9617999999999949
 30
0.0
 40
2.4334888888888888
100
AcDbArc
 50
231.9900000000000091
 51
287.4549999999999841
  0
ARC
  5
128
100
AcDbEntity
  8
etch
 62
256
370
-1
  6
ByLayer
100
AcDbCircle
 10
25.2916666666666679
 20
8.2666666666666622
 30
0.0
 40
0.6666666666666666
100
AcDbArc
 50
290.6659999999999968
 51
90.0
  0
LINE
  5
129
100
AcDbEntity
100
AcDbLine
  8
etch
 62
256
370
-1
  6
ByLayer
 10
23.2916666666666679
 20
7.5999999999999952
 30
0.0
 11
23.2916666666666679
 21
8.4888888888888836
 31
0.0
  0
LINE
  5
12A
100
AcDbEntity
100
AcDbLine
  8
etch
 62
256
370
-1
  6
ByLayer
 10
33.625
 20
10.2666666666666693
 30
0.0
 11
33.625
 21
9.37777777777778
 31
0.0
  0
LINE
  5
12B
100
AcDbEntity
100
AcDbLine
  8
etch
 62
256
370
-1
  6
ByLayer
 10
33.625
 20
9.37777777777778
 30
0.0
 11
33.3583422222222197
 21
9.7333377777777805
 31
0.0
  0
LINE
  5
12C
100
AcDbEntity
100
AcDbLine
  8
etch
 62
256
370
-1
  6
ByLayer
 10
33.625
 20
8.0444444444444478
 30
0.0
 11
32.8044711111111056
 21
7.702564444444449
 31
0.0
  0
ARC
  5
12D
100
AcDbEntity
  8
etch
 62
256
370
-1
  6
ByLayer
100
AcDbCircle
 10
32.2916666666666643
 20
8.9333333333333353
 30
0.0
 40
1.3333333333333333
100
AcDbArc
 50
36.8699999999999974
 51
292.6200000000000045
  0
LINE
  5
12E
100
AcDbEntity
100
AcDbLine
  8
etch
 62
256
370
-1
  6
ByLayer
 10
35.6249999999999929
 20
7.5999999999999952
 30
0.0
 11
38.2916666666666643
 21
7.5999999999999952
 31
0.0
  0
LINE
  5
12F
100
AcDbEntity
100
AcDbLine
  8
etch
 62
256
370
-1
  6
ByLayer
 10
36.9583333333333286
 20
7.5999999999999952
 30
0.0
 11
36.9583333333333286
 21
11.5999999999999943
 31
0.0
  0
LINE
  5
130
100
AcDbEntity
100
AcDbLine
  8
etch
 62
256
370
-1
  6
ByLayer
 10
36.9583333333333286
 20
11.5999999999999943
 30
0.0
 11
36.0694444444444429
 21
11.5999999999999943
 31
0.0
  0
LINE
  5
131
100
AcDbEntity
100
AcDbLine
  8
etch
 62
256
370
-1
  6
ByLayer
 10
43.4027777777777786
 20
7.6000000000000174
 30
0.0
 11
42.5138888888888857
 21
7.6000000000000174
 31
0.0
  0
ARC
  5
132
100
AcDbEntity
  8
etch
 62
256
370
-1
  6
ByLayer
100
AcDbCircle
 10
40.7937288888888929
 20
8.4872844444444624
 30
0.0
 40
0.8888888888888888
100
AcDbArc
 50
99.5002999999999957
 51
263.4209999999999923
  0
ARC
  5
133
100
AcDbEntity
  8
etch
 62
256
370
-1
  6
ByLayer
100
AcDbCircle
 10
41.3561200000000042
 20
5.1264488888889073
 30
0.0
 40
4.2963022222222218
100
AcDbArc
 50
74.3666000000000054
 51
99.5002000000000066
  0
ARC
  5
134
100
AcDbEntity
  8
etch
 62
256
370
-1
  6
ByLayer
100
AcDbCircle
 10
40.9443377777777755
 20
9.7936311111111287
 30
0.0
 40
2.2034933333333333
100
AcDbArc
 50
263.4209999999999923
 51
315.4220000000000255
  0
ARC
  5
135
100
AcDbEntity
  8
etch
 62
256
370
-1
  6
ByLayer
100
AcDbCircle
 10
41.625
 20
9.639315555555573
 30
0.0
 40
0.8888888888888888
100
AcDbArc
 50
0.0
 51
90.0
  0
ARC
  5
136
100
AcDbEntity
  8
etch
 62
256
370
-1
  6
ByLayer
100
AcDbCircle
 10
41.625
 20
8.4794177777777957
 30
0.0
 40
2.0487866666666665
100
AcDbArc
 50
90.0
 51
130.6009999999999991
  0
LINE
  5
137
100
AcDbEntity
100
AcDbLine
  8
etch
 62
256
370
-1
  6
ByLayer
 10
42.5138888888888857
 20
9.639315555555573
 30
0.0
 11
42.5138888888888857
 21
7.6000000000000174
 31
0.0
  0
LINE
  5
138
100
AcDbEntity
100
AcDbLine
  8
etch
 62
256
370
-1
  6
ByLayer
 10
45.8472222222222214
 20
10.2666666666666373
 30
0.0
 11
45.8472222222222214
 21
7.5999999999999703
 31
0.0
  0
LINE
  5
139
100
AcDbEntity
100
AcDbLine
  8
etch
 62
256
370
-1
  6
ByLayer
 10
45.18055555555555
 20
10.2666666666666373
 30
0.0
 11
45.8472222222222214
 21
10.2666666666666373
 31
0.0
  0
LINE
  5
13A
100
AcDbEntity
100
AcDbLine
  8
etch
 62
256
370
-1
  6
ByLayer
 10
45.8472222222222214
 20
9.2516622222221923
 30
0.0
 11
46.6602088888888815
 21
9.9820755555555252
 31
0.0
  0
ARC
  5
13B
100
AcDbEntity
  8
etch
 62
256
370
-1
  6
ByLayer
100
AcDbCircle
 10
47.4027777777777715
 20
9.1555555555555248
 30
0.0
 40
1.1111111111111112
100
AcDbArc
 50
42.1231999999999971
 51
131.9379999999999882
  0
LINE
  5
13C
100
AcDbEntity
100
AcDbLine
  8
etch
 62
256
370
-1
  6
ByLayer
 10
45.18055555555555
 20
7.5999999999999703
 30
0.0
 11
47.4027777777777715
 21
7.5999999999999703
 31
0.0
  0
LINE
  5
13D
100
AcDbEntity
100
AcDbLine
  8
etch
 62
256
370
-1
  6
ByLayer
 10
52.8935603482588164
 20
7.6000000000000165
 30
0.0
 11
50.226893681592145
 21
7.6000000000000165
 31
0.0
  0
LINE
  5
13E
100
AcDbEntity
100
AcDbLine
  8
etch
 62
256
370
-1
  6
ByLayer
 10
51.5602270149254807
 20
7.6000000000000165
 30
0.0
 11
51.5602270149254807
 21
10.2666666666666835
 31
0.0
  0
LINE
  5
13F
100
AcDbEntity
100
AcDbLine
  8
etch
 62
256
370
-1
  6
ByLayer
 10
51.5602270149254807
 20
10.2666666666666835
 30
0.0
 11
50.6713381260365949
 21
10.2666666666666835
 31
0.0
  0
LINE
  5
140
100
AcDbEntity
100
AcDbLine
  8
etch
 62
256
370
-1
  6
ByLayer
 10
51.5602270149254807
 20
11.155555555555571
 30
0.0
 11
51.5602270149254807
 21
11.6000000000000156
 31
0.0
  0
LINE
  5
141
100
AcDbEntity
100
AcDbLine
  8
etch
 62
256
370
-1
  6
ByLayer
 10
54.226893681592145
 20
10.2666666666666249
 30
0.0
 11
55.5602270149254807
 21
10.2666666666666249
 31
0.0
  0
LINE
  5
142
100
AcDbEntity
100
AcDbLine
  8
etch
 62
256
370
-1
  6
ByLayer
 10
56.8935603482588093
 20
10.2666666666666249
 30
0.0
 11
58.226893681592145
 21
10.2666666666666249
 31
0.0
  0
LINE
  5
143
100
AcDbEntity
100
AcDbLine
  8
etch
 62
256
370
-1
  6
ByLayer
 10
56.226893681592145
 20
7.5999999999999588
 30
0.0
 11
54.8935603482588093
 21
10.2666666666666249
 31
0.0
  0
LINE
  5
144
100
AcDbEntity
100
AcDbLine
  8
etch
 62
256
370
-1
  6
ByLayer
 10
56.226893681592145
 20
7.5999999999999588
 30
0.0
 11
57.5602270149254807
 21
10.2666666666666231
 31
0.0
  0
ARC
  5
145
100
AcDbEntity
  8
etch
 62
256
370
-1
  6
ByLayer
100
AcDbCircle
 10
61.5602270149254807
 20
8.9333333333333602
 30
0.0
 40
1.3333333333333333
100
AcDbArc
 50
0.0
 51
180.0
  0
ARC
  5
146
100
AcDbEntity
  8
etch
 62
256
370
-1
  6
ByLayer
100
AcDbCircle
 10
61.5602270149254807
 20
8.9333333333333602
 30
0.0
 40
1.3333333333333333
100
AcDbArc
 50
180.0
 51
0.0
  0
LINE
  5
147
100
AcDbEntity
100
AcDbLine
  8
etch
 62
256
370
-1
  6
ByLayer
 10
64.226893681592145
 20
10.2666666666666622
 30
0.0
 11
65.5602270149254736
 21
10.2666666666666622
 31
0.0
  0
LINE
  5
148
100
AcDbEntity
100
AcDbLine
  8
etch
 62
256
370
-1
  6
ByLayer
 10
66.8935603482588164
 20
10.2666666666666622
 30
0.0
 11
68.226893681592145
 21
10.2666666666666622
 31
0.0
  0
LINE
  5
149
100
AcDbEntity
100
AcDbLine
  8
etch
 62
256
370
-1
  6
ByLayer
 10
64.226893681592145
 20
6.2666666666666631
 30
0.0
 11
66.4491159038143735
 21
6.2666666666666639
 31
0.0
  0
LINE
  5
14A
100
AcDbEntity
100
AcDbLine
  8
etch
 62
256
370
-1
  6
ByLayer
 10
65.5602270149254736
 20
6.2666666666666622
 30
0.0
 11
67.5602270149254736
 21
10.2666666666666622
 31
0.0
  0
LINE
  5
14B
100
AcDbEntity
100
AcDbLine
  8
etch
 62
256
370
-1
  6
ByLayer
 10
64.8935603482588164
 20
10.2666666666666622
 30
0.0
 11
66.226893681592145
 21
7.5999999999999961
 31
0.0
  0
LINE
  5
14C
100
AcDbEntity
100
AcDbLine
  8
etch
 62
256
370
-1
  6
ByLayer
 10
73.338004792703245
 20
7.5999999999999632
 30
0.0
 11
72.4491159038143593
 21
7.5999999999999632
 31
0.0
  0
ARC
  5
14D
100
AcDbEntity
  8
etch
 62
256
370
-1
  6
ByLayer
100
AcDbCircle
 10
70.7289559038143665
 20
8.4872844444444073
 30
0.0
 40
0.8888888888888888
100
AcDbArc
 50
99.5002999999999957
 51
263.4209999999999923
  0
ARC
  5
14E
100
AcDbEntity
  8
etch
 62
256
370
-1
  6
ByLayer
100
AcDbCircle
 10
71.2913470149254778
 20
5.1264488888888513
 30
0.0
 40
4.2963022222222218
100
AcDbArc
 50
74.3666000000000054
 51
99.5002000000000066
  0
ARC
  5
14F
100
AcDbEntity
  8
etch
 62
256
370
-1
  6
ByLayer
100
AcDbCircle
 10
70.8795647927032491
 20
9.7936311111110754
 30
0.0
 40
2.2034933333333333
100
AcDbArc
 50
263.4209999999999923
 51
315.4220000000000255
  0
ARC
  5
150
100
AcDbEntity
  8
etch
 62
256
370
-1
  6
ByLayer
100
AcDbCircle
 10
71.5602270149254736
 20
9.6393155555555197
 30
0.0
 40
0.8888888888888888
100
AcDbArc
 50
0.0
 51
90.0
  0
ARC
  5
151
100
AcDbEntity
  8
etch
 62
256
370
-1
  6
ByLayer
100
AcDbCircle
 10
71.5602270149254736
 20
8.4794177777777406
 30
0.0
 40
2.0487866666666665
100
AcDbArc
 50
90.0
 51
130.6009999999999991
  0
LINE
  5
152
100
AcDbEntity
100
AcDbLine
  8
etch
 62
256
370
-1
  6
ByLayer
 10
72.4491159038143593
 20
9.6393155555555197
 30
0.0
 11
72.4491159038143593
 21
7.5999999999999632
 31
0.0
  0
LINE
  5
153
100
AcDbEntity
100
AcDbLine
  8
etch
 62
256
370
-1
  6
ByLayer
 10
75.5602270149254736
 20
10.2666666666666888
 30
0.0
 11
75.5602270149254736
 21
7.6000000000000218
 31
0.0
  0
LINE
  5
154
100
AcDbEntity
100
AcDbLine
  8
etch
 62
256
370
-1
  6
ByLayer
 10
74.8935603482588164
 20
10.2666666666666888
 30
0.0
 11
75.5602270149254736
 21
10.2666666666666888
 31
0.0
  0
LINE
  5
155
100
AcDbEntity
100
AcDbLine
  8
etch
 62
256
370
-1
  6
ByLayer
 10
74.8935603482588164
 20
7.6000000000000218
 30
0.0
 11
76.226893681592145
 21
7.6000000000000218
 31
0.0
  0
LINE
  5
156
100
AcDbEntity
100
AcDbLine
  8
etch
 62
256
370
-1
  6
ByLayer
 10
78.4491159038143593
 20
7.6000000000000218
 30
0.0
 11
77.1157825704810307
 21
7.6000000000000218
 31
0.0
  0
LINE
  5
157
100
AcDbEntity
100
AcDbLine
  8
etch
 62
256
370
-1
  6
ByLayer
 10
77.7824492371477021
 20
9.1555555555555781
 30
0.0
 11
77.7824492371477021
 21
7.6000000000000218
 31
0.0
  0
LINE
  5
158
100
AcDbEntity
100
AcDbLine
  8
etch
 62
256
370
-1
  6
ByLayer
 10
75.5602270149254736
 20
9.657640000000022
 30
0.0
 11
75.9370714593699176
 21
9.9894533333333548
 31
0.0
  0
ARC
  5
159
100
AcDbEntity
  8
etch
 62
256
370
-1
  6
ByLayer
100
AcDbCircle
 10
76.6713381260365878
 20
9.1555555555555781
 30
0.0
 40
1.1111111111111112
100
AcDbArc
 50
0.0
 51
131.3660000000000139
  0
LINE
  5
15A
100
AcDbEntity
100
AcDbLine
  8
etch
 62
256
370
-1
  6
ByLayer
 10
80.4491159038143735
 20
10.2666666666667101
 30
0.0
 11
82.6713381260365878
 21
10.2666666666667101
 31
0.0
  0
LINE
  5
15B
100
AcDbEntity
100
AcDbLine
  8
etch
 62
256
370
-1
  6
ByLayer
 10
80.8935603482588164
 20
11.1555555555555994
 30
0.0
 11
80.8935603482588164
 21
8.4888888888889333
 31
0.0
  0
ARC
  5
15C
100
AcDbEntity
  8
etch
 62
256
370
-1
  6
ByLayer
100
AcDbCircle
 10
81.7824492371477021
 20
8.4888888888889333
 30
0.0
 40
0.8888888888888888
100
AcDbArc
 50
180.0
 51
290.7970000000000255
  0
LINE
  5
15D
100
AcDbEntity
100
AcDbLine
  8
etch
 62
256
370
-1
  6
ByLayer
 10
83.1157825704810307
 20
8.0444444444444887
 30
0.0
 11
82.0980403482588201
 21
7.6579128888889203
 31
0.0
  0
LINE
  5
15E
100
AcDbEntity
100
AcDbLine
  8
etch
 62
256
370
-1
  6
ByLayer
 10
85.1157825704810307
 20
8.9333333333333673
 30
0.0
 11
87.7824492371476879
 21
8.9333333333333673
 31
0.0
  0
LINE
  5
15F
100
AcDbEntity
100
AcDbLine
  8
etch
 62
256
370
-1
  6
ByLayer
 10
87.7824492371476879
 20
8.044444444444478
 30
0.0
 11
86.9619203482588006
 21
7.702564444444481
 31
0.0
  0
ARC
  5
160
100
AcDbEntity
  8
etch
 62
256
370
-1
  6
ByLayer
100
AcDbCircle
 10
86.4491159038143593
 20
8.9333333333333673
 30
0.0
 40
1.3333333333333333
100
AcDbArc
 50
0.0
 51
292.6200000000000045
  0
LINE
  5
161
100
AcDbEntity
100
AcDbLine
  8
etch
 62
256
370
-1
  6
ByLayer
 10
89.5602270149254736
 20
8.0444444444444354
 30
0.0
 11
89.5602270149254736
 21
7.5999999999999917
 31
0.0
  0
LINE
  5
162
100
AcDbEntity
100
AcDbLine
  8
etch
 62
256
370
-1
  6
ByLayer
 10
89.5602270149254736
 20
7.5999999999999917
 30
0.0
 11
89.1157825704810307
 21
6.7111111111111033
 31
0.0
  0
LINE
  5
163
100
AcDbEntity
100
AcDbLine
  8
etch
 62
256
370
-1
  6
ByLayer
 10
-58.1759468407960725
 20
1.2000000000000624
 30
0.0
 11
-58.1759468407960725
 21
5.2000000000000624
 31
0.0
  0
LINE
  5
164
100
AcDbEntity
100
AcDbLine
  8
etch
 62
256
370
-1
  6
ByLayer
 10
-55.9537246185738439
 20
5.2000000000000615
 30
0.0
 11
-55.9537246185738439
 21
1.2000000000000624
 31
0.0
  0
LINE
  5
165
100
AcDbEntity
100
AcDbLine
  8
etch
 62
256
370
-1
  6
ByLayer
 10
-58.1759468407960725
 20
2.97777777777784
 30
0.0
 11
-55.9537246185738439
 21
2.97777777777784
 31
0.0
  0
LINE
  5
166
100
AcDbEntity
100
AcDbLine
  8
etch
 62
256
370
-1
  6
ByLayer
 10
-58.8426135074627368
 20
1.2000000000000624
 30
0.0
 11
-57.5092801741294011
 21
1.2000000000000624
 31
0.0
  0
LINE
  5
167
100
AcDbEntity
100
AcDbLine
  8
etch
 62
256
370
-1
  6
ByLayer
 10
-57.5092801741294011
 20
5.2000000000000615
 30
0.0
 11
-58.8426135074627368
 21
5.2000000000000624
 31
0.0
  0
LINE
  5
168
100
AcDbEntity
100
AcDbLine
  8
etch
 62
256
370
-1
  6
ByLayer
 10
-56.6203912852405153
 20
5.2000000000000624
 30
0.0
 11
-55.2870579519071796
 21
5.2000000000000624
 31
0.0
  0
LINE
  5
169
100
AcDbEntity
100
AcDbLine
  8
etch
 62
256
370
-1
  6
ByLayer
 10
-55.2870579519071796
 20
1.2000000000000624
 30
0.0
 11
-56.6203912852405153
 21
1.2000000000000624
 31
0.0
  0
LINE
  5
16A
100
AcDbEntity
100
AcDbLine
  8
etch
 62
256
370
-1
  6
ByLayer
 10
-50.1759468407960725
 20
1.2000000000001003
 30
0.0
 11
-51.0648357296849653
 21
1.2000000000001003
 31
0.0
  0
ARC
  5
16B
100
AcDbEntity
  8
etch
 62
256
370
-1
  6
ByLayer
100
AcDbCircle
 10
-52.7849957296849581
 20
2.0872844444445446
 30
0.0
 40
0.8888888888888888
100
AcDbArc
 50
99.5002999999999957
 51
263.4209999999999923
  0
ARC
  5
16C
100
AcDbEntity
  8
etch
 62
256
370
-1
  6
ByLayer
100
AcDbCircle
 10
-52.2226046185738468
 20
-1.2735511111110116
 30
0.0
 40
4.2963022222222218
100
AcDbArc
 50
74.3666000000000054
 51
99.5002000000000066
  0
ARC
  5
16D
100
AcDbEntity
  8
etch
 62
256
370
-1
  6
ByLayer
100
AcDbCircle
 10
-52.6343868407960755
 20
3.393631111111211
 30
0.0
 40
2.2034933333333333
100
AcDbArc
 50
263.4209999999999923
 51
315.4220000000000255
  0
ARC
  5
16E
100
AcDbEntity
  8
etch
 62
256
370
-1
  6
ByLayer
100
AcDbCircle
 10
-51.953724618573851
 20
3.2393155555556552
 30
0.0
 40
0.8888888888888888
100
AcDbArc
 50
0.0
 51
90.0
  0
ARC
  5
16F
100
AcDbEntity
  8
etch
 62
256
370
-1
  6
ByLayer
100
AcDbCircle
 10
-51.953724618573851
 20
2.079417777777878
 30
0.0
 40
2.0487866666666665
100
AcDbArc
 50
90.0
 51
130.6009999999999991
  0
LINE
  5
170
100
AcDbEntity
100
AcDbLine
  8
etch
 62
256
370
-1
  6
ByLayer
 10
-51.0648357296849653
 20
3.2393155555556552
 30
0.0
 11
-51.0648357296849653
 21
1.2000000000001003
 31
0.0
  0
LINE
  5
171
100
AcDbEntity
100
AcDbLine
  8
etch
 62
256
370
-1
  6
ByLayer
 10
-45.5092801741294011
 20
3.8666666666666911
 30
0.0
 11
-45.5092801741294011
 21
2.9777777777778023
 31
0.0
  0
ARC
  5
172
100
AcDbEntity
  8
etch
 62
256
370
-1
  6
ByLayer
100
AcDbCircle
 10
-47.0078135074627355
 20
1.5048631111111357
 30
0.0
 40
2.4334888888888888
100
AcDbArc
 50
51.9902000000000015
 51
107.4549999999999983
  0
LINE
  5
173
100
AcDbEntity
100
AcDbLine
  8
etch
 62
256
370
-1
  6
ByLayer
 10
-46.1759468407960725
 20
2.5333333333333572
 30
0.0
 11
-47.5092801741294011
 21
2.5333333333333572
 31
0.0
  0
ARC
  5
174
100
AcDbEntity
  8
etch
 62
256
370
-1
  6
ByLayer
100
AcDbCircle
 10
-47.5092801741294011
 20
3.2000000000000242
 30
0.0
 40
0.6666666666666666
100
AcDbArc
 50
110.6659999999999968
 51
270.0
  0
ARC
  5
175
100
AcDbEntity
  8
etch
 62
256
370
-1
  6
ByLayer
100
AcDbCircle
 10
-46.6774135074627381
 20
3.5618000000000238
 30
0.0
 40
2.4334888888888888
100
AcDbArc
 50
231.9900000000000091
 51
287.4549999999999841
  0
ARC
  5
176
100
AcDbEntity
  8
etch
 62
256
370
-1
  6
ByLayer
100
AcDbCircle
 10
-46.1759468407960725
 20
1.8666666666666918
 30
0.0
 40
0.6666666666666666
100
AcDbArc
 50
290.6659999999999968
 51
90.0
  0
LINE
  5
177
100
AcDbEntity
100
AcDbLine
  8
etch
 62
256
370
-1
  6
ByLayer
 10
-48.1759468407960725
 20
1.2000000000000242
 30
0.0
 11
-48.1759468407960725
 21
2.088888888888913
 31
0.0
  0
LINE
  5
178
100
AcDbEntity
100
AcDbLine
  8
etch
 62
256
370
-1
  6
ByLayer
 10
-37.3981690630182939
 20
1.2000000000000306
 30
0.0
 11
-38.2870579519071867
 21
1.2000000000000306
 31
0.0
  0
ARC
  5
179
100
AcDbEntity
  8
etch
 62
256
370
-1
  6
ByLayer
100
AcDbCircle
 10
-40.0072179519071796
 20
2.0872844444444749
 30
0.0
 40
0.8888888888888888
100
AcDbArc
 50
99.5002999999999957
 51
263.4209999999999923
  0
ARC
  5
17A
100
AcDbEntity
  8
etch
 62
256
370
-1
  6
ByLayer
100
AcDbCircle
 10
-39.4448268407960683
 20
-1.2735511111110813
 30
0.0
 40
4.2963022222222218
100
AcDbArc
 50
74.3666000000000054
 51
99.5002000000000066
  0
ARC
  5
17B
100
AcDbEntity
  8
etch
 62
256
370
-1
  6
ByLayer
100
AcDbCircle
 10
-39.856609063018297
 20
3.3936311111111417
 30
0.0
 40
2.2034933333333333
100
AcDbArc
 50
263.4209999999999923
 51
315.4220000000000255
  0
ARC
  5
17C
100
AcDbEntity
  8
etch
 62
256
370
-1
  6
ByLayer
100
AcDbCircle
 10
-39.1759468407960725
 20
3.2393155555555859
 30
0.0
 40
0.8888888888888888
100
AcDbArc
 50
0.0
 51
90.0
  0
ARC
  5
17D
100
AcDbEntity
  8
etch
 62
256
370
-1
  6
ByLayer
100
AcDbCircle
 10
-39.1759468407960725
 20
2.0794177777778082
 30
0.0
 40
2.0487866666666665
100
AcDbArc
 50
90.0
 51
130.6009999999999991
  0
LINE
  5
17E
100
AcDbEntity
100
AcDbLine
  8
etch
 62
256
370
-1
  6
ByLayer
 10
-38.2870579519071867
 20
3.2393155555555859
 30
0.0
 11
-38.2870579519071867
 21
1.2000000000000306
 31
0.0
  0
LINE
  5
17F
100
AcDbEntity
100
AcDbLine
  8
etch
 62
256
370
-1
  6
ByLayer
 10
-32.8426135074627368
 20
1.200000000000127
 30
0.0
 11
-31.9537246185738475
 21
1.200000000000127
 31
0.0
  0
LINE
  5
180
100
AcDbEntity
100
AcDbLine
  8
etch
 62
256
370
-1
  6
ByLayer
 10
-31.9537246185738475
 20
1.200000000000127
 30
0.0
 11
-31.9537246185738475
 21
5.2000000000001272
 31
0.0
  0
LINE
  5
181
100
AcDbEntity
100
AcDbLine
  8
etch
 62
256
370
-1
  6
ByLayer
 10
-31.9537246185738475
 20
5.2000000000001272
 30
0.0
 11
-32.8426135074627368
 21
5.2000000000001272
 31
0.0
  0
ARC
  5
182
100
AcDbEntity
  8
etch
 62
256
370
-1
  6
ByLayer
100
AcDbCircle
 10
-30.6203912852405153
 20
2.5333333333334602
 30
0.0
 40
1.3333333333333333
100
AcDbArc
 50
0.0
 51
180.0
  0
ARC
  5
183
100
AcDbEntity
  8
etch
 62
256
370
-1
  6
ByLayer
100
AcDbCircle
 10
-30.6203912852405153
 20
2.5333333333334602
 30
0.0
 40
1.3333333333333333
100
AcDbArc
 50
180.0
 51
0.0
  0
LINE
  5
184
100
AcDbEntity
100
AcDbLine
  8
etch
 62
256
370
-1
  6
ByLayer
 10
-24.1759468407960725
 20
1.2000000000000044
 30
0.0
 11
-25.0648357296849618
 21
1.2000000000000044
 31
0.0
  0
ARC
  5
185
100
AcDbEntity
  8
etch
 62
256
370
-1
  6
ByLayer
100
AcDbCircle
 10
-26.7849957296849617
 20
2.0872844444444487
 30
0.0
 40
0.8888888888888888
100
AcDbArc
 50
99.5002999999999957
 51
263.4209999999999923
  0
ARC
  5
186
100
AcDbEntity
  8
etch
 62
256
370
-1
  6
ByLayer
100
AcDbCircle
 10
-26.2226046185738504
 20
-1.2735511111111071
 30
0.0
 40
4.2963022222222218
100
AcDbArc
 50
74.3666000000000054
 51
99.5002000000000066
  0
ARC
  5
187
100
AcDbEntity
  8
etch
 62
256
370
-1
  6
ByLayer
100
AcDbCircle
 10
-26.634386840796072
 20
3.393631111111115
 30
0.0
 40
2.2034933333333333
100
AcDbArc
 50
263.4209999999999923
 51
315.4220000000000255
  0
ARC
  5
188
100
AcDbEntity
  8
etch
 62
256
370
-1
  6
ByLayer
100
AcDbCircle
 10
-25.953724618573851
 20
3.2393155555555593
 30
0.0
 40
0.8888888888888888
100
AcDbArc
 50
0.0
 51
90.0
  0
ARC
  5
189
100
AcDbEntity
  8
etch
 62
256
370
-1
  6
ByLayer
100
AcDbCircle
 10
-25.953724618573851
 20
2.079417777777782
 30
0.0
 40
2.0487866666666665
100
AcDbArc
 50
90.0
 51
130.6009999999999991
  0
LINE
  5
18A
100
AcDbEntity
100
AcDbLine
  8
etch
 62
256
370
-1
  6
ByLayer
 10
-25.0648357296849618
 20
3.2393155555555602
 30
0.0
 11
-25.0648357296849618
 21
1.2000000000000044
 31
0.0
  0
LINE
  5
18B
100
AcDbEntity
100
AcDbLine
  8
etch
 62
256
370
-1
  6
ByLayer
 10
-19.0648357296849618
 20
1.1999999999999149
 30
0.0
 11
-19.953724618573851
 21
1.1999999999999149
 31
0.0
  0
LINE
  5
18C
100
AcDbEntity
100
AcDbLine
  8
etch
 62
256
370
-1
  6
ByLayer
 10
-19.953724618573851
 20
1.1999999999999149
 30
0.0
 11
-19.953724618573851
 21
5.1999999999999149
 31
0.0
  0
ARC
  5
18D
100
AcDbEntity
  8
etch
 62
256
370
-1
  6
ByLayer
100
AcDbCircle
 10
-21.2870579519071867
 20
2.5333333333332479
 30
0.0
 40
1.3333333333333333
100
AcDbArc
 50
0.0
 51
180.0
  0
ARC
  5
18E
100
AcDbEntity
  8
etch
 62
256
370
-1
  6
ByLayer
100
AcDbCircle
 10
-21.2870579519071867
 20
2.5333333333332479
 30
0.0
 40
1.3333333333333333
100
AcDbArc
 50
180.0
 51
0.0
  0
LINE
  5
18F
100
AcDbEntity
100
AcDbLine
  8
etch
 62
256
370
-1
  6
ByLayer
 10
-19.953724618573851
 20
5.1999999999999149
 30
0.0
 11
-20.8426135074627403
 21
5.1999999999999149
 31
0.0
  0
LINE
  5
190
100
AcDbEntity
100
AcDbLine
  8
etch
 62
256
370
-1
  6
ByLayer
 10
-11.3981690630182975
 20
3.8666666666666361
 30
0.0
 11
-11.3981690630182975
 21
2.9777777777777468
 31
0.0
  0
LINE
  5
191
100
AcDbEntity
100
AcDbLine
  8
etch
 62
256
370
-1
  6
ByLayer
 10
-11.3981690630182975
 20
2.9777777777777468
 30
0.0
 11
-11.6648268407960742
 21
3.3333377777777455
 31
0.0
  0
LINE
  5
192
100
AcDbEntity
100
AcDbLine
  8
etch
 62
256
370
-1
  6
ByLayer
 10
-11.3981690630182975
 20
1.6444444444444131
 30
0.0
 11
-12.2186979519071848
 21
1.3025644444444155
 31
0.0
  0
ARC
  5
193
100
AcDbEntity
  8
etch
 62
256
370
-1
  6
ByLayer
100
AcDbCircle
 10
-12.7315023963516296
 20
2.5333333333333021
 30
0.0
 40
1.3333333333333333
100
AcDbArc
 50
36.8699999999999974
 51
292.6200000000000045
  0
ARC
  5
194
100
AcDbEntity
  8
etch
 62
256
370
-1
  6
ByLayer
100
AcDbCircle
 10
-8.0648357296849618
 20
2.5333333333333274
 30
0.0
 40
1.3333333333333333
100
AcDbArc
 50
0.0
 51
180.0
  0
ARC
  5
195
100
AcDbEntity
  8
etch
 62
256
370
-1
  6
ByLayer
100
AcDbCircle
 10
-8.0648357296849618
 20
2.5333333333333274
 30
0.0
 40
1.3333333333333333
100
AcDbArc
 50
180.0
 51
0.0
  0
LINE
  5
196
100
AcDbEntity
100
AcDbLine
  8
etch
 62
256
370
-1
  6
ByLayer
 10
-4.7315023963516287
 20
1.1999999999999984
 30
0.0
 11
-2.0648357296849627
 21
1.1999999999999984
 31
0.0
  0
LINE
  5
197
100
AcDbEntity
100
AcDbLine
  8
etch
 62
256
370
-1
  6
ByLayer
 10
-3.3981690630182957
 20
1.1999999999999984
 30
0.0
 11
-3.3981690630182952
 21
5.1999999999999984
 31
0.0
  0
LINE
  5
198
100
AcDbEntity
100
AcDbLine
  8
etch
 62
256
370
-1
  6
ByLayer
 10
-3.3981690630182952
 20
5.1999999999999984
 30
0.0
 11
-4.287057951907185
 21
5.1999999999999984
 31
0.0
  0
LINE
  5
199
100
AcDbEntity
100
AcDbLine
  8
etch
 62
256
370
-1
  6
ByLayer
 10
3.0462753814261481
 20
1.2000000000000008
 30
0.0
 11
2.1573864925372592
 21
1.2000000000000008
 31
0.0
  0
LINE
  5
19A
100
AcDbEntity
100
AcDbLine
  8
etch
 62
256
370
-1
  6
ByLayer
 10
2.1573864925372592
 20
1.2000000000000008
 30
0.0
 11
2.1573864925372592
 21
5.200000000000002
 31
0.0
  0
ARC
  5
19B
100
AcDbEntity
  8
etch
 62
256
370
-1
  6
ByLayer
100
AcDbCircle
 10
0.8240531592039257
 20
2.5333333333333341
 30
0.0
 40
1.3333333333333333
100
AcDbArc
 50
0.0
 51
180.0
  0
ARC
  5
19C
100
AcDbEntity
  8
etch
 62
256
370
-1
  6
ByLayer
100
AcDbCircle
 10
0.8240531592039257
 20
2.5333333333333341
 30
0.0
 40
1.3333333333333333
100
AcDbArc
 50
180.0
 51
0.0
  0
LINE
  5
19D
100
AcDbEntity
100
AcDbLine
  8
etch
 62
256
370
-1
  6
ByLayer
 10
2.1573864925372592
 20
5.200000000000002
 30
0.0
 11
1.2684976036483708
 21
5.2000000000000011
 31
0.0
  0
LINE
  5
19E
100
AcDbEntity
100
AcDbLine
  8
etch
 62
256
370
-1
  6
ByLayer
 10
4.8240531592039257
 20
1.6444444444444448
 30
0.0
 11
4.8240531592039257
 21
1.2000000000000004
 31
0.0
  0
LINE
  5
19F
100
AcDbEntity
100
AcDbLine
  8
etch
 62
256
370
-1
  6
ByLayer
 10
4.8240531592039257
 20
1.2000000000000004
 30
0.0
 11
4.3796087147594811
 21
0.3111111111111116
 31
0.0
  0
LINE
  5
1A0
100
AcDbEntity
100
AcDbLine
  8
etch
 62
256
370
-1
  6
ByLayer
 10
10.046275381426149
 20
3.866666666666668
 30
0.0
 11
10.046275381426149
 21
1.2000000000000017
 31
0.0
  0
LINE
  5
1A1
100
AcDbEntity
100
AcDbLine
  8
etch
 62
256
370
-1
  6
ByLayer
 10
9.3796087147594811
 20
3.866666666666668
 30
0.0
 11
10.046275381426149
 21
3.866666666666668
 31
0.0
  0
LINE
  5
1A2
100
AcDbEntity
100
AcDbLine
  8
etch
 62
256
370
-1
  6
ByLayer
 10
9.3796087147594811
 20
1.2000000000000017
 30
0.0
 11
10.712942048092815
 21
1.2000000000000017
 31
0.0
  0
LINE
  5
1A3
100
AcDbEntity
100
AcDbLine
  8
etch
 62
256
370
-1
  6
ByLayer
 10
12.9351642703150382
 20
1.2000000000000017
 30
0.0
 11
11.6018309369817043
 21
1.2000000000000017
 31
0.0
  0
LINE
  5
1A4
100
AcDbEntity
100
AcDbLine
  8
etch
 62
256
370
-1
  6
ByLayer
 10
12.2684976036483704
 20
2.7555555555555573
 30
0.0
 11
12.2684976036483704
 21
1.2000000000000017
 31
0.0
  0
LINE
  5
1A5
100
AcDbEntity
100
AcDbLine
  8
etch
 62
256
370
-1
  6
ByLayer
 10
10.046275381426149
 20
3.2576400000000021
 30
0.0
 11
10.423119825870593
 21
3.5894533333333349
 31
0.0
  0
ARC
  5
1A6
100
AcDbEntity
  8
etch
 62
256
370
-1
  6
ByLayer
100
AcDbCircle
 10
11.1573864925372597
 20
2.7555555555555573
 30
0.0
 40
1.1111111111111112
100
AcDbArc
 50
0.0
 51
131.3660000000000139
  0
LINE
  5
1A7
100
AcDbEntity
100
AcDbLine
  8
etch
 62
256
370
-1
  6
ByLayer
 10
14.9351642703150365
 20
2.5333333333333381
 30
0.0
 11
17.6018309369817025
 21
2.533333333333339
 31
0.0
  0
LINE
  5
1A8
100
AcDbEntity
100
AcDbLine
  8
etch
 62
256
370
-1
  6
ByLayer
 10
17.6018309369817025
 20
1.6444444444444493
 30
0.0
 11
16.7813020480928152
 21
1.3025644444444517
 31
0.0
  0
ARC
  5
1A9
100
AcDbEntity
  8
etch
 62
256
370
-1
  6
ByLayer
100
AcDbCircle
 10
16.2684976036483704
 20
2.5333333333333381
 30
0.0
 40
1.3333333333333333
100
AcDbArc
 50
0.0
 51
292.6200000000000045
  0
LINE
  5
1AA
100
AcDbEntity
100
AcDbLine
  8
etch
 62
256
370
-1
  6
ByLayer
 10
18.9351642703150347
 20
3.8666666666666756
 30
0.0
 11
20.2684976036483668
 21
3.8666666666666756
 31
0.0
  0
LINE
  5
1AB
100
AcDbEntity
100
AcDbLine
  8
etch
 62
256
370
-1
  6
ByLayer
 10
21.6018309369817025
 20
3.8666666666666756
 30
0.0
 11
22.9351642703150347
 21
3.8666666666666756
 31
0.0
  0
LINE
  5
1AC
100
AcDbEntity
100
AcDbLine
  8
etch
 62
256
370
-1
  6
ByLayer
 10
20.9351642703150347
 20
1.2000000000000091
 30
0.0
 11
19.6018309369817025
 21
3.8666666666666756
 31
0.0
  0
LINE
  5
1AD
100
AcDbEntity
100
AcDbLine
  8
etch
 62
256
370
-1
  6
ByLayer
 10
20.9351642703150347
 20
1.2000000000000091
 30
0.0
 11
22.2684976036483668
 21
3.8666666666666765
 31
0.0
  0
LINE
  5
1AE
100
AcDbEntity
100
AcDbLine
  8
etch
 62
256
370
-1
  6
ByLayer
 10
24.9351642703150382
 20
2.5333333333333146
 30
0.0
 11
27.6018309369817025
 21
2.5333333333333155
 31
0.0
  0
LINE
  5
1AF
100
AcDbEntity
100
AcDbLine
  8
etch
 62
256
370
-1
  6
ByLayer
 10
27.6018309369817025
 20
1.6444444444444257
 30
0.0
 11
26.7813020480928152
 21
1.3025644444444282
 31
0.0
  0
ARC
  5
1B0
100
AcDbEntity
  8
etch
 62
256
370
-1
  6
ByLayer
100
AcDbCircle
 10
26.2684976036483704
 20
2.5333333333333146
 30
0.0
 40
1.3333333333333333
100
AcDbArc
 50
0.0
 51
292.6200000000000045
  0
LINE
  5
1B1
100
AcDbEntity
100
AcDbLine
  8
etch
 62
256
370
-1
  6
ByLayer
 10
30.0462753814261454
 20
3.8666666666666294
 30
0.0
 11
30.0462753814261454
 21
1.1999999999999624
 31
0.0
  0
LINE
  5
1B2
100
AcDbEntity
100
AcDbLine
  8
etch
 62
256
370
-1
  6
ByLayer
 10
29.3796087147594776
 20
3.8666666666666289
 30
0.0
 11
30.0462753814261454
 21
3.8666666666666294
 31
0.0
  0
LINE
  5
1B3
100
AcDbEntity
100
AcDbLine
  8
etch
 62
256
370
-1
  6
ByLayer
 10
30.0462753814261454
 20
2.8516622222221848
 30
0.0
 11
30.8592620480928126
 21
3.582075555555519
 31
0.0
  0
ARC
  5
1B4
100
AcDbEntity
  8
etch
 62
256
370
-1
  6
ByLayer
100
AcDbCircle
 10
31.6018309369817025
 20
2.7555555555555178
 30
0.0
 40
1.1111111111111112
100
AcDbArc
 50
42.1231999999999971
 51
131.9379999999999882
  0
LINE
  5
1B5
100
AcDbEntity
100
AcDbLine
  8
etch
 62
256
370
-1
  6
ByLayer
 10
29.3796087147594776
 20
1.1999999999999624
 30
0.0
 11
31.6018309369817025
 21
1.1999999999999624
 31
0.0
  0
LINE
  5
1B6
100
AcDbEntity
100
AcDbLine
  8
etch
 62
256
370
-1
  6
ByLayer
 10
34.4259468407960654
 20
3.8666666666666352
 30
0.0
 11
36.6481690630182868
 21
3.8666666666666343
 31
0.0
  0
LINE
  5
1B7
100
AcDbEntity
100
AcDbLine
  8
etch
 62
256
370
-1
  6
ByLayer
 10
34.8703912852405153
 20
4.7555555555555244
 30
0.0
 11
34.8703912852405153
 21
2.0888888888888575
 31
0.0
  0
ARC
  5
1B8
100
AcDbEntity
  8
etch
 62
256
370
-1
  6
ByLayer
100
AcDbCircle
 10
35.7592801741294011
 20
2.0888888888888575
 30
0.0
 40
0.8888888888888888
100
AcDbArc
 50
180.0
 51
290.7970000000000255
  0
LINE
  5
1B9
100
AcDbEntity
100
AcDbLine
  8
etch
 62
256
370
-1
  6
ByLayer
 10
37.0926135074627368
 20
1.6444444444444137
 30
0.0
 11
36.074871285240512
 21
1.2579128888888551
 31
0.0
  0
LINE
  5
1BA
100
AcDbEntity
100
AcDbLine
  8
etch
 62
256
370
-1
  6
ByLayer
 10
38.6481690630182939
 20
1.1999999999998661
 30
0.0
 11
39.9815023963516296
 21
1.1999999999998661
 31
0.0
  0
LINE
  5
1BB
100
AcDbEntity
100
AcDbLine
  8
etch
 62
256
370
-1
  6
ByLayer
 10
38.6481690630182939
 20
5.1999999999998661
 30
0.0
 11
39.5370579519071867
 21
5.1999999999998661
 31
0.0
  0
LINE
  5
1BC
100
AcDbEntity
100
AcDbLine
  8
etch
 62
256
370
-1
  6
ByLayer
 10
42.203724618573851
 20
1.1999999999998661
 30
0.0
 11
40.8703912852405153
 21
1.1999999999998661
 31
0.0
  0
LINE
  5
1BD
100
AcDbEntity
100
AcDbLine
  8
etch
 62
256
370
-1
  6
ByLayer
 10
39.3148357296849582
 20
5.1999999999998661
 30
0.0
 11
39.3148357296849582
 21
1.1999999999998661
 31
0.0
  0
ARC
  5
1BE
100
AcDbEntity
  8
etch
 62
256
370
-1
  6
ByLayer
100
AcDbCircle
 10
40.6481690630182939
 20
2.9777777777776442
 30
0.0
 40
0.8888888888888888
100
AcDbArc
 50
0.0
 51
121.0550000000000068
  0
LINE
  5
1BF
100
AcDbEntity
100
AcDbLine
  8
etch
 62
256
370
-1
  6
ByLayer
 10
41.5370579519071867
 20
2.9777777777776437
 30
0.0
 11
41.5370579519071867
 21
1.1999999999998661
 31
0.0
  0
LINE
  5
1C0
100
AcDbEntity
100
AcDbLine
  8
etch
 62
256
370
-1
  6
ByLayer
 10
39.3148357296849582
 20
3.212502222222088
 30
0.0
 11
40.1896179519071808
 21
3.7392666666665328
 31
0.0
  0
LINE
  5
1C1
100
AcDbEntity
100
AcDbLine
  8
etch
 62
256
370
-1
  6
ByLayer
 10
44.2037246185738439
 20
2.5333333333333394
 30
0.0
 11
46.8703912852405153
 21
2.5333333333333394
 31
0.0
  0
LINE
  5
1C2
100
AcDbEntity
100
AcDbLine
  8
etch
 62
256
370
-1
  6
ByLayer
 10
46.8703912852405153
 20
1.6444444444444513
 30
0.0
 11
46.0498623963516209
 21
1.3025644444444531
 31
0.0
  0
ARC
  5
1C3
100
AcDbEntity
  8
etch
 62
256
370
-1
  6
ByLayer
100
AcDbCircle
 10
45.5370579519071796
 20
2.5333333333333394
 30
0.0
 40
1.3333333333333333
100
AcDbArc
 50
0.0
 51
292.6200000000000045
  0
LINE
  5
1C4
100
AcDbEntity
100
AcDbLine
  8
etch
 62
256
370
-1
  6
ByLayer
 10
48.8703912852405153
 20
1.1999999999999693
 30
0.0
 11
51.5370579519071867
 21
1.1999999999999693
 31
0.0
  0
LINE
  5
1C5
100
AcDbEntity
100
AcDbLine
  8
etch
 62
256
370
-1
  6
ByLayer
 10
50.203724618573851
 20
1.1999999999999693
 30
0.0
 11
50.203724618573851
 21
5.1999999999999691
 31
0.0
  0
LINE
  5
1C6
100
AcDbEntity
100
AcDbLine
  8
etch
 62
256
370
-1
  6
ByLayer
 10
50.203724618573851
 20
5.1999999999999691
 30
0.0
 11
49.3148357296849653
 21
5.1999999999999691
 31
0.0
  0
LINE
  5
1C7
100
AcDbEntity
100
AcDbLine
  8
etch
 62
256
370
-1
  6
ByLayer
 10
53.5370579519071796
 20
2.5333333333332209
 30
0.0
 11
56.203724618573851
 21
2.5333333333332209
 31
0.0
  0
LINE
  5
1C8
100
AcDbEntity
100
AcDbLine
  8
etch
 62
256
370
-1
  6
ByLayer
 10
56.203724618573851
 20
1.6444444444443325
 30
0.0
 11
55.3831957296849566
 21
1.3025644444443343
 31
0.0
  0
ARC
  5
1C9
100
AcDbEntity
  8
etch
 62
256
370
-1
  6
ByLayer
100
AcDbCircle
 10
54.8703912852405153
 20
2.5333333333332209
 30
0.0
 40
1.3333333333333333
100
AcDbArc
 50
0.0
 51
292.6200000000000045
  0
LINE
  5
1CA
100
AcDbEntity
100
AcDbLine
  8
etch
 62
256
370
-1
  6
ByLayer
 10
60.8703912852405082
 20
3.8666666666666289
 30
0.0
 11
60.8703912852405082
 21
2.9777777777777406
 31
0.0
  0
ARC
  5
1CB
100
AcDbEntity
  8
etch
 62
256
370
-1
  6
ByLayer
100
AcDbCircle
 10
59.371857951907181
 20
1.504863111111074
 30
0.0
 40
2.4334888888888888
100
AcDbArc
 50
51.9902000000000015
 51
107.4549999999999983
  0
LINE
  5
1CC
100
AcDbEntity
100
AcDbLine
  8
etch
 62
256
370
-1
  6
ByLayer
 10
60.2037246185738439
 20
2.5333333333332959
 30
0.0
 11
58.8703912852405153
 21
2.5333333333332959
 31
0.0
  0
ARC
  5
1CD
100
AcDbEntity
  8
etch
 62
256
370
-1
  6
ByLayer
100
AcDbCircle
 10
58.8703912852405153
 20
3.1999999999999629
 30
0.0
 40
0.6666666666666666
100
AcDbArc
 50
110.6659999999999968
 51
270.0
  0
ARC
  5
1CE
100
AcDbEntity
  8
etch
 62
256
370
-1
  6
ByLayer
100
AcDbCircle
 10
59.7022579519071783
 20
3.5617999999999626
 30
0.0
 40
2.4334888888888888
100
AcDbArc
 50
231.9900000000000091
 51
287.4549999999999841
  0
ARC
  5
1CF
100
AcDbEntity
  8
etch
 62
256
370
-1
  6
ByLayer
100
AcDbCircle
 10
60.2037246185738439
 20
1.8666666666666303
 30
0.0
 40
0.6666666666666666
100
AcDbArc
 50
290.6659999999999968
 51
90.0
  0
LINE
  5
1D0
100
AcDbEntity
100
AcDbLine
  8
etch
 62
256
370
-1
  6
ByLayer
 10
58.2037246185738439
 20
1.1999999999999627
 30
0.0
 11
58.2037246185738439
 21
2.0888888888888513
 31
0.0
  0
LINE
  5
1D1
100
AcDbEntity
100
AcDbLine
  8
etch
 62
256
370
-1
  6
ByLayer
 10
65.5370579519071867
 20
3.8666666666667009
 30
0.0
 11
65.5370579519071867
 21
2.9777777777778125
 31
0.0
  0
ARC
  5
1D2
100
AcDbEntity
  8
etch
 62
256
370
-1
  6
ByLayer
100
AcDbCircle
 10
64.0385246185738595
 20
1.5048631111111441
 30
0.0
 40
2.4334888888888888
100
AcDbArc
 50
51.9902000000000015
 51
107.4549999999999983
  0
LINE
  5
1D3
100
AcDbEntity
100
AcDbLine
  8
etch
 62
256
370
-1
  6
ByLayer
 10
64.8703912852405153
 20
2.5333333333333674
 30
0.0
 11
63.5370579519071867
 21
2.5333333333333679
 31
0.0
  0
ARC
  5
1D4
100
AcDbEntity
  8
etch
 62
256
370
-1
  6
ByLayer
100
AcDbCircle
 10
63.5370579519071867
 20
3.2000000000000335
 30
0.0
 40
0.6666666666666666
100
AcDbArc
 50
110.6659999999999968
 51
270.0
  0
ARC
  5
1D5
100
AcDbEntity
  8
etch
 62
256
370
-1
  6
ByLayer
100
AcDbCircle
 10
64.3689246185738568
 20
3.5618000000000336
 30
0.0
 40
2.4334888888888888
100
AcDbArc
 50
231.9900000000000091
 51
287.4549999999999841
  0
ARC
  5
1D6
100
AcDbEntity
  8
etch
 62
256
370
-1
  6
ByLayer
100
AcDbCircle
 10
64.8703912852405153
 20
1.8666666666667018
 30
0.0
 40
0.6666666666666666
100
AcDbArc
 50
290.6659999999999968
 51
90.0
  0
LINE
  5
1D7
100
AcDbEntity
100
AcDbLine
  8
etch
 62
256
370
-1
  6
ByLayer
 10
62.8703912852405153
 20
1.2000000000000342
 30
0.0
 11
62.8703912852405153
 21
2.0888888888889228
 31
0.0
  0
LINE
  5
1D8
100
AcDbEntity
100
AcDbLine
  8
etch
 62
256
370
-1
  6
ByLayer
 10
-89.5092801741294011
 20
-1.2000000000001272
 30
0.0
 11
-86.3981690630182868
 21
-1.2000000000001272
 31
0.0
  0
LINE
  5
1D9
100
AcDbEntity
100
AcDbLine
  8
etch
 62
256
370
-1
  6
ByLayer
 10
-89.5092801741294011
 20
-5.2000000000001272
 30
0.0
 11
-86.3981690630182868
 21
-5.2000000000001272
 31
0.0
  0
LINE
  5
1DA
100
AcDbEntity
100
AcDbLine
  8
etch
 62
256
370
-1
  6
ByLayer
 10
-87.9537246185738439
 20
-5.2000000000001272
 30
0.0
 11
-87.9537246185738439
 21
-1.2000000000001272
 31
0.0
  0
LINE
  5
1DB
100
AcDbEntity
100
AcDbLine
  8
etch
 62
256
370
-1
  6
ByLayer
 10
-81.7315023963516296
 20
-2.5333333333334744
 30
0.0
 11
-81.7315023963516296
 21
-3.4222222222223628
 31
0.0
  0
ARC
  5
1DC
100
AcDbEntity
  8
etch
 62
256
370
-1
  6
ByLayer
100
AcDbCircle
 10
-83.2300357296849569
 20
-4.895136888889029
 30
0.0
 40
2.4334888888888888
100
AcDbArc
 50
51.9902000000000015
 51
107.4549999999999983
  0
LINE
  5
1DD
100
AcDbEntity
100
AcDbLine
  8
etch
 62
256
370
-1
  6
ByLayer
 10
-82.3981690630182868
 20
-3.8666666666668079
 30
0.0
 11
-83.7315023963516296
 21
-3.8666666666668075
 31
0.0
  0
ARC
  5
1DE
100
AcDbEntity
  8
etch
 62
256
370
-1
  6
ByLayer
100
AcDbCircle
 10
-83.7315023963516296
 20
-3.2000000000001405
 30
0.0
 40
0.6666666666666666
100
AcDbArc
 50
110.6659999999999968
 51
270.0
  0
ARC
  5
1DF
100
AcDbEntity
  8
etch
 62
256
370
-1
  6
ByLayer
100
AcDbCircle
 10
-82.8996357296849595
 20
-2.8382000000001408
 30
0.0
 40
2.4334888888888888
100
AcDbArc
 50
231.9900000000000091
 51
287.4549999999999841
  0
ARC
  5
1E0
100
AcDbEntity
  8
etch
 62
256
370
-1
  6
ByLayer
100
AcDbCircle
 10
-82.3981690630182868
 20
-4.5333333333334727
 30
0.0
 40
0.6666666666666666
100
AcDbArc
 50
290.6659999999999968
 51
90.0
  0
LINE
  5
1E1
100
AcDbEntity
100
AcDbLine
  8
etch
 62
256
370
-1
  6
ByLayer
 10
-84.3981690630182868
 20
-5.2000000000001405
 30
0.0
 11
-84.3981690630182868
 21
-4.3111111111112521
 31
0.0
  0
LINE
  5
1E2
100
AcDbEntity
100
AcDbLine
  8
etch
 62
256
370
-1
  6
ByLayer
 10
-77.3981690630182868
 20
-5.2000000000000073
 30
0.0
 11
-76.5092801741294011
 21
-5.2000000000000073
 31
0.0
  0
LINE
  5
1E3
100
AcDbEntity
100
AcDbLine
  8
etch
 62
256
370
-1
  6
ByLayer
 10
-76.5092801741294011
 20
-5.2000000000000073
 30
0.0
 11
-76.5092801741294011
 21
-1.2000000000000073
 31
0.0
  0
LINE
  5
1E4
100
AcDbEntity
100
AcDbLine
  8
etch
 62
256
370
-1
  6
ByLayer
 10
-76.5092801741294011
 20
-1.2000000000000073
 30
0.0
 11
-77.3981690630182868
 21
-1.2000000000000073
 31
0.0
  0
LINE
  5
1E5
100
AcDbEntity
100
AcDbLine
  8
etch
 62
256
370
-1
  6
ByLayer
 10
-73.8426135074627297
 20
-2.5333333333333408
 30
0.0
 11
-75.1759468407960583
 21
-2.5333333333333408
 31
0.0
  0
LINE
  5
1E6
100
AcDbEntity
100
AcDbLine
  8
etch
 62
256
370
-1
  6
ByLayer
 10
-74.5092801741294011
 20
-2.5333333333333408
 30
0.0
 11
-76.5092801741294011
 21
-4.0016088888888959
 31
0.0
  0
LINE
  5
1E7
100
AcDbEntity
100
AcDbLine
  8
etch
 62
256
370
-1
  6
ByLayer
 10
-73.6203912852405153
 20
-5.2000000000000073
 30
0.0
 11
-74.9537246185738439
 21
-5.2000000000000073
 31
0.0
  0
LINE
  5
1E8
100
AcDbEntity
100
AcDbLine
  8
etch
 62
256
370
-1
  6
ByLayer
 10
-74.2870579519071725
 20
-5.2000000000000073
 30
0.0
 11
-75.8118535074627289
 21
-3.4896044444444518
 31
0.0
  0
LINE
  5
1E9
100
AcDbEntity
100
AcDbLine
  8
etch
 62
256
370
-1
  6
ByLayer
 10
-71.398169063018301
 20
-2.5333333333333954
 30
0.0
 11
-71.398169063018301
 21
-5.2000000000000624
 31
0.0
  0
LINE
  5
1EA
100
AcDbEntity
100
AcDbLine
  8
etch
 62
256
370
-1
  6
ByLayer
 10
-72.0648357296849582
 20
-2.5333333333333958
 30
0.0
 11
-71.398169063018301
 21
-2.5333333333333954
 31
0.0
  0
LINE
  5
1EB
100
AcDbEntity
100
AcDbLine
  8
etch
 62
256
370
-1
  6
ByLayer
 10
-72.0648357296849582
 20
-5.2000000000000624
 30
0.0
 11
-70.7315023963516296
 21
-5.2000000000000624
 31
0.0
  0
LINE
  5
1EC
100
AcDbEntity
100
AcDbLine
  8
etch
 62
256
370
-1
  6
ByLayer
 10
-68.5092801741294153
 20
-5.2000000000000624
 30
0.0
 11
-69.8426135074627439
 21
-5.2000000000000624
 31
0.0
  0
LINE
  5
1ED
100
AcDbEntity
100
AcDbLine
  8
etch
 62
256
370
-1
  6
ByLayer
 10
-69.1759468407960725
 20
-3.644444444444507
 30
0.0
 11
-69.1759468407960725
 21
-5.2000000000000624
 31
0.0
  0
LINE
  5
1EE
100
AcDbEntity
100
AcDbLine
  8
etch
 62
256
370
-1
  6
ByLayer
 10
-71.398169063018301
 20
-3.1423600000000622
 30
0.0
 11
-71.0213246185738569
 21
-2.8105466666667294
 31
0.0
  0
ARC
  5
1EF
100
AcDbEntity
  8
etch
 62
256
370
-1
  6
ByLayer
100
AcDbCircle
 10
-70.2870579519071867
 20
-3.644444444444507
 30
0.0
 40
1.1111111111111112
100
AcDbArc
 50
0.0
 51
131.3660000000000139
  0
ARC
  5
1F0
100
AcDbEntity
  8
etch
 62
256
370
-1
  6
ByLayer
100
AcDbCircle
 10
-65.1759468407960725
 20
-3.8666666666666458
 30
0.0
 40
1.3333333333333333
100
AcDbArc
 50
0.0
 51
180.0
  0
ARC
  5
1F1
100
AcDbEntity
  8
etch
 62
256
370
-1
  6
ByLayer
100
AcDbCircle
 10
-65.1759468407960725
 20
-3.8666666666666458
 30
0.0
 40
1.3333333333333333
100
AcDbArc
 50
180.0
 51
0.0
  0
LINE
  5
1F2
100
AcDbEntity
100
AcDbLine
  8
etch
 62
256
370
-1
  6
ByLayer
 10
-62.5092801741294011
 20
-2.5333333333334074
 30
0.0
 11
-61.1759468407960654
 21
-2.5333333333334074
 31
0.0
  0
LINE
  5
1F3
100
AcDbEntity
100
AcDbLine
  8
etch
 62
256
370
-1
  6
ByLayer
 10
-59.8426135074627368
 20
-2.5333333333334074
 30
0.0
 11
-58.5092801741294011
 21
-2.5333333333334074
 31
0.0
  0
LINE
  5
1F4
100
AcDbEntity
100
AcDbLine
  8
etch
 62
256
370
-1
  6
ByLayer
 10
-62.0648357296849582
 20
-2.5333333333334074
 30
0.0
 11
-61.1759468407960654
 21
-5.2000000000000739
 31
0.0
  0
LINE
  5
1F5
100
AcDbEntity
100
AcDbLine
  8
etch
 62
256
370
-1
  6
ByLayer
 10
-60.5092801741294011
 20
-2.9777777777778516
 30
0.0
 11
-61.1759468407960654
 21
-5.2000000000000739
 31
0.0
  0
LINE
  5
1F6
100
AcDbEntity
100
AcDbLine
  8
etch
 62
256
370
-1
  6
ByLayer
 10
-60.5092801741294011
 20
-2.9777777777778516
 30
0.0
 11
-59.8426135074627368
 21
-5.2000000000000739
 31
0.0
  0
LINE
  5
1F7
100
AcDbEntity
100
AcDbLine
  8
etch
 62
256
370
-1
  6
ByLayer
 10
-59.8426135074627368
 20
-5.2000000000000739
 30
0.0
 11
-58.9537246185738439
 21
-2.5333333333334074
 31
0.0
  0
LINE
  5
1F8
100
AcDbEntity
100
AcDbLine
  8
etch
 62
256
370
-1
  6
ByLayer
 10
-56.2870579519071867
 20
-2.5333333333333243
 30
0.0
 11
-56.2870579519071867
 21
-5.1999999999999913
 31
0.0
  0
LINE
  5
1F9
100
AcDbEntity
100
AcDbLine
  8
etch
 62
256
370
-1
  6
ByLayer
 10
-56.953724618573851
 20
-2.5333333333333248
 30
0.0
 11
-56.2870579519071867
 21
-2.5333333333333243
 31
0.0
  0
LINE
  5
1FA
100
AcDbEntity
100
AcDbLine
  8
etch
 62
256
370
-1
  6
ByLayer
 10
-56.953724618573851
 20
-5.1999999999999913
 30
0.0
 11
-55.6203912852405153
 21
-5.1999999999999913
 31
0.0
  0
LINE
  5
1FB
100
AcDbEntity
100
AcDbLine
  8
etch
 62
256
370
-1
  6
ByLayer
 10
-53.3981690630182939
 20
-5.1999999999999913
 30
0.0
 11
-54.7315023963516296
 21
-5.1999999999999913
 31
0.0
  0
LINE
  5
1FC
100
AcDbEntity
100
AcDbLine
  8
etch
 62
256
370
-1
  6
ByLayer
 10
-54.0648357296849582
 20
-3.6444444444444359
 30
0.0
 11
-54.0648357296849582
 21
-5.1999999999999913
 31
0.0
  0
LINE
  5
1FD
100
AcDbEntity
100
AcDbLine
  8
etch
 62
256
370
-1
  6
ByLayer
 10
-56.2870579519071867
 20
-3.1423599999999912
 30
0.0
 11
-55.9102135074627355
 21
-2.8105466666666588
 31
0.0
  0
ARC
  5
1FE
100
AcDbEntity
  8
etch
 62
256
370
-1
  6
ByLayer
100
AcDbCircle
 10
-55.1759468407960725
 20
-3.6444444444444359
 30
0.0
 40
1.1111111111111112
100
AcDbArc
 50
0.0
 51
131.3660000000000139
  0
LINE
  5
1FF
100
AcDbEntity
100
AcDbLine
  8
etch
 62
256
370
-1
  6
ByLayer
 10
-48.3981690630182939
 20
-2.533333333333271
 30
0.0
 11
-46.1759468407960725
 21
-2.5333333333332715
 31
0.0
  0
LINE
  5
200
100
AcDbEntity
100
AcDbLine
  8
etch
 62
256
370
-1
  6
ByLayer
 10
-47.9537246185738439
 20
-1.6444444444443826
 30
0.0
 11
-47.9537246185738439
 21
-4.3111111111110496
 31
0.0
  0
ARC
  5
201
100
AcDbEntity
  8
etch
 62
256
370
-1
  6
ByLayer
100
AcDbCircle
 10
-47.0648357296849582
 20
-4.3111111111110496
 30
0.0
 40
0.8888888888888888
100
AcDbArc
 50
180.0
 51
290.7970000000000255
  0
LINE
  5
202
100
AcDbEntity
100
AcDbLine
  8
etch
 62
256
370
-1
  6
ByLayer
 10
-45.7315023963516225
 20
-4.7555555555554934
 30
0.0
 11
-46.7492446185738473
 21
-5.142087111111052
 31
0.0
  0
ARC
  5
203
100
AcDbEntity
  8
etch
 62
256
370
-1
  6
ByLayer
100
AcDbCircle
 10
-42.3981690630182939
 20
-3.866666666666652
 30
0.0
 40
1.3333333333333333
100
AcDbArc
 50
0.0
 51
180.0
  0
ARC
  5
204
100
AcDbEntity
  8
etch
 62
256
370
-1
  6
ByLayer
100
AcDbCircle
 10
-42.3981690630182939
 20
-3.866666666666652
 30
0.0
 40
1.3333333333333333
100
AcDbArc
 50
180.0
 51
0.0
  0
LINE
  5
205
100
AcDbEntity
100
AcDbLine
  8
etch
 62
256
370
-1
  6
ByLayer
 10
-36.5092801741294082
 20
-5.1999999999999531
 30
0.0
 11
-35.6203912852405153
 21
-5.1999999999999531
 31
0.0
  0
LINE
  5
206
100
AcDbEntity
100
AcDbLine
  8
etch
 62
256
370
-1
  6
ByLayer
 10
-35.6203912852405153
 20
-5.1999999999999531
 30
0.0
 11
-35.6203912852405153
 21
-1.1999999999999531
 31
0.0
  0
LINE
  5
207
100
AcDbEntity
100
AcDbLine
  8
etch
 62
256
370
-1
  6
ByLayer
 10
-35.6203912852405153
 20
-1.1999999999999531
 30
0.0
 11
-36.5092801741294082
 21
-1.1999999999999531
 31
0.0
  0
ARC
  5
208
100
AcDbEntity
  8
etch
 62
256
370
-1
  6
ByLayer
100
AcDbCircle
 10
-34.2870579519071867
 20
-3.8666666666666201
 30
0.0
 40
1.3333333333333333
100
AcDbArc
 50
0.0
 51
180.0
  0
ARC
  5
209
100
AcDbEntity
  8
etch
 62
256
370
-1
  6
ByLayer
100
AcDbCircle
 10
-34.2870579519071867
 20
-3.8666666666666201
 30
0.0
 40
1.3333333333333333
100
AcDbArc
 50
180.0
 51
0.0
  0
LINE
  5
20A
100
AcDbEntity
100
AcDbLine
  8
etch
 62
256
370
-1
  6
ByLayer
 10
-30.9537246185738475
 20
-3.8666666666666609
 30
0.0
 11
-28.2870579519071832
 21
-3.86666666666666
 31
0.0
  0
LINE
  5
20B
100
AcDbEntity
100
AcDbLine
  8
etch
 62
256
370
-1
  6
ByLayer
 10
-28.2870579519071832
 20
-4.7555555555555493
 30
0.0
 11
-29.1075868407960705
 21
-5.0974355555555473
 31
0.0
  0
ARC
  5
20C
100
AcDbEntity
  8
etch
 62
256
370
-1
  6
ByLayer
100
AcDbCircle
 10
-29.6203912852405153
 20
-3.8666666666666609
 30
0.0
 40
1.3333333333333333
100
AcDbArc
 50
0.0
 51
292.6200000000000045
  0
LINE
  5
20D
100
AcDbEntity
100
AcDbLine
  8
etch
 62
256
370
-1
  6
ByLayer
 10
-23.2870579519071832
 20
-2.5333333333333274
 30
0.0
 11
-21.0648357296849618
 21
-2.533333333333327
 31
0.0
  0
LINE
  5
20E
100
AcDbEntity
100
AcDbLine
  8
etch
 62
256
370
-1
  6
ByLayer
 10
-22.8426135074627403
 20
-1.6444444444444382
 30
0.0
 11
-22.8426135074627403
 21
-4.3111111111111047
 31
0.0
  0
ARC
  5
20F
100
AcDbEntity
  8
etch
 62
256
370
-1
  6
ByLayer
100
AcDbCircle
 10
-21.953724618573851
 20
-4.3111111111111047
 30
0.0
 40
0.8888888888888888
100
AcDbArc
 50
180.0
 51
290.7970000000000255
  0
LINE
  5
210
100
AcDbEntity
100
AcDbLine
  8
etch
 62
256
370
-1
  6
ByLayer
 10
-20.6203912852405189
 20
-4.7555555555555493
 30
0.0
 11
-21.6381335074627401
 21
-5.1420871111111079
 31
0.0
  0
LINE
  5
211
100
AcDbEntity
100
AcDbLine
  8
etch
 62
256
370
-1
  6
ByLayer
 10
-19.0648357296849653
 20
-5.1999999999999806
 30
0.0
 11
-17.7315023963516296
 21
-5.1999999999999806
 31
0.0
  0
LINE
  5
212
100
AcDbEntity
100
AcDbLine
  8
etch
 62
256
370
-1
  6
ByLayer
 10
-19.0648357296849653
 20
-1.1999999999999806
 30
0.0
 11
-18.175946840796076
 21
-1.1999999999999806
 31
0.0
  0
LINE
  5
213
100
AcDbEntity
100
AcDbLine
  8
etch
 62
256
370
-1
  6
ByLayer
 10
-15.5092801741294082
 20
-5.1999999999999806
 30
0.0
 11
-16.8426135074627439
 21
-5.1999999999999806
 31
0.0
  0
LINE
  5
214
100
AcDbEntity
100
AcDbLine
  8
etch
 62
256
370
-1
  6
ByLayer
 10
-18.3981690630182975
 20
-1.1999999999999806
 30
0.0
 11
-18.3981690630182975
 21
-5.1999999999999806
 31
0.0
  0
ARC
  5
215
100
AcDbEntity
  8
etch
 62
256
370
-1
  6
ByLayer
100
AcDbCircle
 10
-17.0648357296849653
 20
-3.4222222222222025
 30
0.0
 40
0.8888888888888888
100
AcDbArc
 50
0.0
 51
121.0550000000000068
  0
LINE
  5
216
100
AcDbEntity
100
AcDbLine
  8
etch
 62
256
370
-1
  6
ByLayer
 10
-16.175946840796076
 20
-3.422222222222203
 30
0.0
 11
-16.175946840796076
 21
-5.1999999999999806
 31
0.0
  0
LINE
  5
217
100
AcDbEntity
100
AcDbLine
  8
etch
 62
256
370
-1
  6
ByLayer
 10
-18.3981690630182975
 20
-3.1874977777777582
 30
0.0
 11
-17.5233868407960749
 21
-2.6607333333333134
 31
0.0
  0
LINE
  5
218
100
AcDbEntity
100
AcDbLine
  8
etch
 62
256
370
-1
  6
ByLayer
 10
-13.5092801741294064
 20
-3.8666666666666645
 30
0.0
 11
-10.8426135074627403
 21
-3.8666666666666636
 31
0.0
  0
LINE
  5
219
100
AcDbEntity
100
AcDbLine
  8
etch
 62
256
370
-1
  6
ByLayer
 10
-10.8426135074627403
 20
-4.7555555555555529
 30
0.0
 11
-11.6631423963516276
 21
-5.0974355555555508
 31
0.0
  0
ARC
  5
21A
100
AcDbEntity
  8
etch
 62
256
370
-1
  6
ByLayer
100
AcDbCircle
 10
-12.1759468407960725
 20
-3.8666666666666645
 30
0.0
 40
1.3333333333333333
100
AcDbArc
 50
0.0
 51
292.6200000000000045
  0
LINE
  5
21B
100
AcDbEntity
100
AcDbLine
  8
etch
 62
256
370
-1
  6
ByLayer
 10
-6.5092801741294082
 20
-2.5333333333333274
 30
0.0
 11
-5.1759468407960751
 21
-2.533333333333327
 31
0.0
  0
LINE
  5
21C
100
AcDbEntity
100
AcDbLine
  8
etch
 62
256
370
-1
  6
ByLayer
 10
-3.8426135074627417
 20
-2.533333333333327
 30
0.0
 11
-2.5092801741294082
 21
-2.5333333333333274
 31
0.0
  0
LINE
  5
21D
100
AcDbEntity
100
AcDbLine
  8
etch
 62
256
370
-1
  6
ByLayer
 10
-6.0648357296849635
 20
-2.5333333333333274
 30
0.0
 11
-5.1759468407960751
 21
-5.199999999999994
 31
0.0
  0
LINE
  5
21E
100
AcDbEntity
100
AcDbLine
  8
etch
 62
256
370
-1
  6
ByLayer
 10
-4.5092801741294082
 20
-2.9777777777777716
 30
0.0
 11
-5.1759468407960751
 21
-5.199999999999994
 31
0.0
  0
LINE
  5
21F
100
AcDbEntity
100
AcDbLine
  8
etch
 62
256
370
-1
  6
ByLayer
 10
-4.5092801741294082
 20
-2.9777777777777716
 30
0.0
 11
-3.8426135074627417
 21
-5.199999999999994
 31
0.0
  0
LINE
  5
220
100
AcDbEntity
100
AcDbLine
  8
etch
 62
256
370
-1
  6
ByLayer
 10
-3.8426135074627417
 20
-5.199999999999994
 30
0.0
 11
-2.9537246185738528
 21
-2.533333333333327
 31
0.0
  0
LINE
  5
221
100
AcDbEntity
100
AcDbLine
  8
etch
 62
256
370
-1
  6
ByLayer
 10
2.1573864925372561
 20
-5.1999999999999966
 30
0.0
 11
-0.5092801741294103
 21
-5.1999999999999966
 31
0.0
  0
LINE
  5
222
100
AcDbEntity
100
AcDbLine
  8
etch
 62
256
370
-1
  6
ByLayer
 10
0.8240531592039231
 20
-5.1999999999999966
 30
0.0
 11
0.8240531592039231
 21
-2.5333333333333297
 31
0.0
  0
LINE
  5
223
100
AcDbEntity
100
AcDbLine
  8
etch
 62
256
370
-1
  6
ByLayer
 10
0.8240531592039231
 20
-2.5333333333333297
 30
0.0
 11
-0.0648357296849655
 21
-2.5333333333333301
 31
0.0
  0
LINE
  5
224
100
AcDbEntity
100
AcDbLine
  8
etch
 62
256
370
-1
  6
ByLayer
 10
0.8240531592039235
 20
-1.6444444444444413
 30
0.0
 11
0.8240531592039235
 21
-1.1999999999999966
 31
0.0
  0
LINE
  5
225
100
AcDbEntity
100
AcDbLine
  8
etch
 62
256
370
-1
  6
ByLayer
 10
6.8240531592039257
 20
-2.5333333333333323
 30
0.0
 11
6.8240531592039257
 21
-3.4222222222222212
 31
0.0
  0
ARC
  5
226
100
AcDbEntity
  8
etch
 62
256
370
-1
  6
ByLayer
100
AcDbCircle
 10
5.3255198258705931
 20
-4.8951368888888878
 30
0.0
 40
2.4334888888888888
100
AcDbArc
 50
51.9902000000000015
 51
107.4549999999999983
  0
LINE
  5
227
100
AcDbEntity
100
AcDbLine
  8
etch
 62
256
370
-1
  6
ByLayer
 10
6.1573864925372588
 20
-3.8666666666666658
 30
0.0
 11
4.8240531592039257
 21
-3.8666666666666663
 31
0.0
  0
ARC
  5
228
100
AcDbEntity
  8
etch
 62
256
370
-1
  6
ByLayer
100
AcDbCircle
 10
4.8240531592039257
 20
-3.1999999999999993
 30
0.0
 40
0.6666666666666666
100
AcDbArc
 50
110.6659999999999968
 51
270.0
  0
ARC
  5
229
100
AcDbEntity
  8
etch
 62
256
370
-1
  6
ByLayer
100
AcDbCircle
 10
5.6559198258705923
 20
-2.8382000000000001
 30
0.0
 40
2.4334888888888888
100
AcDbArc
 50
231.9900000000000091
 51
287.4549999999999841
  0
ARC
  5
22A
100
AcDbEntity
  8
etch
 62
256
370
-1
  6
ByLayer
100
AcDbCircle
 10
6.1573864925372588
 20
-4.5333333333333323
 30
0.0
 40
0.6666666666666666
100
AcDbArc
 50
290.6659999999999968
 51
90.0
  0
LINE
  5
22B
100
AcDbEntity
100
AcDbLine
  8
etch
 62
256
370
-1
  6
ByLayer
 10
4.1573864925372588
 20
-5.1999999999999993
 30
0.0
 11
4.1573864925372588
 21
-4.31111111111111
 31
0.0
  0
LINE
  5
22C
100
AcDbEntity
100
AcDbLine
  8
etch
 62
256
370
-1
  6
ByLayer
 10
8.8240531592039257
 20
-3.8666666666666654
 30
0.0
 11
11.4907198258705918
 21
-3.8666666666666645
 31
0.0
  0
LINE
  5
22D
100
AcDbEntity
100
AcDbLine
  8
etch
 62
256
370
-1
  6
ByLayer
 10
11.4907198258705918
 20
-4.7555555555555538
 30
0.0
 11
10.6701909369817045
 21
-5.0974355555555517
 31
0.0
  0
ARC
  5
22E
100
AcDbEntity
  8
etch
 62
256
370
-1
  6
ByLayer
100
AcDbCircle
 10
10.1573864925372597
 20
-3.8666666666666654
 30
0.0
 40
1.3333333333333333
100
AcDbArc
 50
0.0
 51
292.6200000000000045
  0
LINE
  5
22F
100
AcDbEntity
100
AcDbLine
  8
etch
 62
256
370
-1
  6
ByLayer
 10
16.1573864925372597
 20
-2.5333333333333345
 30
0.0
 11
16.1573864925372597
 21
-3.4222222222222238
 31
0.0
  0
ARC
  5
230
100
AcDbEntity
  8
etch
 62
256
370
-1
  6
ByLayer
100
AcDbCircle
 10
14.6588531592039253
 20
-4.8951368888888895
 30
0.0
 40
2.4334888888888888
100
AcDbArc
 50
51.9902000000000015
 51
107.4549999999999983
  0
LINE
  5
231
100
AcDbEntity
100
AcDbLine
  8
etch
 62
256
370
-1
  6
ByLayer
 10
15.4907198258705936
 20
-3.866666666666668
 30
0.0
 11
14.1573864925372597
 21
-3.866666666666668
 31
0.0
  0
ARC
  5
232
100
AcDbEntity
  8
etch
 62
256
370
-1
  6
ByLayer
100
AcDbCircle
 10
14.1573864925372597
 20
-3.2000000000000006
 30
0.0
 40
0.6666666666666666
100
AcDbArc
 50
110.6659999999999968
 51
270.0
  0
ARC
  5
233
100
AcDbEntity
  8
etch
 62
256
370
-1
  6
ByLayer
100
AcDbCircle
 10
14.9892531592039262
 20
-2.8382000000000014
 30
0.0
 40
2.4334888888888888
100
AcDbArc
 50
231.9900000000000091
 51
287.4549999999999841
  0
ARC
  5
234
100
AcDbEntity
  8
etch
 62
256
370
-1
  6
ByLayer
100
AcDbCircle
 10
15.4907198258705936
 20
-4.5333333333333341
 30
0.0
 40
0.6666666666666666
100
AcDbArc
 50
290.6659999999999968
 51
90.0
  0
LINE
  5
235
100
AcDbEntity
100
AcDbLine
  8
etch
 62
256
370
-1
  6
ByLayer
 10
13.4907198258705918
 20
-5.2000000000000011
 30
0.0
 11
13.4907198258705918
 21
-4.3111111111111118
 31
0.0
  0
LINE
  5
236
100
AcDbEntity
100
AcDbLine
  8
etch
 62
256
370
-1
  6
ByLayer
 10
18.1573864925372597
 20
-2.5333333333333337
 30
0.0
 11
20.3796087147594811
 21
-2.5333333333333332
 31
0.0
  0
LINE
  5
237
100
AcDbEntity
100
AcDbLine
  8
etch
 62
256
370
-1
  6
ByLayer
 10
18.6018309369817025
 20
-1.6444444444444444
 30
0.0
 11
18.6018309369817025
 21
-4.3111111111111118
 31
0.0
  0
ARC
  5
238
100
AcDbEntity
  8
etch
 62
256
370
-1
  6
ByLayer
100
AcDbCircle
 10
19.4907198258705918
 20
-4.3111111111111118
 30
0.0
 40
0.8888888888888888
100
AcDbArc
 50
180.0
 51
290.7970000000000255
  0
LINE
  5
239
100
AcDbEntity
100
AcDbLine
  8
etch
 62
256
370
-1
  6
ByLayer
 10
20.824053159203924
 20
-4.7555555555555555
 30
0.0
 11
19.8063109369817028
 21
-5.1420871111111142
 31
0.0
  0
LINE
  5
23A
100
AcDbEntity
100
AcDbLine
  8
etch
 62
256
370
-1
  6
ByLayer
 10
25.1573864925372561
 20
-2.5333333333333488
 30
0.0
 11
26.4907198258705883
 21
-2.5333333333333488
 31
0.0
  0
LINE
  5
23B
100
AcDbEntity
100
AcDbLine
  8
etch
 62
256
370
-1
  6
ByLayer
 10
27.824053159203924
 20
-2.5333333333333488
 30
0.0
 11
29.1573864925372561
 21
-2.5333333333333488
 31
0.0
  0
LINE
  5
23C
100
AcDbEntity
100
AcDbLine
  8
etch
 62
256
370
-1
  6
ByLayer
 10
25.601830936981699
 20
-2.5333333333333488
 30
0.0
 11
26.4907198258705883
 21
-5.2000000000000153
 31
0.0
  0
LINE
  5
23D
100
AcDbEntity
100
AcDbLine
  8
etch
 62
256
370
-1
  6
ByLayer
 10
27.1573864925372561
 20
-2.977777777777793
 30
0.0
 11
26.4907198258705883
 21
-5.2000000000000153
 31
0.0
  0
LINE
  5
23E
100
AcDbEntity
100
AcDbLine
  8
etch
 62
256
370
-1
  6
ByLayer
 10
27.1573864925372561
 20
-2.977777777777793
 30
0.0
 11
27.824053159203924
 21
-5.2000000000000153
 31
0.0
  0
LINE
  5
23F
100
AcDbEntity
100
AcDbLine
  8
etch
 62
256
370
-1
  6
ByLayer
 10
27.824053159203924
 20
-5.2000000000000153
 30
0.0
 11
28.7129420480928133
 21
-2.5333333333333488
 31
0.0
  0
ARC
  5
240
100
AcDbEntity
  8
etch
 62
256
370
-1
  6
ByLayer
100
AcDbCircle
 10
32.4907198258705918
 20
-3.8666666666666716
 30
0.0
 40
1.3333333333333333
100
AcDbArc
 50
0.0
 51
180.0
  0
ARC
  5
241
100
AcDbEntity
  8
etch
 62
256
370
-1
  6
ByLayer
100
AcDbCircle
 10
32.4907198258705918
 20
-3.8666666666666716
 30
0.0
 40
1.3333333333333333
100
AcDbArc
 50
180.0
 51
0.0
  0
LINE
  5
242
100
AcDbEntity
100
AcDbLine
  8
etch
 62
256
370
-1
  6
ByLayer
 10
36.4907198258705918
 20
-5.2000000000000037
 30
0.0
 11
35.1573864925372561
 21
-5.2000000000000037
 31
0.0
  0
LINE
  5
243
100
AcDbEntity
100
AcDbLine
  8
etch
 62
256
370
-1
  6
ByLayer
 10
35.1573864925372561
 20
-2.5333333333333372
 30
0.0
 11
35.8240531592039204
 21
-2.5333333333333368
 31
0.0
  0
LINE
  5
244
100
AcDbEntity
100
AcDbLine
  8
etch
 62
256
370
-1
  6
ByLayer
 10
35.8240531592039204
 20
-2.5333333333333368
 30
0.0
 11
35.8240531592039204
 21
-5.2000000000000037
 31
0.0
  0
LINE
  5
245
100
AcDbEntity
100
AcDbLine
  8
etch
 62
256
370
-1
  6
ByLayer
 10
37.1573864925372561
 20
-5.2000000000000037
 30
0.0
 11
37.1573864925372561
 21
-2.9777777777777814
 31
0.0
  0
LINE
  5
246
100
AcDbEntity
100
AcDbLine
  8
etch
 62
256
370
-1
  6
ByLayer
 10
38.4907198258705918
 20
-2.9777777777777823
 30
0.0
 11
38.4907198258705918
 21
-5.2000000000000037
 31
0.0
  0
LINE
  5
247
100
AcDbEntity
100
AcDbLine
  8
etch
 62
256
370
-1
  6
ByLayer
 10
37.8240531592039204
 20
-5.2000000000000037
 30
0.0
 11
37.1573864925372561
 21
-5.2000000000000037
 31
0.0
  0
LINE
  5
248
100
AcDbEntity
100
AcDbLine
  8
etch
 62
256
370
-1
  6
ByLayer
 10
39.1573864925372561
 20
-5.2000000000000037
 30
0.0
 11
38.4907198258705918
 21
-5.2000000000000037
 31
0.0
  0
LINE
  5
249
100
AcDbEntity
100
AcDbLine
  8
etch
 62
256
370
-1
  6
ByLayer
 10
37.1573864925372561
 20
-3.1742000000000039
 30
0.0
 11
37.7507020480928119
 21
-2.6458577777777816
 31
0.0
  0
LINE
  5
24A
100
AcDbEntity
100
AcDbLine
  8
etch
 62
256
370
-1
  6
ByLayer
 10
35.8240531592039204
 20
-3.1742000000000039
 30
0.0
 11
36.4173687147594762
 21
-2.6458577777777816
 31
0.0
  0
ARC
  5
24B
100
AcDbEntity
  8
etch
 62
256
370
-1
  6
ByLayer
100
AcDbCircle
 10
36.7129420480928133
 20
-2.9777777777777814
 30
0.0
 40
0.4444444444444444
100
AcDbArc
 50
0.0
 51
131.6870000000000118
  0
ARC
  5
24C
100
AcDbEntity
  8
etch
 62
256
370
-1
  6
ByLayer
100
AcDbCircle
 10
38.0462753814261418
 20
-2.9777777777777814
 30
0.0
 40
0.4444444444444444
100
AcDbArc
 50
0.0
 51
131.6870000000000118
  0
LINE
  5
24D
100
AcDbEntity
100
AcDbLine
  8
etch
 62
256
370
-1
  6
ByLayer
 10
44.2684976036483704
 20
-5.2000000000000091
 30
0.0
 11
43.3796087147594776
 21
-5.2000000000000091
 31
0.0
  0
ARC
  5
24E
100
AcDbEntity
  8
etch
 62
256
370
-1
  6
ByLayer
100
AcDbCircle
 10
41.6594487147594847
 20
-4.312715555555565
 30
0.0
 40
0.8888888888888888
100
AcDbArc
 50
99.5002999999999957
 51
263.4209999999999923
  0
ARC
  5
24F
100
AcDbEntity
  8
etch
 62
256
370
-1
  6
ByLayer
100
AcDbCircle
 10
42.221839825870596
 20
-7.673551111111121
 30
0.0
 40
4.2963022222222218
100
AcDbArc
 50
74.3666000000000054
 51
99.5002000000000066
  0
ARC
  5
250
100
AcDbEntity
  8
etch
 62
256
370
-1
  6
ByLayer
100
AcDbCircle
 10
41.8100576036483673
 20
-3.0063688888888978
 30
0.0
 40
2.2034933333333333
100
AcDbArc
 50
263.4209999999999923
 51
315.4220000000000255
  0
ARC
  5
251
100
AcDbEntity
  8
etch
 62
256
370
-1
  6
ByLayer
100
AcDbCircle
 10
42.4907198258705918
 20
-3.160684444444454
 30
0.0
 40
0.8888888888888888
100
AcDbArc
 50
0.0
 51
90.0
  0
ARC
  5
252
100
AcDbEntity
  8
etch
 62
256
370
-1
  6
ByLayer
100
AcDbCircle
 10
42.4907198258705918
 20
-4.3205822222222316
 30
0.0
 40
2.0487866666666665
100
AcDbArc
 50
90.0
 51
130.6009999999999991
  0
LINE
  5
253
100
AcDbEntity
100
AcDbLine
  8
etch
 62
256
370
-1
  6
ByLayer
 10
43.3796087147594776
 20
-3.160684444444454
 30
0.0
 11
43.3796087147594776
 21
-5.2000000000000091
 31
0.0
  0
LINE
  5
254
100
AcDbEntity
100
AcDbLine
  8
etch
 62
256
370
-1
  6
ByLayer
 10
46.4907198258705847
 20
-2.5333333333333687
 30
0.0
 11
46.4907198258705847
 21
-5.2000000000000357
 31
0.0
  0
LINE
  5
255
100
AcDbEntity
100
AcDbLine
  8
etch
 62
256
370
-1
  6
ByLayer
 10
45.8240531592039204
 20
-2.5333333333333692
 30
0.0
 11
46.4907198258705847
 21
-2.5333333333333687
 31
0.0
  0
LINE
  5
256
100
AcDbEntity
100
AcDbLine
  8
etch
 62
256
370
-1
  6
ByLayer
 10
45.8240531592039204
 20
-5.2000000000000357
 30
0.0
 11
47.1573864925372561
 21
-5.2000000000000357
 31
0.0
  0
LINE
  5
257
100
AcDbEntity
100
AcDbLine
  8
etch
 62
256
370
-1
  6
ByLayer
 10
49.3796087147594776
 20
-5.2000000000000357
 30
0.0
 11
48.0462753814261418
 21
-5.2000000000000357
 31
0.0
  0
LINE
  5
258
100
AcDbEntity
100
AcDbLine
  8
etch
 62
256
370
-1
  6
ByLayer
 10
48.7129420480928133
 20
-3.6444444444444803
 30
0.0
 11
48.7129420480928133
 21
-5.2000000000000357
 31
0.0
  0
LINE
  5
259
100
AcDbEntity
100
AcDbLine
  8
etch
 62
256
370
-1
  6
ByLayer
 10
46.4907198258705847
 20
-3.1423600000000356
 30
0.0
 11
46.8675642703150359
 21
-2.8105466666667032
 31
0.0
  0
ARC
  5
25A
100
AcDbEntity
  8
etch
 62
256
370
-1
  6
ByLayer
100
AcDbCircle
 10
47.601830936981699
 20
-3.6444444444444803
 30
0.0
 40
1.1111111111111112
100
AcDbArc
 50
0.0
 51
131.3660000000000139
  0
LINE
  5
25B
100
AcDbEntity
100
AcDbLine
  8
etch
 62
256
370
-1
  6
ByLayer
 10
57.046275381426149
 20
-5.2000000000000135
 30
0.0
 11
54.3796087147594776
 21
-5.2000000000000135
 31
0.0
  0
LINE
  5
25C
100
AcDbEntity
100
AcDbLine
  8
etch
 62
256
370
-1
  6
ByLayer
 10
55.7129420480928133
 20
-5.2000000000000135
 30
0.0
 11
55.7129420480928133
 21
-2.5333333333333465
 31
0.0
  0
LINE
  5
25D
100
AcDbEntity
100
AcDbLine
  8
etch
 62
256
370
-1
  6
ByLayer
 10
55.7129420480928133
 20
-2.5333333333333465
 30
0.0
 11
54.8240531592039275
 21
-2.5333333333333465
 31
0.0
  0
LINE
  5
25E
100
AcDbEntity
100
AcDbLine
  8
etch
 62
256
370
-1
  6
ByLayer
 10
55.7129420480928133
 20
-1.6444444444444581
 30
0.0
 11
55.7129420480928133
 21
-1.2000000000000135
 31
0.0
  0
LINE
  5
25F
100
AcDbEntity
100
AcDbLine
  8
etch
 62
256
370
-1
  6
ByLayer
 10
59.2684976036483562
 20
-2.5333333333333945
 30
0.0
 11
59.2684976036483562
 21
-5.2000000000000615
 31
0.0
  0
LINE
  5
260
100
AcDbEntity
100
AcDbLine
  8
etch
 62
256
370
-1
  6
ByLayer
 10
58.6018309369816919
 20
-2.5333333333333949
 30
0.0
 11
59.2684976036483562
 21
-2.5333333333333945
 31
0.0
  0
LINE
  5
261
100
AcDbEntity
100
AcDbLine
  8
etch
 62
256
370
-1
  6
ByLayer
 10
58.6018309369816919
 20
-5.2000000000000615
 30
0.0
 11
59.9351642703150276
 21
-5.2000000000000615
 31
0.0
  0
LINE
  5
262
100
AcDbEntity
100
AcDbLine
  8
etch
 62
256
370
-1
  6
ByLayer
 10
62.157386492537249
 20
-5.2000000000000615
 30
0.0
 11
60.8240531592039133
 21
-5.2000000000000615
 31
0.0
  0
LINE
  5
263
100
AcDbEntity
100
AcDbLine
  8
etch
 62
256
370
-1
  6
ByLayer
 10
61.4907198258705847
 20
-3.6444444444445061
 30
0.0
 11
61.4907198258705847
 21
-5.2000000000000615
 31
0.0
  0
LINE
  5
264
100
AcDbEntity
100
AcDbLine
  8
etch
 62
256
370
-1
  6
ByLayer
 10
59.2684976036483562
 20
-3.1423600000000613
 30
0.0
 11
59.6453420480928074
 21
-2.8105466666667289
 31
0.0
  0
ARC
  5
265
100
AcDbEntity
  8
etch
 62
256
370
-1
  6
ByLayer
100
AcDbCircle
 10
60.3796087147594704
 20
-3.6444444444445061
 30
0.0
 40
1.1111111111111112
100
AcDbArc
 50
0.0
 51
131.3660000000000139
  0
LINE
  5
266
100
AcDbEntity
100
AcDbLine
  8
etch
 62
256
370
-1
  6
ByLayer
 10
67.601830936981699
 20
-5.2000000000000375
 30
0.0
 11
67.601830936981699
 21
-1.2000000000000375
 31
0.0
  0
LINE
  5
267
100
AcDbEntity
100
AcDbLine
  8
etch
 62
256
370
-1
  6
ByLayer
 10
66.7129420480928133
 20
-1.2000000000000379
 30
0.0
 11
70.2684976036483562
 21
-1.2000000000000379
 31
0.0
  0
LINE
  5
268
100
AcDbEntity
100
AcDbLine
  8
etch
 62
256
370
-1
  6
ByLayer
 10
66.7129420480928133
 20
-5.2000000000000375
 30
0.0
 11
70.2684976036483562
 21
-5.2000000000000375
 31
0.0
  0
LINE
  5
269
100
AcDbEntity
100
AcDbLine
  8
etch
 62
256
370
-1
  6
ByLayer
 10
70.2684976036483562
 20
-5.2000000000000375
 30
0.0
 11
70.2684976036483562
 21
-4.31111111111115
 31
0.0
  0
LINE
  5
26A
100
AcDbEntity
100
AcDbLine
  8
etch
 62
256
370
-1
  6
ByLayer
 10
70.2684976036483562
 20
-1.2000000000000379
 30
0.0
 11
70.2684976036483562
 21
-2.0888888888889268
 31
0.0
  0
LINE
  5
26B
100
AcDbEntity
100
AcDbLine
  8
etch
 62
256
370
-1
  6
ByLayer
 10
68.9351642703150276
 20
-2.533333333333371
 30
0.0
 11
68.9351642703150276
 21
-3.8666666666667044
 31
0.0
  0
LINE
  5
26C
100
AcDbEntity
100
AcDbLine
  8
etch
 62
256
370
-1
  6
ByLayer
 10
67.601830936981699
 20
-3.2000000000000375
 30
0.0
 11
68.9351642703150276
 21
-3.2000000000000375
 31
0.0
  0
LINE
  5
26D
100
AcDbEntity
100
AcDbLine
  8
etch
 62
256
370
-1
  6
ByLayer
 10
72.4907198258705847
 20
-2.5333333333333776
 30
0.0
 11
72.4907198258705847
 21
-4.3111111111111562
 31
0.0
  0
LINE
  5
26E
100
AcDbEntity
100
AcDbLine
  8
etch
 62
256
370
-1
  6
ByLayer
 10
74.7129420480928133
 20
-2.5333333333333785
 30
0.0
 11
74.7129420480928133
 21
-5.2000000000000446
 31
0.0
  0
LINE
  5
26F
100
AcDbEntity
100
AcDbLine
  8
etch
 62
256
370
-1
  6
ByLayer
 10
74.7129420480928133
 20
-5.2000000000000446
 30
0.0
 11
75.601830936981699
 21
-5.2000000000000446
 31
0.0
  0
LINE
  5
270
100
AcDbEntity
100
AcDbLine
  8
etch
 62
256
370
-1
  6
ByLayer
 10
74.7129420480928133
 20
-4.7555555555555982
 30
0.0
 11
73.6951998258705885
 21
-5.1420862222222645
 31
0.0
  0
ARC
  5
271
100
AcDbEntity
  8
etch
 62
256
370
-1
  6
ByLayer
100
AcDbCircle
 10
73.3796087147594704
 20
-4.3111111111111562
 30
0.0
 40
0.8888888888888888
100
AcDbArc
 50
180.0
 51
290.7970000000000255
  0
LINE
  5
272
100
AcDbEntity
100
AcDbLine
  8
etch
 62
256
370
-1
  6
ByLayer
 10
71.8240531592039275
 20
-2.5333333333333781
 30
0.0
 11
72.4907198258705847
 21
-2.5333333333333776
 31
0.0
  0
LINE
  5
273
100
AcDbEntity
100
AcDbLine
  8
etch
 62
256
370
-1
  6
ByLayer
 10
74.0462753814261418
 20
-2.5333333333333781
 30
0.0
 11
74.7129420480928133
 21
-2.5333333333333785
 31
0.0
  0
LINE
  5
274
100
AcDbEntity
100
AcDbLine
  8
etch
 62
256
370
-1
  6
ByLayer
 10
78.0462753814261418
 20
-2.5333333333333456
 30
0.0
 11
78.0462753814261418
 21
-5.2000000000000126
 31
0.0
  0
LINE
  5
275
100
AcDbEntity
100
AcDbLine
  8
etch
 62
256
370
-1
  6
ByLayer
 10
77.3796087147594704
 20
-2.5333333333333461
 30
0.0
 11
78.0462753814261418
 21
-2.5333333333333456
 31
0.0
  0
LINE
  5
276
100
AcDbEntity
100
AcDbLine
  8
etch
 62
256
370
-1
  6
ByLayer
 10
78.0462753814261418
 20
-3.5483377777777907
 30
0.0
 11
78.8592620480928019
 21
-2.8179244444444569
 31
0.0
  0
ARC
  5
277
100
AcDbEntity
  8
etch
 62
256
370
-1
  6
ByLayer
100
AcDbCircle
 10
79.601830936981699
 20
-3.6444444444444573
 30
0.0
 40
1.1111111111111112
100
AcDbArc
 50
42.1231999999999971
 51
131.9379999999999882
  0
LINE
  5
278
100
AcDbEntity
100
AcDbLine
  8
etch
 62
256
370
-1
  6
ByLayer
 10
77.3796087147594704
 20
-5.2000000000000126
 30
0.0
 11
79.601830936981699
 21
-5.2000000000000126
 31
0.0
  0
ARC
  5
279
100
AcDbEntity
  8
etch
 62
256
370
-1
  6
ByLayer
100
AcDbCircle
 10
83.7592801741294011
 20
-3.8666666666666263
 30
0.0
 40
1.3333333333333333
100
AcDbArc
 50
0.0
 51
180.0
  0
ARC
  5
27A
100
AcDbEntity
  8
etch
 62
256
370
-1
  6
ByLayer
100
AcDbCircle
 10
83.7592801741294011
 20
-3.8666666666666263
 30
0.0
 40
1.3333333333333333
100
AcDbArc
 50
180.0
 51
0.0
  0
ARC
  5
27B
100
AcDbEntity
  8
etch
 62
256
370
-1
  6
ByLayer
100
AcDbCircle
 10
88.8703912852405153
 20
-3.8666666666667808
 30
0.0
 40
1.3333333333333333
100
AcDbArc
 50
0.0
 51
180.0
  0
ARC
  5
27C
100
AcDbEntity
  8
etch
 62
256
370
-1
  6
ByLayer
100
AcDbCircle
 10
88.8703912852405153
 20
-3.8666666666667808
 30
0.0
 40
1.3333333333333333
100
AcDbArc
 50
180.0
 51
0.0
  0
LINE
  5
27D
100
AcDbEntity
100
AcDbLine
  8
etch
 62
256
370
-1
  6
ByLayer
 10
87.5370579519071867
 20
-2.5333333333334469
 30
0.0
 11
87.5370579519071867
 21
-6.5333333333334469
 31
0.0
  0
LINE
  5
27E
100
AcDbEntity
100
AcDbLine
  8
etch
 62
256
370
-1
  6
ByLayer
 10
87.5370579519071867
 20
-2.5333333333334469
 30
0.0
 11
86.648169063018301
 21
-2.5333333333334473
 31
0.0
  0
LINE
  5
27F
100
AcDbEntity
100
AcDbLine
  8
etch
 62
256
370
-1
  6
ByLayer
 10
86.648169063018301
 20
-6.5333333333334469
 30
0.0
 11
88.4259468407960725
 21
-6.5333333333334487
 31
0.0
  0
LINE
  5
280
100
AcDbEntity
100
AcDbLine
  8
etch
 62
256
370
-1
  6
ByLayer
 10
92.2037246185738582
 20
-3.8666666666667666
 30
0.0
 11
94.8703912852405153
 21
-3.8666666666667666
 31
0.0
  0
LINE
  5
281
100
AcDbEntity
100
AcDbLine
  8
etch
 62
256
370
-1
  6
ByLayer
 10
94.8703912852405153
 20
-4.7555555555556559
 30
0.0
 11
94.049862396351628
 21
-5.097435555555653
 31
0.0
  0
ARC
  5
282
100
AcDbEntity
  8
etch
 62
256
370
-1
  6
ByLayer
100
AcDbCircle
 10
93.5370579519071867
 20
-3.8666666666667666
 30
0.0
 40
1.3333333333333333
100
AcDbArc
 50
0.0
 51
292.6200000000000045
  0
LINE
  5
283
100
AcDbEntity
100
AcDbLine
  8
etch
 62
256
370
-1
  6
ByLayer
 10
96.6481690630182868
 20
-4.7555555555556754
 30
0.0
 11
96.6481690630182868
 21
-5.2000000000001201
 31
0.0
  0
LINE
  5
284
100
AcDbEntity
100
AcDbLine
  8
etch
 62
256
370
-1
  6
ByLayer
 10
96.6481690630182868
 20
-5.2000000000001201
 30
0.0
 11
96.2037246185738439
 21
-6.0888888888890094
 31
0.0
  0
LINE
  5
285
100
AcDbEntity
100
AcDbLine
  8
etch
 62
256
370
-1
  6
ByLayer
 10
-58.4537246185738582
 20
-7.5999999999999925
 30
0.0
 11
-57.1203912852405224
 21
-7.5999999999999917
 31
0.0
  0
LINE
  5
286
100
AcDbEntity
100
AcDbLine
  8
etch
 62
256
370
-1
  6
ByLayer
 10
-55.7870579519071939
 20
-7.5999999999999925
 30
0.0
 11
-54.4537246185738582
 21
-7.5999999999999917
 31
0.0
  0
LINE
  5
287
100
AcDbEntity
100
AcDbLine
  8
etch
 62
256
370
-1
  6
ByLayer
 10
-57.1203912852405224
 20
-11.5999999999999925
 30
0.0
 11
-56.4537246185738582
 21
-8.9333333333333265
 31
0.0
  0
LINE
  5
288
100
AcDbEntity
100
AcDbLine
  8
etch
 62
256
370
-1
  6
ByLayer
 10
-56.4537246185738582
 20
-8.9333333333333265
 30
0.0
 11
-55.7870579519071939
 21
-11.5999999999999925
 31
0.0
  0
LINE
  5
289
100
AcDbEntity
100
AcDbLine
  8
etch
 62
256
370
-1
  6
ByLayer
 10
-57.7870579519071939
 20
-7.5999999999999925
 30
0.0
 11
-57.1203912852405224
 21
-11.5999999999999925
 31
0.0
  0
LINE
  5
28A
100
AcDbEntity
100
AcDbLine
  8
etch
 62
256
370
-1
  6
ByLayer
 10
-55.7870579519071939
 20
-11.5999999999999925
 30
0.0
 11
-55.1203912852405224
 21
-7.5999999999999925
 31
0.0
  0
LINE
  5
28B
100
AcDbEntity
100
AcDbLine
  8
etch
 62
256
370
-1
  6
ByLayer
 10
-49.7870579519071867
 20
-11.599999999999957
 30
0.0
 11
-52.4537246185738582
 21
-11.599999999999957
 31
0.0
  0
LINE
  5
28C
100
AcDbEntity
100
AcDbLine
  8
etch
 62
256
370
-1
  6
ByLayer
 10
-51.1203912852405224
 20
-11.599999999999957
 30
0.0
 11
-51.1203912852405224
 21
-8.9333333333332909
 31
0.0
  0
LINE
  5
28D
100
AcDbEntity
100
AcDbLine
  8
etch
 62
256
370
-1
  6
ByLayer
 10
-51.1203912852405224
 20
-8.9333333333332909
 30
0.0
 11
-52.0092801741294082
 21
-8.9333333333332909
 31
0.0
  0
LINE
  5
28E
100
AcDbEntity
100
AcDbLine
  8
etch
 62
256
370
-1
  6
ByLayer
 10
-51.1203912852405224
 20
-8.0444444444444017
 30
0.0
 11
-51.1203912852405224
 21
-7.599999999999957
 31
0.0
  0
LINE
  5
28F
100
AcDbEntity
100
AcDbLine
  8
etch
 62
256
370
-1
  6
ByLayer
 10
-47.7870579519071867
 20
-8.9333333333333318
 30
0.0
 11
-45.5648357296849653
 21
-8.9333333333333318
 31
0.0
  0
LINE
  5
290
100
AcDbEntity
100
AcDbLine
  8
etch
 62
256
370
-1
  6
ByLayer
 10
-47.3426135074627368
 20
-8.0444444444444425
 30
0.0
 11
-47.3426135074627368
 21
-10.7111111111111086
 31
0.0
  0
ARC
  5
291
100
AcDbEntity
  8
etch
 62
256
370
-1
  6
ByLayer
100
AcDbCircle
 10
-46.453724618573851
 20
-10.7111111111111086
 30
0.0
 40
0.8888888888888888
100
AcDbArc
 50
180.0
 51
290.7970000000000255
  0
LINE
  5
292
100
AcDbEntity
100
AcDbLine
  8
etch
 62
256
370
-1
  6
ByLayer
 10
-45.1203912852405153
 20
-11.1555555555555532
 30
0.0
 11
-46.1381335074627401
 21
-11.5420871111111012
 31
0.0
  0
LINE
  5
293
100
AcDbEntity
100
AcDbLine
  8
etch
 62
256
370
-1
  6
ByLayer
 10
-43.5648357296849582
 20
-11.599999999999989
 30
0.0
 11
-42.2315023963516225
 21
-11.599999999999989
 31
0.0
  0
LINE
  5
294
100
AcDbEntity
100
AcDbLine
  8
etch
 62
256
370
-1
  6
ByLayer
 10
-43.5648357296849582
 20
-7.599999999999989
 30
0.0
 11
-42.6759468407960654
 21
-7.599999999999989
 31
0.0
  0
LINE
  5
295
100
AcDbEntity
100
AcDbLine
  8
etch
 62
256
370
-1
  6
ByLayer
 10
-40.0092801741294011
 20
-11.599999999999989
 30
0.0
 11
-41.3426135074627368
 21
-11.599999999999989
 31
0.0
  0
LINE
  5
296
100
AcDbEntity
100
AcDbLine
  8
etch
 62
256
370
-1
  6
ByLayer
 10
-42.8981690630182939
 20
-7.599999999999989
 30
0.0
 11
-42.8981690630182939
 21
-11.599999999999989
 31
0.0
  0
ARC
  5
297
100
AcDbEntity
  8
etch
 62
256
370
-1
  6
ByLayer
100
AcDbCircle
 10
-41.5648357296849582
 20
-9.8222222222222122
 30
0.0
 40
0.8888888888888888
100
AcDbArc
 50
0.0
 51
121.0550000000000068
  0
LINE
  5
298
100
AcDbEntity
100
AcDbLine
  8
etch
 62
256
370
-1
  6
ByLayer
 10
-40.6759468407960725
 20
-9.8222222222222122
 30
0.0
 11
-40.6759468407960725
 21
-11.599999999999989
 31
0.0
  0
LINE
  5
299
100
AcDbEntity
100
AcDbLine
  8
etch
 62
256
370
-1
  6
ByLayer
 10
-42.8981690630182939
 20
-9.5874977777777666
 30
0.0
 11
-42.0233868407960713
 21
-9.0607333333333226
 31
0.0
  0
LINE
  5
29A
100
AcDbEntity
100
AcDbLine
  8
etch
 62
256
370
-1
  6
ByLayer
 10
-31.8981690630182939
 20
-11.6000000000000068
 30
0.0
 11
-32.7870579519071867
 21
-11.6000000000000068
 31
0.0
  0
ARC
  5
29B
100
AcDbEntity
  8
etch
 62
256
370
-1
  6
ByLayer
100
AcDbCircle
 10
-34.5072179519071796
 20
-10.7127155555555618
 30
0.0
 40
0.8888888888888888
100
AcDbArc
 50
99.5002999999999957
 51
263.4209999999999923
  0
ARC
  5
29C
100
AcDbEntity
  8
etch
 62
256
370
-1
  6
ByLayer
100
AcDbCircle
 10
-33.9448268407960754
 20
-14.0735511111111187
 30
0.0
 40
4.2963022222222218
100
AcDbArc
 50
74.3666000000000054
 51
99.5002000000000066
  0
ARC
  5
29D
100
AcDbEntity
  8
etch
 62
256
370
-1
  6
ByLayer
100
AcDbCircle
 10
-34.356609063018297
 20
-9.4063688888888954
 30
0.0
 40
2.2034933333333333
100
AcDbArc
 50
263.4209999999999923
 51
315.4220000000000255
  0
ARC
  5
29E
100
AcDbEntity
  8
etch
 62
256
370
-1
  6
ByLayer
100
AcDbCircle
 10
-33.6759468407960725
 20
-9.5606844444444512
 30
0.0
 40
0.8888888888888888
100
AcDbArc
 50
0.0
 51
90.0
  0
ARC
  5
29F
100
AcDbEntity
  8
etch
 62
256
370
-1
  6
ByLayer
100
AcDbCircle
 10
-33.6759468407960725
 20
-10.7205822222222285
 30
0.0
 40
2.0487866666666665
100
AcDbArc
 50
90.0
 51
130.6009999999999991
  0
LINE
  5
2A0
100
AcDbEntity
100
AcDbLine
  8
etch
 62
256
370
-1
  6
ByLayer
 10
-32.7870579519071867
 20
-9.5606844444444512
 30
0.0
 11
-32.7870579519071867
 21
-11.6000000000000068
 31
0.0
  0
LINE
  5
2A1
100
AcDbEntity
100
AcDbLine
  8
etch
 62
256
370
-1
  6
ByLayer
 10
-27.5648357296849653
 20
-8.9333333333333318
 30
0.0
 11
-26.2315023963516332
 21
-8.9333333333333318
 31
0.0
  0
LINE
  5
2A2
100
AcDbEntity
100
AcDbLine
  8
etch
 62
256
370
-1
  6
ByLayer
 10
-24.8981690630182975
 20
-8.9333333333333318
 30
0.0
 11
-23.5648357296849653
 21
-8.9333333333333318
 31
0.0
  0
LINE
  5
2A3
100
AcDbEntity
100
AcDbLine
  8
etch
 62
256
370
-1
  6
ByLayer
 10
-27.1203912852405224
 20
-8.9333333333333318
 30
0.0
 11
-26.2315023963516332
 21
-11.5999999999999979
 31
0.0
  0
LINE
  5
2A4
100
AcDbEntity
100
AcDbLine
  8
etch
 62
256
370
-1
  6
ByLayer
 10
-25.5648357296849653
 20
-9.3777777777777764
 30
0.0
 11
-26.2315023963516332
 21
-11.5999999999999979
 31
0.0
  0
LINE
  5
2A5
100
AcDbEntity
100
AcDbLine
  8
etch
 62
256
370
-1
  6
ByLayer
 10
-25.5648357296849653
 20
-9.3777777777777764
 30
0.0
 11
-24.8981690630182975
 21
-11.5999999999999979
 31
0.0
  0
LINE
  5
2A6
100
AcDbEntity
100
AcDbLine
  8
etch
 62
256
370
-1
  6
ByLayer
 10
-24.8981690630182975
 20
-11.5999999999999979
 30
0.0
 11
-24.0092801741294082
 21
-8.9333333333333318
 31
0.0
  0
LINE
  5
2A7
100
AcDbEntity
100
AcDbLine
  8
etch
 62
256
370
-1
  6
ByLayer
 10
-18.8981690630182975
 20
-11.5999999999999925
 30
0.0
 11
-21.5648357296849618
 21
-11.5999999999999925
 31
0.0
  0
LINE
  5
2A8
100
AcDbEntity
100
AcDbLine
  8
etch
 62
256
370
-1
  6
ByLayer
 10
-20.2315023963516296
 20
-11.5999999999999925
 30
0.0
 11
-20.2315023963516296
 21
-8.9333333333333265
 31
0.0
  0
LINE
  5
2A9
100
AcDbEntity
100
AcDbLine
  8
etch
 62
256
370
-1
  6
ByLayer
 10
-20.2315023963516296
 20
-8.9333333333333265
 30
0.0
 11
-21.1203912852405189
 21
-8.9333333333333265
 31
0.0
  0
LINE
  5
2AA
100
AcDbEntity
100
AcDbLine
  8
etch
 62
256
370
-1
  6
ByLayer
 10
-20.2315023963516296
 20
-8.0444444444444372
 30
0.0
 11
-20.2315023963516296
 21
-7.5999999999999925
 31
0.0
  0
LINE
  5
2AB
100
AcDbEntity
100
AcDbLine
  8
etch
 62
256
370
-1
  6
ByLayer
 10
-14.2315023963516332
 20
-8.93333333333333
 30
0.0
 11
-14.2315023963516332
 21
-9.8222222222222193
 31
0.0
  0
LINE
  5
2AC
100
AcDbEntity
100
AcDbLine
  8
etch
 62
256
370
-1
  6
ByLayer
 10
-14.2315023963516332
 20
-9.8222222222222193
 30
0.0
 11
-14.4981601741294099
 21
-9.4666622222222188
 31
0.0
  0
LINE
  5
2AD
100
AcDbEntity
100
AcDbLine
  8
etch
 62
256
370
-1
  6
ByLayer
 10
-14.2315023963516332
 20
-11.1555555555555515
 30
0.0
 11
-15.0520312852405205
 21
-11.4974355555555494
 31
0.0
  0
ARC
  5
2AE
100
AcDbEntity
  8
etch
 62
256
370
-1
  6
ByLayer
100
AcDbCircle
 10
-15.5648357296849653
 20
-10.2666666666666622
 30
0.0
 40
1.3333333333333333
100
AcDbArc
 50
36.8699999999999974
 51
292.6200000000000045
  0
LINE
  5
2AF
100
AcDbEntity
100
AcDbLine
  8
etch
 62
256
370
-1
  6
ByLayer
 10
-12.8981690630182975
 20
-11.5999999999999943
 30
0.0
 11
-12.0092801741294082
 21
-11.5999999999999943
 31
0.0
  0
LINE
  5
2B0
100
AcDbEntity
100
AcDbLine
  8
etch
 62
256
370
-1
  6
ByLayer
 10
-12.0092801741294082
 20
-11.5999999999999943
 30
0.0
 11
-12.0092801741294082
 21
-7.5999999999999943
 31
0.0
  0
LINE
  5
2B1
100
AcDbEntity
100
AcDbLine
  8
etch
 62
256
370
-1
  6
ByLayer
 10
-12.0092801741294082
 20
-7.5999999999999943
 30
0.0
 11
-12.8981690630182975
 21
-7.5999999999999943
 31
0.0
  0
LINE
  5
2B2
100
AcDbEntity
100
AcDbLine
  8
etch
 62
256
370
-1
  6
ByLayer
 10
-9.3426135074627421
 20
-8.9333333333333282
 30
0.0
 11
-10.675946840796076
 21
-8.9333333333333282
 31
0.0
  0
LINE
  5
2B3
100
AcDbEntity
100
AcDbLine
  8
etch
 62
256
370
-1
  6
ByLayer
 10
-10.0092801741294082
 20
-8.9333333333333282
 30
0.0
 11
-12.0092801741294082
 21
-10.4016088888888838
 31
0.0
  0
LINE
  5
2B4
100
AcDbEntity
100
AcDbLine
  8
etch
 62
256
370
-1
  6
ByLayer
 10
-9.1203912852405189
 20
-11.5999999999999943
 30
0.0
 11
-10.4537246185738528
 21
-11.5999999999999943
 31
0.0
  0
LINE
  5
2B5
100
AcDbEntity
100
AcDbLine
  8
etch
 62
256
370
-1
  6
ByLayer
 10
-9.7870579519071867
 20
-11.5999999999999943
 30
0.0
 11
-11.3118535074627413
 21
-9.8896044444444389
 31
0.0
  0
LINE
  5
2B6
100
AcDbEntity
100
AcDbLine
  8
etch
 62
256
370
-1
  6
ByLayer
 10
-7.1203912852405216
 20
-10.2666666666666639
 30
0.0
 11
-4.4537246185738555
 21
-10.2666666666666639
 31
0.0
  0
LINE
  5
2B7
100
AcDbEntity
100
AcDbLine
  8
etch
 62
256
370
-1
  6
ByLayer
 10
-4.4537246185738555
 20
-11.1555555555555532
 30
0.0
 11
-5.2742535074627437
 21
-11.4974355555555512
 31
0.0
  0
ARC
  5
2B8
100
AcDbEntity
  8
etch
 62
256
370
-1
  6
ByLayer
100
AcDbCircle
 10
-5.7870579519071885
 20
-10.2666666666666639
 30
0.0
 40
1.3333333333333333
100
AcDbArc
 50
0.0
 51
292.6200000000000045
  0
LINE
  5
2B9
100
AcDbEntity
100
AcDbLine
  8
etch
 62
256
370
-1
  6
ByLayer
 10
0.657386492537257
 20
-11.5999999999999996
 30
0.0
 11
-0.2315023963516318
 21
-11.5999999999999996
 31
0.0
  0
LINE
  5
2BA
100
AcDbEntity
100
AcDbLine
  8
etch
 62
256
370
-1
  6
ByLayer
 10
-0.2315023963516318
 20
-11.5999999999999996
 30
0.0
 11
-0.2315023963516318
 21
-7.5999999999999988
 31
0.0
  0
ARC
  5
2BB
100
AcDbEntity
  8
etch
 62
256
370
-1
  6
ByLayer
100
AcDbCircle
 10
-1.5648357296849653
 20
-10.2666666666666657
 30
0.0
 40
1.3333333333333333
100
AcDbArc
 50
0.0
 51
180.0
  0
ARC
  5
2BC
100
AcDbEntity
  8
etch
 62
256
370
-1
  6
ByLayer
100
AcDbCircle
 10
-1.5648357296849653
 20
-10.2666666666666657
 30
0.0
 40
1.3333333333333333
100
AcDbArc
 50
180.0
 51
0.0
  0
LINE
  5
2BD
100
AcDbEntity
100
AcDbLine
  8
etch
 62
256
370
-1
  6
ByLayer
 10
-0.2315023963516318
 20
-7.5999999999999988
 30
0.0
 11
-1.1203912852405202
 21
-7.5999999999999996
 31
0.0
  0
ARC
  5
2BE
100
AcDbEntity
  8
etch
 62
256
370
-1
  6
ByLayer
100
AcDbCircle
 10
7.4351642703150365
 20
-10.2666666666666657
 30
0.0
 40
1.3333333333333333
100
AcDbArc
 50
0.0
 51
180.0
  0
ARC
  5
2BF
100
AcDbEntity
  8
etch
 62
256
370
-1
  6
ByLayer
100
AcDbCircle
 10
7.4351642703150365
 20
-10.2666666666666657
 30
0.0
 40
1.3333333333333333
100
AcDbArc
 50
180.0
 51
0.0
  0
LINE
  5
2C0
100
AcDbEntity
100
AcDbLine
  8
etch
 62
256
370
-1
  6
ByLayer
 10
6.1018309369817025
 20
-8.9333333333333336
 30
0.0
 11
6.1018309369817025
 21
-12.9333333333333336
 31
0.0
  0
LINE
  5
2C1
100
AcDbEntity
100
AcDbLine
  8
etch
 62
256
370
-1
  6
ByLayer
 10
6.1018309369817025
 20
-8.9333333333333336
 30
0.0
 11
5.2129420480928141
 21
-8.9333333333333336
 31
0.0
  0
LINE
  5
2C2
100
AcDbEntity
100
AcDbLine
  8
etch
 62
256
370
-1
  6
ByLayer
 10
5.2129420480928141
 20
-12.9333333333333336
 30
0.0
 11
6.9907198258705918
 21
-12.9333333333333336
 31
0.0
  0
LINE
  5
2C3
100
AcDbEntity
100
AcDbLine
  8
etch
 62
256
370
-1
  6
ByLayer
 10
13.8796087147594829
 20
-11.5999999999999996
 30
0.0
 11
12.9907198258705936
 21
-11.5999999999999996
 31
0.0
  0
ARC
  5
2C4
100
AcDbEntity
  8
etch
 62
256
370
-1
  6
ByLayer
100
AcDbCircle
 10
11.2705598258705937
 20
-10.7127155555555547
 30
0.0
 40
0.8888888888888888
100
AcDbArc
 50
99.5002999999999957
 51
263.4209999999999923
  0
ARC
  5
2C5
100
AcDbEntity
  8
etch
 62
256
370
-1
  6
ByLayer
100
AcDbCircle
 10
11.832950936981705
 20
-14.0735511111111098
 30
0.0
 40
4.2963022222222218
100
AcDbArc
 50
74.3666000000000054
 51
99.5002000000000066
  0
ARC
  5
2C6
100
AcDbEntity
  8
etch
 62
256
370
-1
  6
ByLayer
100
AcDbCircle
 10
11.4211687147594816
 20
-9.4063688888888883
 30
0.0
 40
2.2034933333333333
100
AcDbArc
 50
263.4209999999999923
 51
315.4220000000000255
  0
ARC
  5
2C7
100
AcDbEntity
  8
etch
 62
256
370
-1
  6
ByLayer
100
AcDbCircle
 10
12.1018309369817043
 20
-9.5606844444444441
 30
0.0
 40
0.8888888888888888
100
AcDbArc
 50
0.0
 51
90.0
  0
ARC
  5
2C8
100
AcDbEntity
  8
etch
 62
256
370
-1
  6
ByLayer
100
AcDbCircle
 10
12.1018309369817043
 20
-10.7205822222222213
 30
0.0
 40
2.0487866666666665
100
AcDbArc
 50
90.0
 51
130.6009999999999991
  0
LINE
  5
2C9
100
AcDbEntity
100
AcDbLine
  8
etch
 62
256
370
-1
  6
ByLayer
 10
12.9907198258705936
 20
-9.5606844444444441
 30
0.0
 11
12.9907198258705936
 21
-11.5999999999999996
 31
0.0
  0
LINE
  5
2CA
100
AcDbEntity
100
AcDbLine
  8
etch
 62
256
370
-1
  6
ByLayer
 10
18.546275381426149
 20
-8.93333333333333
 30
0.0
 11
18.546275381426149
 21
-9.8222222222222193
 31
0.0
  0
LINE
  5
2CB
100
AcDbEntity
100
AcDbLine
  8
etch
 62
256
370
-1
  6
ByLayer
 10
18.546275381426149
 20
-9.8222222222222193
 30
0.0
 11
18.2796176036483722
 21
-9.4666622222222188
 31
0.0
  0
LINE
  5
2CC
100
AcDbEntity
100
AcDbLine
  8
etch
 62
256
370
-1
  6
ByLayer
 10
18.546275381426149
 20
-11.1555555555555515
 30
0.0
 11
17.7257464925372616
 21
-11.4974355555555494
 31
0.0
  0
ARC
  5
2CD
100
AcDbEntity
  8
etch
 62
256
370
-1
  6
ByLayer
100
AcDbCircle
 10
17.2129420480928168
 20
-10.2666666666666622
 30
0.0
 40
1.3333333333333333
100
AcDbArc
 50
36.8699999999999974
 51
292.6200000000000045
  0
LINE
  5
2CE
100
AcDbEntity
100
AcDbLine
  8
etch
 62
256
370
-1
  6
ByLayer
 10
19.8796087147594811
 20
-11.600000000000005
 30
0.0
 11
20.7684976036483704
 21
-11.600000000000005
 31
0.0
  0
LINE
  5
2CF
100
AcDbEntity
100
AcDbLine
  8
etch
 62
256
370
-1
  6
ByLayer
 10
20.7684976036483704
 20
-11.600000000000005
 30
0.0
 11
20.7684976036483704
 21
-7.600000000000005
 31
0.0
  0
LINE
  5
2D0
100
AcDbEntity
100
AcDbLine
  8
etch
 62
256
370
-1
  6
ByLayer
 10
20.7684976036483704
 20
-7.600000000000005
 30
0.0
 11
19.8796087147594811
 21
-7.600000000000005
 31
0.0
  0
LINE
  5
2D1
100
AcDbEntity
100
AcDbLine
  8
etch
 62
256
370
-1
  6
ByLayer
 10
23.4351642703150347
 20
-8.9333333333333371
 30
0.0
 11
22.1018309369817025
 21
-8.9333333333333389
 31
0.0
  0
LINE
  5
2D2
100
AcDbEntity
100
AcDbLine
  8
etch
 62
256
370
-1
  6
ByLayer
 10
22.7684976036483704
 20
-8.9333333333333389
 30
0.0
 11
20.7684976036483704
 21
-10.4016088888888945
 31
0.0
  0
LINE
  5
2D3
100
AcDbEntity
100
AcDbLine
  8
etch
 62
256
370
-1
  6
ByLayer
 10
23.6573864925372597
 20
-11.600000000000005
 30
0.0
 11
22.324053159203924
 21
-11.600000000000005
 31
0.0
  0
LINE
  5
2D4
100
AcDbEntity
100
AcDbLine
  8
etch
 62
256
370
-1
  6
ByLayer
 10
22.9907198258705918
 20
-11.600000000000005
 30
0.0
 11
21.4659242703150355
 21
-9.8896044444444495
 31
0.0
  0
ARC
  5
2D5
100
AcDbEntity
  8
etch
 62
256
370
-1
  6
ByLayer
100
AcDbCircle
 10
29.9907198258705847
 20
-10.2666666666666835
 30
0.0
 40
1.3333333333333333
100
AcDbArc
 50
0.0
 51
180.0
  0
ARC
  5
2D6
100
AcDbEntity
  8
etch
 62
256
370
-1
  6
ByLayer
100
AcDbCircle
 10
29.9907198258705847
 20
-10.2666666666666835
 30
0.0
 40
1.3333333333333333
100
AcDbArc
 50
180.0
 51
0.0
  0
LINE
  5
2D7
100
AcDbEntity
100
AcDbLine
  8
etch
 62
256
370
-1
  6
ByLayer
 10
32.8796087147594776
 20
-11.6000000000000068
 30
0.0
 11
34.6573864925372561
 21
-11.6000000000000068
 31
0.0
  0
LINE
  5
2D8
100
AcDbEntity
100
AcDbLine
  8
etch
 62
256
370
-1
  6
ByLayer
 10
33.7684976036483704
 20
-11.6000000000000068
 30
0.0
 11
33.7684976036483704
 21
-8.488888888888896
 31
0.0
  0
LINE
  5
2D9
100
AcDbEntity
100
AcDbLine
  8
etch
 62
256
370
-1
  6
ByLayer
 10
32.8796087147594776
 20
-8.9333333333333407
 30
0.0
 11
35.101830936981699
 21
-8.9333333333333407
 31
0.0
  0
LINE
  5
2DA
100
AcDbEntity
100
AcDbLine
  8
etch
 62
256
370
-1
  6
ByLayer
 10
35.9907198258705918
 20
-8.0444444444444514
 30
0.0
 11
34.9729776036483671
 21
-7.6579155555555616
 31
0.0
  0
ARC
  5
2DB
100
AcDbEntity
  8
etch
 62
256
370
-1
  6
ByLayer
100
AcDbCircle
 10
34.6573864925372561
 20
-8.488888888888896
 30
0.0
 40
0.8888888888888888
100
AcDbArc
 50
69.2031000000000063
 51
180.0
  0
LINE
  5
2DC
100
AcDbEntity
100
AcDbLine
  8
etch
 62
256
370
-1
  6
ByLayer
 10
43.657386492537249
 20
-8.9333333333333655
 30
0.0
 11
43.657386492537249
 21
-9.8222222222222513
 31
0.0
  0
LINE
  5
2DD
100
AcDbEntity
100
AcDbLine
  8
etch
 62
256
370
-1
  6
ByLayer
 10
43.657386492537249
 20
-9.8222222222222513
 30
0.0
 11
43.3907287147594687
 21
-9.4666622222222525
 31
0.0
  0
LINE
  5
2DE
100
AcDbEntity
100
AcDbLine
  8
etch
 62
256
370
-1
  6
ByLayer
 10
43.657386492537249
 20
-11.1555555555555852
 30
0.0
 11
42.8368576036483546
 21
-11.4974355555555832
 31
0.0
  0
ARC
  5
2DF
100
AcDbEntity
  8
etch
 62
256
370
-1
  6
ByLayer
100
AcDbCircle
 10
42.3240531592039133
 20
-10.2666666666666959
 30
0.0
 40
1.3333333333333333
100
AcDbArc
 50
36.8699999999999974
 51
292.6200000000000045
  0
LINE
  5
2E0
100
AcDbEntity
100
AcDbLine
  8
etch
 62
256
370
-1
  6
ByLayer
 10
48.7684976036483633
 20
-11.6000000000000281
 30
0.0
 11
47.8796087147594704
 21
-11.6000000000000281
 31
0.0
  0
ARC
  5
2E1
100
AcDbEntity
  8
etch
 62
256
370
-1
  6
ByLayer
100
AcDbCircle
 10
46.1594487147594776
 20
-10.7127155555555831
 30
0.0
 40
0.8888888888888888
100
AcDbArc
 50
99.5002999999999957
 51
263.4209999999999923
  0
ARC
  5
2E2
100
AcDbEntity
  8
etch
 62
256
370
-1
  6
ByLayer
100
AcDbCircle
 10
46.7218398258705889
 20
-14.0735511111111382
 30
0.0
 40
4.2963022222222218
100
AcDbArc
 50
74.3666000000000054
 51
99.5002000000000066
  0
ARC
  5
2E3
100
AcDbEntity
  8
etch
 62
256
370
-1
  6
ByLayer
100
AcDbCircle
 10
46.3100576036483602
 20
-9.4063688888889168
 30
0.0
 40
2.2034933333333333
100
AcDbArc
 50
263.4209999999999923
 51
315.4220000000000255
  0
ARC
  5
2E4
100
AcDbEntity
  8
etch
 62
256
370
-1
  6
ByLayer
100
AcDbCircle
 10
46.9907198258705847
 20
-9.5606844444444725
 30
0.0
 40
0.8888888888888888
100
AcDbArc
 50
0.0
 51
90.0
  0
ARC
  5
2E5
100
AcDbEntity
  8
etch
 62
256
370
-1
  6
ByLayer
100
AcDbCircle
 10
46.9907198258705847
 20
-10.7205822222222498
 30
0.0
 40
2.0487866666666665
100
AcDbArc
 50
90.0
 51
130.6009999999999991
  0
LINE
  5
2E6
100
AcDbEntity
100
AcDbLine
  8
etch
 62
256
370
-1
  6
ByLayer
 10
47.8796087147594704
 20
-9.5606844444444725
 30
0.0
 11
47.8796087147594704
 21
-11.6000000000000281
 31
0.0
  0
LINE
  5
2E7
100
AcDbEntity
100
AcDbLine
  8
etch
 62
256
370
-1
  6
ByLayer
 10
51.2129420480928133
 20
-8.9333333333333123
 30
0.0
 11
51.2129420480928133
 21
-11.5999999999999783
 31
0.0
  0
LINE
  5
2E8
100
AcDbEntity
100
AcDbLine
  8
etch
 62
256
370
-1
  6
ByLayer
 10
50.5462753814261418
 20
-8.9333333333333123
 30
0.0
 11
51.2129420480928133
 21
-8.9333333333333123
 31
0.0
  0
LINE
  5
2E9
100
AcDbEntity
100
AcDbLine
  8
etch
 62
256
370
-1
  6
ByLayer
 10
51.2129420480928133
 20
-9.9483377777777555
 30
0.0
 11
52.0259287147594733
 21
-9.2179244444444226
 31
0.0
  0
ARC
  5
2EA
100
AcDbEntity
  8
etch
 62
256
370
-1
  6
ByLayer
100
AcDbCircle
 10
52.7684976036483633
 20
-10.044444444444423
 30
0.0
 40
1.1111111111111112
100
AcDbArc
 50
42.1231999999999971
 51
131.9379999999999882
  0
LINE
  5
2EB
100
AcDbEntity
100
AcDbLine
  8
etch
 62
256
370
-1
  6
ByLayer
 10
50.5462753814261418
 20
-11.5999999999999783
 30
0.0
 11
52.7684976036483633
 21
-11.5999999999999783
 31
0.0
  0
LINE
  5
2EC
100
AcDbEntity
100
AcDbLine
  8
etch
 62
256
370
-1
  6
ByLayer
 10
58.7037246185738439
 20
-11.6000000000000441
 30
0.0
 11
57.8148357296849511
 21
-11.6000000000000441
 31
0.0
  0
LINE
  5
2ED
100
AcDbEntity
100
AcDbLine
  8
etch
 62
256
370
-1
  6
ByLayer
 10
57.8148357296849511
 20
-11.6000000000000441
 30
0.0
 11
57.8148357296849511
 21
-7.6000000000000432
 31
0.0
  0
ARC
  5
2EE
100
AcDbEntity
  8
etch
 62
256
370
-1
  6
ByLayer
100
AcDbCircle
 10
56.4815023963516225
 20
-10.2666666666667101
 30
0.0
 40
1.3333333333333333
100
AcDbArc
 50
0.0
 51
180.0
  0
ARC
  5
2EF
100
AcDbEntity
  8
etch
 62
256
370
-1
  6
ByLayer
100
AcDbCircle
 10
56.4815023963516225
 20
-10.2666666666667101
 30
0.0
 40
1.3333333333333333
100
AcDbArc
 50
180.0
 51
0.0
  0
LINE
  5
2F0
100
AcDbEntity
100
AcDbLine
  8
etch
 62
256
370
-1
  6
ByLayer
 10
57.8148357296849511
 20
-7.6000000000000432
 30
0.0
 11
56.9259468407960654
 21
-7.6000000000000441
 31
0.0
  0
LINE
  5
2F1
100
AcDbEntity
100
AcDbLine
  8
etch
 62
256
370
-1
  6
ByLayer
 10
63.3703912852405082
 20
-8.9333333333333478
 30
0.0
 11
63.3703912852405082
 21
-9.8222222222222371
 31
0.0
  0
ARC
  5
2F2
100
AcDbEntity
  8
etch
 62
256
370
-1
  6
ByLayer
100
AcDbCircle
 10
61.8718579519071739
 20
-11.2951368888889032
 30
0.0
 40
2.4334888888888888
100
AcDbArc
 50
51.9902000000000015
 51
107.4549999999999983
  0
LINE
  5
2F3
100
AcDbEntity
100
AcDbLine
  8
etch
 62
256
370
-1
  6
ByLayer
 10
62.7037246185738368
 20
-10.2666666666666799
 30
0.0
 11
61.3703912852405082
 21
-10.2666666666666799
 31
0.0
  0
ARC
  5
2F4
100
AcDbEntity
  8
etch
 62
256
370
-1
  6
ByLayer
100
AcDbCircle
 10
61.3703912852405082
 20
-9.6000000000000139
 30
0.0
 40
0.6666666666666666
100
AcDbArc
 50
110.6659999999999968
 51
270.0
  0
ARC
  5
2F5
100
AcDbEntity
  8
etch
 62
256
370
-1
  6
ByLayer
100
AcDbCircle
 10
62.2022579519071712
 20
-9.2382000000000133
 30
0.0
 40
2.4334888888888888
100
AcDbArc
 50
231.9900000000000091
 51
287.4549999999999841
  0
ARC
  5
2F6
100
AcDbEntity
  8
etch
 62
256
370
-1
  6
ByLayer
100
AcDbCircle
 10
62.7037246185738368
 20
-10.9333333333333496
 30
0.0
 40
0.6666666666666666
100
AcDbArc
 50
290.6659999999999968
 51
90.0
  0
LINE
  5
2F7
100
AcDbEntity
100
AcDbLine
  8
etch
 62
256
370
-1
  6
ByLayer
 10
60.7037246185738368
 20
-11.6000000000000139
 30
0.0
 11
60.7037246185738368
 21
-10.7111111111111246
 31
0.0
  0
LINE
  5
2F8
100
AcDbEntity
100
AcDbLine
  8
etch
 62
256
370
-1
  6
ByLayer
 10
64.7037246185738582
 20
-11.1555555555555692
 30
0.0
 11
64.7037246185738582
 21
-11.6000000000000139
 31
0.0
  0
ENDSEC
  0
SECTION
  2
OBJECTS
  0
DICTIONARY
  5
C
100
AcDbDictionary
280
0
281
1
  3
ACAD_GROUP
350
D
  3
ACAD_LAYOUT
350
1A
  3
ACAD_MLINESTYLE
350
17
  3
ACAD_PLOTSETTINGS
350
19
  3
ACAD_PLOTSTYLENAME
350
E
  3
AcDbVariableDictionary
350
2F9
  0
DICTIONARY
  5
D
100
AcDbDictionary
280
0
281
1
  0
ACDBDICTIONARYWDFLT
  5
E
100
AcDbDictionary
281
1
  3
Normal
350
F
100
AcDbDictionaryWithDefault
340
F
  0
ACDBPLACEHOLDER
  5
F
  0
DICTIONARY
  5
17
100
AcDbDictionary
280
0
281
1
  3
Standard
350
18
  0
MLINESTYLE
  5
18
100
AcDbMlineStyle
  2
STANDARD
 70
0
  3

 62
256
 51
90.0
 52
90.0
 71
2
 49
0.5
 62
256
  6
BYLAYER
 49
-0.5
 62
256
  6
BYLAYER
  0
DICTIONARY
  5
19
100
AcDbDictionary
280
0
281
1
  0
DICTIONARY
  5
1A
100
AcDbDictionary
281
1
  3
Layout1
350
1E
  3
Layout2
350
26
  3
Model
350
22
  0
LAYOUT
  5
1E
100
AcDbPlotSettings
  1

  2
C:\Program Files\AutoCAD 2002\plotters\DWF ePlot (optimized for plotting).pc3
  4

  6

 40
0.0
 41
0.0
 42
0.0
 43
0.0
 44
0.0
 45
0.0
 46
0.0
 47
0.0
 48
0.0
 49
0.0
140
0.0
141
0.0
142
1.0
143
1.0
 70
688
 72
0
 73
0
 74
5
  7

 75
16
147
1.0
148
0.0
149
0.0
100
AcDbLayout
  1
Layout1
 70
1
 71
1
 10
0.0
 20
0.0
 11
420.0
 21
297.0
 12
0.0
 22
0.0
 32
0.0
 14
100000000000000000000.0
 24
100000000000000000000.0
 34
100000000000000000000.0
 15
-100000000000000000000.0
 25
-100000000000000000000.0
 35
-100000000000000000000.0
146
0.0
 13
0.0
 23
0.0
 33
0.0
 16
1.0
 26
0.0
 36
0.0
 17
0.0
 27
1.0
 37
0.0
 76
0
330
1B
  0
LAYOUT
  5
22
100
AcDbPlotSettings
  1

  2
C:\Program Files\AutoCAD 2002\plotters\DWF ePlot (optimized for plotting).pc3
  4

  6

 40
0.0
 41
0.0
 42
0.0
 43
0.0
 44
0.0
 45
0.0
 46
0.0
 47
0.0
 48
0.0
 49
0.0
140
0.0
141
0.0
142
1.0
143
1.0
 70
1712
 72
0
 73
0
 74
0
  7

 75
0
147
1.0
148
0.0
149
0.0
100
AcDbLayout
  1
Model
 70
1
 71
0
 10
0.0
 20
0.0
 11
12.0
 21
9.0
 12
0.0
 22
0.0
 32
0.0
 14
0.0
 24
0.0
 34
0.0
 15
0.0
 25
0.0
 35
0.0
146
0.0
 13
0.0
 23
0.0
 33
0.0
 16
1.0
 26
0.0
 36
0.0
 17
0.0
 27
1.0
 37
0.0
 76
0
330
1F
  0
LAYOUT
  5
26
100
AcDbPlotSettings
  1

  2
C:\Program Files\AutoCAD 2002\plotters\DWF ePlot (optimized for plotting).pc3
  4

  6

 40
0.0
 41
0.0
 42
0.0
 43
0.0
 44
0.0
 45
0.0
 46
0.0
 47
0.0
 48
0.0
 49
0.0
140
0.0
141
0.0
142
1.0
143
1.0
 70
688
 72
0
 73
0
 74
5
  7

 75
16
147
1.0
148
0.0
149
0.0
100
AcDbLayout
  1
Layout2
 70
1
 71
2
 10
0.0
 20
0.0
 11
12.0
 21
9.0
 12
0.0
 22
0.0
 32
0.0
 14
0.0
 24
0.0
 34
0.0
 15
0.0
 25
0.0
 35
0.0
146
0.0
 13
0.0
 23
0.0
 33
0.0
 16
1.0
 26
0.0
 36
0.0
 17
0.0
 27
1.0
 37
0.0
 76
0
330
23
  0
DICTIONARY
  5
2F9
100
AcDbDictionary
281
1
  3
DIMASSOC
350
2FB
  3
HIDETEXT
350
2FA
  0
DICTIONARYVAR
  5
2FA
100
DictionaryVariables
280
0
  1
2
  0
DICTIONARYVAR
  5
2FB
100
DictionaryVariables
280
0
  1
1
  0
ENDSEC
  0
EOF
