999
dxflib 2.2.0.0
  0
SECTION
  2
HEADER
  9
$ACADVER
  1
AC1015
  9
$HANDSEED
  5
FFFF
  9
$DIMASZ
 40
2.5
  9
$PLIMMIN
 10
0.0
 20
0.0
  9
$DIMEXE
 40
1.25
  9
$DIMGAP
 40
0.625
  9
$PLIMMAX
 10
210.0
 20
297.0
  9
$INSUNITS
 70
4
  9
$DIMEXO
 40
0.625
  9
$DIMTXT
 40
2.5
  9
$CLAYER
  8
etch
  0
ENDSEC
  0
SECTION
  2
TABLES
  0
TABLE
  2
VPORT
  5
8
100
AcDbSymbolTable
 70
1
  0
VPORT
  5
30
100
AcDbSymbolTableRecord
100
AcDbViewportTableRecord
  2
*Active
 70
0
 10
0.0
 20
0.0
 11
1.0
 21
1.0
 12
286.3055555555554861
 22
148.5
 13
0.0
 23
0.0
 14
10.0
 24
10.0
 15
10.0
 25
10.0
 16
0.0
 26
0.0
 36
1.0
 17
0.0
 27
0.0
 37
0.0
 40
297.0
 41
1.92798353909465
 42
50.0
 43
0.0
 44
0.0
 50
0.0
 51
0.0
 71
0
 72
100
 73
1
 74
3
 75
1
 76
1
 77
0
 78
0
281
0
 65
1
110
0.0
120
0.0
130
0.0
111
1.0
121
0.0
131
0.0
112
0.0
122
1.0
132
0.0
 79
0
146
0.0
  0
ENDTAB
  0
TABLE
  2
LTYPE
  5
5
100
AcDbSymbolTable
 70
21
  0
LTYPE
  5
14
100
AcDbSymbolTableRecord
100
AcDbLinetypeTableRecord
  2
ByBlock
 70
0
  3

 72
65
 73
0
 40
0.0
  0
LTYPE
  5
15
100
AcDbSymbolTableRecord
100
AcDbLinetypeTableRecord
  2
ByLayer
 70
0
  3

 72
65
 73
0
 40
0.0
  0
LTYPE
  5
16
100
AcDbSymbolTableRecord
100
AcDbLinetypeTableRecord
  2
CONTINUOUS
 70
0
  3
Solid line
 72
65
 73
0
 40
0.0
  0
LTYPE
  5
31
100
AcDbSymbolTableRecord
100
AcDbLinetypeTableRecord
  2
DOT
 70
0
  3
Dot . . . . . . . . . . . . . . . . . . . . . .
 72
65
 73
2
 40
6.3499999999999996
 49
0.0
 74
0
 49
-6.3499999999999996
 74
0
  0
LTYPE
  5
32
100
AcDbSymbolTableRecord
100
AcDbLinetypeTableRecord
  2
DOT2
 70
0
  3
Dot (.5x) .....................................
 72
65
 73
2
 40
3.1749999999999998
 49
0.0
 74
0
 49
-3.1749999999999998
 74
0
  0
LTYPE
  5
33
100
AcDbSymbolTableRecord
100
AcDbLinetypeTableRecord
  2
DOTX2
 70
0
  3
Dot (2x) .  .  .  .  .  .  .  .  .  .  .  .  .
 72
65
 73
2
 40
12.6999999999999993
 49
0.0
 74
0
 49
-12.6999999999999993
 74
0
  0
LTYPE
  5
34
100
AcDbSymbolTableRecord
100
AcDbLinetypeTableRecord
  2
DASHED
 70
0
  3
Dashed __ __ __ __ __ __ __ __ __ __ __ __ __ _
 72
65
 73
2
 40
19.0500000000000007
 49
12.6999999999999993
 74
0
 49
-6.3499999999999996
 74
0
  0
LTYPE
  5
35
100
AcDbSymbolTableRecord
100
AcDbLinetypeTableRecord
  2
DASHED2
 70
0
  3
Dashed (.5x) _ _ _ _ _ _ _ _ _ _ _ _ _ _ _ _ _
 72
65
 73
2
 40
9.5250000000000004
 49
6.3499999999999996
 74
0
 49
-3.1749999999999998
 74
0
  0
LTYPE
  5
36
100
AcDbSymbolTableRecord
100
AcDbLinetypeTableRecord
  2
DASHEDX2
 70
0
  3
Dashed (2x) ____  ____  ____  ____  ____  ___
 72
65
 73
2
 40
38.1000000000000014
 49
25.3999999999999986
 74
0
 49
-12.6999999999999993
 74
0
  0
LTYPE
  5
37
100
AcDbSymbolTableRecord
100
AcDbLinetypeTableRecord
  2
DASHDOT
 70
0
  3
Dash dot __ . __ . __ . __ . __ . __ . __ . __
 72
65
 73
4
 40
25.3999999999999986
 49
12.6999999999999993
 74
0
 49
-6.3499999999999996
 74
0
 49
0.0
 74
0
 49
-6.3499999999999996
 74
0
  0
LTYPE
  5
38
100
AcDbSymbolTableRecord
100
AcDbLinetypeTableRecord
  2
DASHDOT2
 70
0
  3
Dash dot (.5x) _._._._._._._._._._._._._._._.
 72
65
 73
4
 40
12.6999999999999993
 49
6.3499999999999996
 74
0
 49
-3.1749999999999998
 74
0
 49
0.0
 74
0
 49
-3.1749999999999998
 74
0
  0
LTYPE
  5
39
100
AcDbSymbolTableRecord
100
AcDbLinetypeTableRecord
  2
DASHDOTX2
 70
0
  3
Dash dot (2x) ____  .  ____  .  ____  .  ___
 72
65
 73
4
 40
50.7999999999999972
 49
25.3999999999999986
 74
0
 49
-12.6999999999999993
 74
0
 49
0.0
 74
0
 49
-12.6999999999999993
 74
0
  0
LTYPE
  5
3A
100
AcDbSymbolTableRecord
100
AcDbLinetypeTableRecord
  2
DIVIDE
 70
0
  3
Divide ____ . . ____ . . ____ . . ____ . . ____
 72
65
 73
6
 40
31.75
 49
12.6999999999999993
 74
0
 49
-6.3499999999999996
 74
0
 49
0.0
 74
0
 49
-6.3499999999999996
 74
0
 49
0.0
 74
0
 49
-6.3499999999999996
 74
0
  0
LTYPE
  5
3B
100
AcDbSymbolTableRecord
100
AcDbLinetypeTableRecord
  2
DIVIDE2
 70
0
  3
Divide (.5x) __..__..__..__..__..__..__..__.._
 72
65
 73
6
 40
15.875
 49
6.3499999999999996
 74
0
 49
-3.1749999999999998
 74
0
 49
0.0
 74
0
 49
-3.1749999999999998
 74
0
 49
0.0
 74
0
 49
-3.1749999999999998
 74
0
  0
LTYPE
  5
3C
100
AcDbSymbolTableRecord
100
AcDbLinetypeTableRecord
  2
DIVIDEX2
 70
0
  3
Divide (2x) ________  .  .  ________  .  .  _
 72
65
 73
6
 40
63.5
 49
25.3999999999999986
 74
0
 49
-12.6999999999999993
 74
0
 49
0.0
 74
0
 49
-12.6999999999999993
 74
0
 49
0.0
 74
0
 49
-12.6999999999999993
 74
0
  0
LTYPE
  5
3D
100
AcDbSymbolTableRecord
100
AcDbLinetypeTableRecord
  2
CENTER
 70
0
  3
Center ____ _ ____ _ ____ _ ____ _ ____ _ ____
 72
65
 73
4
 40
50.7999999999999972
 49
31.75
 74
0
 49
-6.3499999999999996
 74
0
 49
6.3499999999999996
 74
0
 49
-6.3499999999999996
 74
0
  0
LTYPE
  5
3E
100
AcDbSymbolTableRecord
100
AcDbLinetypeTableRecord
  2
CENTER2
 70
0
  3
Center (.5x) ___ _ ___ _ ___ _ ___ _ ___ _ ___
 72
65
 73
4
 40
28.5749999999999993
 49
19.0500000000000007
 74
0
 49
-3.1749999999999998
 74
0
 49
3.1749999999999998
 74
0
 49
-3.1749999999999998
 74
0
  0
LTYPE
  5
3F
100
AcDbSymbolTableRecord
100
AcDbLinetypeTableRecord
  2
CENTERX2
 70
0
  3
Center (2x) ________  __  ________  __  _____
 72
65
 73
4
 40
101.5999999999999943
 49
63.5
 74
0
 49
-12.6999999999999993
 74
0
 49
12.6999999999999993
 74
0
 49
-12.6999999999999993
 74
0
  0
LTYPE
  5
40
100
AcDbSymbolTableRecord
100
AcDbLinetypeTableRecord
  2
BORDER
 70
0
  3
Border __ __ . __ __ . __ __ . __ __ . __ __ .
 72
65
 73
6
 40
44.4500000000000028
 49
12.6999999999999993
 74
0
 49
-6.3499999999999996
 74
0
 49
12.6999999999999993
 74
0
 49
-6.3499999999999996
 74
0
 49
0.0
 74
0
 49
-6.3499999999999996
 74
0
  0
LTYPE
  5
41
100
AcDbSymbolTableRecord
100
AcDbLinetypeTableRecord
  2
BORDER2
 70
0
  3
Border (.5x) __.__.__.__.__.__.__.__.__.__.__.
 72
65
 73
6
 40
22.2250000000000014
 49
6.3499999999999996
 74
0
 49
-3.1749999999999998
 74
0
 49
6.3499999999999996
 74
0
 49
-3.1749999999999998
 74
0
 49
0.0
 74
0
 49
-3.1749999999999998
 74
0
  0
LTYPE
  5
42
100
AcDbSymbolTableRecord
100
AcDbLinetypeTableRecord
  2
BORDERX2
 70
0
  3
Border (2x) ____  ____  .  ____  ____  .  ___
 72
65
 73
6
 40
88.9000000000000057
 49
25.3999999999999986
 74
0
 49
-12.6999999999999993
 74
0
 49
25.3999999999999986
 74
0
 49
-12.6999999999999993
 74
0
 49
0.0
 74
0
 49
-12.6999999999999993
 74
0
  0
ENDTAB
  0
TABLE
  2
LAYER
  5
2
100
AcDbSymbolTable
 70
5
  0
LAYER
  5
10
100
AcDbSymbolTableRecord
100
AcDbLayerTableRecord
  2
0
 70
0
 62
7
420
0
  6
CONTINUOUS
370
25
390
F
  0
LAYER
  5
43
100
AcDbSymbolTableRecord
100
AcDbLayerTableRecord
  2
skeleton
 70
1
 62
-5
420
255
  6
CONTINUOUS
370
0
390
F
  0
LAYER
  5
44
100
AcDbSymbolTableRecord
100
AcDbLayerTableRecord
  2
skeleton2
 70
1
 62
-1
420
16711680
  6
CONTINUOUS
370
0
390
F
  0
LAYER
  5
45
100
AcDbSymbolTableRecord
100
AcDbLayerTableRecord
  2
cut
 70
0
 62
7
420
0
  6
CONTINUOUS
370
0
390
F
  0
LAYER
  5
46
100
AcDbSymbolTableRecord
100
AcDbLayerTableRecord
  2
etch
 70
0
 62
3
420
65280
  6
CONTINUOUS
370
0
390
F
  0
ENDTAB
  0
TABLE
  2
STYLE
  5
3
100
AcDbSymbolTable
 70
1
  0
STYLE
  5
11
100
AcDbSymbolTableRecord
100
AcDbTextStyleTableRecord
  2
Standard
 70
0
 40
0.0
 41
0.75
 50
0.0
 71
0
 42
2.5
  3
txt
  4

  0
ENDTAB
  0
TABLE
  2
VIEW
  5
6
100
AcDbSymbolTable
 70
0
  0
ENDTAB
  0
TABLE
  2
UCS
  5
7
100
AcDbSymbolTable
 70
0
  0
ENDTAB
  0
TABLE
  2
APPID
  5
9
100
AcDbSymbolTable
 70
1
  0
APPID
  5
12
100
AcDbSymbolTableRecord
100
AcDbRegAppTableRecord
  2
ACAD
 70
0
  0
ENDTAB
  0
TABLE
  2
DIMSTYLE
  5
A
100
AcDbSymbolTable
 70
1
100
AcDbDimStyleTable
 71
0
  0
DIMSTYLE
105
27
100
AcDbSymbolTableRecord
100
AcDbDimStyleTableRecord
  2
Standard
 41
2.5
 42
0.625
 43
3.75
 44
1.25
 70
0
 73
0
 74
0
 77
1
 78
8
140
2.5
141
2.5
143
0.03937007874016
147
0.625
171
3
172
1
271
2
272
2
274
3
278
44
283
0
284
8
340
11
  0
ENDTAB
  0
TABLE
  2
BLOCK_RECORD
  5
1
100
AcDbSymbolTable
 70
1
  0
BLOCK_RECORD
  5
1F
100
AcDbSymbolTableRecord
100
AcDbBlockTableRecord
  2
*Model_Space
340
22
  0
BLOCK_RECORD
  5
1B
100
AcDbSymbolTableRecord
100
AcDbBlockTableRecord
  2
*Paper_Space
340
1E
  0
BLOCK_RECORD
  5
23
100
AcDbSymbolTableRecord
100
AcDbBlockTableRecord
  2
*Paper_Space0
340
26
  0
ENDTAB
  0
ENDSEC
  0
SECTION
  2
BLOCKS
  0
BLOCK
  5
20
100
AcDbEntity
  8
0
100
AcDbBlockBegin
  2
*Model_Space
 70
0
 10
0.0
 20
0.0
 30
0.0
  3
*Model_Space
  1

  0
ENDBLK
  5
21
100
AcDbEntity
  8
0
100
AcDbBlockEnd
  0
BLOCK
  5
1C
100
AcDbEntity
 67
1
  8
0
100
AcDbBlockBegin
  2
*Paper_Space
 70
0
 10
0.0
 20
0.0
 30
0.0
  3
*Paper_Space
  1

  0
ENDBLK
  5
1D
100
AcDbEntity
 67
1
  8
0
100
AcDbBlockEnd
  0
BLOCK
  5
24
100
AcDbEntity
  8
0
100
AcDbBlockBegin
  2
*Paper_Space0
 70
0
 10
0.0
 20
0.0
 30
0.0
  3
*Paper_Space0
  1

  0
ENDBLK
  5
25
100
AcDbEntity
  8
0
100
AcDbBlockEnd
  0
ENDSEC
  0
SECTION
  2
ENTITIES
  0
LINE
  5
47
100
AcDbEntity
100
AcDbLine
  8
skeleton
 62
256
370
-1
  6
ByLayer
 10
70.0
 20
10.0
 30
0.0
 11
70.0
 21
50.0
 31
0.0
  0
LINE
  5
48
100
AcDbEntity
100
AcDbLine
  8
skeleton
 62
256
370
-1
  6
ByLayer
 10
74.7999999999999972
 20
9.9999999999999982
 30
0.0
 11
74.7999999999999972
 21
50.0
 31
0.0
  0
LINE
  5
49
100
AcDbEntity
100
AcDbLine
  8
skeleton
 62
256
370
-1
  6
ByLayer
 10
65.2000000000000028
 20
10.0
 30
0.0
 11
65.2000000000000028
 21
50.0
 31
0.0
  0
LINE
  5
4A
100
AcDbEntity
100
AcDbLine
  8
skeleton
 62
256
370
-1
  6
ByLayer
 10
60.4000000000000057
 20
10.0
 30
0.0
 11
60.4000000000000057
 21
50.0
 31
0.0
  0
LINE
  5
4B
100
AcDbEntity
100
AcDbLine
  8
skeleton
 62
256
370
-1
  6
ByLayer
 10
76.2000000000000028
 20
9.9999999999999982
 30
0.0
 11
76.2000000000000028
 21
50.0
 31
0.0
  0
LINE
  5
4C
100
AcDbEntity
100
AcDbLine
  8
skeleton
 62
256
370
-1
  6
ByLayer
 10
71.4000000000000057
 20
10.0
 30
0.0
 11
71.4000000000000057
 21
50.0
 31
0.0
  0
LINE
  5
4D
100
AcDbEntity
100
AcDbLine
  8
skeleton
 62
256
370
-1
  6
ByLayer
 10
66.6000000000000085
 20
10.0
 30
0.0
 11
66.6000000000000085
 21
50.0
 31
0.0
  0
LINE
  5
4E
100
AcDbEntity
100
AcDbLine
  8
skeleton
 62
256
370
-1
  6
ByLayer
 10
61.8000000000000043
 20
10.0
 30
0.0
 11
61.8000000000000043
 21
50.0
 31
0.0
  0
LINE
  5
4F
100
AcDbEntity
100
AcDbLine
  8
skeleton
 62
256
370
-1
  6
ByLayer
 10
20.0
 20
20.0
 30
0.0
 11
110.0
 21
20.0
 31
0.0
  0
LINE
  5
50
100
AcDbEntity
100
AcDbLine
  8
skeleton
 62
256
370
-1
  6
ByLayer
 10
30.0
 20
40.0
 30
0.0
 11
100.0
 21
40.0
 31
0.0
  0
LINE
  5
51
100
AcDbEntity
100
AcDbLine
  8
skeleton
 62
256
370
-1
  6
ByLayer
 10
60.4000000000000057
 20
50.0
 30
0.0
 11
76.2000000000000028
 21
50.0
 31
0.0
  0
LINE
  5
52
100
AcDbEntity
100
AcDbLine
  8
skeleton
 62
256
370
-1
  6
ByLayer
 10
76.2000000000000028
 20
9.9999999999999982
 30
0.0
 11
60.4000000000000057
 21
10.0
 31
0.0
  0
LINE
  5
53
100
AcDbEntity
100
AcDbLine
  8
skeleton2
 62
256
370
-1
  6
ByLayer
 10
55.8000000000000114
 20
50.0
 30
0.0
 11
80.8000000000000114
 21
50.0
 31
0.0
  0
LINE
  5
54
100
AcDbEntity
100
AcDbLine
  8
skeleton2
 62
256
370
-1
  6
ByLayer
 10
55.8000000000000114
 20
10.0
 30
0.0
 11
80.8000000000000114
 21
10.0
 31
0.0
  0
LINE
  5
55
100
AcDbEntity
100
AcDbLine
  8
skeleton2
 62
256
370
-1
  6
ByLayer
 10
55.8000000000000114
 20
50.0
 30
0.0
 11
55.8000000000000114
 21
10.0
 31
0.0
  0
LINE
  5
56
100
AcDbEntity
100
AcDbLine
  8
skeleton2
 62
256
370
-1
  6
ByLayer
 10
52.8000000000000114
 20
50.0
 30
0.0
 11
52.8000000000000114
 21
10.0000000000000018
 31
0.0
  0
LINE
  5
57
100
AcDbEntity
100
AcDbLine
  8
skeleton
 62
256
370
-1
  6
ByLayer
 10
30.0
 20
34.0
 30
0.0
 11
100.0
 21
34.0
 31
0.0
  0
LINE
  5
58
100
AcDbEntity
100
AcDbLine
  8
skeleton
 62
256
370
-1
  6
ByLayer
 10
20.0
 20
14.0
 30
0.0
 11
110.0
 21
14.0
 31
0.0
  0
LINE
  5
59
100
AcDbEntity
100
AcDbLine
  8
cut
 62
256
370
-1
  6
ByLayer
 10
52.8000000000000114
 20
40.0
 30
0.0
 11
52.8000000000000114
 21
34.0
 31
0.0
  0
LINE
  5
5A
100
AcDbEntity
100
AcDbLine
  8
cut
 62
256
370
-1
  6
ByLayer
 10
52.8000000000000114
 20
34.0
 30
0.0
 11
55.8000000000000114
 21
34.0
 31
0.0
  0
LINE
  5
5B
100
AcDbEntity
100
AcDbLine
  8
cut
 62
256
370
-1
  6
ByLayer
 10
55.8000000000000114
 20
34.0
 30
0.0
 11
55.8000000000000114
 21
20.0
 31
0.0
  0
LINE
  5
5C
100
AcDbEntity
100
AcDbLine
  8
cut
 62
256
370
-1
  6
ByLayer
 10
55.8000000000000114
 20
20.0
 30
0.0
 11
52.8000000000000114
 21
20.0
 31
0.0
  0
LINE
  5
5D
100
AcDbEntity
100
AcDbLine
  8
cut
 62
256
370
-1
  6
ByLayer
 10
52.8000000000000114
 20
20.0
 30
0.0
 11
52.8000000000000114
 21
14.0
 31
0.0
  0
LINE
  5
5E
100
AcDbEntity
100
AcDbLine
  8
cut
 62
256
370
-1
  6
ByLayer
 10
76.2000000000000028
 20
40.0
 30
0.0
 11
76.2000000000000028
 21
20.0
 31
0.0
  0
LINE
  5
5F
100
AcDbEntity
100
AcDbLine
  8
cut
 62
256
370
-1
  6
ByLayer
 10
76.2000000000000028
 20
20.0
 30
0.0
 11
74.7999999999999972
 21
20.0
 31
0.0
  0
LINE
  5
60
100
AcDbEntity
100
AcDbLine
  8
cut
 62
256
370
-1
  6
ByLayer
 10
74.7999999999999972
 20
20.0
 30
0.0
 11
74.7999999999999972
 21
40.0
 31
0.0
  0
LINE
  5
61
100
AcDbEntity
100
AcDbLine
  8
cut
 62
256
370
-1
  6
ByLayer
 10
74.7999999999999972
 20
40.0
 30
0.0
 11
71.4000000000000057
 21
40.0
 31
0.0
  0
LINE
  5
62
100
AcDbEntity
100
AcDbLine
  8
cut
 62
256
370
-1
  6
ByLayer
 10
71.4000000000000057
 20
40.0
 30
0.0
 11
71.4000000000000057
 21
20.0
 31
0.0
  0
LINE
  5
63
100
AcDbEntity
100
AcDbLine
  8
cut
 62
256
370
-1
  6
ByLayer
 10
71.4000000000000057
 20
20.0
 30
0.0
 11
70.0
 21
20.0
 31
0.0
  0
LINE
  5
64
100
AcDbEntity
100
AcDbLine
  8
cut
 62
256
370
-1
  6
ByLayer
 10
70.0
 20
20.0
 30
0.0
 11
70.0
 21
40.0
 31
0.0
  0
LINE
  5
65
100
AcDbEntity
100
AcDbLine
  8
cut
 62
256
370
-1
  6
ByLayer
 10
70.0
 20
40.0
 30
0.0
 11
66.6000000000000085
 21
40.0
 31
0.0
  0
LINE
  5
66
100
AcDbEntity
100
AcDbLine
  8
cut
 62
256
370
-1
  6
ByLayer
 10
66.6000000000000085
 20
40.0
 30
0.0
 11
66.6000000000000085
 21
20.0
 31
0.0
  0
LINE
  5
67
100
AcDbEntity
100
AcDbLine
  8
cut
 62
256
370
-1
  6
ByLayer
 10
66.6000000000000085
 20
20.0
 30
0.0
 11
65.2000000000000028
 21
20.0
 31
0.0
  0
LINE
  5
68
100
AcDbEntity
100
AcDbLine
  8
cut
 62
256
370
-1
  6
ByLayer
 10
65.2000000000000028
 20
20.0
 30
0.0
 11
65.2000000000000028
 21
40.0
 31
0.0
  0
LINE
  5
69
100
AcDbEntity
100
AcDbLine
  8
cut
 62
256
370
-1
  6
ByLayer
 10
65.2000000000000028
 20
40.0
 30
0.0
 11
61.8000000000000043
 21
40.0
 31
0.0
  0
LINE
  5
6A
100
AcDbEntity
100
AcDbLine
  8
cut
 62
256
370
-1
  6
ByLayer
 10
61.8000000000000043
 20
40.0
 30
0.0
 11
61.8000000000000043
 21
20.0
 31
0.0
  0
LINE
  5
6B
100
AcDbEntity
100
AcDbLine
  8
cut
 62
256
370
-1
  6
ByLayer
 10
61.8000000000000043
 20
20.0
 30
0.0
 11
60.4000000000000057
 21
20.0
 31
0.0
  0
LINE
  5
6C
100
AcDbEntity
100
AcDbLine
  8
cut
 62
256
370
-1
  6
ByLayer
 10
60.4000000000000057
 20
20.0
 30
0.0
 11
60.4000000000000057
 21
40.0
 31
0.0
  0
LINE
  5
6D
100
AcDbEntity
100
AcDbLine
  8
cut
 62
256
370
-1
  6
ByLayer
 10
60.4000000000000057
 20
40.0
 30
0.0
 11
52.8000000000000114
 21
40.0
 31
0.0
  0
LINE
  5
6E
100
AcDbEntity
100
AcDbLine
  8
etch
 62
256
370
-1
  6
ByLayer
 10
64.865066666666678
 20
17.293600000000005
 30
0.0
 11
64.365066666666678
 21
17.293600000000005
 31
0.0
  0
ARC
  5
6F
100
AcDbEntity
  8
etch
 62
256
370
-1
  6
ByLayer
100
AcDbCircle
 10
64.365066666666678
 20
16.793600000000005
 30
0.0
 40
0.5
100
AcDbArc
 50
90.0
 51
180.0
  0
LINE
  5
70
100
AcDbEntity
100
AcDbLine
  8
etch
 62
256
370
-1
  6
ByLayer
 10
63.8650666666666851
 20
16.793600000000005
 30
0.0
 11
63.8650666666666851
 21
15.7936000000000067
 31
0.0
  0
ARC
  5
71
100
AcDbEntity
  8
etch
 62
256
370
-1
  6
ByLayer
100
AcDbCircle
 10
64.365066666666678
 20
15.7936000000000067
 30
0.0
 40
0.5
100
AcDbArc
 50
180.0
 51
270.0
  0
LINE
  5
72
100
AcDbEntity
100
AcDbLine
  8
etch
 62
256
370
-1
  6
ByLayer
 10
64.365066666666678
 20
15.2936000000000067
 30
0.0
 11
64.865066666666678
 21
15.2936000000000067
 31
0.0
  0
LINE
  5
73
100
AcDbEntity
100
AcDbLine
  8
etch
 62
256
370
-1
  6
ByLayer
 10
65.8650666666666922
 20
16.6269333333333371
 30
0.0
 11
65.8650666666666922
 21
15.960266666666671
 31
0.0
  0
ARC
  5
74
100
AcDbEntity
  8
etch
 62
256
370
-1
  6
ByLayer
100
AcDbCircle
 10
66.5317333333333636
 20
15.960266666666671
 30
0.0
 40
0.6666666666666666
100
AcDbArc
 50
180.0
 51
0.0
  0
LINE
  5
75
100
AcDbEntity
100
AcDbLine
  8
etch
 62
256
370
-1
  6
ByLayer
 10
67.1984000000000208
 20
15.960266666666671
 30
0.0
 11
67.1984000000000208
 21
16.6269333333333371
 31
0.0
  0
ARC
  5
76
100
AcDbEntity
  8
etch
 62
256
370
-1
  6
ByLayer
100
AcDbCircle
 10
66.5317333333333636
 20
16.6269333333333371
 30
0.0
 40
0.6666666666666666
100
AcDbArc
 50
0.0
 51
180.0
  0
LINE
  5
77
100
AcDbEntity
100
AcDbLine
  8
etch
 62
256
370
-1
  6
ByLayer
 10
68.1984000000000208
 20
15.293600000000005
 30
0.0
 11
68.1984000000000208
 21
17.293600000000005
 31
0.0
  0
LINE
  5
78
100
AcDbEntity
100
AcDbLine
  8
etch
 62
256
370
-1
  6
ByLayer
 10
68.1984000000000208
 20
17.293600000000005
 30
0.0
 11
69.6984000000000208
 21
17.293600000000005
 31
0.0
  0
ARC
  5
79
100
AcDbEntity
  8
etch
 62
256
370
-1
  6
ByLayer
100
AcDbCircle
 10
69.6984000000000208
 20
16.793600000000005
 30
0.0
 40
0.5
100
AcDbArc
 50
0.0
 51
90.0
  0
LINE
  5
7A
100
AcDbEntity
100
AcDbLine
  8
etch
 62
256
370
-1
  6
ByLayer
 10
70.1984000000000208
 20
16.793600000000005
 30
0.0
 11
70.1984000000000208
 21
15.293600000000005
 31
0.0
  0
LINE
  5
7B
100
AcDbEntity
100
AcDbLine
  8
etch
 62
256
370
-1
  6
ByLayer
 10
69.1984000000000208
 20
17.293600000000005
 30
0.0
 11
69.1984000000000208
 21
15.293600000000005
 31
0.0
  0
LINE
  5
7C
100
AcDbEntity
100
AcDbLine
  8
etch
 62
256
370
-1
  6
ByLayer
 10
71.1984000000000208
 20
18.293600000000005
 30
0.0
 11
71.1984000000000208
 21
15.293600000000005
 31
0.0
  0
LINE
  5
7D
100
AcDbEntity
100
AcDbLine
  8
etch
 62
256
370
-1
  6
ByLayer
 10
71.1984000000000208
 20
15.293600000000005
 30
0.0
 11
72.0317333333333494
 21
15.293600000000005
 31
0.0
  0
ARC
  5
7E
100
AcDbEntity
  8
etch
 62
256
370
-1
  6
ByLayer
100
AcDbCircle
 10
72.0317333333333494
 20
15.793600000000005
 30
0.0
 40
0.5
100
AcDbArc
 50
270.0
 51
0.0
  0
LINE
  5
7F
100
AcDbEntity
100
AcDbLine
  8
etch
 62
256
370
-1
  6
ByLayer
 10
72.5317333333333494
 20
15.793600000000005
 30
0.0
 11
72.5317333333333494
 21
16.793600000000005
 31
0.0
  0
ARC
  5
80
100
AcDbEntity
  8
etch
 62
256
370
-1
  6
ByLayer
100
AcDbCircle
 10
72.0317333333333494
 20
16.793600000000005
 30
0.0
 40
0.5
100
AcDbArc
 50
0.0
 51
90.0
  0
LINE
  5
81
100
AcDbEntity
100
AcDbLine
  8
etch
 62
256
370
-1
  6
ByLayer
 10
72.0317333333333494
 20
17.293600000000005
 30
0.0
 11
71.1984000000000208
 21
17.293600000000005
 31
0.0
  0
LINE
  5
82
100
AcDbEntity
100
AcDbLine
  8
skeleton
 62
256
370
-1
  6
ByLayer
 10
186.1999999999999886
 20
9.9999999999999982
 30
0.0
 11
170.4000000000000057
 21
10.0
 31
0.0
  0
LINE
  5
83
100
AcDbEntity
100
AcDbLine
  8
skeleton2
 62
256
370
-1
  6
ByLayer
 10
165.8000000000000114
 20
10.0
 30
0.0
 11
190.8000000000000114
 21
10.0
 31
0.0
  0
LINE
  5
84
100
AcDbEntity
100
AcDbLine
  8
skeleton2
 62
256
370
-1
  6
ByLayer
 10
83.2000000000000171
 20
50.0
 30
0.0
 11
83.2000000000000171
 21
10.0
 31
0.0
  0
LINE
  5
85
100
AcDbEntity
100
AcDbLine
  8
skeleton2
 62
256
370
-1
  6
ByLayer
 10
86.2000000000000171
 20
50.0
 30
0.0
 11
86.2000000000000171
 21
10.0
 31
0.0
  0
LINE
  5
86
100
AcDbEntity
100
AcDbLine
  8
cut
 62
256
370
-1
  6
ByLayer
 10
86.2000000000000171
 20
20.0
 30
0.0
 11
83.2000000000000171
 21
20.0
 31
0.0
  0
LINE
  5
87
100
AcDbEntity
100
AcDbLine
  8
cut
 62
256
370
-1
  6
ByLayer
 10
83.2000000000000171
 20
20.0
 30
0.0
 11
83.2000000000000171
 21
34.0
 31
0.0
  0
LINE
  5
88
100
AcDbEntity
100
AcDbLine
  8
cut
 62
256
370
-1
  6
ByLayer
 10
83.2000000000000171
 20
34.0
 30
0.0
 11
86.2000000000000171
 21
34.0
 31
0.0
  0
LINE
  5
89
100
AcDbEntity
100
AcDbLine
  8
cut
 62
256
370
-1
  6
ByLayer
 10
86.2000000000000171
 20
40.0
 30
0.0
 11
76.2000000000000028
 21
40.0
 31
0.0
  0
LINE
  5
8A
100
AcDbEntity
100
AcDbLine
  8
cut
 62
256
370
-1
  6
ByLayer
 10
86.2000000000000171
 20
34.0
 30
0.0
 11
86.2000000000000171
 21
40.0
 31
0.0
  0
LINE
  5
8B
100
AcDbEntity
100
AcDbLine
  8
cut
 62
256
370
-1
  6
ByLayer
 10
52.8000000000000114
 20
14.0
 30
0.0
 11
86.2000000000000171
 21
14.0
 31
0.0
  0
LINE
  5
8C
100
AcDbEntity
100
AcDbLine
  8
cut
 62
256
370
-1
  6
ByLayer
 10
86.2000000000000171
 20
14.0
 30
0.0
 11
86.2000000000000171
 21
20.0
 31
0.0
  0
LINE
  5
8D
100
AcDbEntity
100
AcDbLine
  8
skeleton
 62
256
370
-1
  6
ByLayer
 10
210.0
 20
30.0
 30
0.0
 11
210.0
 21
0.0
 31
0.0
  0
LINE
  5
8E
100
AcDbEntity
100
AcDbLine
  8
cut
 62
256
370
-1
  6
ByLayer
 10
210.0
 20
20.0
 30
0.0
 11
210.0
 21
14.0
 31
0.0
  0
LINE
  5
8F
100
AcDbEntity
100
AcDbLine
  8
cut
 62
256
370
-1
  6
ByLayer
 10
210.0
 20
14.0
 30
0.0
 11
160.4000000000000057
 21
14.0
 31
0.0
  0
LINE
  5
90
100
AcDbEntity
100
AcDbLine
  8
cut
 62
256
370
-1
  6
ByLayer
 10
160.4000000000000057
 20
14.0
 30
0.0
 11
160.4000000000000057
 21
20.0
 31
0.0
  0
LINE
  5
91
100
AcDbEntity
100
AcDbLine
  8
cut
 62
256
370
-1
  6
ByLayer
 10
160.4000000000000057
 20
20.0
 30
0.0
 11
165.8000000000000114
 21
20.0
 31
0.0
  0
LINE
  5
92
100
AcDbEntity
100
AcDbLine
  8
cut
 62
256
370
-1
  6
ByLayer
 10
210.0
 20
20.0
 30
0.0
 11
190.8000000000000114
 21
20.0
 31
0.0
  0
LINE
  5
93
100
AcDbEntity
100
AcDbLine
  8
skeleton
 62
256
370
-1
  6
ByLayer
 10
160.4000000000000057
 20
20.0
 30
0.0
 11
220.0
 21
20.0
 31
0.0
  0
LINE
  5
94
100
AcDbEntity
100
AcDbLine
  8
skeleton
 62
256
370
-1
  6
ByLayer
 10
160.4000000000000057
 20
14.0
 30
0.0
 11
220.0
 21
14.0
 31
0.0
  0
LINE
  5
95
100
AcDbEntity
100
AcDbLine
  8
skeleton
 62
256
370
-1
  6
ByLayer
 10
160.4000000000000057
 20
34.0
 30
0.0
 11
220.0
 21
34.0
 31
0.0
  0
LINE
  5
96
100
AcDbEntity
100
AcDbLine
  8
skeleton2
 62
256
370
-1
  6
ByLayer
 10
160.4000000000000057
 20
34.0
 30
0.0
 11
160.4000000000000057
 21
10.0000000000000018
 31
0.0
  0
LINE
  5
97
100
AcDbEntity
100
AcDbLine
  8
skeleton2
 62
256
370
-1
  6
ByLayer
 10
163.4000000000000057
 20
34.0
 30
0.0
 11
163.4000000000000057
 21
10.0
 31
0.0
  0
LINE
  5
98
100
AcDbEntity
100
AcDbLine
  8
skeleton2
 62
256
370
-1
  6
ByLayer
 10
165.8000000000000114
 20
34.0
 30
0.0
 11
165.8000000000000114
 21
10.0
 31
0.0
  0
LINE
  5
99
100
AcDbEntity
100
AcDbLine
  8
skeleton
 62
256
370
-1
  6
ByLayer
 10
170.4000000000000057
 20
10.0
 30
0.0
 11
170.4000000000000057
 21
34.0
 31
0.0
  0
LINE
  5
9A
100
AcDbEntity
100
AcDbLine
  8
skeleton
 62
256
370
-1
  6
ByLayer
 10
171.8000000000000114
 20
10.0
 30
0.0
 11
171.8000000000000114
 21
34.0
 31
0.0
  0
LINE
  5
9B
100
AcDbEntity
100
AcDbLine
  8
skeleton2
 62
256
370
-1
  6
ByLayer
 10
172.8000000000000114
 20
10.0
 30
0.0
 11
172.8000000000000114
 21
34.0
 31
0.0
  0
LINE
  5
9C
100
AcDbEntity
100
AcDbLine
  8
skeleton2
 62
256
370
-1
  6
ByLayer
 10
174.2000000000000171
 20
10.0
 30
0.0
 11
174.2000000000000171
 21
34.0
 31
0.0
  0
LINE
  5
9D
100
AcDbEntity
100
AcDbLine
  8
skeleton
 62
256
370
-1
  6
ByLayer
 10
176.6000000000000227
 20
10.0
 30
0.0
 11
176.6000000000000227
 21
34.0
 31
0.0
  0
LINE
  5
9E
100
AcDbEntity
100
AcDbLine
  8
skeleton2
 62
256
370
-1
  6
ByLayer
 10
179.0000000000000284
 20
10.0
 30
0.0
 11
179.0000000000000284
 21
34.0
 31
0.0
  0
LINE
  5
9F
100
AcDbEntity
100
AcDbLine
  8
skeleton2
 62
256
370
-1
  6
ByLayer
 10
182.4000000000000057
 20
10.0
 30
0.0
 11
182.4000000000000057
 21
34.0
 31
0.0
  0
LINE
  5
A0
100
AcDbEntity
100
AcDbLine
  8
skeleton2
 62
256
370
-1
  6
ByLayer
 10
188.5999999999999943
 20
9.9999999999999982
 30
0.0
 11
188.5999999999999943
 21
33.9999999999999929
 31
0.0
  0
LINE
  5
A1
100
AcDbEntity
100
AcDbLine
  8
skeleton2
 62
256
370
-1
  6
ByLayer
 10
190.8000000000000114
 20
34.0
 30
0.0
 11
190.8000000000000114
 21
10.0
 31
0.0
  0
LINE
  5
A2
100
AcDbEntity
100
AcDbLine
  8
skeleton2
 62
256
370
-1
  6
ByLayer
 10
196.2000000000000171
 20
34.0
 30
0.0
 11
196.2000000000000171
 21
10.0
 31
0.0
  0
LINE
  5
A3
100
AcDbEntity
100
AcDbLine
  8
skeleton2
 62
256
370
-1
  6
ByLayer
 10
193.2000000000000171
 20
34.0
 30
0.0
 11
193.2000000000000171
 21
10.0
 31
0.0
  0
LINE
  5
A4
100
AcDbEntity
100
AcDbLine
  8
skeleton2
 62
256
370
-1
  6
ByLayer
 10
187.2000000000000171
 20
9.9999999999999982
 30
0.0
 11
187.2000000000000171
 21
33.9999999999999929
 31
0.0
  0
LINE
  5
A5
100
AcDbEntity
100
AcDbLine
  8
skeleton
 62
256
370
-1
  6
ByLayer
 10
186.1999999999999886
 20
9.9999999999999982
 30
0.0
 11
186.1999999999999886
 21
33.9999999999999929
 31
0.0
  0
LINE
  5
A6
100
AcDbEntity
100
AcDbLine
  8
skeleton
 62
256
370
-1
  6
ByLayer
 10
184.8000000000000114
 20
9.9999999999999982
 30
0.0
 11
184.8000000000000114
 21
33.9999999999999929
 31
0.0
  0
LINE
  5
A7
100
AcDbEntity
100
AcDbLine
  8
skeleton2
 62
256
370
-1
  6
ByLayer
 10
183.8000000000000114
 20
10.0
 30
0.0
 11
183.8000000000000114
 21
34.0
 31
0.0
  0
LINE
  5
A8
100
AcDbEntity
100
AcDbLine
  8
skeleton
 62
256
370
-1
  6
ByLayer
 10
181.4000000000000057
 20
10.0
 30
0.0
 11
181.4000000000000057
 21
34.0
 31
0.0
  0
LINE
  5
A9
100
AcDbEntity
100
AcDbLine
  8
skeleton
 62
256
370
-1
  6
ByLayer
 10
180.0
 20
10.0
 30
0.0
 11
180.0
 21
34.0
 31
0.0
  0
LINE
  5
AA
100
AcDbEntity
100
AcDbLine
  8
skeleton2
 62
256
370
-1
  6
ByLayer
 10
177.5999999999999943
 20
10.0
 30
0.0
 11
177.5999999999999943
 21
34.0
 31
0.0
  0
LINE
  5
AB
100
AcDbEntity
100
AcDbLine
  8
skeleton
 62
256
370
-1
  6
ByLayer
 10
175.1999999999999886
 20
10.0
 30
0.0
 11
175.1999999999999886
 21
34.0
 31
0.0
  0
LINE
  5
AC
100
AcDbEntity
100
AcDbLine
  8
skeleton
 62
256
370
-1
  6
ByLayer
 10
186.1999999999999886
 20
60.0
 30
0.0
 11
170.4000000000000057
 21
60.0
 31
0.0
  0
LINE
  5
AD
100
AcDbEntity
100
AcDbLine
  8
skeleton2
 62
256
370
-1
  6
ByLayer
 10
165.8000000000000114
 20
60.0
 30
0.0
 11
190.8000000000000114
 21
60.0
 31
0.0
  0
LINE
  5
AE
100
AcDbEntity
100
AcDbLine
  8
skeleton
 62
256
370
-1
  6
ByLayer
 10
210.0
 20
80.0
 30
0.0
 11
210.0
 21
50.0
 31
0.0
  0
LINE
  5
AF
100
AcDbEntity
100
AcDbLine
  8
cut
 62
256
370
-1
  6
ByLayer
 10
210.0
 20
70.0
 30
0.0
 11
210.0
 21
64.0
 31
0.0
  0
LINE
  5
B0
100
AcDbEntity
100
AcDbLine
  8
cut
 62
256
370
-1
  6
ByLayer
 10
210.0
 20
64.0
 30
0.0
 11
160.4000000000000057
 21
64.0
 31
0.0
  0
LINE
  5
B1
100
AcDbEntity
100
AcDbLine
  8
cut
 62
256
370
-1
  6
ByLayer
 10
160.4000000000000057
 20
64.0
 30
0.0
 11
160.4000000000000057
 21
70.0
 31
0.0
  0
LINE
  5
B2
100
AcDbEntity
100
AcDbLine
  8
cut
 62
256
370
-1
  6
ByLayer
 10
160.4000000000000057
 20
70.0
 30
0.0
 11
165.8000000000000114
 21
70.0
 31
0.0
  0
LINE
  5
B3
100
AcDbEntity
100
AcDbLine
  8
cut
 62
256
370
-1
  6
ByLayer
 10
210.0
 20
70.0
 30
0.0
 11
190.8000000000000114
 21
70.0
 31
0.0
  0
LINE
  5
B4
100
AcDbEntity
100
AcDbLine
  8
skeleton
 62
256
370
-1
  6
ByLayer
 10
160.4000000000000057
 20
70.0
 30
0.0
 11
220.0
 21
70.0
 31
0.0
  0
LINE
  5
B5
100
AcDbEntity
100
AcDbLine
  8
skeleton
 62
256
370
-1
  6
ByLayer
 10
160.4000000000000057
 20
64.0
 30
0.0
 11
220.0
 21
64.0
 31
0.0
  0
LINE
  5
B6
100
AcDbEntity
100
AcDbLine
  8
skeleton
 62
256
370
-1
  6
ByLayer
 10
160.4000000000000057
 20
84.0
 30
0.0
 11
220.0
 21
84.0
 31
0.0
  0
LINE
  5
B7
100
AcDbEntity
100
AcDbLine
  8
skeleton2
 62
256
370
-1
  6
ByLayer
 10
160.4000000000000057
 20
84.0
 30
0.0
 11
160.4000000000000057
 21
60.0
 31
0.0
  0
LINE
  5
B8
100
AcDbEntity
100
AcDbLine
  8
skeleton2
 62
256
370
-1
  6
ByLayer
 10
163.4000000000000057
 20
84.0
 30
0.0
 11
163.4000000000000057
 21
60.0
 31
0.0
  0
LINE
  5
B9
100
AcDbEntity
100
AcDbLine
  8
skeleton2
 62
256
370
-1
  6
ByLayer
 10
165.8000000000000114
 20
84.0
 30
0.0
 11
165.8000000000000114
 21
60.0
 31
0.0
  0
LINE
  5
BA
100
AcDbEntity
100
AcDbLine
  8
skeleton
 62
256
370
-1
  6
ByLayer
 10
170.4000000000000057
 20
60.0
 30
0.0
 11
170.4000000000000057
 21
84.0
 31
0.0
  0
LINE
  5
BB
100
AcDbEntity
100
AcDbLine
  8
skeleton
 62
256
370
-1
  6
ByLayer
 10
171.8000000000000114
 20
60.0
 30
0.0
 11
171.8000000000000114
 21
84.0
 31
0.0
  0
LINE
  5
BC
100
AcDbEntity
100
AcDbLine
  8
skeleton2
 62
256
370
-1
  6
ByLayer
 10
172.8000000000000114
 20
60.0
 30
0.0
 11
172.8000000000000114
 21
84.0
 31
0.0
  0
LINE
  5
BD
100
AcDbEntity
100
AcDbLine
  8
skeleton2
 62
256
370
-1
  6
ByLayer
 10
174.2000000000000171
 20
60.0
 30
0.0
 11
174.2000000000000171
 21
84.0
 31
0.0
  0
LINE
  5
BE
100
AcDbEntity
100
AcDbLine
  8
skeleton
 62
256
370
-1
  6
ByLayer
 10
176.6000000000000227
 20
60.0
 30
0.0
 11
176.6000000000000227
 21
84.0
 31
0.0
  0
LINE
  5
BF
100
AcDbEntity
100
AcDbLine
  8
skeleton2
 62
256
370
-1
  6
ByLayer
 10
179.0000000000000284
 20
60.0
 30
0.0
 11
179.0000000000000284
 21
84.0
 31
0.0
  0
LINE
  5
C0
100
AcDbEntity
100
AcDbLine
  8
skeleton2
 62
256
370
-1
  6
ByLayer
 10
182.4000000000000057
 20
60.0
 30
0.0
 11
182.4000000000000057
 21
84.0
 31
0.0
  0
LINE
  5
C1
100
AcDbEntity
100
AcDbLine
  8
skeleton2
 62
256
370
-1
  6
ByLayer
 10
188.5999999999999943
 20
60.0
 30
0.0
 11
188.5999999999999943
 21
84.0
 31
0.0
  0
LINE
  5
C2
100
AcDbEntity
100
AcDbLine
  8
skeleton2
 62
256
370
-1
  6
ByLayer
 10
190.8000000000000114
 20
84.0
 30
0.0
 11
190.8000000000000114
 21
60.0
 31
0.0
  0
LINE
  5
C3
100
AcDbEntity
100
AcDbLine
  8
skeleton2
 62
256
370
-1
  6
ByLayer
 10
196.2000000000000171
 20
84.0
 30
0.0
 11
196.2000000000000171
 21
60.0
 31
0.0
  0
LINE
  5
C4
100
AcDbEntity
100
AcDbLine
  8
skeleton2
 62
256
370
-1
  6
ByLayer
 10
193.2000000000000171
 20
84.0
 30
0.0
 11
193.2000000000000171
 21
60.0
 31
0.0
  0
LINE
  5
C5
100
AcDbEntity
100
AcDbLine
  8
skeleton2
 62
256
370
-1
  6
ByLayer
 10
187.2000000000000171
 20
60.0
 30
0.0
 11
187.2000000000000171
 21
84.0
 31
0.0
  0
LINE
  5
C6
100
AcDbEntity
100
AcDbLine
  8
skeleton
 62
256
370
-1
  6
ByLayer
 10
186.1999999999999886
 20
60.0
 30
0.0
 11
186.1999999999999886
 21
84.0
 31
0.0
  0
LINE
  5
C7
100
AcDbEntity
100
AcDbLine
  8
skeleton
 62
256
370
-1
  6
ByLayer
 10
184.8000000000000114
 20
60.0
 30
0.0
 11
184.8000000000000114
 21
84.0
 31
0.0
  0
LINE
  5
C8
100
AcDbEntity
100
AcDbLine
  8
skeleton2
 62
256
370
-1
  6
ByLayer
 10
183.8000000000000114
 20
60.0
 30
0.0
 11
183.8000000000000114
 21
84.0
 31
0.0
  0
LINE
  5
C9
100
AcDbEntity
100
AcDbLine
  8
skeleton
 62
256
370
-1
  6
ByLayer
 10
181.4000000000000057
 20
60.0
 30
0.0
 11
181.4000000000000057
 21
84.0
 31
0.0
  0
LINE
  5
CA
100
AcDbEntity
100
AcDbLine
  8
skeleton
 62
256
370
-1
  6
ByLayer
 10
180.0
 20
60.0
 30
0.0
 11
180.0
 21
84.0
 31
0.0
  0
LINE
  5
CB
100
AcDbEntity
100
AcDbLine
  8
skeleton2
 62
256
370
-1
  6
ByLayer
 10
177.5999999999999943
 20
60.0
 30
0.0
 11
177.5999999999999943
 21
84.0
 31
0.0
  0
LINE
  5
CC
100
AcDbEntity
100
AcDbLine
  8
skeleton
 62
256
370
-1
  6
ByLayer
 10
175.1999999999999886
 20
60.0
 30
0.0
 11
175.1999999999999886
 21
84.0
 31
0.0
  0
LINE
  5
CD
100
AcDbEntity
100
AcDbLine
  8
cut
 62
256
370
-1
  6
ByLayer
 10
190.8000000000000114
 20
70.0
 30
0.0
 11
190.8000000000000114
 21
84.0
 31
0.0
  0
LINE
  5
CE
100
AcDbEntity
100
AcDbLine
  8
cut
 62
256
370
-1
  6
ByLayer
 10
165.8000000000000114
 20
70.0
 30
0.0
 11
165.8000000000000114
 21
84.0
 31
0.0
  0
LINE
  5
CF
100
AcDbEntity
100
AcDbLine
  8
cut
 62
256
370
-1
  6
ByLayer
 10
165.8000000000000114
 20
20.0
 30
0.0
 11
165.8000000000000114
 21
34.0
 31
0.0
  0
LINE
  5
D0
100
AcDbEntity
100
AcDbLine
  8
cut
 62
256
370
-1
  6
ByLayer
 10
190.8000000000000114
 20
20.0
 30
0.0
 11
190.8000000000000114
 21
34.0
 31
0.0
  0
LINE
  5
D1
100
AcDbEntity
100
AcDbLine
  8
cut
 62
256
370
-1
  6
ByLayer
 10
165.8000000000000114
 20
34.0
 30
0.0
 11
170.4000000000000057
 21
34.0
 31
0.0
  0
LINE
  5
D2
100
AcDbEntity
100
AcDbLine
  8
cut
 62
256
370
-1
  6
ByLayer
 10
170.4000000000000057
 20
34.0
 30
0.0
 11
170.4000000000000057
 21
20.0
 31
0.0
  0
LINE
  5
D3
100
AcDbEntity
100
AcDbLine
  8
cut
 62
256
370
-1
  6
ByLayer
 10
170.4000000000000057
 20
20.0
 30
0.0
 11
171.8000000000000114
 21
20.0
 31
0.0
  0
LINE
  5
D4
100
AcDbEntity
100
AcDbLine
  8
cut
 62
256
370
-1
  6
ByLayer
 10
171.8000000000000114
 20
20.0
 30
0.0
 11
171.8000000000000114
 21
34.0
 31
0.0
  0
LINE
  5
D5
100
AcDbEntity
100
AcDbLine
  8
cut
 62
256
370
-1
  6
ByLayer
 10
171.8000000000000114
 20
34.0
 30
0.0
 11
175.1999999999999886
 21
34.0
 31
0.0
  0
LINE
  5
D6
100
AcDbEntity
100
AcDbLine
  8
cut
 62
256
370
-1
  6
ByLayer
 10
175.1999999999999886
 20
34.0
 30
0.0
 11
175.1999999999999886
 21
20.0
 31
0.0
  0
LINE
  5
D7
100
AcDbEntity
100
AcDbLine
  8
cut
 62
256
370
-1
  6
ByLayer
 10
175.1999999999999886
 20
20.0
 30
0.0
 11
176.6000000000000227
 21
20.0
 31
0.0
  0
LINE
  5
D8
100
AcDbEntity
100
AcDbLine
  8
cut
 62
256
370
-1
  6
ByLayer
 10
176.6000000000000227
 20
20.0
 30
0.0
 11
176.6000000000000227
 21
34.0
 31
0.0
  0
LINE
  5
D9
100
AcDbEntity
100
AcDbLine
  8
cut
 62
256
370
-1
  6
ByLayer
 10
176.6000000000000227
 20
34.0
 30
0.0
 11
182.4000000000000057
 21
34.0
 31
0.0
  0
LINE
  5
DA
100
AcDbEntity
100
AcDbLine
  8
cut
 62
256
370
-1
  6
ByLayer
 10
182.4000000000000057
 20
34.0
 30
0.0
 11
182.4000000000000057
 21
20.0
 31
0.0
  0
LINE
  5
DB
100
AcDbEntity
100
AcDbLine
  8
cut
 62
256
370
-1
  6
ByLayer
 10
182.4000000000000057
 20
20.0
 30
0.0
 11
183.8000000000000114
 21
20.0
 31
0.0
  0
LINE
  5
DC
100
AcDbEntity
100
AcDbLine
  8
cut
 62
256
370
-1
  6
ByLayer
 10
183.8000000000000114
 20
20.0
 30
0.0
 11
183.8000000000000114
 21
34.0
 31
0.0
  0
LINE
  5
DD
100
AcDbEntity
100
AcDbLine
  8
cut
 62
256
370
-1
  6
ByLayer
 10
183.8000000000000114
 20
34.0
 30
0.0
 11
187.2000000000000171
 21
33.9999999999999929
 31
0.0
  0
LINE
  5
DE
100
AcDbEntity
100
AcDbLine
  8
cut
 62
256
370
-1
  6
ByLayer
 10
187.2000000000000171
 20
33.9999999999999929
 30
0.0
 11
187.2000000000000171
 21
19.9999999999999964
 31
0.0
  0
LINE
  5
DF
100
AcDbEntity
100
AcDbLine
  8
cut
 62
256
370
-1
  6
ByLayer
 10
187.2000000000000171
 20
19.9999999999999964
 30
0.0
 11
188.5999999999999943
 21
20.0
 31
0.0
  0
LINE
  5
E0
100
AcDbEntity
100
AcDbLine
  8
cut
 62
256
370
-1
  6
ByLayer
 10
188.5999999999999943
 20
20.0
 30
0.0
 11
188.5999999999999943
 21
34.0
 31
0.0
  0
LINE
  5
E1
100
AcDbEntity
100
AcDbLine
  8
cut
 62
256
370
-1
  6
ByLayer
 10
188.5999999999999943
 20
34.0
 30
0.0
 11
190.8000000000000114
 21
34.0
 31
0.0
  0
LINE
  5
E2
100
AcDbEntity
100
AcDbLine
  8
cut
 62
256
370
-1
  6
ByLayer
 10
165.8000000000000114
 20
84.0
 30
0.0
 11
170.4000000000000057
 21
84.0
 31
0.0
  0
LINE
  5
E3
100
AcDbEntity
100
AcDbLine
  8
cut
 62
256
370
-1
  6
ByLayer
 10
170.4000000000000057
 20
84.0
 30
0.0
 11
170.4000000000000057
 21
70.0
 31
0.0
  0
LINE
  5
E4
100
AcDbEntity
100
AcDbLine
  8
cut
 62
256
370
-1
  6
ByLayer
 10
170.4000000000000057
 20
70.0
 30
0.0
 11
171.8000000000000114
 21
70.0
 31
0.0
  0
LINE
  5
E5
100
AcDbEntity
100
AcDbLine
  8
cut
 62
256
370
-1
  6
ByLayer
 10
171.8000000000000114
 20
70.0
 30
0.0
 11
171.8000000000000114
 21
84.0
 31
0.0
  0
LINE
  5
E6
100
AcDbEntity
100
AcDbLine
  8
cut
 62
256
370
-1
  6
ByLayer
 10
171.8000000000000114
 20
84.0
 30
0.0
 11
177.5999999999999943
 21
84.0
 31
0.0
  0
LINE
  5
E7
100
AcDbEntity
100
AcDbLine
  8
cut
 62
256
370
-1
  6
ByLayer
 10
177.5999999999999943
 20
84.0
 30
0.0
 11
177.5999999999999943
 21
70.0
 31
0.0
  0
LINE
  5
E8
100
AcDbEntity
100
AcDbLine
  8
cut
 62
256
370
-1
  6
ByLayer
 10
177.5999999999999943
 20
70.0
 30
0.0
 11
179.0000000000000284
 21
70.0
 31
0.0
  0
LINE
  5
E9
100
AcDbEntity
100
AcDbLine
  8
cut
 62
256
370
-1
  6
ByLayer
 10
179.0000000000000284
 20
70.0
 30
0.0
 11
179.0000000000000284
 21
84.0
 31
0.0
  0
LINE
  5
EA
100
AcDbEntity
100
AcDbLine
  8
cut
 62
256
370
-1
  6
ByLayer
 10
179.0000000000000284
 20
84.0
 30
0.0
 11
180.0
 21
84.0
 31
0.0
  0
LINE
  5
EB
100
AcDbEntity
100
AcDbLine
  8
cut
 62
256
370
-1
  6
ByLayer
 10
180.0
 20
84.0
 30
0.0
 11
180.0
 21
70.0
 31
0.0
  0
LINE
  5
EC
100
AcDbEntity
100
AcDbLine
  8
cut
 62
256
370
-1
  6
ByLayer
 10
180.0
 20
70.0
 30
0.0
 11
181.4000000000000057
 21
70.0
 31
0.0
  0
LINE
  5
ED
100
AcDbEntity
100
AcDbLine
  8
cut
 62
256
370
-1
  6
ByLayer
 10
181.4000000000000057
 20
70.0
 30
0.0
 11
181.4000000000000057
 21
84.0
 31
0.0
  0
LINE
  5
EE
100
AcDbEntity
100
AcDbLine
  8
cut
 62
256
370
-1
  6
ByLayer
 10
181.4000000000000057
 20
84.0
 30
0.0
 11
187.2000000000000171
 21
84.0
 31
0.0
  0
LINE
  5
EF
100
AcDbEntity
100
AcDbLine
  8
cut
 62
256
370
-1
  6
ByLayer
 10
187.2000000000000171
 20
84.0
 30
0.0
 11
187.2000000000000171
 21
70.0
 31
0.0
  0
LINE
  5
F0
100
AcDbEntity
100
AcDbLine
  8
cut
 62
256
370
-1
  6
ByLayer
 10
187.2000000000000171
 20
70.0
 30
0.0
 11
188.5999999999999943
 21
70.0
 31
0.0
  0
LINE
  5
F1
100
AcDbEntity
100
AcDbLine
  8
cut
 62
256
370
-1
  6
ByLayer
 10
188.5999999999999943
 20
70.0
 30
0.0
 11
188.5999999999999943
 21
84.0
 31
0.0
  0
LINE
  5
F2
100
AcDbEntity
100
AcDbLine
  8
cut
 62
256
370
-1
  6
ByLayer
 10
188.5999999999999943
 20
84.0
 30
0.0
 11
190.8000000000000114
 21
84.0
 31
0.0
  0
LINE
  5
F3
100
AcDbEntity
100
AcDbLine
  8
etch
 62
256
370
-1
  6
ByLayer
 10
172.5416666666673677
 20
67.50000000000027
 30
0.0
 11
172.0416666666673677
 21
67.50000000000027
 31
0.0
  0
ARC
  5
F4
100
AcDbEntity
  8
etch
 62
256
370
-1
  6
ByLayer
100
AcDbCircle
 10
172.0416666666673677
 20
67.00000000000027
 30
0.0
 40
0.5
100
AcDbArc
 50
90.0
 51
180.0
  0
LINE
  5
F5
100
AcDbEntity
100
AcDbLine
  8
etch
 62
256
370
-1
  6
ByLayer
 10
171.5416666666673677
 20
67.00000000000027
 30
0.0
 11
171.5416666666673677
 21
66.00000000000027
 31
0.0
  0
ARC
  5
F6
100
AcDbEntity
  8
etch
 62
256
370
-1
  6
ByLayer
100
AcDbCircle
 10
172.0416666666673677
 20
66.00000000000027
 30
0.0
 40
0.5
100
AcDbArc
 50
180.0
 51
270.0
  0
LINE
  5
F7
100
AcDbEntity
100
AcDbLine
  8
etch
 62
256
370
-1
  6
ByLayer
 10
172.0416666666673677
 20
65.50000000000027
 30
0.0
 11
172.5416666666673677
 21
65.50000000000027
 31
0.0
  0
LINE
  5
F8
100
AcDbEntity
100
AcDbLine
  8
etch
 62
256
370
-1
  6
ByLayer
 10
173.5416666666673677
 20
66.8333333333335986
 30
0.0
 11
173.5416666666673677
 21
66.1666666666669414
 31
0.0
  0
ARC
  5
F9
100
AcDbEntity
  8
etch
 62
256
370
-1
  6
ByLayer
100
AcDbCircle
 10
174.2083333333340249
 20
66.1666666666669414
 30
0.0
 40
0.6666666666666666
100
AcDbArc
 50
180.0
 51
0.0
  0
LINE
  5
FA
100
AcDbEntity
100
AcDbLine
  8
etch
 62
256
370
-1
  6
ByLayer
 10
174.8750000000007105
 20
66.1666666666669414
 30
0.0
 11
174.8750000000007105
 21
66.8333333333335986
 31
0.0
  0
ARC
  5
FB
100
AcDbEntity
  8
etch
 62
256
370
-1
  6
ByLayer
100
AcDbCircle
 10
174.2083333333340249
 20
66.8333333333335986
 30
0.0
 40
0.6666666666666666
100
AcDbArc
 50
0.0
 51
180.0
  0
LINE
  5
FC
100
AcDbEntity
100
AcDbLine
  8
etch
 62
256
370
-1
  6
ByLayer
 10
177.2083333333340533
 20
68.50000000000027
 30
0.0
 11
177.2083333333340533
 21
65.50000000000027
 31
0.0
  0
LINE
  5
FD
100
AcDbEntity
100
AcDbLine
  8
etch
 62
256
370
-1
  6
ByLayer
 10
177.2083333333340533
 20
65.50000000000027
 30
0.0
 11
176.3750000000007105
 21
65.50000000000027
 31
0.0
  0
ARC
  5
FE
100
AcDbEntity
  8
etch
 62
256
370
-1
  6
ByLayer
100
AcDbCircle
 10
176.3750000000007105
 20
66.00000000000027
 30
0.0
 40
0.5
100
AcDbArc
 50
180.0
 51
270.0
  0
LINE
  5
FF
100
AcDbEntity
100
AcDbLine
  8
etch
 62
256
370
-1
  6
ByLayer
 10
175.8750000000007105
 20
66.00000000000027
 30
0.0
 11
175.8750000000007105
 21
67.00000000000027
 31
0.0
  0
ARC
  5
100
100
AcDbEntity
  8
etch
 62
256
370
-1
  6
ByLayer
100
AcDbCircle
 10
176.3750000000007105
 20
67.00000000000027
 30
0.0
 40
0.5
100
AcDbArc
 50
90.0
 51
180.0
  0
LINE
  5
101
100
AcDbEntity
100
AcDbLine
  8
etch
 62
256
370
-1
  6
ByLayer
 10
176.3750000000007105
 20
67.50000000000027
 30
0.0
 11
177.2083333333340533
 21
67.50000000000027
 31
0.0
  0
LINE
  5
102
100
AcDbEntity
100
AcDbLine
  8
etch
 62
256
370
-1
  6
ByLayer
 10
178.2083333333340533
 20
66.50000000000027
 30
0.0
 11
179.5416666666673962
 21
66.50000000000027
 31
0.0
  0
LINE
  5
103
100
AcDbEntity
100
AcDbLine
  8
etch
 62
256
370
-1
  6
ByLayer
 10
179.5416666666673962
 20
66.50000000000027
 30
0.0
 11
179.5416666666673962
 21
66.8333333333335986
 31
0.0
  0
ARC
  5
104
100
AcDbEntity
  8
etch
 62
256
370
-1
  6
ByLayer
100
AcDbCircle
 10
178.8750000000007105
 20
66.8333333333335986
 30
0.0
 40
0.6666666666666666
100
AcDbArc
 50
0.0
 51
180.0
  0
LINE
  5
105
100
AcDbEntity
100
AcDbLine
  8
etch
 62
256
370
-1
  6
ByLayer
 10
178.2083333333340533
 20
66.8333333333335986
 30
0.0
 11
178.2083333333340533
 21
66.00000000000027
 31
0.0
  0
ARC
  5
106
100
AcDbEntity
  8
etch
 62
256
370
-1
  6
ByLayer
100
AcDbCircle
 10
178.7083333333340533
 20
66.00000000000027
 30
0.0
 40
0.5
100
AcDbArc
 50
180.0
 51
270.0
  0
LINE
  5
107
100
AcDbEntity
100
AcDbLine
  8
etch
 62
256
370
-1
  6
ByLayer
 10
178.7083333333340533
 20
65.50000000000027
 30
0.0
 11
179.5416666666673962
 21
65.50000000000027
 31
0.0
  0
LINE
  5
108
100
AcDbEntity
100
AcDbLine
  8
etch
 62
256
370
-1
  6
ByLayer
 10
182.7916666666673677
 20
67.8333333333335986
 30
0.0
 11
183.4583333333340249
 21
68.50000000000027
 31
0.0
  0
LINE
  5
109
100
AcDbEntity
100
AcDbLine
  8
etch
 62
256
370
-1
  6
ByLayer
 10
183.4583333333340249
 20
68.50000000000027
 30
0.0
 11
183.4583333333340249
 21
65.50000000000027
 31
0.0
  0
LINE
  5
10A
100
AcDbEntity
100
AcDbLine
  8
etch
 62
256
370
-1
  6
ByLayer
 10
171.7083333333340533
 20
17.5000000000000675
 30
0.0
 11
171.2083333333340533
 21
17.5000000000000675
 31
0.0
  0
ARC
  5
10B
100
AcDbEntity
  8
etch
 62
256
370
-1
  6
ByLayer
100
AcDbCircle
 10
171.2083333333340533
 20
17.0000000000000675
 30
0.0
 40
0.5
100
AcDbArc
 50
90.0
 51
180.0
  0
LINE
  5
10C
100
AcDbEntity
100
AcDbLine
  8
etch
 62
256
370
-1
  6
ByLayer
 10
170.7083333333340533
 20
17.0000000000000675
 30
0.0
 11
170.7083333333340533
 21
16.0000000000000675
 31
0.0
  0
ARC
  5
10D
100
AcDbEntity
  8
etch
 62
256
370
-1
  6
ByLayer
100
AcDbCircle
 10
171.2083333333340533
 20
16.0000000000000675
 30
0.0
 40
0.5
100
AcDbArc
 50
180.0
 51
270.0
  0
LINE
  5
10E
100
AcDbEntity
100
AcDbLine
  8
etch
 62
256
370
-1
  6
ByLayer
 10
171.2083333333340533
 20
15.5000000000000675
 30
0.0
 11
171.7083333333340533
 21
15.5000000000000675
 31
0.0
  0
LINE
  5
10F
100
AcDbEntity
100
AcDbLine
  8
etch
 62
256
370
-1
  6
ByLayer
 10
172.7083333333340533
 20
16.8333333333334032
 30
0.0
 11
172.7083333333340533
 21
16.1666666666667354
 31
0.0
  0
ARC
  5
110
100
AcDbEntity
  8
etch
 62
256
370
-1
  6
ByLayer
100
AcDbCircle
 10
173.3750000000007105
 20
16.1666666666667354
 30
0.0
 40
0.6666666666666666
100
AcDbArc
 50
180.0
 51
0.0
  0
LINE
  5
111
100
AcDbEntity
100
AcDbLine
  8
etch
 62
256
370
-1
  6
ByLayer
 10
174.0416666666673962
 20
16.1666666666667354
 30
0.0
 11
174.0416666666673962
 21
16.8333333333334032
 31
0.0
  0
ARC
  5
112
100
AcDbEntity
  8
etch
 62
256
370
-1
  6
ByLayer
100
AcDbCircle
 10
173.3750000000007105
 20
16.8333333333334032
 30
0.0
 40
0.6666666666666666
100
AcDbArc
 50
0.0
 51
180.0
  0
LINE
  5
113
100
AcDbEntity
100
AcDbLine
  8
etch
 62
256
370
-1
  6
ByLayer
 10
176.3750000000007105
 20
18.5000000000000675
 30
0.0
 11
176.3750000000007105
 21
15.5000000000000675
 31
0.0
  0
LINE
  5
114
100
AcDbEntity
100
AcDbLine
  8
etch
 62
256
370
-1
  6
ByLayer
 10
176.3750000000007105
 20
15.5000000000000675
 30
0.0
 11
175.5416666666673677
 21
15.5000000000000675
 31
0.0
  0
ARC
  5
115
100
AcDbEntity
  8
etch
 62
256
370
-1
  6
ByLayer
100
AcDbCircle
 10
175.5416666666673677
 20
16.0000000000000675
 30
0.0
 40
0.5
100
AcDbArc
 50
180.0
 51
270.0
  0
LINE
  5
116
100
AcDbEntity
100
AcDbLine
  8
etch
 62
256
370
-1
  6
ByLayer
 10
175.0416666666673677
 20
16.0000000000000675
 30
0.0
 11
175.0416666666673677
 21
17.0000000000000675
 31
0.0
  0
ARC
  5
117
100
AcDbEntity
  8
etch
 62
256
370
-1
  6
ByLayer
100
AcDbCircle
 10
175.5416666666673677
 20
17.0000000000000675
 30
0.0
 40
0.5
100
AcDbArc
 50
90.0
 51
180.0
  0
LINE
  5
118
100
AcDbEntity
100
AcDbLine
  8
etch
 62
256
370
-1
  6
ByLayer
 10
175.5416666666673677
 20
17.5000000000000675
 30
0.0
 11
176.3750000000007105
 21
17.5000000000000675
 31
0.0
  0
LINE
  5
119
100
AcDbEntity
100
AcDbLine
  8
etch
 62
256
370
-1
  6
ByLayer
 10
177.3750000000007105
 20
16.5000000000000675
 30
0.0
 11
178.7083333333340533
 21
16.5000000000000675
 31
0.0
  0
LINE
  5
11A
100
AcDbEntity
100
AcDbLine
  8
etch
 62
256
370
-1
  6
ByLayer
 10
178.7083333333340533
 20
16.5000000000000675
 30
0.0
 11
178.7083333333340533
 21
16.8333333333333997
 31
0.0
  0
ARC
  5
11B
100
AcDbEntity
  8
etch
 62
256
370
-1
  6
ByLayer
100
AcDbCircle
 10
178.0416666666673677
 20
16.8333333333333997
 30
0.0
 40
0.6666666666666666
100
AcDbArc
 50
0.0
 51
180.0
  0
LINE
  5
11C
100
AcDbEntity
100
AcDbLine
  8
etch
 62
256
370
-1
  6
ByLayer
 10
177.3750000000007105
 20
16.8333333333333997
 30
0.0
 11
177.3750000000007105
 21
16.0000000000000675
 31
0.0
  0
ARC
  5
11D
100
AcDbEntity
  8
etch
 62
256
370
-1
  6
ByLayer
100
AcDbCircle
 10
177.8750000000007105
 20
16.0000000000000675
 30
0.0
 40
0.5
100
AcDbArc
 50
180.0
 51
270.0
  0
LINE
  5
11E
100
AcDbEntity
100
AcDbLine
  8
etch
 62
256
370
-1
  6
ByLayer
 10
177.8750000000007105
 20
15.5000000000000675
 30
0.0
 11
178.7083333333340533
 21
15.5000000000000675
 31
0.0
  0
LINE
  5
11F
100
AcDbEntity
100
AcDbLine
  8
etch
 62
256
370
-1
  6
ByLayer
 10
183.2916666666673962
 20
15.5000000000000675
 30
0.0
 11
181.9583333333340533
 21
15.5000000000000675
 31
0.0
  0
LINE
  5
120
100
AcDbEntity
100
AcDbLine
  8
etch
 62
256
370
-1
  6
ByLayer
 10
181.9583333333340533
 20
15.5000000000000675
 30
0.0
 11
183.2466666666673802
 21
17.7156666666667348
 31
0.0
  0
ARC
  5
121
100
AcDbEntity
  8
etch
 62
256
370
-1
  6
ByLayer
100
AcDbCircle
 10
182.9583333333340533
 20
17.8830000000000666
 30
0.0
 40
0.3333333333333333
100
AcDbArc
 50
329.8000000000000114
 51
20.5300000000000011
  0
ARC
  5
122
100
AcDbEntity
  8
etch
 62
256
370
-1
  6
ByLayer
100
AcDbCircle
 10
182.6250000000007105
 20
17.8333333333333997
 30
0.0
 40
0.6666666666666666
100
AcDbArc
 50
14.4799999999999986
 51
165.5
  0
ENDSEC
  0
SECTION
  2
OBJECTS
  0
DICTIONARY
  5
C
100
AcDbDictionary
280
0
281
1
  3
ACAD_GROUP
350
D
  3
ACAD_LAYOUT
350
1A
  3
ACAD_MLINESTYLE
350
17
  3
ACAD_PLOTSETTINGS
350
19
  3
ACAD_PLOTSTYLENAME
350
E
  3
AcDbVariableDictionary
350
123
  0
DICTIONARY
  5
D
100
AcDbDictionary
280
0
281
1
  0
ACDBDICTIONARYWDFLT
  5
E
100
AcDbDictionary
281
1
  3
Normal
350
F
100
AcDbDictionaryWithDefault
340
F
  0
ACDBPLACEHOLDER
  5
F
  0
DICTIONARY
  5
17
100
AcDbDictionary
280
0
281
1
  3
Standard
350
18
  0
MLINESTYLE
  5
18
100
AcDbMlineStyle
  2
STANDARD
 70
0
  3

 62
256
 51
90.0
 52
90.0
 71
2
 49
0.5
 62
256
  6
BYLAYER
 49
-0.5
 62
256
  6
BYLAYER
  0
DICTIONARY
  5
19
100
AcDbDictionary
280
0
281
1
  0
DICTIONARY
  5
1A
100
AcDbDictionary
281
1
  3
Layout1
350
1E
  3
Layout2
350
26
  3
Model
350
22
  0
LAYOUT
  5
1E
100
AcDbPlotSettings
  1

  2
C:\Program Files\AutoCAD 2002\plotters\DWF ePlot (optimized for plotting).pc3
  4

  6

 40
0.0
 41
0.0
 42
0.0
 43
0.0
 44
0.0
 45
0.0
 46
0.0
 47
0.0
 48
0.0
 49
0.0
140
0.0
141
0.0
142
1.0
143
1.0
 70
688
 72
0
 73
0
 74
5
  7

 75
16
147
1.0
148
0.0
149
0.0
100
AcDbLayout
  1
Layout1
 70
1
 71
1
 10
0.0
 20
0.0
 11
420.0
 21
297.0
 12
0.0
 22
0.0
 32
0.0
 14
100000000000000000000.0
 24
100000000000000000000.0
 34
100000000000000000000.0
 15
-100000000000000000000.0
 25
-100000000000000000000.0
 35
-100000000000000000000.0
146
0.0
 13
0.0
 23
0.0
 33
0.0
 16
1.0
 26
0.0
 36
0.0
 17
0.0
 27
1.0
 37
0.0
 76
0
330
1B
  0
LAYOUT
  5
22
100
AcDbPlotSettings
  1

  2
C:\Program Files\AutoCAD 2002\plotters\DWF ePlot (optimized for plotting).pc3
  4

  6

 40
0.0
 41
0.0
 42
0.0
 43
0.0
 44
0.0
 45
0.0
 46
0.0
 47
0.0
 48
0.0
 49
0.0
140
0.0
141
0.0
142
1.0
143
1.0
 70
1712
 72
0
 73
0
 74
0
  7

 75
0
147
1.0
148
0.0
149
0.0
100
AcDbLayout
  1
Model
 70
1
 71
0
 10
0.0
 20
0.0
 11
12.0
 21
9.0
 12
0.0
 22
0.0
 32
0.0
 14
0.0
 24
0.0
 34
0.0
 15
0.0
 25
0.0
 35
0.0
146
0.0
 13
0.0
 23
0.0
 33
0.0
 16
1.0
 26
0.0
 36
0.0
 17
0.0
 27
1.0
 37
0.0
 76
0
330
1F
  0
LAYOUT
  5
26
100
AcDbPlotSettings
  1

  2
C:\Program Files\AutoCAD 2002\plotters\DWF ePlot (optimized for plotting).pc3
  4

  6

 40
0.0
 41
0.0
 42
0.0
 43
0.0
 44
0.0
 45
0.0
 46
0.0
 47
0.0
 48
0.0
 49
0.0
140
0.0
141
0.0
142
1.0
143
1.0
 70
688
 72
0
 73
0
 74
5
  7

 75
16
147
1.0
148
0.0
149
0.0
100
AcDbLayout
  1
Layout2
 70
1
 71
2
 10
0.0
 20
0.0
 11
12.0
 21
9.0
 12
0.0
 22
0.0
 32
0.0
 14
0.0
 24
0.0
 34
0.0
 15
0.0
 25
0.0
 35
0.0
146
0.0
 13
0.0
 23
0.0
 33
0.0
 16
1.0
 26
0.0
 36
0.0
 17
0.0
 27
1.0
 37
0.0
 76
0
330
23
  0
DICTIONARY
  5
123
100
AcDbDictionary
281
1
  3
DIMASSOC
350
125
  3
HIDETEXT
350
124
  0
DICTIONARYVAR
  5
124
100
DictionaryVariables
280
0
  1
2
  0
DICTIONARYVAR
  5
125
100
DictionaryVariables
280
0
  1
1
  0
ENDSEC
  0
EOF
