999
dxflib 2.2.0.0
  0
SECTION
  2
HEADER
  9
$ACADVER
  1
AC1015
  9
$HANDSEED
  5
FFFF
  9
$DIMASZ
 40
2.5
  9
$PLIMMIN
 10
0.0
 20
0.0
  9
$DIMEXE
 40
1.25
  9
$DIMGAP
 40
0.625
  9
$PLIMMAX
 10
210.0
 20
297.0
  9
$INSUNITS
 70
4
  9
$DIMSTYLE
  2
Standard
  9
$CLAYER
  8
side
  9
$DIMEXO
 40
0.625
  9
$DIMTXT
 40
2.5
  9
$CLAYER
  8
pushbar
  0
ENDSEC
  0
SECTION
  2
TABLES
  0
TABLE
  2
VPORT
  5
8
100
AcDbSymbolTable
 70
1
  0
VPORT
  5
30
100
AcDbSymbolTableRecord
100
AcDbViewportTableRecord
  2
*Active
 70
0
 10
0.0
 20
0.0
 11
1.0
 21
1.0
 12
286.3055555555554861
 22
148.5
 13
0.0
 23
0.0
 14
10.0
 24
10.0
 15
10.0
 25
10.0
 16
0.0
 26
0.0
 36
1.0
 17
0.0
 27
0.0
 37
0.0
 40
297.0
 41
1.92798353909465
 42
50.0
 43
0.0
 44
0.0
 50
0.0
 51
0.0
 71
0
 72
100
 73
1
 74
3
 75
1
 76
1
 77
0
 78
0
281
0
 65
1
110
0.0
120
0.0
130
0.0
111
1.0
121
0.0
131
0.0
112
0.0
122
1.0
132
0.0
 79
0
146
0.0
  0
ENDTAB
  0
TABLE
  2
LTYPE
  5
5
100
AcDbSymbolTable
 70
21
  0
LTYPE
  5
14
100
AcDbSymbolTableRecord
100
AcDbLinetypeTableRecord
  2
ByBlock
 70
0
  3

 72
65
 73
0
 40
0.0
  0
LTYPE
  5
15
100
AcDbSymbolTableRecord
100
AcDbLinetypeTableRecord
  2
ByLayer
 70
0
  3

 72
65
 73
0
 40
0.0
  0
LTYPE
  5
16
100
AcDbSymbolTableRecord
100
AcDbLinetypeTableRecord
  2
CONTINUOUS
 70
0
  3
Solid line
 72
65
 73
0
 40
0.0
  0
LTYPE
  5
31
100
AcDbSymbolTableRecord
100
AcDbLinetypeTableRecord
  2
DOT
 70
0
  3
Dot . . . . . . . . . . . . . . . . . . . . . .
 72
65
 73
2
 40
6.3499999999999996
 49
0.0
 74
0
 49
-6.3499999999999996
 74
0
  0
LTYPE
  5
32
100
AcDbSymbolTableRecord
100
AcDbLinetypeTableRecord
  2
DOT2
 70
0
  3
Dot (.5x) .....................................
 72
65
 73
2
 40
3.1749999999999998
 49
0.0
 74
0
 49
-3.1749999999999998
 74
0
  0
LTYPE
  5
33
100
AcDbSymbolTableRecord
100
AcDbLinetypeTableRecord
  2
DOTX2
 70
0
  3
Dot (2x) .  .  .  .  .  .  .  .  .  .  .  .  .
 72
65
 73
2
 40
12.6999999999999993
 49
0.0
 74
0
 49
-12.6999999999999993
 74
0
  0
LTYPE
  5
34
100
AcDbSymbolTableRecord
100
AcDbLinetypeTableRecord
  2
DASHED
 70
0
  3
Dashed __ __ __ __ __ __ __ __ __ __ __ __ __ _
 72
65
 73
2
 40
19.0500000000000007
 49
12.6999999999999993
 74
0
 49
-6.3499999999999996
 74
0
  0
LTYPE
  5
35
100
AcDbSymbolTableRecord
100
AcDbLinetypeTableRecord
  2
DASHED2
 70
0
  3
Dashed (.5x) _ _ _ _ _ _ _ _ _ _ _ _ _ _ _ _ _
 72
65
 73
2
 40
9.5250000000000004
 49
6.3499999999999996
 74
0
 49
-3.1749999999999998
 74
0
  0
LTYPE
  5
36
100
AcDbSymbolTableRecord
100
AcDbLinetypeTableRecord
  2
DASHEDX2
 70
0
  3
Dashed (2x) ____  ____  ____  ____  ____  ___
 72
65
 73
2
 40
38.1000000000000014
 49
25.3999999999999986
 74
0
 49
-12.6999999999999993
 74
0
  0
LTYPE
  5
37
100
AcDbSymbolTableRecord
100
AcDbLinetypeTableRecord
  2
DASHDOT
 70
0
  3
Dash dot __ . __ . __ . __ . __ . __ . __ . __
 72
65
 73
4
 40
25.3999999999999986
 49
12.6999999999999993
 74
0
 49
-6.3499999999999996
 74
0
 49
0.0
 74
0
 49
-6.3499999999999996
 74
0
  0
LTYPE
  5
38
100
AcDbSymbolTableRecord
100
AcDbLinetypeTableRecord
  2
DASHDOT2
 70
0
  3
Dash dot (.5x) _._._._._._._._._._._._._._._.
 72
65
 73
4
 40
12.6999999999999993
 49
6.3499999999999996
 74
0
 49
-3.1749999999999998
 74
0
 49
0.0
 74
0
 49
-3.1749999999999998
 74
0
  0
LTYPE
  5
39
100
AcDbSymbolTableRecord
100
AcDbLinetypeTableRecord
  2
DASHDOTX2
 70
0
  3
Dash dot (2x) ____  .  ____  .  ____  .  ___
 72
65
 73
4
 40
50.7999999999999972
 49
25.3999999999999986
 74
0
 49
-12.6999999999999993
 74
0
 49
0.0
 74
0
 49
-12.6999999999999993
 74
0
  0
LTYPE
  5
3A
100
AcDbSymbolTableRecord
100
AcDbLinetypeTableRecord
  2
DIVIDE
 70
0
  3
Divide ____ . . ____ . . ____ . . ____ . . ____
 72
65
 73
6
 40
31.75
 49
12.6999999999999993
 74
0
 49
-6.3499999999999996
 74
0
 49
0.0
 74
0
 49
-6.3499999999999996
 74
0
 49
0.0
 74
0
 49
-6.3499999999999996
 74
0
  0
LTYPE
  5
3B
100
AcDbSymbolTableRecord
100
AcDbLinetypeTableRecord
  2
DIVIDE2
 70
0
  3
Divide (.5x) __..__..__..__..__..__..__..__.._
 72
65
 73
6
 40
15.875
 49
6.3499999999999996
 74
0
 49
-3.1749999999999998
 74
0
 49
0.0
 74
0
 49
-3.1749999999999998
 74
0
 49
0.0
 74
0
 49
-3.1749999999999998
 74
0
  0
LTYPE
  5
3C
100
AcDbSymbolTableRecord
100
AcDbLinetypeTableRecord
  2
DIVIDEX2
 70
0
  3
Divide (2x) ________  .  .  ________  .  .  _
 72
65
 73
6
 40
63.5
 49
25.3999999999999986
 74
0
 49
-12.6999999999999993
 74
0
 49
0.0
 74
0
 49
-12.6999999999999993
 74
0
 49
0.0
 74
0
 49
-12.6999999999999993
 74
0
  0
LTYPE
  5
3D
100
AcDbSymbolTableRecord
100
AcDbLinetypeTableRecord
  2
CENTER
 70
0
  3
Center ____ _ ____ _ ____ _ ____ _ ____ _ ____
 72
65
 73
4
 40
50.7999999999999972
 49
31.75
 74
0
 49
-6.3499999999999996
 74
0
 49
6.3499999999999996
 74
0
 49
-6.3499999999999996
 74
0
  0
LTYPE
  5
3E
100
AcDbSymbolTableRecord
100
AcDbLinetypeTableRecord
  2
CENTER2
 70
0
  3
Center (.5x) ___ _ ___ _ ___ _ ___ _ ___ _ ___
 72
65
 73
4
 40
28.5749999999999993
 49
19.0500000000000007
 74
0
 49
-3.1749999999999998
 74
0
 49
3.1749999999999998
 74
0
 49
-3.1749999999999998
 74
0
  0
LTYPE
  5
3F
100
AcDbSymbolTableRecord
100
AcDbLinetypeTableRecord
  2
CENTERX2
 70
0
  3
Center (2x) ________  __  ________  __  _____
 72
65
 73
4
 40
101.5999999999999943
 49
63.5
 74
0
 49
-12.6999999999999993
 74
0
 49
12.6999999999999993
 74
0
 49
-12.6999999999999993
 74
0
  0
LTYPE
  5
40
100
AcDbSymbolTableRecord
100
AcDbLinetypeTableRecord
  2
BORDER
 70
0
  3
Border __ __ . __ __ . __ __ . __ __ . __ __ .
 72
65
 73
6
 40
44.4500000000000028
 49
12.6999999999999993
 74
0
 49
-6.3499999999999996
 74
0
 49
12.6999999999999993
 74
0
 49
-6.3499999999999996
 74
0
 49
0.0
 74
0
 49
-6.3499999999999996
 74
0
  0
LTYPE
  5
41
100
AcDbSymbolTableRecord
100
AcDbLinetypeTableRecord
  2
BORDER2
 70
0
  3
Border (.5x) __.__.__.__.__.__.__.__.__.__.__.
 72
65
 73
6
 40
22.2250000000000014
 49
6.3499999999999996
 74
0
 49
-3.1749999999999998
 74
0
 49
6.3499999999999996
 74
0
 49
-3.1749999999999998
 74
0
 49
0.0
 74
0
 49
-3.1749999999999998
 74
0
  0
LTYPE
  5
42
100
AcDbSymbolTableRecord
100
AcDbLinetypeTableRecord
  2
BORDERX2
 70
0
  3
Border (2x) ____  ____  .  ____  ____  .  ___
 72
65
 73
6
 40
88.9000000000000057
 49
25.3999999999999986
 74
0
 49
-12.6999999999999993
 74
0
 49
25.3999999999999986
 74
0
 49
-12.6999999999999993
 74
0
 49
0.0
 74
0
 49
-12.6999999999999993
 74
0
  0
ENDTAB
  0
TABLE
  2
LAYER
  5
2
100
AcDbSymbolTable
 70
7
  0
LAYER
  5
10
100
AcDbSymbolTableRecord
100
AcDbLayerTableRecord
  2
0
 70
0
 62
7
420
0
  6
CONTINUOUS
370
25
390
F
  0
LAYER
  5
43
100
AcDbSymbolTableRecord
100
AcDbLayerTableRecord
  2
skeleton
 70
0
 62
1
420
16711680
  6
CONTINUOUS
370
0
390
F
  0
LAYER
  5
44
100
AcDbSymbolTableRecord
100
AcDbLayerTableRecord
  2
bail
 70
0
 62
7
420
0
  6
CONTINUOUS
370
0
390
F
  0
LAYER
  5
45
100
AcDbSymbolTableRecord
100
AcDbLayerTableRecord
  2
bail support
 70
0
 62
7
420
0
  6
CONTINUOUS
370
0
390
F
  0
LAYER
  5
46
100
AcDbSymbolTableRecord
100
AcDbLayerTableRecord
  2
side
 70
0
 62
7
420
0
  6
CONTINUOUS
370
0
390
F
  0
LAYER
  5
47
100
AcDbSymbolTableRecord
100
AcDbLayerTableRecord
  2
bar
 70
0
 62
7
420
0
  6
CONTINUOUS
370
0
390
F
  0
LAYER
  5
48
100
AcDbSymbolTableRecord
100
AcDbLayerTableRecord
  2
pushbar
 70
0
 62
7
420
0
  6
CONTINUOUS
370
0
390
F
  0
ENDTAB
  0
TABLE
  2
STYLE
  5
3
100
AcDbSymbolTable
 70
1
  0
STYLE
  5
11
100
AcDbSymbolTableRecord
100
AcDbTextStyleTableRecord
  2
Standard
 70
0
 40
0.0
 41
0.75
 50
0.0
 71
0
 42
2.5
  3
txt
  4

  0
ENDTAB
  0
TABLE
  2
VIEW
  5
6
100
AcDbSymbolTable
 70
0
  0
ENDTAB
  0
TABLE
  2
UCS
  5
7
100
AcDbSymbolTable
 70
0
  0
ENDTAB
  0
TABLE
  2
APPID
  5
9
100
AcDbSymbolTable
 70
1
  0
APPID
  5
12
100
AcDbSymbolTableRecord
100
AcDbRegAppTableRecord
  2
ACAD
 70
0
  0
ENDTAB
  0
TABLE
  2
DIMSTYLE
  5
A
100
AcDbSymbolTable
 70
1
100
AcDbDimStyleTable
 71
0
  0
DIMSTYLE
105
27
100
AcDbSymbolTableRecord
100
AcDbDimStyleTableRecord
  2
Standard
 41
2.5
 42
0.625
 43
3.75
 44
1.25
 70
0
 73
0
 74
0
 77
1
 78
8
140
2.5
141
2.5
143
0.03937007874016
147
0.625
171
3
172
1
271
2
272
2
274
3
278
44
283
0
284
8
340
11
  0
ENDTAB
  0
TABLE
  2
BLOCK_RECORD
  5
1
100
AcDbSymbolTable
 70
1
  0
BLOCK_RECORD
  5
1F
100
AcDbSymbolTableRecord
100
AcDbBlockTableRecord
  2
*Model_Space
340
22
  0
BLOCK_RECORD
  5
1B
100
AcDbSymbolTableRecord
100
AcDbBlockTableRecord
  2
*Paper_Space
340
1E
  0
BLOCK_RECORD
  5
23
100
AcDbSymbolTableRecord
100
AcDbBlockTableRecord
  2
*Paper_Space0
340
26
  0
ENDTAB
  0
ENDSEC
  0
SECTION
  2
BLOCKS
  0
BLOCK
  5
20
100
AcDbEntity
  8
0
100
AcDbBlockBegin
  2
*Model_Space
 70
0
 10
0.0
 20
0.0
 30
0.0
  3
*Model_Space
  1

  0
ENDBLK
  5
21
100
AcDbEntity
  8
0
100
AcDbBlockEnd
  0
BLOCK
  5
1C
100
AcDbEntity
 67
1
  8
0
100
AcDbBlockBegin
  2
*Paper_Space
 70
0
 10
0.0
 20
0.0
 30
0.0
  3
*Paper_Space
  1

  0
ENDBLK
  5
1D
100
AcDbEntity
 67
1
  8
0
100
AcDbBlockEnd
  0
BLOCK
  5
24
100
AcDbEntity
  8
0
100
AcDbBlockBegin
  2
*Paper_Space0
 70
0
 10
0.0
 20
0.0
 30
0.0
  3
*Paper_Space0
  1

  0
ENDBLK
  5
25
100
AcDbEntity
  8
0
100
AcDbBlockEnd
  0
ENDSEC
  0
SECTION
  2
ENTITIES
  0
LINE
  5
49
100
AcDbEntity
100
AcDbLine
  8
skeleton
 62
256
370
-1
  6
ByLayer
 10
100.0
 20
100.0
 30
0.0
 11
100.0
 21
0.0
 31
0.0
  0
LINE
  5
4A
100
AcDbEntity
100
AcDbLine
  8
skeleton
 62
256
370
-1
  6
ByLayer
 10
104.0
 20
100.0
 30
0.0
 11
104.0
 21
-0.000000000000001
 31
0.0
  0
LINE
  5
4B
100
AcDbEntity
100
AcDbLine
  8
skeleton
 62
256
370
-1
  6
ByLayer
 10
101.0
 20
100.0
 30
0.0
 11
103.0
 21
100.0
 31
0.0
  0
LINE
  5
4C
100
AcDbEntity
100
AcDbLine
  8
skeleton
 62
256
370
-1
  6
ByLayer
 10
102.0
 20
101.0
 30
0.0
 11
102.0
 21
99.0
 31
0.0
  0
LINE
  5
4D
100
AcDbEntity
100
AcDbLine
  8
skeleton
 62
256
370
-1
  6
ByLayer
 10
100.0
 20
40.0
 30
0.0
 11
-20.0
 21
40.0
 31
0.0
  0
LINE
  5
4E
100
AcDbEntity
100
AcDbLine
  8
skeleton
 62
256
370
-1
  6
ByLayer
 10
98.1769303614649687
 20
60.8377813200316382
 30
0.0
 11
-20.0
 21
40.0
 31
0.0
  0
LINE
  5
4F
100
AcDbEntity
100
AcDbLine
  8
skeleton
 62
256
370
-1
  6
ByLayer
 10
96.0
 20
40.0
 30
0.0
 11
96.0
 21
30.0
 31
0.0
  0
CIRCLE
  5
50
100
AcDbEntity
100
AcDbCircle
  8
skeleton
 62
256
370
-1
  6
ByLayer
 10
106.0
 20
85.0
 30
0.0
 40
2.0
  0
LINE
  5
51
100
AcDbEntity
100
AcDbLine
  8
skeleton
 62
256
370
-1
  6
ByLayer
 10
98.4649416787755598
 20
99.2906576509181775
 30
0.0
 11
108.9177880055408991
 21
-0.1615318859091417
 31
0.0
  0
LINE
  5
52
100
AcDbEntity
100
AcDbLine
  8
skeleton
 62
256
370
-1
  6
ByLayer
 10
102.4430292602486503
 20
99.7087715039887996
 30
0.0
 11
112.895875587013947
 21
0.256581967161452
 31
0.0
  0
LINE
  5
53
100
AcDbEntity
100
AcDbLine
  8
skeleton
 62
256
370
-1
  6
ByLayer
 10
99.4594635741438253
 20
99.395186114185833
 30
0.0
 11
101.4485073648803848
 21
99.6042430407211441
 31
0.0
  0
LINE
  5
54
100
AcDbEntity
100
AcDbLine
  8
skeleton
 62
256
370
-1
  6
ByLayer
 10
100.3494570062444495
 20
100.4942364728217541
 30
0.0
 11
100.5585139327797606
 21
98.5051926820852088
 31
0.0
  0
LINE
  5
55
100
AcDbEntity
100
AcDbLine
  8
skeleton
 62
256
370
-1
  6
ByLayer
 10
100.7585618933616587
 20
39.2012300757511625
 30
0.0
 11
101.8038465260381855
 21
29.2560111220684362
 31
0.0
  0
LINE
  5
56
100
AcDbEntity
100
AcDbLine
  8
skeleton
 62
256
370
-1
  6
ByLayer
 10
108.0
 20
85.0
 30
0.0
 11
108.0
 21
100.0
 31
0.0
  0
LINE
  5
57
100
AcDbEntity
100
AcDbLine
  8
skeleton
 62
256
370
-1
  6
ByLayer
 10
112.0
 20
100.0
 30
0.0
 11
112.0
 21
85.0
 31
0.0
  0
LINE
  5
58
100
AcDbEntity
100
AcDbLine
  8
skeleton
 62
256
370
-1
  6
ByLayer
 10
97.3086894731303147
 20
65.7618200850926797
 30
0.0
 11
99.0451712497996226
 21
55.9137425549705966
 31
0.0
  0
LINE
  5
59
100
AcDbEntity
100
AcDbLine
  8
skeleton
 62
256
370
-1
  6
ByLayer
 10
108.9177880055408991
 20
-0.1615318859091417
 30
0.0
 11
112.895875587013947
 21
0.256581967161452
 31
0.0
  0
LINE
  5
5A
100
AcDbEntity
100
AcDbLine
  8
skeleton
 62
256
370
-1
  6
ByLayer
 10
95.7859524165202885
 20
38.6785877594128991
 30
0.0
 11
105.7311713702030289
 21
39.7238723920894259
 31
0.0
  0
LINE
  5
5B
100
AcDbEntity
100
AcDbLine
  8
skeleton
 62
256
370
-1
  6
ByLayer
 10
96.8312370491968153
 20
28.7333688057301764
 30
0.0
 11
106.7764560028795557
 21
29.7786534384066961
 31
0.0
  0
LINE
  5
5C
100
AcDbEntity
100
AcDbLine
  8
skeleton
 62
256
370
-1
  6
ByLayer
 10
98.7876204543985637
 20
35.3380084945876192
 30
0.0
 11
106.5590800689682567
 21
29.0448045840892206
 31
0.0
  0
LINE
  5
5D
100
AcDbEntity
100
AcDbLine
  8
skeleton
 62
256
370
-1
  6
ByLayer
 10
92.3846507080692732
 20
64.8935791967580258
 30
0.0
 11
102.2327282381913562
 21
66.6300609734273337
 31
0.0
  0
LINE
  5
5E
100
AcDbEntity
100
AcDbLine
  8
skeleton
 62
256
370
-1
  6
ByLayer
 10
94.1211324847385811
 20
55.0455016666359498
 30
0.0
 11
103.9692100148606642
 21
56.7819834433052435
 31
0.0
  0
LINE
  5
5F
100
AcDbEntity
100
AcDbLine
  8
skeleton
 62
256
370
-1
  6
ByLayer
 10
95.8576142614078606
 20
45.1974241365138667
 30
0.0
 11
105.7056917915299437
 21
46.9339059131831604
 31
0.0
  0
LINE
  5
60
100
AcDbEntity
100
AcDbLine
  8
skeleton
 62
256
370
-1
  6
ByLayer
 10
108.8132595422732436
 20
0.832990009459132
 30
0.0
 11
112.7913471237462915
 21
1.2511038625297257
 31
0.0
  0
LINE
  5
61
100
AcDbEntity
100
AcDbLine
  8
skeleton
 62
256
370
-1
  6
ByLayer
 10
111.7968252283780117
 20
1.1465753992620757
 30
0.0
 11
111.9013536916456673
 21
0.1520535038938017
 31
0.0
  0
LINE
  5
62
100
AcDbEntity
100
AcDbLine
  8
bail
 62
256
370
-1
  6
ByLayer
 10
100.0
 20
40.0
 30
0.0
 11
90.0137046524542654
 21
40.5233595624294409
 31
0.0
  0
LINE
  5
63
100
AcDbEntity
100
AcDbLine
  8
bail
 62
256
370
-1
  6
ByLayer
 10
100.1570078687288401
 20
42.9958886042637189
 30
0.0
 11
90.1707125211831055
 21
43.5192481666931599
 31
0.0
  0
LINE
  5
64
100
AcDbEntity
100
AcDbLine
  8
bail
 62
256
370
-1
  6
ByLayer
 10
90.1707125211831055
 20
43.5192481666931599
 30
0.0
 11
90.0137046524542654
 21
40.5233595624294409
 31
0.0
  0
LINE
  5
65
100
AcDbEntity
100
AcDbLine
  8
bail
 62
256
370
-1
  6
ByLayer
 10
100.0
 20
40.0
 30
0.0
 11
100.1570078687288401
 21
42.9958886042637189
 31
0.0
  0
LINE
  5
66
100
AcDbEntity
100
AcDbLine
  8
skeleton
 62
256
370
-1
  6
ByLayer
 10
-20.0
 20
40.0
 30
0.0
 11
90.1707125211831055
 21
43.5192481666931599
 31
0.0
  0
LINE
  5
67
100
AcDbEntity
100
AcDbLine
  8
skeleton
 62
256
370
-1
  6
ByLayer
 10
-20.1277092232964883
 20
43.9979607744805392
 30
0.0
 11
90.0430032978866137
 21
47.5172089411736991
 31
0.0
  0
LINE
  5
68
100
AcDbEntity
100
AcDbLine
  8
skeleton
 62
256
370
-1
  6
ByLayer
 10
-19.8722907767035153
 20
36.0020392255194608
 30
0.0
 11
90.2984217444795974
 21
39.5212873922126207
 31
0.0
  0
LINE
  5
69
100
AcDbEntity
100
AcDbLine
  8
skeleton
 62
256
370
-1
  6
ByLayer
 10
16.0984223201435093
 20
36.1505629015919396
 30
0.0
 11
15.7791492619022922
 21
46.1454648377932841
 31
0.0
  0
LINE
  5
6A
100
AcDbEntity
100
AcDbLine
  8
skeleton
 62
256
370
-1
  6
ByLayer
 10
26.0933242563448502
 20
36.469835959833155
 30
0.0
 11
25.7740511981036349
 21
46.4647378960344994
 31
0.0
  0
LINE
  5
6B
100
AcDbEntity
100
AcDbLine
  8
skeleton
 62
256
370
-1
  6
ByLayer
 10
36.0882261925461876
 20
36.7891090180743703
 30
0.0
 11
35.7689531343049723
 21
46.7840109542757148
 31
0.0
  0
LINE
  5
6C
100
AcDbEntity
100
AcDbLine
  8
skeleton
 62
256
370
-1
  6
ByLayer
 10
46.0831281287475321
 20
37.1083820763155856
 30
0.0
 11
45.7638550705063096
 21
47.1032840125169301
 31
0.0
  0
LINE
  5
6D
100
AcDbEntity
100
AcDbLine
  8
skeleton
 62
256
370
-1
  6
ByLayer
 10
56.0780300649488765
 20
37.4276551345568009
 30
0.0
 11
55.7587570067076541
 21
47.4225570707581454
 31
0.0
  0
LINE
  5
6E
100
AcDbEntity
100
AcDbLine
  8
skeleton
 62
256
370
-1
  6
ByLayer
 10
66.072932001150221
 20
37.7469281927980163
 30
0.0
 11
65.7536589429089986
 21
47.7418301289993607
 31
0.0
  0
LINE
  5
6F
100
AcDbEntity
100
AcDbLine
  8
skeleton
 62
256
370
-1
  6
ByLayer
 10
76.0678339373515655
 20
38.0662012510392316
 30
0.0
 11
75.7485608791103289
 21
48.0611031872405761
 31
0.0
  0
CIRCLE
  5
70
100
AcDbEntity
100
AcDbCircle
  8
bail support
 62
256
370
-1
  6
ByLayer
 10
75.908197408230933
 20
43.0636522191400459
 30
0.0
 40
1.1799999999999999
  0
CIRCLE
  5
71
100
AcDbEntity
100
AcDbCircle
  8
bail support
 62
256
370
-1
  6
ByLayer
 10
65.9132954720296027
 20
42.7443791608988022
 30
0.0
 40
1.1799999999999999
  0
CIRCLE
  5
72
100
AcDbEntity
100
AcDbCircle
  8
bail support
 62
256
370
-1
  6
ByLayer
 10
55.9183935358282653
 20
42.4251061026575655
 30
0.0
 40
1.1799999999999999
  0
CIRCLE
  5
73
100
AcDbEntity
100
AcDbCircle
  8
bail support
 62
256
370
-1
  6
ByLayer
 10
45.9234915996269208
 20
42.1058330444163289
 30
0.0
 40
1.1799999999999999
  0
CIRCLE
  5
74
100
AcDbEntity
100
AcDbCircle
  8
bail support
 62
256
370
-1
  6
ByLayer
 10
35.9285896634255693
 20
41.7865599861750852
 30
0.0
 40
1.1799999999999999
  0
CIRCLE
  5
75
100
AcDbEntity
100
AcDbCircle
  8
bail support
 62
256
370
-1
  6
ByLayer
 10
25.933687727224239
 20
41.4672869279338485
 30
0.0
 40
1.1799999999999999
  0
CIRCLE
  5
76
100
AcDbEntity
100
AcDbCircle
  8
bail support
 62
256
370
-1
  6
ByLayer
 10
15.9387857910229016
 20
41.1480138696926119
 30
0.0
 40
1.1799999999999999
  0
ARC
  5
77
100
AcDbEntity
  8
bail support
 62
256
370
-1
  6
ByLayer
100
AcDbCircle
 10
-20.0
 20
40.0
 30
0.0
 40
4.0000000000000036
100
AcDbArc
 50
91.8296108012670942
 51
271.8296108012670516
  0
LINE
  5
78
100
AcDbEntity
100
AcDbLine
  8
bail support
 62
256
370
-1
  6
ByLayer
 10
-19.8722907767035046
 20
36.0020392255194608
 30
0.0
 11
90.0137046524542654
 21
40.5233595624294409
 31
0.0
  0
LINE
  5
79
100
AcDbEntity
100
AcDbLine
  8
bail support
 62
256
370
-1
  6
ByLayer
 10
90.0137046524542654
 20
40.5233595624294409
 30
0.0
 11
90.1707125211831055
 21
43.5192481666931599
 31
0.0
  0
LINE
  5
7A
100
AcDbEntity
100
AcDbLine
  8
bail support
 62
256
370
-1
  6
ByLayer
 10
90.1707125211831055
 20
43.5192481666931599
 30
0.0
 11
100.0
 21
43.0041170379937583
 31
0.0
  0
LINE
  5
7B
100
AcDbEntity
100
AcDbLine
  8
bail support
 62
256
370
-1
  6
ByLayer
 10
100.0
 20
43.0041170379937583
 30
0.0
 11
90.0430032978866137
 21
47.5172089411736991
 31
0.0
  0
LINE
  5
7C
100
AcDbEntity
100
AcDbLine
  8
bail support
 62
256
370
-1
  6
ByLayer
 10
90.0430032978866137
 20
47.5172089411736991
 30
0.0
 11
-20.1277092232964954
 21
43.9979607744805392
 31
0.0
  0
LINE
  5
7D
100
AcDbEntity
100
AcDbLine
  8
side
 62
256
370
-1
  6
ByLayer
 10
100.0
 20
10.0
 30
0.0
 11
100.0
 21
11.3599999999999994
 31
0.0
  0
LINE
  5
7E
100
AcDbEntity
100
AcDbLine
  8
side
 62
256
370
-1
  6
ByLayer
 10
94.0
 20
10.0
 30
0.0
 11
94.0
 21
11.3599999999999994
 31
0.0
  0
LINE
  5
7F
100
AcDbEntity
100
AcDbLine
  8
side
 62
256
370
-1
  6
ByLayer
 10
94.0
 20
11.3599999999999994
 30
0.0
 11
100.0
 21
11.3599999999999994
 31
0.0
  0
LINE
  5
80
100
AcDbEntity
100
AcDbLine
  8
side
 62
256
370
-1
  6
ByLayer
 10
100.0
 20
10.0
 30
0.0
 11
94.0
 21
10.0
 31
0.0
  0
LINE
  5
81
100
AcDbEntity
100
AcDbLine
  8
side
 62
256
370
-1
  6
ByLayer
 10
120.0
 20
10.0
 30
0.0
 11
120.0
 21
11.3599999999999994
 31
0.0
  0
LINE
  5
82
100
AcDbEntity
100
AcDbLine
  8
side
 62
256
370
-1
  6
ByLayer
 10
114.0
 20
10.0
 30
0.0
 11
114.0
 21
11.3599999999999994
 31
0.0
  0
LINE
  5
83
100
AcDbEntity
100
AcDbLine
  8
side
 62
256
370
-1
  6
ByLayer
 10
114.0
 20
11.3599999999999994
 30
0.0
 11
120.0
 21
11.3599999999999994
 31
0.0
  0
LINE
  5
84
100
AcDbEntity
100
AcDbLine
  8
side
 62
256
370
-1
  6
ByLayer
 10
120.0
 20
10.0
 30
0.0
 11
114.0
 21
10.0
 31
0.0
  0
LINE
  5
85
100
AcDbEntity
100
AcDbLine
  8
skeleton
 62
256
370
-1
  6
ByLayer
 10
86.1511213677311645
 20
25.1133872438905108
 30
0.0
 11
109.0251249612014561
 21
27.5175418990465133
 31
0.0
  0
LINE
  5
86
100
AcDbEntity
100
AcDbLine
  8
skeleton
 62
256
370
-1
  6
ByLayer
 10
86.2943253624078466
 20
23.7508922472359778
 30
0.0
 11
109.1683289558781382
 21
26.1550469023919803
 31
0.0
  0
LINE
  5
87
100
AcDbEntity
100
AcDbLine
  8
skeleton
 62
256
370
-1
  6
ByLayer
 10
86.4375293570845287
 20
22.3883972505814448
 30
0.0
 11
109.3115329505548203
 21
24.7925519057374473
 31
0.0
  0
LINE
  5
88
100
AcDbEntity
100
AcDbLine
  8
skeleton
 62
256
370
-1
  6
ByLayer
 10
86.1511213677311645
 20
25.1133872438905108
 30
0.0
 11
86.4375293570845287
 21
22.3883972505814448
 31
0.0
  0
LINE
  5
89
100
AcDbEntity
100
AcDbLine
  8
skeleton
 62
256
370
-1
  6
ByLayer
 10
92.1182527399408002
 20
25.7405580234964191
 30
0.0
 11
92.4046607292941644
 21
23.0155680301873566
 31
0.0
  0
LINE
  5
8A
100
AcDbEntity
100
AcDbLine
  8
side
 62
256
370
-1
  6
ByLayer
 10
92.1182527399408002
 20
25.7405580234964226
 30
0.0
 11
86.1511213677311645
 21
25.1133872438905108
 31
0.0
  0
LINE
  5
8B
100
AcDbEntity
100
AcDbLine
  8
side
 62
256
370
-1
  6
ByLayer
 10
-30.0
 20
50.0
 30
0.0
 11
100.0
 21
100.0
 31
0.0
  0
LINE
  5
8C
100
AcDbEntity
100
AcDbLine
  8
side
 62
256
370
-1
  6
ByLayer
 10
100.0
 20
100.0
 30
0.0
 11
120.0
 21
100.0
 31
0.0
  0
LINE
  5
8D
100
AcDbEntity
100
AcDbLine
  8
side
 62
256
370
-1
  6
ByLayer
 10
120.0
 20
100.0
 30
0.0
 11
130.0
 21
70.0
 31
0.0
  0
LINE
  5
8E
100
AcDbEntity
100
AcDbLine
  8
side
 62
256
370
-1
  6
ByLayer
 10
130.0
 20
70.0
 30
0.0
 11
130.0
 21
-20.0
 31
0.0
  0
LINE
  5
8F
100
AcDbEntity
100
AcDbLine
  8
side
 62
256
370
-1
  6
ByLayer
 10
130.0
 20
-20.0
 30
0.0
 11
110.0
 21
-20.0
 31
0.0
  0
LINE
  5
90
100
AcDbEntity
100
AcDbLine
  8
side
 62
256
370
-1
  6
ByLayer
 10
110.0
 20
-20.0
 30
0.0
 11
100.0
 21
-10.0
 31
0.0
  0
LINE
  5
91
100
AcDbEntity
100
AcDbLine
  8
side
 62
256
370
-1
  6
ByLayer
 10
100.0
 20
-10.0
 30
0.0
 11
0.0
 21
-10.0
 31
0.0
  0
LINE
  5
92
100
AcDbEntity
100
AcDbLine
  8
side
 62
256
370
-1
  6
ByLayer
 10
0.0
 20
-10.0
 30
0.0
 11
-10.0
 21
-20.0
 31
0.0
  0
LINE
  5
93
100
AcDbEntity
100
AcDbLine
  8
side
 62
256
370
-1
  6
ByLayer
 10
-10.0
 20
-20.0
 30
0.0
 11
-30.0
 21
-20.0
 31
0.0
  0
LINE
  5
94
100
AcDbEntity
100
AcDbLine
  8
side
 62
256
370
-1
  6
ByLayer
 10
-30.0
 20
-20.0
 30
0.0
 11
-30.0
 21
50.0
 31
0.0
  0
LINE
  5
95
100
AcDbEntity
100
AcDbLine
  8
bar
 62
256
370
-1
  6
ByLayer
 10
108.0
 20
85.0
 30
0.0
 11
108.0
 21
100.0
 31
0.0
  0
LINE
  5
96
100
AcDbEntity
100
AcDbLine
  8
bar
 62
256
370
-1
  6
ByLayer
 10
112.0
 20
100.0
 30
0.0
 11
112.0
 21
85.0
 31
0.0
  0
ARC
  5
97
100
AcDbEntity
  8
bar
 62
256
370
-1
  6
ByLayer
100
AcDbCircle
 10
110.0
 20
100.0
 30
0.0
 40
2.0
100
AcDbArc
 50
0.0
 51
180.0
  0
ARC
  5
98
100
AcDbEntity
  8
bar
 62
256
370
-1
  6
ByLayer
100
AcDbCircle
 10
106.0
 20
85.0
 30
0.0
 40
2.0
100
AcDbArc
 50
186.0000000000001421
 51
0.0
  0
LINE
  5
99
100
AcDbEntity
100
AcDbLine
  8
bar
 62
256
370
-1
  6
ByLayer
 10
111.0995016377508051
 20
81.8384998740191776
 30
0.0
 11
105.3038293402902639
 21
72.4900769118034702
 31
0.0
  0
ARC
  5
9A
100
AcDbEntity
  8
bar
 62
256
370
-1
  6
ByLayer
100
AcDbCircle
 10
106.0
 20
85.0
 30
0.0
 40
6.0
100
AcDbArc
 50
328.2026364290979927
 51
0.0
  0
CIRCLE
  5
9B
100
AcDbEntity
100
AcDbCircle
  8
bar
 62
256
370
-1
  6
ByLayer
 10
100.4539854695121051
 20
99.4997145774534886
 30
0.0
 40
0.8
  0
ARC
  5
9C
100
AcDbEntity
  8
bar
 62
256
370
-1
  6
ByLayer
100
AcDbCircle
 10
110.9068317962774302
 20
0.047525040626148
 30
0.0
 40
1.999999999999982
100
AcDbArc
 50
185.9999999999993463
 51
5.9999999999997824
  0
LINE
  5
9D
100
AcDbEntity
100
AcDbLine
  8
bar
 62
256
370
-1
  6
ByLayer
 10
101.3857326729675634
 20
33.2340987035415765
 30
0.0
 11
105.7819341075113044
 21
29.6741249751390477
 31
0.0
  0
LINE
  5
9E
100
AcDbEntity
100
AcDbLine
  8
bar
 62
256
370
-1
  6
ByLayer
 10
105.7819341075113044
 20
29.6741249751390512
 30
0.0
 11
108.9177880055408849
 21
-0.1615318859091417
 31
0.0
  0
LINE
  5
9F
100
AcDbEntity
100
AcDbLine
  8
bar
 62
256
370
-1
  6
ByLayer
 10
112.791347123746263
 20
1.2511038625297175
 30
0.0
 11
111.7968252283779975
 21
1.1465753992620762
 31
0.0
  0
LINE
  5
A0
100
AcDbEntity
100
AcDbLine
  8
bar
 62
256
370
-1
  6
ByLayer
 10
111.7968252283779975
 20
1.1465753992620762
 30
0.0
 11
111.9013536916456673
 21
0.1520535038938107
 31
0.0
  0
LINE
  5
A1
100
AcDbEntity
100
AcDbLine
  8
bar
 62
256
370
-1
  6
ByLayer
 10
111.9013536916456673
 20
0.1520535038938107
 30
0.0
 11
112.8958755870139044
 21
0.2565819671614449
 31
0.0
  0
LINE
  5
A2
100
AcDbEntity
100
AcDbLine
  8
bar
 62
256
370
-1
  6
ByLayer
 10
112.791347123746263
 20
1.2511038625297175
 30
0.0
 11
105.3038293402902639
 21
72.4900769118034844
 31
0.0
  0
LINE
  5
A3
100
AcDbEntity
100
AcDbLine
  8
bar
 62
256
370
-1
  6
ByLayer
 10
100.7585618933616587
 20
39.2012300757511625
 30
0.0
 11
101.3857326729675634
 21
33.2340987035415765
 31
0.0
  0
LINE
  5
A4
100
AcDbEntity
100
AcDbLine
  8
bar
 62
256
370
-1
  6
ByLayer
 10
104.7585618933616729
 20
39.4108611928833241
 30
0.0
 11
100.7585618933616587
 21
39.2012300757511625
 31
0.0
  0
ARC
  5
A5
100
AcDbEntity
  8
bar
 62
256
370
-1
  6
ByLayer
100
AcDbCircle
 10
96.870484183761036
 20
95.327362898241816
 30
0.0
 40
2.0
100
AcDbArc
 50
6.0000000000001474
 51
49.3417582272223427
  0
LINE
  5
A6
100
AcDbEntity
100
AcDbLine
  8
bar
 62
256
370
-1
  6
ByLayer
 10
102.8376155559706859
 20
95.9545336778477207
 30
0.0
 11
104.0109562092634548
 21
84.790943073464689
 31
0.0
  0
ARC
  5
A7
100
AcDbEntity
  8
bar
 62
256
370
-1
  6
ByLayer
100
AcDbCircle
 10
100.4539854695121051
 20
99.4997145774534886
 30
0.0
 40
3.5
100
AcDbArc
 50
322.6582417727776146
 51
229.3417582272222432
  0
ARC
  5
A8
100
AcDbEntity
  8
bar
 62
256
370
-1
  6
ByLayer
100
AcDbCircle
 10
104.8266593467072312
 20
96.1635906043830317
 30
0.0
 40
2.0
100
AcDbArc
 50
142.6582417727774441
 51
186.0000000000001421
  0
LINE
  5
A9
100
AcDbEntity
100
AcDbLine
  8
bar
 62
256
370
-1
  6
ByLayer
 10
98.8595279744975812
 20
95.536419824777127
 30
0.0
 11
104.7585618933616729
 21
39.4108611928833241
 31
0.0
  0
CIRCLE
  5
AA
100
AcDbEntity
100
AcDbCircle
  8
side
 62
256
370
-1
  6
ByLayer
 10
106.0
 20
85.0
 30
0.0
 40
1.5
  0
CIRCLE
  5
AB
100
AcDbEntity
100
AcDbCircle
  8
side
 62
256
370
-1
  6
ByLayer
 10
-20.0
 20
40.0
 30
0.0
 40
1.5
  0
CIRCLE
  5
AC
100
AcDbEntity
100
AcDbCircle
  8
bail support
 62
256
370
-1
  6
ByLayer
 10
-20.0
 20
40.0
 30
0.0
 40
1.5
  0
LINE
  5
AD
100
AcDbEntity
100
AcDbLine
  8
skeleton
 62
256
370
-1
  6
ByLayer
 10
86.5807333517612108
 20
21.0259022539269118
 30
0.0
 11
109.4547369452315024
 21
23.4300569090829143
 31
0.0
  0
LINE
  5
AE
100
AcDbEntity
100
AcDbLine
  8
skeleton
 62
256
370
-1
  6
ByLayer
 10
86.7239373464378929
 20
19.6634072572723753
 30
0.0
 11
109.5979409399081845
 21
22.0675619124283777
 31
0.0
  0
LINE
  5
AF
100
AcDbEntity
100
AcDbLine
  8
side
 62
256
370
-1
  6
ByLayer
 10
92.6910687186475286
 20
20.2905780368782871
 30
0.0
 11
92.1182527399408002
 21
25.7405580234964226
 31
0.0
  0
LINE
  5
B0
100
AcDbEntity
100
AcDbLine
  8
side
 62
256
370
-1
  6
ByLayer
 10
86.1511213677311645
 20
25.1133872438905108
 30
0.0
 11
86.7239373464378929
 21
19.6634072572723753
 31
0.0
  0
LINE
  5
B1
100
AcDbEntity
100
AcDbLine
  8
side
 62
256
370
-1
  6
ByLayer
 10
86.7239373464378929
 20
19.6634072572723753
 30
0.0
 11
92.6910687186475286
 21
20.2905780368782871
 31
0.0
  0
LINE
  5
B2
100
AcDbEntity
100
AcDbLine
  8
skeleton
 62
256
370
-1
  6
ByLayer
 10
100.0
 20
15.0
 30
0.0
 11
-20.0000000000000036
 21
15.0
 31
0.0
  0
LINE
  5
B3
100
AcDbEntity
100
AcDbLine
  8
skeleton
 62
256
370
-1
  6
ByLayer
 10
80.0
 20
10.0
 30
0.0
 11
80.0
 21
20.0
 31
0.0
  0
CIRCLE
  5
B4
100
AcDbEntity
100
AcDbCircle
  8
side
 62
256
370
-1
  6
ByLayer
 10
80.0
 20
15.0
 30
0.0
 40
1.75
  0
LINE
  5
B5
100
AcDbEntity
100
AcDbLine
  8
skeleton
 62
256
370
-1
  6
ByLayer
 10
70.0
 20
10.0
 30
0.0
 11
70.0
 21
20.0
 31
0.0
  0
CIRCLE
  5
B6
100
AcDbEntity
100
AcDbCircle
  8
side
 62
256
370
-1
  6
ByLayer
 10
70.0
 20
15.0
 30
0.0
 40
1.75
  0
LINE
  5
B7
100
AcDbEntity
100
AcDbLine
  8
skeleton
 62
256
370
-1
  6
ByLayer
 10
60.0
 20
10.0
 30
0.0
 11
60.0
 21
20.0
 31
0.0
  0
CIRCLE
  5
B8
100
AcDbEntity
100
AcDbCircle
  8
side
 62
256
370
-1
  6
ByLayer
 10
60.0
 20
15.0
 30
0.0
 40
1.75
  0
LINE
  5
B9
100
AcDbEntity
100
AcDbLine
  8
skeleton
 62
256
370
-1
  6
ByLayer
 10
50.0
 20
10.0
 30
0.0
 11
50.0
 21
20.0
 31
0.0
  0
CIRCLE
  5
BA
100
AcDbEntity
100
AcDbCircle
  8
side
 62
256
370
-1
  6
ByLayer
 10
50.0
 20
15.0
 30
0.0
 40
1.75
  0
LINE
  5
BB
100
AcDbEntity
100
AcDbLine
  8
skeleton
 62
256
370
-1
  6
ByLayer
 10
40.0
 20
10.0
 30
0.0
 11
40.0
 21
20.0
 31
0.0
  0
CIRCLE
  5
BC
100
AcDbEntity
100
AcDbCircle
  8
side
 62
256
370
-1
  6
ByLayer
 10
40.0
 20
15.0
 30
0.0
 40
1.75
  0
LINE
  5
BD
100
AcDbEntity
100
AcDbLine
  8
skeleton
 62
256
370
-1
  6
ByLayer
 10
30.0
 20
10.0
 30
0.0
 11
30.0
 21
20.0
 31
0.0
  0
CIRCLE
  5
BE
100
AcDbEntity
100
AcDbCircle
  8
side
 62
256
370
-1
  6
ByLayer
 10
30.0
 20
15.0
 30
0.0
 40
1.75
  0
LINE
  5
BF
100
AcDbEntity
100
AcDbLine
  8
skeleton
 62
256
370
-1
  6
ByLayer
 10
70.0
 20
78.0
 30
0.0
 11
130.0
 21
78.0
 31
0.0
  0
LINE
  5
C0
100
AcDbEntity
100
AcDbLine
  8
skeleton
 62
256
370
-1
  6
ByLayer
 10
70.0
 20
79.3599999999999994
 30
0.0
 11
130.0
 21
79.3599999999999994
 31
0.0
  0
LINE
  5
C1
100
AcDbEntity
100
AcDbLine
  8
side
 62
256
370
-1
  6
ByLayer
 10
100.0
 20
78.0
 30
0.0
 11
100.0
 21
79.3599999999999994
 31
0.0
  0
LINE
  5
C2
100
AcDbEntity
100
AcDbLine
  8
side
 62
256
370
-1
  6
ByLayer
 10
94.0
 20
78.0
 30
0.0
 11
94.0
 21
79.3599999999999994
 31
0.0
  0
LINE
  5
C3
100
AcDbEntity
100
AcDbLine
  8
side
 62
256
370
-1
  6
ByLayer
 10
94.0
 20
79.3599999999999994
 30
0.0
 11
100.0
 21
79.3599999999999994
 31
0.0
  0
LINE
  5
C4
100
AcDbEntity
100
AcDbLine
  8
side
 62
256
370
-1
  6
ByLayer
 10
100.0
 20
78.0
 30
0.0
 11
94.0
 21
78.0
 31
0.0
  0
LINE
  5
C5
100
AcDbEntity
100
AcDbLine
  8
side
 62
256
370
-1
  6
ByLayer
 10
120.0
 20
78.0
 30
0.0
 11
120.0
 21
79.3599999999999994
 31
0.0
  0
LINE
  5
C6
100
AcDbEntity
100
AcDbLine
  8
side
 62
256
370
-1
  6
ByLayer
 10
114.0
 20
78.0
 30
0.0
 11
114.0
 21
79.3599999999999994
 31
0.0
  0
LINE
  5
C7
100
AcDbEntity
100
AcDbLine
  8
side
 62
256
370
-1
  6
ByLayer
 10
114.0
 20
79.3599999999999994
 30
0.0
 11
120.0
 21
79.3599999999999994
 31
0.0
  0
LINE
  5
C8
100
AcDbEntity
100
AcDbLine
  8
side
 62
256
370
-1
  6
ByLayer
 10
120.0
 20
78.0
 30
0.0
 11
114.0
 21
78.0
 31
0.0
  0
ARC
  5
C9
100
AcDbEntity
  8
skeleton
 62
256
370
-1
  6
ByLayer
100
AcDbCircle
 10
-20.0
 20
40.0
 30
0.0
 40
95.9571169586500048
100
AcDbArc
 50
1.8296108012672827
 51
18.4349488229219993
  0
CIRCLE
  5
CA
100
AcDbEntity
100
AcDbCircle
  8
side
 62
256
370
-1
  6
ByLayer
 10
90.0
 20
60.0
 30
0.0
 40
1.5
  0
CIRCLE
  5
CB
100
AcDbEntity
100
AcDbCircle
  8
pushbar
 62
256
370
-1
  6
ByLayer
 10
90.0
 20
60.0
 30
0.0
 40
1.5
  0
LINE
  5
CC
100
AcDbEntity
100
AcDbLine
  8
pushbar
 62
256
370
-1
  6
ByLayer
 10
71.0
 20
58.0
 30
0.0
 11
88.0
 21
67.0
 31
0.0
  0
LINE
  5
CD
100
AcDbEntity
100
AcDbLine
  8
pushbar
 62
256
370
-1
  6
ByLayer
 10
93.3500140254322304
 20
56.9113655489225749
 30
0.0
 11
73.331868495876023
 21
54.1816184312558207
 31
0.0
  0
LINE
  5
CE
100
AcDbEntity
100
AcDbLine
  8
pushbar
 62
256
370
-1
  6
ByLayer
 10
71.6739849385580641
 20
55.304060245767765
 30
0.0
 11
71.0
 21
58.0
 31
0.0
  0
ARC
  5
CF
100
AcDbEntity
  8
pushbar
 62
256
370
-1
  6
ByLayer
100
AcDbCircle
 10
73.1291986887760572
 20
55.6678636833222669
 30
0.0
 40
1.5
100
AcDbArc
 50
194.0362434679265959
 51
277.7651660184251909
  0
CIRCLE
  5
D0
100
AcDbEntity
100
AcDbCircle
  8
pushbar
 62
256
370
-1
  6
ByLayer
 10
99.0
 20
67.0
 30
0.0
 40
1.5
  0
CIRCLE
  5
D1
100
AcDbEntity
100
AcDbCircle
  8
pushbar
 62
256
370
-1
  6
ByLayer
 10
95.0
 20
70.0
 30
0.0
 40
1.0
  0
LINE
  5
D2
100
AcDbEntity
100
AcDbLine
  8
pushbar
 62
256
370
-1
  6
ByLayer
 10
100.8000000000000114
 20
69.4000000000000057
 30
0.0
 11
96.0
 21
73.0
 31
0.0
  0
LINE
  5
D3
100
AcDbEntity
100
AcDbLine
  8
pushbar
 62
256
370
-1
  6
ByLayer
 10
96.0
 20
73.0
 30
0.0
 11
92.0
 21
72.0
 31
0.0
  0
LINE
  5
D4
100
AcDbEntity
100
AcDbLine
  8
pushbar
 62
256
370
-1
  6
ByLayer
 10
92.0
 20
72.0
 30
0.0
 11
91.0
 21
68.0
 31
0.0
  0
LINE
  5
D5
100
AcDbEntity
100
AcDbLine
  8
pushbar
 62
256
370
-1
  6
ByLayer
 10
88.0
 20
67.0
 30
0.0
 11
91.0
 21
68.0
 31
0.0
  0
LINE
  5
D6
100
AcDbEntity
100
AcDbLine
  8
pushbar
 62
256
370
-1
  6
ByLayer
 10
101.1475289589477171
 20
64.9052161518474264
 30
0.0
 11
93.3500140254322304
 21
56.9113655489225749
 31
0.0
  0
ARC
  5
D7
100
AcDbEntity
  8
pushbar
 62
256
370
-1
  6
ByLayer
100
AcDbCircle
 10
99.0
 20
67.0
 30
0.0
 40
3.0
100
AcDbArc
 50
315.7123276078389154
 51
53.1301023541560866
  0
ENDSEC
  0
SECTION
  2
OBJECTS
  0
DICTIONARY
  5
C
100
AcDbDictionary
280
0
281
1
  3
ACAD_GROUP
350
D
  3
ACAD_LAYOUT
350
1A
  3
ACAD_MLINESTYLE
350
17
  3
ACAD_PLOTSETTINGS
350
19
  3
ACAD_PLOTSTYLENAME
350
E
  3
AcDbVariableDictionary
350
D8
  0
DICTIONARY
  5
D
100
AcDbDictionary
280
0
281
1
  0
ACDBDICTIONARYWDFLT
  5
E
100
AcDbDictionary
281
1
  3
Normal
350
F
100
AcDbDictionaryWithDefault
340
F
  0
ACDBPLACEHOLDER
  5
F
  0
DICTIONARY
  5
17
100
AcDbDictionary
280
0
281
1
  3
Standard
350
18
  0
MLINESTYLE
  5
18
100
AcDbMlineStyle
  2
STANDARD
 70
0
  3

 62
256
 51
90.0
 52
90.0
 71
2
 49
0.5
 62
256
  6
BYLAYER
 49
-0.5
 62
256
  6
BYLAYER
  0
DICTIONARY
  5
19
100
AcDbDictionary
280
0
281
1
  0
DICTIONARY
  5
1A
100
AcDbDictionary
281
1
  3
Layout1
350
1E
  3
Layout2
350
26
  3
Model
350
22
  0
LAYOUT
  5
1E
100
AcDbPlotSettings
  1

  2
C:\Program Files\AutoCAD 2002\plotters\DWF ePlot (optimized for plotting).pc3
  4

  6

 40
0.0
 41
0.0
 42
0.0
 43
0.0
 44
0.0
 45
0.0
 46
0.0
 47
0.0
 48
0.0
 49
0.0
140
0.0
141
0.0
142
1.0
143
1.0
 70
688
 72
0
 73
0
 74
5
  7

 75
16
147
1.0
148
0.0
149
0.0
100
AcDbLayout
  1
Layout1
 70
1
 71
1
 10
0.0
 20
0.0
 11
420.0
 21
297.0
 12
0.0
 22
0.0
 32
0.0
 14
100000000000000000000.0
 24
100000000000000000000.0
 34
100000000000000000000.0
 15
-100000000000000000000.0
 25
-100000000000000000000.0
 35
-100000000000000000000.0
146
0.0
 13
0.0
 23
0.0
 33
0.0
 16
1.0
 26
0.0
 36
0.0
 17
0.0
 27
1.0
 37
0.0
 76
0
330
1B
  0
LAYOUT
  5
22
100
AcDbPlotSettings
  1

  2
C:\Program Files\AutoCAD 2002\plotters\DWF ePlot (optimized for plotting).pc3
  4

  6

 40
0.0
 41
0.0
 42
0.0
 43
0.0
 44
0.0
 45
0.0
 46
0.0
 47
0.0
 48
0.0
 49
0.0
140
0.0
141
0.0
142
1.0
143
1.0
 70
1712
 72
0
 73
0
 74
0
  7

 75
0
147
1.0
148
0.0
149
0.0
100
AcDbLayout
  1
Model
 70
1
 71
0
 10
0.0
 20
0.0
 11
12.0
 21
9.0
 12
0.0
 22
0.0
 32
0.0
 14
0.0
 24
0.0
 34
0.0
 15
0.0
 25
0.0
 35
0.0
146
0.0
 13
0.0
 23
0.0
 33
0.0
 16
1.0
 26
0.0
 36
0.0
 17
0.0
 27
1.0
 37
0.0
 76
0
330
1F
  0
LAYOUT
  5
26
100
AcDbPlotSettings
  1

  2
C:\Program Files\AutoCAD 2002\plotters\DWF ePlot (optimized for plotting).pc3
  4

  6

 40
0.0
 41
0.0
 42
0.0
 43
0.0
 44
0.0
 45
0.0
 46
0.0
 47
0.0
 48
0.0
 49
0.0
140
0.0
141
0.0
142
1.0
143
1.0
 70
688
 72
0
 73
0
 74
5
  7

 75
16
147
1.0
148
0.0
149
0.0
100
AcDbLayout
  1
Layout2
 70
1
 71
2
 10
0.0
 20
0.0
 11
12.0
 21
9.0
 12
0.0
 22
0.0
 32
0.0
 14
0.0
 24
0.0
 34
0.0
 15
0.0
 25
0.0
 35
0.0
146
0.0
 13
0.0
 23
0.0
 33
0.0
 16
1.0
 26
0.0
 36
0.0
 17
0.0
 27
1.0
 37
0.0
 76
0
330
23
  0
DICTIONARY
  5
D8
100
AcDbDictionary
281
1
  3
DIMASSOC
350
DA
  3
HIDETEXT
350
D9
  0
DICTIONARYVAR
  5
D9
100
DictionaryVariables
280
0
  1
2
  0
DICTIONARYVAR
  5
DA
100
DictionaryVariables
280
0
  1
1
  0
ENDSEC
  0
EOF
