999
dxflib 2.2.0.0
  0
SECTION
  2
HEADER
  9
$ACADVER
  1
AC1015
  9
$HANDSEED
  5
FFFF
  9
$DIMASZ
 40
2.5
  9
$PLIMMIN
 10
0.0
 20
0.0
  9
$DIMEXE
 40
1.25
  9
$DIMGAP
 40
0.625
  9
$PLIMMAX
 10
210.0
 20
297.0
  9
$INSUNITS
 70
4
  9
$DIMSTYLE
  2
Standard
  9
$CLAYER
  8
skel2
  9
$DIMEXO
 40
0.625
  9
$DIMTXT
 40
2.5
  9
$CLAYER
  8
cut
  0
ENDSEC
  0
SECTION
  2
TABLES
  0
TABLE
  2
VPORT
  5
8
100
AcDbSymbolTable
 70
1
  0
VPORT
  5
30
100
AcDbSymbolTableRecord
100
AcDbViewportTableRecord
  2
*Active
 70
0
 10
0.0
 20
0.0
 11
1.0
 21
1.0
 12
286.3055555555554861
 22
148.5
 13
0.0
 23
0.0
 14
10.0
 24
10.0
 15
10.0
 25
10.0
 16
0.0
 26
0.0
 36
1.0
 17
0.0
 27
0.0
 37
0.0
 40
297.0
 41
1.92798353909465
 42
50.0
 43
0.0
 44
0.0
 50
0.0
 51
0.0
 71
0
 72
100
 73
1
 74
3
 75
1
 76
1
 77
0
 78
0
281
0
 65
1
110
0.0
120
0.0
130
0.0
111
1.0
121
0.0
131
0.0
112
0.0
122
1.0
132
0.0
 79
0
146
0.0
  0
ENDTAB
  0
TABLE
  2
LTYPE
  5
5
100
AcDbSymbolTable
 70
21
  0
LTYPE
  5
14
100
AcDbSymbolTableRecord
100
AcDbLinetypeTableRecord
  2
ByBlock
 70
0
  3

 72
65
 73
0
 40
0.0
  0
LTYPE
  5
15
100
AcDbSymbolTableRecord
100
AcDbLinetypeTableRecord
  2
ByLayer
 70
0
  3

 72
65
 73
0
 40
0.0
  0
LTYPE
  5
16
100
AcDbSymbolTableRecord
100
AcDbLinetypeTableRecord
  2
CONTINUOUS
 70
0
  3
Solid line
 72
65
 73
0
 40
0.0
  0
LTYPE
  5
31
100
AcDbSymbolTableRecord
100
AcDbLinetypeTableRecord
  2
DOT
 70
0
  3
Dot . . . . . . . . . . . . . . . . . . . . . .
 72
65
 73
2
 40
6.3499999999999996
 49
0.0
 74
0
 49
-6.3499999999999996
 74
0
  0
LTYPE
  5
32
100
AcDbSymbolTableRecord
100
AcDbLinetypeTableRecord
  2
DOT2
 70
0
  3
Dot (.5x) .....................................
 72
65
 73
2
 40
3.1749999999999998
 49
0.0
 74
0
 49
-3.1749999999999998
 74
0
  0
LTYPE
  5
33
100
AcDbSymbolTableRecord
100
AcDbLinetypeTableRecord
  2
DOTX2
 70
0
  3
Dot (2x) .  .  .  .  .  .  .  .  .  .  .  .  .
 72
65
 73
2
 40
12.6999999999999993
 49
0.0
 74
0
 49
-12.6999999999999993
 74
0
  0
LTYPE
  5
34
100
AcDbSymbolTableRecord
100
AcDbLinetypeTableRecord
  2
DASHED
 70
0
  3
Dashed __ __ __ __ __ __ __ __ __ __ __ __ __ _
 72
65
 73
2
 40
19.0500000000000007
 49
12.6999999999999993
 74
0
 49
-6.3499999999999996
 74
0
  0
LTYPE
  5
35
100
AcDbSymbolTableRecord
100
AcDbLinetypeTableRecord
  2
DASHED2
 70
0
  3
Dashed (.5x) _ _ _ _ _ _ _ _ _ _ _ _ _ _ _ _ _
 72
65
 73
2
 40
9.5250000000000004
 49
6.3499999999999996
 74
0
 49
-3.1749999999999998
 74
0
  0
LTYPE
  5
36
100
AcDbSymbolTableRecord
100
AcDbLinetypeTableRecord
  2
DASHEDX2
 70
0
  3
Dashed (2x) ____  ____  ____  ____  ____  ___
 72
65
 73
2
 40
38.1000000000000014
 49
25.3999999999999986
 74
0
 49
-12.6999999999999993
 74
0
  0
LTYPE
  5
37
100
AcDbSymbolTableRecord
100
AcDbLinetypeTableRecord
  2
DASHDOT
 70
0
  3
Dash dot __ . __ . __ . __ . __ . __ . __ . __
 72
65
 73
4
 40
25.3999999999999986
 49
12.6999999999999993
 74
0
 49
-6.3499999999999996
 74
0
 49
0.0
 74
0
 49
-6.3499999999999996
 74
0
  0
LTYPE
  5
38
100
AcDbSymbolTableRecord
100
AcDbLinetypeTableRecord
  2
DASHDOT2
 70
0
  3
Dash dot (.5x) _._._._._._._._._._._._._._._.
 72
65
 73
4
 40
12.6999999999999993
 49
6.3499999999999996
 74
0
 49
-3.1749999999999998
 74
0
 49
0.0
 74
0
 49
-3.1749999999999998
 74
0
  0
LTYPE
  5
39
100
AcDbSymbolTableRecord
100
AcDbLinetypeTableRecord
  2
DASHDOTX2
 70
0
  3
Dash dot (2x) ____  .  ____  .  ____  .  ___
 72
65
 73
4
 40
50.7999999999999972
 49
25.3999999999999986
 74
0
 49
-12.6999999999999993
 74
0
 49
0.0
 74
0
 49
-12.6999999999999993
 74
0
  0
LTYPE
  5
3A
100
AcDbSymbolTableRecord
100
AcDbLinetypeTableRecord
  2
DIVIDE
 70
0
  3
Divide ____ . . ____ . . ____ . . ____ . . ____
 72
65
 73
6
 40
31.75
 49
12.6999999999999993
 74
0
 49
-6.3499999999999996
 74
0
 49
0.0
 74
0
 49
-6.3499999999999996
 74
0
 49
0.0
 74
0
 49
-6.3499999999999996
 74
0
  0
LTYPE
  5
3B
100
AcDbSymbolTableRecord
100
AcDbLinetypeTableRecord
  2
DIVIDE2
 70
0
  3
Divide (.5x) __..__..__..__..__..__..__..__.._
 72
65
 73
6
 40
15.875
 49
6.3499999999999996
 74
0
 49
-3.1749999999999998
 74
0
 49
0.0
 74
0
 49
-3.1749999999999998
 74
0
 49
0.0
 74
0
 49
-3.1749999999999998
 74
0
  0
LTYPE
  5
3C
100
AcDbSymbolTableRecord
100
AcDbLinetypeTableRecord
  2
DIVIDEX2
 70
0
  3
Divide (2x) ________  .  .  ________  .  .  _
 72
65
 73
6
 40
63.5
 49
25.3999999999999986
 74
0
 49
-12.6999999999999993
 74
0
 49
0.0
 74
0
 49
-12.6999999999999993
 74
0
 49
0.0
 74
0
 49
-12.6999999999999993
 74
0
  0
LTYPE
  5
3D
100
AcDbSymbolTableRecord
100
AcDbLinetypeTableRecord
  2
CENTER
 70
0
  3
Center ____ _ ____ _ ____ _ ____ _ ____ _ ____
 72
65
 73
4
 40
50.7999999999999972
 49
31.75
 74
0
 49
-6.3499999999999996
 74
0
 49
6.3499999999999996
 74
0
 49
-6.3499999999999996
 74
0
  0
LTYPE
  5
3E
100
AcDbSymbolTableRecord
100
AcDbLinetypeTableRecord
  2
CENTER2
 70
0
  3
Center (.5x) ___ _ ___ _ ___ _ ___ _ ___ _ ___
 72
65
 73
4
 40
28.5749999999999993
 49
19.0500000000000007
 74
0
 49
-3.1749999999999998
 74
0
 49
3.1749999999999998
 74
0
 49
-3.1749999999999998
 74
0
  0
LTYPE
  5
3F
100
AcDbSymbolTableRecord
100
AcDbLinetypeTableRecord
  2
CENTERX2
 70
0
  3
Center (2x) ________  __  ________  __  _____
 72
65
 73
4
 40
101.5999999999999943
 49
63.5
 74
0
 49
-12.6999999999999993
 74
0
 49
12.6999999999999993
 74
0
 49
-12.6999999999999993
 74
0
  0
LTYPE
  5
40
100
AcDbSymbolTableRecord
100
AcDbLinetypeTableRecord
  2
BORDER
 70
0
  3
Border __ __ . __ __ . __ __ . __ __ . __ __ .
 72
65
 73
6
 40
44.4500000000000028
 49
12.6999999999999993
 74
0
 49
-6.3499999999999996
 74
0
 49
12.6999999999999993
 74
0
 49
-6.3499999999999996
 74
0
 49
0.0
 74
0
 49
-6.3499999999999996
 74
0
  0
LTYPE
  5
41
100
AcDbSymbolTableRecord
100
AcDbLinetypeTableRecord
  2
BORDER2
 70
0
  3
Border (.5x) __.__.__.__.__.__.__.__.__.__.__.
 72
65
 73
6
 40
22.2250000000000014
 49
6.3499999999999996
 74
0
 49
-3.1749999999999998
 74
0
 49
6.3499999999999996
 74
0
 49
-3.1749999999999998
 74
0
 49
0.0
 74
0
 49
-3.1749999999999998
 74
0
  0
LTYPE
  5
42
100
AcDbSymbolTableRecord
100
AcDbLinetypeTableRecord
  2
BORDERX2
 70
0
  3
Border (2x) ____  ____  .  ____  ____  .  ___
 72
65
 73
6
 40
88.9000000000000057
 49
25.3999999999999986
 74
0
 49
-12.6999999999999993
 74
0
 49
25.3999999999999986
 74
0
 49
-12.6999999999999993
 74
0
 49
0.0
 74
0
 49
-12.6999999999999993
 74
0
  0
ENDTAB
  0
TABLE
  2
LAYER
  5
2
100
AcDbSymbolTable
 70
4
  0
LAYER
  5
10
100
AcDbSymbolTableRecord
100
AcDbLayerTableRecord
  2
0
 70
0
 62
7
420
16777215
  6
CONTINUOUS
370
0
390
F
  0
LAYER
  5
43
100
AcDbSymbolTableRecord
100
AcDbLayerTableRecord
  2
skel
 70
1
 62
-1
420
16711680
  6
CONTINUOUS
370
0
390
F
  0
LAYER
  5
44
100
AcDbSymbolTableRecord
100
AcDbLayerTableRecord
  2
skel2
 70
1
 62
-5
420
255
  6
CONTINUOUS
370
0
390
F
  0
LAYER
  5
45
100
AcDbSymbolTableRecord
100
AcDbLayerTableRecord
  2
cut
 70
0
 62
7
420
0
  6
CONTINUOUS
370
0
390
F
  0
ENDTAB
  0
TABLE
  2
STYLE
  5
3
100
AcDbSymbolTable
 70
1
  0
STYLE
  5
11
100
AcDbSymbolTableRecord
100
AcDbTextStyleTableRecord
  2
Standard
 70
0
 40
0.0
 41
0.75
 50
0.0
 71
0
 42
2.5
  3
txt
  4

  0
ENDTAB
  0
TABLE
  2
VIEW
  5
6
100
AcDbSymbolTable
 70
0
  0
ENDTAB
  0
TABLE
  2
UCS
  5
7
100
AcDbSymbolTable
 70
0
  0
ENDTAB
  0
TABLE
  2
APPID
  5
9
100
AcDbSymbolTable
 70
1
  0
APPID
  5
12
100
AcDbSymbolTableRecord
100
AcDbRegAppTableRecord
  2
ACAD
 70
0
  0
ENDTAB
  0
TABLE
  2
DIMSTYLE
  5
A
100
AcDbSymbolTable
 70
1
100
AcDbDimStyleTable
 71
0
  0
DIMSTYLE
105
27
100
AcDbSymbolTableRecord
100
AcDbDimStyleTableRecord
  2
Standard
 41
2.5
 42
0.625
 43
3.75
 44
1.25
 70
0
 73
0
 74
0
 77
1
 78
8
140
2.5
141
2.5
143
0.03937007874016
147
0.625
171
3
172
1
271
2
272
2
274
3
278
44
283
0
284
8
340
11
  0
ENDTAB
  0
TABLE
  2
BLOCK_RECORD
  5
1
100
AcDbSymbolTable
 70
1
  0
BLOCK_RECORD
  5
1F
100
AcDbSymbolTableRecord
100
AcDbBlockTableRecord
  2
*Model_Space
340
22
  0
BLOCK_RECORD
  5
1B
100
AcDbSymbolTableRecord
100
AcDbBlockTableRecord
  2
*Paper_Space
340
1E
  0
BLOCK_RECORD
  5
23
100
AcDbSymbolTableRecord
100
AcDbBlockTableRecord
  2
*Paper_Space0
340
26
  0
ENDTAB
  0
ENDSEC
  0
SECTION
  2
BLOCKS
  0
BLOCK
  5
20
100
AcDbEntity
  8
0
100
AcDbBlockBegin
  2
*Model_Space
 70
0
 10
0.0
 20
0.0
 30
0.0
  3
*Model_Space
  1

  0
ENDBLK
  5
21
100
AcDbEntity
  8
0
100
AcDbBlockEnd
  0
BLOCK
  5
1C
100
AcDbEntity
 67
1
  8
0
100
AcDbBlockBegin
  2
*Paper_Space
 70
0
 10
0.0
 20
0.0
 30
0.0
  3
*Paper_Space
  1

  0
ENDBLK
  5
1D
100
AcDbEntity
 67
1
  8
0
100
AcDbBlockEnd
  0
BLOCK
  5
24
100
AcDbEntity
  8
0
100
AcDbBlockBegin
  2
*Paper_Space0
 70
0
 10
0.0
 20
0.0
 30
0.0
  3
*Paper_Space0
  1

  0
ENDBLK
  5
25
100
AcDbEntity
  8
0
100
AcDbBlockEnd
  0
ENDSEC
  0
SECTION
  2
ENTITIES
  0
CIRCLE
  5
46
100
AcDbEntity
100
AcDbCircle
  8
skel
 62
256
370
-1
  6
ByLayer
 10
0.0
 20
0.0
 30
0.0
 40
2.0
  0
LINE
  5
47
100
AcDbEntity
100
AcDbLine
  8
skel
 62
256
370
-1
  6
ByLayer
 10
0.0
 20
0.0
 30
0.0
 11
0.0000000000000007
 21
11.1799999999999997
 31
0.0
  0
LINE
  5
48
100
AcDbEntity
100
AcDbLine
  8
skel
 62
256
370
-1
  6
ByLayer
 10
0.0
 20
0.0
 30
0.0
 11
-27.1344299913357396
 21
-19.7143173618895453
 31
0.0
  0
LINE
  5
49
100
AcDbEntity
100
AcDbLine
  8
skel
 62
256
370
-1
  6
DOT
 10
8.9100652418836752
 20
-4.5399049973954728
 30
0.0
 11
-44.5503262094183796
 21
22.6995249869773659
 31
0.0
  0
LINE
  5
4A
100
AcDbEntity
100
AcDbLine
  8
skel
 62
256
370
-1
  6
ByLayer
 10
9.7726471913888169
 20
-2.846992601437575
 30
0.0
 11
-43.687744259913238
 21
24.3924373829352632
 31
0.0
  0
LINE
  5
4B
100
AcDbEntity
100
AcDbLine
  8
skel
 62
256
370
-1
  6
ByLayer
 10
8.0474832923785353
 20
-6.2328173933533702
 30
0.0
 11
-45.4129081589235213
 21
21.0066125910194685
 31
0.0
  0
CIRCLE
  5
4C
100
AcDbEntity
100
AcDbCircle
  8
skel
 62
256
370
-1
  6
ByLayer
 10
0.0000000000000007
 20
11.1799999999999997
 30
0.0
 40
4.0
  0
CIRCLE
  5
4D
100
AcDbEntity
100
AcDbCircle
  8
skel
 62
256
370
-1
  6
ByLayer
 10
-27.1344299913357396
 20
-19.7143173618895453
 30
0.0
 40
4.0
  0
LINE
  5
4E
100
AcDbEntity
100
AcDbLine
  8
skel
 62
256
370
-1
  6
ByLayer
 10
0.0000000000000007
 20
11.1799999999999997
 30
0.0
 11
-27.1344299913357396
 21
-19.7143173618895453
 31
0.0
  0
LINE
  5
4F
100
AcDbEntity
100
AcDbLine
  8
skel
 62
256
370
-1
  6
ByLayer
 10
-7.5134722379540531
 20
6.5990707625766305
 30
0.0
 11
7.5134722379540531
 21
-6.5990707625766305
 31
0.0
  0
LINE
  5
50
100
AcDbEntity
100
AcDbLine
  8
skel2
 62
256
370
-1
  6
ByLayer
 10
-6.7938875729319879
 20
0.1109134126507554
 30
0.0
 11
-23.8583093095059837
 21
-19.318043115832829
 31
0.0
  0
LINE
  5
51
100
AcDbEntity
100
AcDbLine
  8
skel2
 62
256
370
-1
  6
ByLayer
 10
-3.6891281128152373
 20
0.3120817372337883
 30
0.0
 11
-3.2998653815903616
 21
-0.0298071028700904
 31
0.0
  0
ARC
  5
52
100
AcDbEntity
  8
skel2
 62
256
370
-1
  6
ByLayer
100
AcDbCircle
 10
-5.1409236805820964
 20
-1.3408821551161034
 30
0.0
 40
2.2000000000000002
100
AcDbArc
 50
48.7072137154308749
 51
138.7072137154308962
  0
LINE
  5
53
100
AcDbEntity
100
AcDbLine
  8
skel2
 62
256
370
-1
  6
ByLayer
 10
-0.7855369772815195
 20
3.6180095219335713
 30
0.0
 11
-0.396274246056644
 21
3.2761206818296928
 31
0.0
  0
LINE
  5
54
100
AcDbEntity
100
AcDbLine
  8
skel2
 62
256
370
-1
  6
ByLayer
 10
0.0298071028700926
 20
7.8801346184096399
 30
0.0
 11
-0.9867053018645524
 21
6.7227689820503223
 31
0.0
  0
ARC
  5
55
100
AcDbEntity
  8
skel2
 62
256
370
-1
  6
ByLayer
100
AcDbCircle
 10
0.6662585904853391
 20
5.2709734142834632
 30
0.0
 40
2.2000000000000002
100
AcDbArc
 50
138.7072137154308678
 51
228.7072137154308962
  0
ARC
  5
56
100
AcDbEntity
  8
skel2
 62
256
370
-1
  6
ByLayer
100
AcDbCircle
 10
0.0000000000000007
 20
11.1799999999999997
 30
0.0
 40
3.2999999999999998
100
AcDbArc
 50
270.5175286112094568
 51
175.5771113612748877
  0
ARC
  5
57
100
AcDbEntity
  8
skel2
 62
256
370
-1
  6
ByLayer
100
AcDbCircle
 10
-5.4836211363500702
 20
11.6041452970088823
 30
0.0
 40
2.2000000000000002
100
AcDbArc
 50
318.7072137154308393
 51
355.5771113612748309
  0
LINE
  5
58
100
AcDbEntity
100
AcDbLine
  8
skel2
 62
256
370
-1
  6
ByLayer
 10
-3.8306572440001778
 20
10.1523497292420224
 30
0.0
 11
-26.609700532035319
 21
-15.7830759555978233
 31
0.0
  0
ARC
  5
59
100
AcDbEntity
  8
skel2
 62
256
370
-1
  6
ByLayer
100
AcDbCircle
 10
-27.1344299913357396
 20
-19.7143173618895453
 30
0.0
 40
3.2999999999999998
100
AcDbArc
 50
101.8373160695864783
 51
6.8968988196520673
  0
ARC
  5
5A
100
AcDbEntity
  8
skel2
 62
256
370
-1
  6
ByLayer
100
AcDbCircle
 10
-28.2626644243852034
 20
-14.331280387830958
 30
0.0
 40
2.2000000000000002
100
AcDbArc
 50
281.8373160695864499
 51
318.707213715430612
  0
ARC
  5
5B
100
AcDbEntity
  8
skel2
 62
256
370
-1
  6
ByLayer
100
AcDbCircle
 10
-0.0000000000000027
 20
0.0000000000000025
 30
0.0
 40
3.2999999999999998
100
AcDbArc
 50
180.5175286112092579
 51
300.9740683498213798
  0
ARC
  5
5C
100
AcDbEntity
  8
skel2
 62
256
370
-1
  6
ByLayer
100
AcDbCircle
 10
-0.0000000000000027
 20
0.0000000000000025
 30
0.0
 40
3.2999999999999998
100
AcDbArc
 50
5.0259316501784177
 51
96.8968988196522645
  0
ARC
  5
5D
100
AcDbEntity
  8
skel2
 62
256
370
-1
  6
ByLayer
100
AcDbCircle
 10
0.0
 20
0.0000000000000001
 30
0.0
 40
1.95
100
AcDbArc
 50
36.8230478283332658
 51
269.1769521716669828
  0
LINE
  5
5E
100
AcDbEntity
100
AcDbLine
  8
skel2
 62
256
370
-1
  6
ByLayer
 10
1.6983452459509225
 20
-2.8294210407000033
 30
0.0
 11
-0.0280105809316495
 21
-1.9497988120203331
 31
0.0
  0
LINE
  5
5F
100
AcDbEntity
100
AcDbLine
  8
skel2
 62
256
370
-1
  6
ByLayer
 10
3.2873119950393397
 20
0.2891017939592824
 30
0.0
 11
1.5609561681567552
 21
1.1687240226389588
 31
0.0
  0
ARC
  5
60
100
AcDbEntity
  8
cut
 62
256
370
-1
  6
ByLayer
100
AcDbCircle
 10
0.0000000000000007
 20
11.1799999999999997
 30
0.0
 40
3.2999999999999998
100
AcDbArc
 50
270.5175286112094568
 51
175.5771113612748877
  0
ARC
  5
61
100
AcDbEntity
  8
cut
 62
256
370
-1
  6
ByLayer
100
AcDbCircle
 10
-5.4836211363500702
 20
11.6041452970088823
 30
0.0
 40
2.2000000000000002
100
AcDbArc
 50
318.7072137154308393
 51
355.5771113612748309
  0
LINE
  5
62
100
AcDbEntity
100
AcDbLine
  8
cut
 62
256
370
-1
  6
ByLayer
 10
-3.8306572440001778
 20
10.1523497292420224
 30
0.0
 11
-26.609700532035319
 21
-15.7830759555978233
 31
0.0
  0
ARC
  5
63
100
AcDbEntity
  8
cut
 62
256
370
-1
  6
ByLayer
100
AcDbCircle
 10
-27.1344299913357396
 20
-19.7143173618895453
 30
0.0
 40
3.2999999999999998
100
AcDbArc
 50
101.8373160695864783
 51
6.8968988196520673
  0
ARC
  5
64
100
AcDbEntity
  8
cut
 62
256
370
-1
  6
ByLayer
100
AcDbCircle
 10
-28.2626644243852034
 20
-14.331280387830958
 30
0.0
 40
2.2000000000000002
100
AcDbArc
 50
281.8373160695864499
 51
318.707213715430612
  0
ARC
  5
65
100
AcDbEntity
  8
cut
 62
256
370
-1
  6
ByLayer
100
AcDbCircle
 10
0.0
 20
0.0000000000000001
 30
0.0
 40
1.95
100
AcDbArc
 50
36.8230478283332658
 51
269.1769521716669828
  0
CIRCLE
  5
66
100
AcDbEntity
100
AcDbCircle
  8
cut
 62
256
370
-1
  6
ByLayer
 10
0.0000000000000007
 20
11.1799999999999997
 30
0.0
 40
0.8
  0
CIRCLE
  5
67
100
AcDbEntity
100
AcDbCircle
  8
cut
 62
256
370
-1
  6
ByLayer
 10
-27.1344299913357396
 20
-19.7143173618895453
 30
0.0
 40
0.8
  0
LINE
  5
68
100
AcDbEntity
100
AcDbLine
  8
cut
 62
256
370
-1
  6
ByLayer
 10
2.2794199957914465
 20
0.8026484179179045
 30
0.0
 11
1.5609561681567552
 21
1.1687240226389588
 31
0.0
  0
ARC
  5
69
100
AcDbEntity
  8
cut
 62
256
370
-1
  6
ByLayer
100
AcDbCircle
 10
2.5064152456612199
 20
1.2481516800120882
 30
0.0
 40
0.5
100
AcDbArc
 50
243.0
 51
26.4725149183376658
  0
LINE
  5
6A
100
AcDbEntity
100
AcDbLine
  8
cut
 62
256
370
-1
  6
ByLayer
 10
0.6904532467030287
 20
-2.3158744167413809
 30
0.0
 11
-0.0280105809316495
 21
-1.9497988120203331
 31
0.0
  0
ARC
  5
6B
100
AcDbEntity
  8
cut
 62
256
370
-1
  6
ByLayer
100
AcDbCircle
 10
0.4634579968332551
 20
-2.7613776788355646
 30
0.0
 40
0.5
100
AcDbArc
 50
279.527485081662121
 51
62.9999999999999716
  0
ARC
  5
6C
100
AcDbEntity
  8
cut
 62
256
370
-1
  6
ByLayer
100
AcDbCircle
 10
-0.0000000000000027
 20
0.0000000000000025
 30
0.0
 40
3.2999999999999998
100
AcDbArc
 50
26.4725149183376516
 51
47.8934695312804593
  0
ARC
  5
6D
100
AcDbEntity
  8
cut
 62
256
370
-1
  6
ByLayer
100
AcDbCircle
 10
-0.0000000000000027
 20
0.0000000000000025
 30
0.0
 40
3.2999999999999998
100
AcDbArc
 50
227.3919205844257192
 51
279.5274850816622347
  0
LINE
  5
6E
100
AcDbEntity
100
AcDbLine
  8
cut
 62
256
370
-1
  6
ByLayer
 10
0.0298071028700926
 20
7.8801346184096399
 30
0.0
 11
-0.3930085623721066
 21
7.3987314213739195
 31
0.0
  0
LINE
  5
6F
100
AcDbEntity
100
AcDbLine
  8
cut
 62
256
370
-1
  6
ByLayer
 10
-0.2101282672966227
 20
4.5762228212677831
 30
0.0
 11
2.2126869060794614
 21
2.4482680930944838
 31
0.0
  0
ARC
  5
70
100
AcDbEntity
  8
cut
 62
256
370
-1
  6
ByLayer
100
AcDbCircle
 10
1.1096858852187039
 20
6.0789172688585937
 30
0.0
 40
2.0
100
AcDbArc
 50
138.7072137154308962
 51
228.7072137154308678
  0
LINE
  5
71
100
AcDbEntity
100
AcDbLine
  8
cut
 62
256
370
-1
  6
ByLayer
 10
-8.7070443113174782
 20
-2.0673402472784126
 30
0.0
 11
-23.8583093095059837
 21
-19.318043115832829
 31
0.0
  0
LINE
  5
72
100
AcDbEntity
100
AcDbLine
  8
cut
 62
256
370
-1
  6
ByLayer
 10
-3.062027111105206
 20
-1.7015796571274433
 30
0.0
 11
-2.2340332138477477
 21
-2.4288053852511742
 31
0.0
  0
ARC
  5
73
100
AcDbEntity
  8
cut
 62
256
370
-1
  6
ByLayer
100
AcDbCircle
 10
-5.7016554161358588
 20
-4.7069685523090659
 30
0.0
 40
4.0
100
AcDbArc
 50
48.7072137154308962
 51
138.7072137154308678
  0
ENDSEC
  0
SECTION
  2
OBJECTS
  0
DICTIONARY
  5
C
100
AcDbDictionary
280
0
281
1
  3
ACAD_GROUP
350
D
  3
ACAD_LAYOUT
350
1A
  3
ACAD_MLINESTYLE
350
17
  3
ACAD_PLOTSETTINGS
350
19
  3
ACAD_PLOTSTYLENAME
350
E
  3
AcDbVariableDictionary
350
74
  0
DICTIONARY
  5
D
100
AcDbDictionary
280
0
281
1
  0
ACDBDICTIONARYWDFLT
  5
E
100
AcDbDictionary
281
1
  3
Normal
350
F
100
AcDbDictionaryWithDefault
340
F
  0
ACDBPLACEHOLDER
  5
F
  0
DICTIONARY
  5
17
100
AcDbDictionary
280
0
281
1
  3
Standard
350
18
  0
MLINESTYLE
  5
18
100
AcDbMlineStyle
  2
STANDARD
 70
0
  3

 62
256
 51
90.0
 52
90.0
 71
2
 49
0.5
 62
256
  6
BYLAYER
 49
-0.5
 62
256
  6
BYLAYER
  0
DICTIONARY
  5
19
100
AcDbDictionary
280
0
281
1
  0
DICTIONARY
  5
1A
100
AcDbDictionary
281
1
  3
Layout1
350
1E
  3
Layout2
350
26
  3
Model
350
22
  0
LAYOUT
  5
1E
100
AcDbPlotSettings
  1

  2
C:\Program Files\AutoCAD 2002\plotters\DWF ePlot (optimized for plotting).pc3
  4

  6

 40
0.0
 41
0.0
 42
0.0
 43
0.0
 44
0.0
 45
0.0
 46
0.0
 47
0.0
 48
0.0
 49
0.0
140
0.0
141
0.0
142
1.0
143
1.0
 70
688
 72
0
 73
0
 74
5
  7

 75
16
147
1.0
148
0.0
149
0.0
100
AcDbLayout
  1
Layout1
 70
1
 71
1
 10
0.0
 20
0.0
 11
420.0
 21
297.0
 12
0.0
 22
0.0
 32
0.0
 14
100000000000000000000.0
 24
100000000000000000000.0
 34
100000000000000000000.0
 15
-100000000000000000000.0
 25
-100000000000000000000.0
 35
-100000000000000000000.0
146
0.0
 13
0.0
 23
0.0
 33
0.0
 16
1.0
 26
0.0
 36
0.0
 17
0.0
 27
1.0
 37
0.0
 76
0
330
1B
  0
LAYOUT
  5
22
100
AcDbPlotSettings
  1

  2
C:\Program Files\AutoCAD 2002\plotters\DWF ePlot (optimized for plotting).pc3
  4

  6

 40
0.0
 41
0.0
 42
0.0
 43
0.0
 44
0.0
 45
0.0
 46
0.0
 47
0.0
 48
0.0
 49
0.0
140
0.0
141
0.0
142
1.0
143
1.0
 70
1712
 72
0
 73
0
 74
0
  7

 75
0
147
1.0
148
0.0
149
0.0
100
AcDbLayout
  1
Model
 70
1
 71
0
 10
0.0
 20
0.0
 11
12.0
 21
9.0
 12
0.0
 22
0.0
 32
0.0
 14
0.0
 24
0.0
 34
0.0
 15
0.0
 25
0.0
 35
0.0
146
0.0
 13
0.0
 23
0.0
 33
0.0
 16
1.0
 26
0.0
 36
0.0
 17
0.0
 27
1.0
 37
0.0
 76
0
330
1F
  0
LAYOUT
  5
26
100
AcDbPlotSettings
  1

  2
C:\Program Files\AutoCAD 2002\plotters\DWF ePlot (optimized for plotting).pc3
  4

  6

 40
0.0
 41
0.0
 42
0.0
 43
0.0
 44
0.0
 45
0.0
 46
0.0
 47
0.0
 48
0.0
 49
0.0
140
0.0
141
0.0
142
1.0
143
1.0
 70
688
 72
0
 73
0
 74
5
  7

 75
16
147
1.0
148
0.0
149
0.0
100
AcDbLayout
  1
Layout2
 70
1
 71
2
 10
0.0
 20
0.0
 11
12.0
 21
9.0
 12
0.0
 22
0.0
 32
0.0
 14
0.0
 24
0.0
 34
0.0
 15
0.0
 25
0.0
 35
0.0
146
0.0
 13
0.0
 23
0.0
 33
0.0
 16
1.0
 26
0.0
 36
0.0
 17
0.0
 27
1.0
 37
0.0
 76
0
330
23
  0
DICTIONARY
  5
74
100
AcDbDictionary
281
1
  3
DIMASSOC
350
76
  3
HIDETEXT
350
75
  0
DICTIONARYVAR
  5
75
100
DictionaryVariables
280
0
  1
2
  0
DICTIONARYVAR
  5
76
100
DictionaryVariables
280
0
  1
1
  0
ENDSEC
  0
EOF
